<?xml version="1.0" encoding="utf-8"?>
<!-- Generator: Adobe Illustrator 23.0.2, SVG Export Plug-In . SVG Version: 6.00 Build 0)  -->
<svg version="1.1" id="图层_1" xmlns="http://www.w3.org/2000/svg" xmlns:xlink="http://www.w3.org/1999/xlink" x="0px" y="0px"
	 viewBox="0 0 700 525" style="enable-background:new 0 0 700 525;" xml:space="preserve">
<style type="text/css">
	.st0{font-family:'Arial-BoldMT';}
	.st1{font-size:18.3333px;}
	.st2{fill:none;stroke:#262626;stroke-width:0.8333;stroke-linecap:square;stroke-linejoin:round;stroke-miterlimit:10;}
	.st3{fill:#262626;}
	.st4{font-family:'TimesNewRomanPSMT';}
	.st5{font-size:16.6667px;}
	.st6{font-size:15px;}
	.st7{fill:none;stroke:#333333;stroke-width:0.8333;stroke-linecap:square;stroke-linejoin:round;stroke-miterlimit:10;}
</style>
<g>
	<g transform="translate(324.0003,36.25)">
		<text transform="matrix(1 0 0 1 -208.5 -5)" class="st0 st1">Model resolution matrix (the diagonal elements)</text>
	</g>
	<g transform="matrix(0.5,0,0,0.5,81,39)">
		<g>
			<defs>
				<rect id="SVGID_1_" x="243" y="214" width="486" height="428"/>
			</defs>
			<clipPath id="SVGID_2_">
				<use xlink:href="#SVGID_1_"  style="overflow:visible;"/>
			</clipPath>
			<g style="clip-path:url(#SVGID_2_);enable-background:new    ;">
				
					<image style="overflow:visible;" width="972" height="856" xlink:href="5AA39D51.png"  transform="matrix(1 0 0 1 0 -8.650588e-06)">
				</image>
			</g>
		</g>
	</g>
	<g>
		<line class="st2" x1="81" y1="467" x2="567" y2="467"/>
		<line class="st2" x1="81" y1="39" x2="567" y2="39"/>
		<line class="st2" x1="162" y1="467" x2="162" y2="462.1"/>
		<line class="st2" x1="324" y1="467" x2="324" y2="462.1"/>
		<line class="st2" x1="486" y1="467" x2="486" y2="462.1"/>
		<line class="st2" x1="162" y1="39" x2="162" y2="43.9"/>
		<line class="st2" x1="324" y1="39" x2="324" y2="43.9"/>
		<line class="st2" x1="486" y1="39" x2="486" y2="43.9"/>
	</g>
	<g transform="translate(162,473.6667)">
		<text transform="matrix(1 0 0 1 -5 17)" class="st3 st4 st5">1</text>
	</g>
	<g transform="translate(324,473.6667)">
		<text transform="matrix(1 0 0 1 -5 17)" class="st3 st4 st5">2</text>
	</g>
	<g transform="translate(486,473.6667)">
		<text transform="matrix(1 0 0 1 -5 17)" class="st3 st4 st5">3</text>
	</g>
	<g>
		<line class="st2" x1="81" y1="39" x2="81" y2="467"/>
		<line class="st2" x1="567" y1="39" x2="567" y2="467"/>
		<line class="st2" x1="81" y1="110.3" x2="85.9" y2="110.3"/>
		<line class="st2" x1="81" y1="253" x2="85.9" y2="253"/>
		<line class="st2" x1="81" y1="395.7" x2="85.9" y2="395.7"/>
		<line class="st2" x1="567" y1="110.3" x2="562.1" y2="110.3"/>
		<line class="st2" x1="567" y1="253" x2="562.1" y2="253"/>
		<line class="st2" x1="567" y1="395.7" x2="562.1" y2="395.7"/>
	</g>
	<g transform="translate(74.3333,110.3333)">
		<text transform="matrix(1 0 0 1 -10 6.5)" class="st3 st4 st5">1</text>
	</g>
	<g transform="translate(74.3333,253)">
		<text transform="matrix(1 0 0 1 -10 6.5)" class="st3 st4 st5">2</text>
	</g>
	<g transform="translate(74.3333,395.6667)">
		<text transform="matrix(1 0 0 1 -10 6.5)" class="st3 st4 st5">3</text>
	</g>
	<g>
		<line class="st2" x1="580" y1="467" x2="607" y2="467"/>
		<line class="st2" x1="580" y1="39" x2="607" y2="39"/>
		<line class="st2" x1="580" y1="467" x2="580" y2="39"/>
		<line class="st2" x1="607" y1="467" x2="607" y2="39"/>
	</g>
	<g transform="matrix(0.5,0,0,0.5,580,39)">
		<g>
			<defs>
				<rect id="SVGID_3_" x="13.5" y="214" width="27" height="428"/>
			</defs>
			<clipPath id="SVGID_4_">
				<use xlink:href="#SVGID_3_"  style="overflow:visible;"/>
			</clipPath>
			<g style="clip-path:url(#SVGID_4_);enable-background:new    ;">
				
					<image style="overflow:visible;" width="54" height="856" xlink:href="5AA39D53.png"  transform="matrix(1 0 0 1 0 -8.650588e-06)">
				</image>
			</g>
		</g>
	</g>
	<g>
		<line class="st2" x1="607" y1="467" x2="607" y2="39"/>
		<line class="st2" x1="607" y1="424.2" x2="602.7" y2="424.2"/>
		<line class="st2" x1="607" y1="360" x2="602.7" y2="360"/>
		<line class="st2" x1="607" y1="295.8" x2="602.7" y2="295.8"/>
		<line class="st2" x1="607" y1="231.6" x2="602.7" y2="231.6"/>
		<line class="st2" x1="607" y1="167.4" x2="602.7" y2="167.4"/>
		<line class="st2" x1="607" y1="103.2" x2="602.7" y2="103.2"/>
		<line class="st2" x1="607" y1="39" x2="602.7" y2="39"/>
	</g>
	<g transform="translate(613.3333,424.2)">
		<text transform="matrix(1 0 0 1 0 6)" class="st3 st4 st6">0.7</text>
	</g>
	<g transform="translate(613.3333,360)">
		<text transform="matrix(1 0 0 1 0 6)" class="st3 st4 st6">0.75</text>
	</g>
	<g transform="translate(613.3333,295.8)">
		<text transform="matrix(1 0 0 1 0 6)" class="st3 st4 st6">0.8</text>
	</g>
	<g transform="translate(613.3333,231.6)">
		<text transform="matrix(1 0 0 1 0 6)" class="st3 st4 st6">0.85</text>
	</g>
	<g transform="translate(613.3333,167.4)">
		<text transform="matrix(1 0 0 1 0 6)" class="st3 st4 st6">0.9</text>
	</g>
	<g transform="translate(613.3333,103.2)">
		<text transform="matrix(1 0 0 1 0 6)" class="st3 st4 st6">0.95</text>
	</g>
	<g transform="translate(613.3333,39)">
		<text transform="matrix(1 0 0 1 0 6)" class="st3 st4 st6">1</text>
	</g>
	<g>
		<line class="st2" x1="580" y1="39" x2="607" y2="39"/>
		<line class="st2" x1="580" y1="467" x2="607" y2="467"/>
		<line class="st2" x1="580" y1="467" x2="580" y2="39"/>
		<line class="st2" x1="607" y1="467" x2="607" y2="39"/>
		<line class="st7" x1="580" y1="467" x2="580" y2="467"/>
		<line class="st7" x1="580" y1="39" x2="580" y2="39"/>
		<line class="st7" x1="607" y1="467" x2="607" y2="467"/>
		<line class="st7" x1="607" y1="39" x2="607" y2="39"/>
	</g>
</g>
</svg>
