<?xml version="1.0" encoding="utf-8"?>
<!-- Generator: Adobe Illustrator 23.0.2, SVG Export Plug-In . SVG Version: 6.00 Build 0)  -->
<svg version="1.1" id="图层_1" xmlns="http://www.w3.org/2000/svg" xmlns:xlink="http://www.w3.org/1999/xlink" x="0px" y="0px"
	 viewBox="0 0 1141.1 506.7" style="enable-background:new 0 0 1141.1 506.7;" xml:space="preserve">
<style type="text/css">
	.st0{fill:#FFFFFF;}
	.st1{font-family:'Arial-BoldMT';}
	.st2{font-size:18.33px;}
	.st3{clip-path:url(#SVGID_2_);}
	.st4{fill:none;stroke:#262626;stroke-width:0.83;stroke-linecap:square;stroke-linejoin:round;}
	.st5{fill:#262626;}
	.st6{font-family:'TimesNewRomanPSMT';}
	.st7{font-size:16.67px;}
	.st8{clip-path:url(#SVGID_4_);}
	.st9{clip-path:url(#SVGID_6_);}
	.st10{font-size:15px;}
	.st11{fill:none;stroke:#333333;stroke-width:0.83;stroke-linecap:square;stroke-linejoin:round;}
	.st12{font-family:'ArialMT';}
	.st13{font-size:18px;}
	.st14{fill:none;}
</style>
<title>hw4e24</title>
<path class="st0" d="M42.4,451.5h486v-428h-486L42.4,451.5z"/>
<text transform="matrix(1 0 0 1 219.4 15.73)" class="st1 st2">The true model</text>
<g>
	<defs>
		<rect id="SVGID_1_" x="42.4" y="23.5" width="486" height="428"/>
	</defs>
	<clipPath id="SVGID_2_">
		<use xlink:href="#SVGID_1_"  style="overflow:visible;"/>
	</clipPath>
	<g class="st3">
		
			<image style="overflow:visible;enable-background:new    ;" width="973" height="857" xlink:href="14B1F198.png"  transform="matrix(0.4994 0 0 0.4994 42.4338 23.48)">
		</image>
	</g>
</g>
<line class="st4" x1="42.4" y1="451.5" x2="528.4" y2="451.5"/>
<line class="st4" x1="42.4" y1="23.5" x2="528.4" y2="23.5"/>
<line class="st4" x1="123.4" y1="451.5" x2="123.4" y2="446.6"/>
<line class="st4" x1="285.4" y1="451.5" x2="285.4" y2="446.6"/>
<line class="st4" x1="447.4" y1="451.5" x2="447.4" y2="446.6"/>
<line class="st4" x1="123.4" y1="23.5" x2="123.4" y2="28.3"/>
<line class="st4" x1="285.4" y1="23.5" x2="285.4" y2="28.3"/>
<line class="st4" x1="447.4" y1="23.5" x2="447.4" y2="28.3"/>
<text transform="matrix(1 0 0 1 118.4 475.15)" class="st5 st6 st7">1</text>
<text transform="matrix(1 0 0 1 280.4 475.15)" class="st5 st6 st7">2</text>
<text transform="matrix(1 0 0 1 442.4 475.15)" class="st5 st6 st7">3</text>
<text transform="matrix(1 0 0 1 282.9 499.81)" class="st5 st1 st2">j</text>
<line class="st4" x1="42.4" y1="23.5" x2="42.4" y2="451.5"/>
<line class="st4" x1="528.4" y1="23.5" x2="528.4" y2="451.5"/>
<line class="st4" x1="42.4" y1="94.8" x2="47.3" y2="94.8"/>
<line class="st4" x1="42.4" y1="237.5" x2="47.3" y2="237.5"/>
<line class="st4" x1="42.4" y1="380.1" x2="47.3" y2="380.1"/>
<line class="st4" x1="528.4" y1="94.8" x2="523.5" y2="94.8"/>
<line class="st4" x1="528.4" y1="237.5" x2="523.5" y2="237.5"/>
<line class="st4" x1="528.4" y1="380.1" x2="523.5" y2="380.1"/>
<text transform="matrix(1 0 0 1 25.73 101.31)" class="st5 st6 st7">1</text>
<text transform="matrix(1 0 0 1 25.73 243.98)" class="st5 st6 st7">2</text>
<text transform="matrix(1 0 0 1 25.73 386.65)" class="st5 st6 st7">3</text>
<text transform="matrix(6.123234e-17 -1 1 6.123234e-17 15.73 239.9799)" class="st5 st1 st2">i</text>
<text transform="matrix(1 0 0 1 703.06 15.73)" class="st1 st2">Generalized inverse solution</text>
<g>
	<defs>
		<rect id="SVGID_3_" x="585.1" y="23.5" width="486" height="428"/>
	</defs>
	<clipPath id="SVGID_4_">
		<use xlink:href="#SVGID_3_"  style="overflow:visible;"/>
	</clipPath>
	<g class="st8">
		
			<image style="overflow:visible;enable-background:new    ;" width="972" height="856" xlink:href="14B1F199.png"  transform="matrix(0.5 0 0 0.5 585.06 23.48)">
		</image>
	</g>
</g>
<line class="st4" x1="585.1" y1="451.5" x2="1071.1" y2="451.5"/>
<line class="st4" x1="585.1" y1="23.5" x2="1071.1" y2="23.5"/>
<line class="st4" x1="666.1" y1="451.5" x2="666.1" y2="446.6"/>
<line class="st4" x1="828.1" y1="451.5" x2="828.1" y2="446.6"/>
<line class="st4" x1="990.1" y1="451.5" x2="990.1" y2="446.6"/>
<line class="st4" x1="666.1" y1="23.5" x2="666.1" y2="28.3"/>
<line class="st4" x1="828.1" y1="23.5" x2="828.1" y2="28.3"/>
<line class="st4" x1="990.1" y1="23.5" x2="990.1" y2="28.3"/>
<text transform="matrix(1 0 0 1 661.06 475.15)" class="st5 st6 st7">1</text>
<text transform="matrix(1 0 0 1 823.06 475.15)" class="st5 st6 st7">2</text>
<text transform="matrix(1 0 0 1 985.0601 475.15)" class="st5 st6 st7">3</text>
<text transform="matrix(1 0 0 1 825.56 499.81)" class="st5 st1 st2">j</text>
<line class="st4" x1="585.1" y1="23.5" x2="585.1" y2="451.5"/>
<line class="st4" x1="1071.1" y1="23.5" x2="1071.1" y2="451.5"/>
<line class="st4" x1="585.1" y1="94.8" x2="589.9" y2="94.8"/>
<line class="st4" x1="585.1" y1="237.5" x2="589.9" y2="237.5"/>
<line class="st4" x1="585.1" y1="380.1" x2="589.9" y2="380.1"/>
<line class="st4" x1="1071.1" y1="94.8" x2="1066.2" y2="94.8"/>
<line class="st4" x1="1071.1" y1="237.5" x2="1066.2" y2="237.5"/>
<line class="st4" x1="1071.1" y1="380.1" x2="1066.2" y2="380.1"/>
<text transform="matrix(1 0 0 1 568.4 101.31)" class="st5 st6 st7">1</text>
<text transform="matrix(1 0 0 1 568.4 243.98)" class="st5 st6 st7">2</text>
<text transform="matrix(1 0 0 1 568.4 386.65)" class="st5 st6 st7">3</text>
<text transform="matrix(6.123234e-17 -1 1 6.123234e-17 558.4 239.9799)" class="st5 st1 st2">i</text>
<line class="st4" x1="1084.1" y1="451.5" x2="1111.1" y2="451.5"/>
<line class="st4" x1="1084.1" y1="23.5" x2="1111.1" y2="23.5"/>
<line class="st4" x1="1084.1" y1="451.5" x2="1084.1" y2="23.5"/>
<line class="st4" x1="1111.1" y1="451.5" x2="1111.1" y2="23.5"/>
<g>
	<defs>
		<rect id="SVGID_5_" x="1084.1" y="23.5" width="27" height="428"/>
	</defs>
	<clipPath id="SVGID_6_">
		<use xlink:href="#SVGID_5_"  style="overflow:visible;"/>
	</clipPath>
	<g class="st9">
		
			<image style="overflow:visible;enable-background:new    ;" width="54" height="856" xlink:href="14B1F19F.png"  transform="matrix(0.5 0 0 0.5 1084.0601 23.48)">
		</image>
	</g>
</g>
<line class="st4" x1="1111.1" y1="451.5" x2="1111.1" y2="23.5"/>
<line class="st4" x1="1111.1" y1="424.7" x2="1106.8" y2="424.7"/>
<line class="st4" x1="1111.1" y1="344.5" x2="1106.8" y2="344.5"/>
<line class="st4" x1="1111.1" y1="264.2" x2="1106.8" y2="264.2"/>
<line class="st4" x1="1111.1" y1="184" x2="1106.8" y2="184"/>
<line class="st4" x1="1111.1" y1="103.7" x2="1106.8" y2="103.7"/>
<line class="st4" x1="1111.1" y1="23.5" x2="1106.8" y2="23.5"/>
<text transform="matrix(1 0 0 1 1117.4 430.73)" class="st5 st6 st10">-1.5</text>
<text transform="matrix(1 0 0 1 1117.4 350.48)" class="st5 st6 st10">-1</text>
<text transform="matrix(1 0 0 1 1117.4 270.23)" class="st5 st6 st10">-0.5</text>
<text transform="matrix(1 0 0 1 1117.4 189.98)" class="st5 st6 st10">0</text>
<text transform="matrix(1 0 0 1 1117.4 109.73)" class="st5 st6 st10">0.5</text>
<text transform="matrix(1 0 0 1 1117.4 29.48)" class="st5 st6 st10">1</text>
<line class="st4" x1="1084.1" y1="23.5" x2="1111.1" y2="23.5"/>
<line class="st4" x1="1084.1" y1="451.5" x2="1111.1" y2="451.5"/>
<line class="st4" x1="1084.1" y1="451.5" x2="1084.1" y2="23.5"/>
<line class="st4" x1="1111.1" y1="451.5" x2="1111.1" y2="23.5"/>
<line class="st11" x1="1084.1" y1="451.5" x2="1084.1" y2="451.5"/>
<line class="st11" x1="1084.1" y1="23.5" x2="1084.1" y2="23.5"/>
<line class="st11" x1="1111.1" y1="451.5" x2="1111.1" y2="451.5"/>
<line class="st11" x1="1111.1" y1="23.5" x2="1111.1" y2="23.5"/>
<text transform="matrix(1 0 0 1 10.5 29.48)" class="st12 st13">(a)</text>
<polygon class="st14" points="16,24.9 5,24.9 5,24.9 16,24.9 "/>
<text transform="matrix(1 0 0 1 554.4 29.4802)" class="st12 st13">(b)</text>
</svg>
