<svg id="图层_1" data-name="图层 1" xmlns="http://www.w3.org/2000/svg" viewBox="0 0 1251.57 508.69"><defs><style>.cls-1,.cls-11,.cls-15,.cls-2,.cls-3,.cls-5,.cls-7{fill:none;}.cls-1,.cls-15,.cls-3{stroke:#000;}.cls-1{stroke-linecap:square;}.cls-1,.cls-15,.cls-2,.cls-7{stroke-linejoin:round;stroke-width:0.83px;}.cls-2{stroke:#0072bd;}.cls-11,.cls-3,.cls-5{stroke-miterlimit:10;}.cls-10,.cls-4{fill:#262626;}.cls-11,.cls-5{stroke:#ffffdc;stroke-width:1.67px;}.cls-6{fill:#fafaff;}.cls-7{stroke:#595959;}.cls-8{fill:#404040;}.cls-9{fill:#09f;}.cls-10{fill-opacity:0.39;}.cls-11{stroke-opacity:0.39;}.cls-12,.cls-13,.cls-14{isolation:isolate;}.cls-12{font-size:16.67px;}.cls-12,.cls-13{font-family:ArialMT, Arial;}.cls-13,.cls-14{font-size:18.33px;}.cls-14{font-family:Arial-BoldMT, Arial;font-weight:700;}</style></defs><title>1</title><line class="cls-1" x1="65.11" y1="446.69" x2="608.11" y2="446.69"/><line class="cls-1" x1="65.11" y1="26.69" x2="608.11" y2="26.69"/><line class="cls-1" x1="84.01" y1="446.69" x2="84.01" y2="441.26"/><line class="cls-1" x1="228.66" y1="446.69" x2="228.66" y2="441.26"/><line class="cls-1" x1="373.31" y1="446.69" x2="373.31" y2="441.26"/><line class="cls-1" x1="517.97" y1="446.69" x2="517.97" y2="441.26"/><line class="cls-1" x1="84.01" y1="26.69" x2="84.01" y2="32.12"/><line class="cls-1" x1="228.66" y1="26.69" x2="228.66" y2="32.12"/><line class="cls-1" x1="373.31" y1="26.69" x2="373.31" y2="32.12"/><line class="cls-1" x1="517.97" y1="26.69" x2="517.97" y2="32.12"/><line class="cls-1" x1="70" y1="446.69" x2="70" y2="443.98"/><line class="cls-1" x1="77.39" y1="446.69" x2="77.39" y2="443.98"/><line class="cls-1" x1="84.01" y1="446.69" x2="84.01" y2="443.98"/><line class="cls-1" x1="84.01" y1="446.69" x2="84.01" y2="443.98"/><line class="cls-1" x1="127.56" y1="446.69" x2="127.56" y2="443.98"/><line class="cls-1" x1="153.03" y1="446.69" x2="153.03" y2="443.98"/><line class="cls-1" x1="171.1" y1="446.69" x2="171.1" y2="443.98"/><line class="cls-1" x1="185.12" y1="446.69" x2="185.12" y2="443.98"/><line class="cls-1" x1="196.57" y1="446.69" x2="196.57" y2="443.98"/><line class="cls-1" x1="206.26" y1="446.69" x2="206.26" y2="443.98"/><line class="cls-1" x1="214.65" y1="446.69" x2="214.65" y2="443.98"/><line class="cls-1" x1="222.04" y1="446.69" x2="222.04" y2="443.98"/><line class="cls-1" x1="228.66" y1="446.69" x2="228.66" y2="443.98"/><line class="cls-1" x1="272.21" y1="446.69" x2="272.21" y2="443.98"/><line class="cls-1" x1="297.68" y1="446.69" x2="297.68" y2="443.98"/><line class="cls-1" x1="315.75" y1="446.69" x2="315.75" y2="443.98"/><line class="cls-1" x1="329.77" y1="446.69" x2="329.77" y2="443.98"/><line class="cls-1" x1="341.22" y1="446.69" x2="341.22" y2="443.98"/><line class="cls-1" x1="350.91" y1="446.69" x2="350.91" y2="443.98"/><line class="cls-1" x1="359.3" y1="446.69" x2="359.3" y2="443.98"/><line class="cls-1" x1="366.7" y1="446.69" x2="366.7" y2="443.98"/><line class="cls-1" x1="373.31" y1="446.69" x2="373.31" y2="443.98"/><line class="cls-1" x1="416.86" y1="446.69" x2="416.86" y2="443.98"/><line class="cls-1" x1="442.33" y1="446.69" x2="442.33" y2="443.98"/><line class="cls-1" x1="460.4" y1="446.69" x2="460.4" y2="443.98"/><line class="cls-1" x1="474.42" y1="446.69" x2="474.42" y2="443.98"/><line class="cls-1" x1="485.87" y1="446.69" x2="485.87" y2="443.98"/><line class="cls-1" x1="495.56" y1="446.69" x2="495.56" y2="443.98"/><line class="cls-1" x1="503.95" y1="446.69" x2="503.95" y2="443.98"/><line class="cls-1" x1="511.35" y1="446.69" x2="511.35" y2="443.98"/><line class="cls-1" x1="517.97" y1="446.69" x2="517.97" y2="443.98"/><line class="cls-1" x1="561.51" y1="446.69" x2="561.51" y2="443.98"/><line class="cls-1" x1="586.98" y1="446.69" x2="586.98" y2="443.98"/><line class="cls-1" x1="605.05" y1="446.69" x2="605.05" y2="443.98"/><line class="cls-1" x1="70" y1="26.69" x2="70" y2="29.41"/><line class="cls-1" x1="77.39" y1="26.69" x2="77.39" y2="29.41"/><line class="cls-1" x1="84.01" y1="26.69" x2="84.01" y2="29.41"/><line class="cls-1" x1="84.01" y1="26.69" x2="84.01" y2="29.41"/><line class="cls-1" x1="127.56" y1="26.69" x2="127.56" y2="29.41"/><line class="cls-1" x1="153.03" y1="26.69" x2="153.03" y2="29.41"/><line class="cls-1" x1="171.1" y1="26.69" x2="171.1" y2="29.41"/><line class="cls-1" x1="185.12" y1="26.69" x2="185.12" y2="29.41"/><line class="cls-1" x1="196.57" y1="26.69" x2="196.57" y2="29.41"/><line class="cls-1" x1="206.26" y1="26.69" x2="206.26" y2="29.41"/><line class="cls-1" x1="214.65" y1="26.69" x2="214.65" y2="29.41"/><line class="cls-1" x1="222.04" y1="26.69" x2="222.04" y2="29.41"/><line class="cls-1" x1="228.66" y1="26.69" x2="228.66" y2="29.41"/><line class="cls-1" x1="272.21" y1="26.69" x2="272.21" y2="29.41"/><line class="cls-1" x1="297.68" y1="26.69" x2="297.68" y2="29.41"/><line class="cls-1" x1="315.75" y1="26.69" x2="315.75" y2="29.41"/><line class="cls-1" x1="329.77" y1="26.69" x2="329.77" y2="29.41"/><line class="cls-1" x1="341.22" y1="26.69" x2="341.22" y2="29.41"/><line class="cls-1" x1="350.91" y1="26.69" x2="350.91" y2="29.41"/><line class="cls-1" x1="359.3" y1="26.69" x2="359.3" y2="29.41"/><line class="cls-1" x1="366.7" y1="26.69" x2="366.7" y2="29.41"/><line class="cls-1" x1="373.31" y1="26.69" x2="373.31" y2="29.41"/><line class="cls-1" x1="416.86" y1="26.69" x2="416.86" y2="29.41"/><line class="cls-1" x1="442.33" y1="26.69" x2="442.33" y2="29.41"/><line class="cls-1" x1="460.4" y1="26.69" x2="460.4" y2="29.41"/><line class="cls-1" x1="474.42" y1="26.69" x2="474.42" y2="29.41"/><line class="cls-1" x1="485.87" y1="26.69" x2="485.87" y2="29.41"/><line class="cls-1" x1="495.56" y1="26.69" x2="495.56" y2="29.41"/><line class="cls-1" x1="503.95" y1="26.69" x2="503.95" y2="29.41"/><line class="cls-1" x1="511.35" y1="26.69" x2="511.35" y2="29.41"/><line class="cls-1" x1="517.97" y1="26.69" x2="517.97" y2="29.41"/><line class="cls-1" x1="561.51" y1="26.69" x2="561.51" y2="29.41"/><line class="cls-1" x1="586.98" y1="26.69" x2="586.98" y2="29.41"/><line class="cls-1" x1="605.05" y1="26.69" x2="605.05" y2="29.41"/><path d="M110.17,508.44h-1.48v-9.52a7.79,7.79,0,0,1-1.42,1,12.46,12.46,0,0,1-1.58.77v-1.45a8.52,8.52,0,0,0,2.2-1.43,5.62,5.62,0,0,0,1.33-1.62h1Zm3.64-6a11,11,0,0,1,.45-3.48,4.19,4.19,0,0,1,1.32-2,3.38,3.38,0,0,1,2.2-.71,3.61,3.61,0,0,1,1.72.39,3.32,3.32,0,0,1,1.22,1.14,6.12,6.12,0,0,1,.75,1.81,11.62,11.62,0,0,1,.28,2.88,11.22,11.22,0,0,1-.44,3.45,4.3,4.3,0,0,1-1.31,2,3.4,3.4,0,0,1-2.22.72,3.36,3.36,0,0,1-2.77-1.25Q113.81,505.86,113.81,502.44Zm1.53,0c0,2,.24,3.33.7,4a2.08,2.08,0,0,0,1.74,1,2.05,2.05,0,0,0,1.73-1c.47-.66.71-2,.71-4s-.24-3.33-.71-4a2.07,2.07,0,0,0-1.75-1,1.9,1.9,0,0,0-1.64.88A7.65,7.65,0,0,0,115.34,502.44Z" transform="translate(-35.73 -32.74)"/><path d="M123.25,497.64V496.5h3.52v1.14Zm8.23,2.8V498.2h-4v-1l4.23-6h.94v6h1.27v1h-1.27v2.24Zm0-3.28V493l-2.92,4.19Z" transform="translate(-35.73 -32.74)"/><path d="M255.17,508.44h-1.48v-9.52a7.79,7.79,0,0,1-1.42,1,12.46,12.46,0,0,1-1.58.77v-1.45a8.52,8.52,0,0,0,2.2-1.43,5.62,5.62,0,0,0,1.33-1.62h.95Zm3.64-6a11,11,0,0,1,.45-3.48,4.19,4.19,0,0,1,1.32-2,3.38,3.38,0,0,1,2.2-.71,3.61,3.61,0,0,1,1.72.39,3.32,3.32,0,0,1,1.22,1.14,6.12,6.12,0,0,1,.75,1.81,11.62,11.62,0,0,1,.28,2.88,11.22,11.22,0,0,1-.44,3.45,4.3,4.3,0,0,1-1.31,2,3.4,3.4,0,0,1-2.22.72,3.36,3.36,0,0,1-2.77-1.25Q258.81,505.86,258.81,502.44Zm1.53,0c0,2,.24,3.33.7,4a2.08,2.08,0,0,0,1.74,1,2.05,2.05,0,0,0,1.73-1c.47-.66.71-2,.71-4s-.24-3.33-.71-4a2.07,2.07,0,0,0-1.75-1,1.9,1.9,0,0,0-1.64.88A7.65,7.65,0,0,0,260.34,502.44Z" transform="translate(-35.73 -32.74)"/><path d="M268.25,497.64V496.5h3.52v1.14Zm4.57.34,1.14-.15a2.59,2.59,0,0,0,.68,1.4,1.65,1.65,0,0,0,1.15.43,1.84,1.84,0,0,0,1.35-.56,1.88,1.88,0,0,0,.56-1.38,1.73,1.73,0,0,0-1.81-1.81,3.59,3.59,0,0,0-.82.12l.13-1,.19,0a2.33,2.33,0,0,0,1.32-.39,1.29,1.29,0,0,0,.58-1.18,1.35,1.35,0,0,0-.43-1,1.49,1.49,0,0,0-1.1-.42,1.53,1.53,0,0,0-1.11.42,2.25,2.25,0,0,0-.58,1.25l-1.14-.2a3,3,0,0,1,1-1.77,2.71,2.71,0,0,1,1.84-.64,3.05,3.05,0,0,1,1.41.33,2.49,2.49,0,0,1,1,.89,2.29,2.29,0,0,1,.34,1.21,1.93,1.93,0,0,1-.32,1.09,2.21,2.21,0,0,1-1,.78,2.28,2.28,0,0,1,1.28.8,2.39,2.39,0,0,1,.46,1.5,2.78,2.78,0,0,1-.89,2.07,3.13,3.13,0,0,1-2.25.85,2.9,2.9,0,0,1-2-.74A2.77,2.77,0,0,1,272.82,498Z" transform="translate(-35.73 -32.74)"/><path d="M399.17,508.44h-1.48v-9.52a7.79,7.79,0,0,1-1.42,1,12.46,12.46,0,0,1-1.58.77v-1.45a8.52,8.52,0,0,0,2.2-1.43,5.62,5.62,0,0,0,1.33-1.62h.95Zm3.64-6a11,11,0,0,1,.45-3.48,4.19,4.19,0,0,1,1.32-2,3.38,3.38,0,0,1,2.2-.71,3.61,3.61,0,0,1,1.72.39,3.32,3.32,0,0,1,1.22,1.14,6.12,6.12,0,0,1,.75,1.81,11.62,11.62,0,0,1,.28,2.88,11.22,11.22,0,0,1-.44,3.45,4.3,4.3,0,0,1-1.31,2,3.4,3.4,0,0,1-2.22.72,3.36,3.36,0,0,1-2.77-1.25Q402.81,505.86,402.81,502.44Zm1.53,0c0,2,.24,3.33.7,4a2.08,2.08,0,0,0,1.74,1,2.05,2.05,0,0,0,1.73-1c.47-.66.71-2,.71-4s-.24-3.33-.71-4a2.07,2.07,0,0,0-1.75-1,1.9,1.9,0,0,0-1.64.88A7.65,7.65,0,0,0,404.34,502.44Z" transform="translate(-35.73 -32.74)"/><path d="M412.25,497.64V496.5h3.52v1.14Zm10.57,1.7v1.1h-6.15a1.86,1.86,0,0,1,.14-.8,3.84,3.84,0,0,1,.75-1.23,10.61,10.61,0,0,1,1.5-1.41,12.67,12.67,0,0,0,2.05-2,2.37,2.37,0,0,0,.53-1.36,1.54,1.54,0,0,0-.49-1.15,1.73,1.73,0,0,0-1.26-.46,1.75,1.75,0,0,0-1.32.49,1.89,1.89,0,0,0-.51,1.37l-1.17-.13a2.91,2.91,0,0,1,.9-2,3.08,3.08,0,0,1,2.11-.69,2.94,2.94,0,0,1,2.13.75,2.41,2.41,0,0,1,.78,1.83,2.82,2.82,0,0,1-.23,1.1,4.1,4.1,0,0,1-.76,1.14,16.25,16.25,0,0,1-1.76,1.64,15.54,15.54,0,0,0-1.32,1.17,5,5,0,0,0-.48.62Z" transform="translate(-35.73 -32.74)"/><path d="M544.17,508.44h-1.48v-9.52a7.79,7.79,0,0,1-1.42,1,12.46,12.46,0,0,1-1.58.77v-1.45a8.52,8.52,0,0,0,2.2-1.43,5.62,5.62,0,0,0,1.33-1.62h.95Zm3.64-6a11,11,0,0,1,.45-3.48,4.19,4.19,0,0,1,1.32-2,3.38,3.38,0,0,1,2.2-.71,3.61,3.61,0,0,1,1.72.39,3.32,3.32,0,0,1,1.22,1.14,6.12,6.12,0,0,1,.75,1.81,11.62,11.62,0,0,1,.28,2.88,11.22,11.22,0,0,1-.44,3.45,4.3,4.3,0,0,1-1.31,2,3.4,3.4,0,0,1-2.22.72,3.36,3.36,0,0,1-2.77-1.25Q547.81,505.86,547.81,502.44Zm1.53,0c0,2,.24,3.33.7,4a2.08,2.08,0,0,0,1.74,1,2.05,2.05,0,0,0,1.73-1c.47-.66.71-2,.71-4s-.24-3.33-.71-4a2.07,2.07,0,0,0-1.75-1,1.9,1.9,0,0,0-1.64.88A7.65,7.65,0,0,0,549.34,502.44Z" transform="translate(-35.73 -32.74)"/><path d="M557.25,497.64V496.5h3.52v1.14Zm8.87,2.8H565v-7.28a6.57,6.57,0,0,1-1.09.79,6.73,6.73,0,0,1-1.19.58v-1.11a6.66,6.66,0,0,0,1.67-1.08,4.13,4.13,0,0,0,1-1.25h.73Z" transform="translate(-35.73 -32.74)"/><path d="M268.27,532.44V519.55H274a7.43,7.43,0,0,1,2.62.35,2.91,2.91,0,0,1,1.43,1.22,3.64,3.64,0,0,1,.54,1.94,3.18,3.18,0,0,1-.89,2.31,4.51,4.51,0,0,1-2.73,1.21,4.32,4.32,0,0,1,1,.64,9,9,0,0,1,1.43,1.72l2.23,3.5h-2.14l-1.7-2.69c-.5-.77-.92-1.36-1.24-1.77a3.64,3.64,0,0,0-.87-.86,2.49,2.49,0,0,0-.77-.34,5.31,5.31,0,0,0-.95-.06h-2v5.72Zm1.7-7.21h3.65a5.46,5.46,0,0,0,1.83-.24,2,2,0,0,0,1-.77,2.1,2.1,0,0,0,.35-1.16,1.92,1.92,0,0,0-.67-1.5,3.09,3.09,0,0,0-2.08-.59H270Zm17.68,4.21,1.64.2a4,4,0,0,1-1.44,2.22,4.82,4.82,0,0,1-5.92-.47,5,5,0,0,1-1.21-3.55,5.13,5.13,0,0,1,1.22-3.64,4.38,4.38,0,0,1,6.21,0,5.08,5.08,0,0,1,1.18,3.59c0,.09,0,.23,0,.42h-6.95a3.54,3.54,0,0,0,.86,2.36,2.63,2.63,0,0,0,1.95.81,2.46,2.46,0,0,0,1.49-.45A3,3,0,0,0,287.65,529.44Zm-5.21-2.57h5.22a3.24,3.24,0,0,0-.59-1.76,2.43,2.43,0,0,0-2-.92,2.47,2.47,0,0,0-1.82.73A3,3,0,0,0,282.44,526.87Zm8.36,2.79,1.58-.25a2.13,2.13,0,0,0,.72,1.43,2.55,2.55,0,0,0,1.68.5,2.48,2.48,0,0,0,1.63-.44,1.34,1.34,0,0,0,.53-1,1,1,0,0,0-.47-.84,7.12,7.12,0,0,0-1.62-.54,15.12,15.12,0,0,1-2.41-.75,2.35,2.35,0,0,1-1-.89,2.3,2.3,0,0,1-.35-1.26,2.43,2.43,0,0,1,.28-1.16,2.72,2.72,0,0,1,.78-.87,3.06,3.06,0,0,1,1-.47,4.66,4.66,0,0,1,1.36-.19,5.44,5.44,0,0,1,1.94.32,2.69,2.69,0,0,1,1.23.86,3.38,3.38,0,0,1,.54,1.45l-1.55.2a1.73,1.73,0,0,0-.61-1.13,2.2,2.2,0,0,0-1.42-.4,2.6,2.6,0,0,0-1.56.36,1,1,0,0,0-.47.84.82.82,0,0,0,.2.56,1.3,1.3,0,0,0,.59.42c.17.06.64.19,1.41.41a19,19,0,0,1,2.34.73,2.39,2.39,0,0,1,1,.83,2.29,2.29,0,0,1,.39,1.35,2.68,2.68,0,0,1-.47,1.5,2.88,2.88,0,0,1-1.33,1.08,4.78,4.78,0,0,1-2,.39,4.41,4.41,0,0,1-2.78-.76A3.53,3.53,0,0,1,290.8,529.66Zm9.81-8.29v-1.82h1.58v1.82Zm0,11.07v-9.33h1.58v9.33Zm10.12,0v-1.17a2.94,2.94,0,0,1-2.63,1.39,3.63,3.63,0,0,1-2-.62,4.11,4.11,0,0,1-1.46-1.72,6,6,0,0,1-.51-2.54,6.46,6.46,0,0,1,.47-2.54,3.65,3.65,0,0,1,3.48-2.35,3.08,3.08,0,0,1,1.5.36,3.35,3.35,0,0,1,1.08.92v-4.62h1.56v12.89Zm-5-4.66a4,4,0,0,0,.76,2.68,2.29,2.29,0,0,0,1.79.88,2.25,2.25,0,0,0,1.76-.84,3.93,3.93,0,0,0,.72-2.59,4.42,4.42,0,0,0-.73-2.81,2.27,2.27,0,0,0-3.59,0A4.28,4.28,0,0,0,305.71,527.78ZM321,532.44v-1.38a3.37,3.37,0,0,1-2.95,1.6,3.8,3.8,0,0,1-1.55-.32,2.58,2.58,0,0,1-1.06-.8,3.09,3.09,0,0,1-.49-1.18,8.56,8.56,0,0,1-.09-1.47v-5.78h1.58v5.17a10,10,0,0,0,.09,1.67,1.64,1.64,0,0,0,.64,1,2,2,0,0,0,1.19.35,2.61,2.61,0,0,0,1.34-.36,2,2,0,0,0,.89-1,5.08,5.08,0,0,0,.25-1.82v-5h1.58v9.33Zm10.17-1.16a5.75,5.75,0,0,1-1.7,1.06,4.76,4.76,0,0,1-1.74.32,3.41,3.41,0,0,1-2.37-.76,2.55,2.55,0,0,1-.82-1.93,2.52,2.52,0,0,1,.32-1.24,2.49,2.49,0,0,1,.81-.92,3.48,3.48,0,0,1,1.14-.51,10.54,10.54,0,0,1,1.4-.24,15.28,15.28,0,0,0,2.82-.54c0-.22,0-.36,0-.43a1.78,1.78,0,0,0-.45-1.36,2.7,2.7,0,0,0-1.8-.53,2.79,2.79,0,0,0-1.65.39,2.33,2.33,0,0,0-.78,1.39l-1.55-.21a3.92,3.92,0,0,1,.69-1.61,3,3,0,0,1,1.39-.94,6.29,6.29,0,0,1,2.14-.33,5.51,5.51,0,0,1,1.93.28,2.21,2.21,0,0,1,1.6,1.78,9.32,9.32,0,0,1,.08,1.47v2.11a21.94,21.94,0,0,0,.1,2.79,3.58,3.58,0,0,0,.4,1.12h-1.66A3.2,3.2,0,0,1,331.13,531.28Zm-.14-3.53a10.66,10.66,0,0,1-2.58.59,6.28,6.28,0,0,0-1.38.32,1.45,1.45,0,0,0-.62.52,1.39,1.39,0,0,0,.26,1.8,2,2,0,0,0,1.4.43,3.36,3.36,0,0,0,1.63-.4,2.48,2.48,0,0,0,1-1.09,4.05,4.05,0,0,0,.25-1.59Zm4.2,4.69V519.55h1.58v12.89Zm9.37,0V519.55h1.75l6.77,10.12V519.55h1.62v12.89H353l-6.78-10.13v10.13ZM357,527.77a4.81,4.81,0,0,1,1.45-3.85,4.33,4.33,0,0,1,2.92-1,4.19,4.19,0,0,1,3.16,1.27,4.81,4.81,0,0,1,1.22,3.48,6.17,6.17,0,0,1-.54,2.83,3.93,3.93,0,0,1-1.57,1.61,4.64,4.64,0,0,1-2.27.58,4.17,4.17,0,0,1-3.16-1.26A5,5,0,0,1,357,527.77Zm1.62,0a4,4,0,0,0,.78,2.68,2.49,2.49,0,0,0,2,.89,2.52,2.52,0,0,0,2-.89,4.08,4.08,0,0,0,.78-2.73,3.85,3.85,0,0,0-.79-2.63,2.61,2.61,0,0,0-3.93,0A4,4,0,0,0,358.63,527.77Zm9.14,4.67v-9.33h1.42v1.41a3.93,3.93,0,0,1,1-1.31,1.75,1.75,0,0,1,1-.32,3,3,0,0,1,1.62.52l-.53,1.46a2.44,2.44,0,0,0-1.17-.34,1.53,1.53,0,0,0-.93.31,1.71,1.71,0,0,0-.59.86,6.41,6.41,0,0,0-.26,1.85v4.89Zm6.11,0v-9.33h1.42v1.3a3.43,3.43,0,0,1,1.17-1.1,3.25,3.25,0,0,1,1.66-.42,3,3,0,0,1,1.7.43,2.31,2.31,0,0,1,.93,1.21,3.36,3.36,0,0,1,2.89-1.64,2.82,2.82,0,0,1,2.13.77,3.3,3.3,0,0,1,.74,2.37v6.41H385v-5.88a4.12,4.12,0,0,0-.16-1.37,1.26,1.26,0,0,0-.56-.67,1.75,1.75,0,0,0-.95-.25,2.17,2.17,0,0,0-1.63.65A2.87,2.87,0,0,0,381,527v5.42h-1.58v-6.07a2.65,2.65,0,0,0-.39-1.58,1.47,1.47,0,0,0-1.27-.52,2.23,2.23,0,0,0-1.23.35,2,2,0,0,0-.82,1,5.75,5.75,0,0,0-.26,2v4.85Zm20.81,3.78V519.33h1.38v16.89Zm4.76,0V519.33h1.38v16.89ZM410,527.39v-1.52h5.46v4.78a9.71,9.71,0,0,1-2.59,1.51,7.6,7.6,0,0,1-2.74.51,7.27,7.27,0,0,1-3.46-.82,5.37,5.37,0,0,1-2.34-2.35,7.35,7.35,0,0,1-.8-3.43,8,8,0,0,1,.79-3.51,5.31,5.31,0,0,1,2.27-2.43,7.05,7.05,0,0,1,3.4-.79,6.79,6.79,0,0,1,2.53.45,4.11,4.11,0,0,1,1.76,1.27,5.67,5.67,0,0,1,1,2.11l-1.55.42A4.67,4.67,0,0,0,413,522a3.08,3.08,0,0,0-1.23-.9,4.66,4.66,0,0,0-1.78-.33,5.18,5.18,0,0,0-2,.35,3.65,3.65,0,0,0-1.38.93,4.66,4.66,0,0,0-.82,1.28,6.86,6.86,0,0,0-.48,2.59,6.41,6.41,0,0,0,.59,2.89,3.84,3.84,0,0,0,1.73,1.72,5.26,5.26,0,0,0,2.4.56,5.77,5.77,0,0,0,2.16-.42,5.62,5.62,0,0,0,1.6-.92v-2.39Zm8,5.05v-9.33h1.42v1.3a3.43,3.43,0,0,1,1.17-1.1,3.25,3.25,0,0,1,1.66-.42,3,3,0,0,1,1.7.43,2.31,2.31,0,0,1,.93,1.21,3.36,3.36,0,0,1,2.89-1.64,2.82,2.82,0,0,1,2.13.77,3.3,3.3,0,0,1,.74,2.37v6.41h-1.56v-5.88a4.12,4.12,0,0,0-.16-1.37,1.26,1.26,0,0,0-.56-.67,1.75,1.75,0,0,0-.95-.25,2.17,2.17,0,0,0-1.63.65,2.87,2.87,0,0,0-.65,2.1v5.42h-1.58v-6.07a2.65,2.65,0,0,0-.39-1.58,1.47,1.47,0,0,0-1.27-.52,2.23,2.23,0,0,0-1.23.35,2,2,0,0,0-.82,1,5.75,5.75,0,0,0-.26,2v4.85Zm19.74-3.88V527h4.86v1.58Zm17.85,3.88v-1.17a2.93,2.93,0,0,1-2.62,1.39,3.68,3.68,0,0,1-2.05-.62,4.09,4.09,0,0,1-1.45-1.72,5.82,5.82,0,0,1-.52-2.54,6.64,6.64,0,0,1,.47-2.54,3.68,3.68,0,0,1,3.49-2.35,3.08,3.08,0,0,1,1.5.36,3.42,3.42,0,0,1,1.07.92v-4.62H457v12.89Zm-5-4.66a4,4,0,0,0,.76,2.68,2.27,2.27,0,0,0,1.78.88,2.24,2.24,0,0,0,1.76-.84,3.87,3.87,0,0,0,.73-2.59,4.41,4.41,0,0,0-.74-2.81,2.23,2.23,0,0,0-1.81-.9,2.21,2.21,0,0,0-1.77.86A4.22,4.22,0,0,0,450.56,527.78Zm9.6,8.44V519.33h1.38v16.89Zm4.76,0V519.33h1.38v16.89Z" transform="translate(-35.73 -32.74)"/><path d="M476.39,540.17v1.27H469.3a2.4,2.4,0,0,1,.15-.92,4.86,4.86,0,0,1,.87-1.43,13.52,13.52,0,0,1,1.73-1.62,15.4,15.4,0,0,0,2.36-2.27,2.68,2.68,0,0,0,.62-1.59,1.78,1.78,0,0,0-.56-1.32,2.29,2.29,0,0,0-3,0,2.15,2.15,0,0,0-.57,1.59l-1.36-.14a3.37,3.37,0,0,1,1-2.32,3.58,3.58,0,0,1,2.44-.79,3.38,3.38,0,0,1,2.45.86,2.8,2.8,0,0,1,.89,2.12,3.34,3.34,0,0,1-.25,1.27,4.84,4.84,0,0,1-.88,1.31,21.32,21.32,0,0,1-2,1.89c-.79.66-1.3,1.1-1.52,1.34a5,5,0,0,0-.56.72Z" transform="translate(-35.73 -32.74)"/><line class="cls-1" x1="65.11" y1="446.69" x2="65.11" y2="26.69"/><line class="cls-1" x1="608.11" y1="446.69" x2="608.11" y2="26.69"/><line class="cls-1" x1="65.11" y1="446.69" x2="70.54" y2="446.69"/><line class="cls-1" x1="65.11" y1="358.36" x2="70.54" y2="358.36"/><line class="cls-1" x1="65.11" y1="270.04" x2="70.54" y2="270.04"/><line class="cls-1" x1="65.11" y1="181.71" x2="70.54" y2="181.71"/><line class="cls-1" x1="65.11" y1="93.39" x2="70.54" y2="93.39"/><line class="cls-1" x1="608.11" y1="446.69" x2="602.68" y2="446.69"/><line class="cls-1" x1="608.11" y1="358.36" x2="602.68" y2="358.36"/><line class="cls-1" x1="608.11" y1="270.04" x2="602.68" y2="270.04"/><line class="cls-1" x1="608.11" y1="181.71" x2="602.68" y2="181.71"/><line class="cls-1" x1="608.11" y1="93.39" x2="602.68" y2="93.39"/><line class="cls-1" x1="65.11" y1="446.69" x2="67.82" y2="446.69"/><line class="cls-1" x1="65.11" y1="433.4" x2="67.82" y2="433.4"/><line class="cls-1" x1="65.11" y1="425.62" x2="67.82" y2="425.62"/><line class="cls-1" x1="65.11" y1="420.1" x2="67.82" y2="420.1"/><line class="cls-1" x1="65.11" y1="415.82" x2="67.82" y2="415.82"/><line class="cls-1" x1="65.11" y1="412.32" x2="67.82" y2="412.32"/><line class="cls-1" x1="65.11" y1="409.37" x2="67.82" y2="409.37"/><line class="cls-1" x1="65.11" y1="406.81" x2="67.82" y2="406.81"/><line class="cls-1" x1="65.11" y1="404.55" x2="67.82" y2="404.55"/><line class="cls-1" x1="65.11" y1="402.53" x2="67.82" y2="402.53"/><line class="cls-1" x1="65.11" y1="389.23" x2="67.82" y2="389.23"/><line class="cls-1" x1="65.11" y1="381.46" x2="67.82" y2="381.46"/><line class="cls-1" x1="65.11" y1="375.94" x2="67.82" y2="375.94"/><line class="cls-1" x1="65.11" y1="371.66" x2="67.82" y2="371.66"/><line class="cls-1" x1="65.11" y1="368.16" x2="67.82" y2="368.16"/><line class="cls-1" x1="65.11" y1="365.2" x2="67.82" y2="365.2"/><line class="cls-1" x1="65.11" y1="362.64" x2="67.82" y2="362.64"/><line class="cls-1" x1="65.11" y1="360.38" x2="67.82" y2="360.38"/><line class="cls-1" x1="65.11" y1="358.36" x2="67.82" y2="358.36"/><line class="cls-1" x1="65.11" y1="345.07" x2="67.82" y2="345.07"/><line class="cls-1" x1="65.11" y1="337.29" x2="67.82" y2="337.29"/><line class="cls-1" x1="65.11" y1="331.78" x2="67.82" y2="331.78"/><line class="cls-1" x1="65.11" y1="327.5" x2="67.82" y2="327.5"/><line class="cls-1" x1="65.11" y1="324" x2="67.82" y2="324"/><line class="cls-1" x1="65.11" y1="321.04" x2="67.82" y2="321.04"/><line class="cls-1" x1="65.11" y1="318.48" x2="67.82" y2="318.48"/><line class="cls-1" x1="65.11" y1="316.22" x2="67.82" y2="316.22"/><line class="cls-1" x1="65.11" y1="314.2" x2="67.82" y2="314.2"/><line class="cls-1" x1="65.11" y1="300.91" x2="67.82" y2="300.91"/><line class="cls-1" x1="65.11" y1="293.13" x2="67.82" y2="293.13"/><line class="cls-1" x1="65.11" y1="287.61" x2="67.82" y2="287.61"/><line class="cls-1" x1="65.11" y1="283.33" x2="67.82" y2="283.33"/><line class="cls-1" x1="65.11" y1="279.84" x2="67.82" y2="279.84"/><line class="cls-1" x1="65.11" y1="276.88" x2="67.82" y2="276.88"/><line class="cls-1" x1="65.11" y1="274.32" x2="67.82" y2="274.32"/><line class="cls-1" x1="65.11" y1="272.06" x2="67.82" y2="272.06"/><line class="cls-1" x1="65.11" y1="270.04" x2="67.82" y2="270.04"/><line class="cls-1" x1="65.11" y1="256.74" x2="67.82" y2="256.74"/><line class="cls-1" x1="65.11" y1="248.97" x2="67.82" y2="248.97"/><line class="cls-1" x1="65.11" y1="243.45" x2="67.82" y2="243.45"/><line class="cls-1" x1="65.11" y1="239.17" x2="67.82" y2="239.17"/><line class="cls-1" x1="65.11" y1="235.67" x2="67.82" y2="235.67"/><line class="cls-1" x1="65.11" y1="232.72" x2="67.82" y2="232.72"/><line class="cls-1" x1="65.11" y1="230.15" x2="67.82" y2="230.15"/><line class="cls-1" x1="65.11" y1="227.9" x2="67.82" y2="227.9"/><line class="cls-1" x1="65.11" y1="225.87" x2="67.82" y2="225.87"/><line class="cls-1" x1="65.11" y1="212.58" x2="67.82" y2="212.58"/><line class="cls-1" x1="65.11" y1="204.8" x2="67.82" y2="204.8"/><line class="cls-1" x1="65.11" y1="199.29" x2="67.82" y2="199.29"/><line class="cls-1" x1="65.11" y1="195.01" x2="67.82" y2="195.01"/><line class="cls-1" x1="65.11" y1="191.51" x2="67.82" y2="191.51"/><line class="cls-1" x1="65.11" y1="188.55" x2="67.82" y2="188.55"/><line class="cls-1" x1="65.11" y1="185.99" x2="67.82" y2="185.99"/><line class="cls-1" x1="65.11" y1="183.73" x2="67.82" y2="183.73"/><line class="cls-1" x1="65.11" y1="181.71" x2="67.82" y2="181.71"/><line class="cls-1" x1="65.11" y1="168.42" x2="67.82" y2="168.42"/><line class="cls-1" x1="65.11" y1="160.64" x2="67.82" y2="160.64"/><line class="cls-1" x1="65.11" y1="155.12" x2="67.82" y2="155.12"/><line class="cls-1" x1="65.11" y1="150.84" x2="67.82" y2="150.84"/><line class="cls-1" x1="65.11" y1="147.35" x2="67.82" y2="147.35"/><line class="cls-1" x1="65.11" y1="144.39" x2="67.82" y2="144.39"/><line class="cls-1" x1="65.11" y1="141.83" x2="67.82" y2="141.83"/><line class="cls-1" x1="65.11" y1="139.57" x2="67.82" y2="139.57"/><line class="cls-1" x1="65.11" y1="137.55" x2="67.82" y2="137.55"/><line class="cls-1" x1="65.11" y1="124.25" x2="67.82" y2="124.25"/><line class="cls-1" x1="65.11" y1="116.48" x2="67.82" y2="116.48"/><line class="cls-1" x1="65.11" y1="110.96" x2="67.82" y2="110.96"/><line class="cls-1" x1="65.11" y1="106.68" x2="67.82" y2="106.68"/><line class="cls-1" x1="65.11" y1="103.18" x2="67.82" y2="103.18"/><line class="cls-1" x1="65.11" y1="100.23" x2="67.82" y2="100.23"/><line class="cls-1" x1="65.11" y1="97.67" x2="67.82" y2="97.67"/><line class="cls-1" x1="65.11" y1="95.41" x2="67.82" y2="95.41"/><line class="cls-1" x1="65.11" y1="93.39" x2="67.82" y2="93.39"/><line class="cls-1" x1="65.11" y1="80.09" x2="67.82" y2="80.09"/><line class="cls-1" x1="65.11" y1="72.31" x2="67.82" y2="72.31"/><line class="cls-1" x1="65.11" y1="66.8" x2="67.82" y2="66.8"/><line class="cls-1" x1="65.11" y1="62.52" x2="67.82" y2="62.52"/><line class="cls-1" x1="65.11" y1="59.02" x2="67.82" y2="59.02"/><line class="cls-1" x1="65.11" y1="56.06" x2="67.82" y2="56.06"/><line class="cls-1" x1="65.11" y1="53.5" x2="67.82" y2="53.5"/><line class="cls-1" x1="65.11" y1="51.24" x2="67.82" y2="51.24"/><line class="cls-1" x1="65.11" y1="49.22" x2="67.82" y2="49.22"/><line class="cls-1" x1="65.11" y1="35.93" x2="67.82" y2="35.93"/><line class="cls-1" x1="65.11" y1="28.15" x2="67.82" y2="28.15"/><line class="cls-1" x1="608.11" y1="446.69" x2="605.39" y2="446.69"/><line class="cls-1" x1="608.11" y1="433.4" x2="605.39" y2="433.4"/><line class="cls-1" x1="608.11" y1="425.62" x2="605.39" y2="425.62"/><line class="cls-1" x1="608.11" y1="420.1" x2="605.39" y2="420.1"/><line class="cls-1" x1="608.11" y1="415.82" x2="605.39" y2="415.82"/><line class="cls-1" x1="608.11" y1="412.32" x2="605.39" y2="412.32"/><line class="cls-1" x1="608.11" y1="409.37" x2="605.39" y2="409.37"/><line class="cls-1" x1="608.11" y1="406.81" x2="605.39" y2="406.81"/><line class="cls-1" x1="608.11" y1="404.55" x2="605.39" y2="404.55"/><line class="cls-1" x1="608.11" y1="402.53" x2="605.39" y2="402.53"/><line class="cls-1" x1="608.11" y1="389.23" x2="605.39" y2="389.23"/><line class="cls-1" x1="608.11" y1="381.46" x2="605.39" y2="381.46"/><line class="cls-1" x1="608.11" y1="375.94" x2="605.39" y2="375.94"/><line class="cls-1" x1="608.11" y1="371.66" x2="605.39" y2="371.66"/><line class="cls-1" x1="608.11" y1="368.16" x2="605.39" y2="368.16"/><line class="cls-1" x1="608.11" y1="365.2" x2="605.39" y2="365.2"/><line class="cls-1" x1="608.11" y1="362.64" x2="605.39" y2="362.64"/><line class="cls-1" x1="608.11" y1="360.38" x2="605.39" y2="360.38"/><line class="cls-1" x1="608.11" y1="358.36" x2="605.39" y2="358.36"/><line class="cls-1" x1="608.11" y1="345.07" x2="605.39" y2="345.07"/><line class="cls-1" x1="608.11" y1="337.29" x2="605.39" y2="337.29"/><line class="cls-1" x1="608.11" y1="331.78" x2="605.39" y2="331.78"/><line class="cls-1" x1="608.11" y1="327.5" x2="605.39" y2="327.5"/><line class="cls-1" x1="608.11" y1="324" x2="605.39" y2="324"/><line class="cls-1" x1="608.11" y1="321.04" x2="605.39" y2="321.04"/><line class="cls-1" x1="608.11" y1="318.48" x2="605.39" y2="318.48"/><line class="cls-1" x1="608.11" y1="316.22" x2="605.39" y2="316.22"/><line class="cls-1" x1="608.11" y1="314.2" x2="605.39" y2="314.2"/><line class="cls-1" x1="608.11" y1="300.91" x2="605.39" y2="300.91"/><line class="cls-1" x1="608.11" y1="293.13" x2="605.39" y2="293.13"/><line class="cls-1" x1="608.11" y1="287.61" x2="605.39" y2="287.61"/><line class="cls-1" x1="608.11" y1="283.33" x2="605.39" y2="283.33"/><line class="cls-1" x1="608.11" y1="279.84" x2="605.39" y2="279.84"/><line class="cls-1" x1="608.11" y1="276.88" x2="605.39" y2="276.88"/><line class="cls-1" x1="608.11" y1="274.32" x2="605.39" y2="274.32"/><line class="cls-1" x1="608.11" y1="272.06" x2="605.39" y2="272.06"/><line class="cls-1" x1="608.11" y1="270.04" x2="605.39" y2="270.04"/><line class="cls-1" x1="608.11" y1="256.74" x2="605.39" y2="256.74"/><line class="cls-1" x1="608.11" y1="248.97" x2="605.39" y2="248.97"/><line class="cls-1" x1="608.11" y1="243.45" x2="605.39" y2="243.45"/><line class="cls-1" x1="608.11" y1="239.17" x2="605.39" y2="239.17"/><line class="cls-1" x1="608.11" y1="235.67" x2="605.39" y2="235.67"/><line class="cls-1" x1="608.11" y1="232.72" x2="605.39" y2="232.72"/><line class="cls-1" x1="608.11" y1="230.15" x2="605.39" y2="230.15"/><line class="cls-1" x1="608.11" y1="227.9" x2="605.39" y2="227.9"/><line class="cls-1" x1="608.11" y1="225.87" x2="605.39" y2="225.87"/><line class="cls-1" x1="608.11" y1="212.58" x2="605.39" y2="212.58"/><line class="cls-1" x1="608.11" y1="204.8" x2="605.39" y2="204.8"/><line class="cls-1" x1="608.11" y1="199.29" x2="605.39" y2="199.29"/><line class="cls-1" x1="608.11" y1="195.01" x2="605.39" y2="195.01"/><line class="cls-1" x1="608.11" y1="191.51" x2="605.39" y2="191.51"/><line class="cls-1" x1="608.11" y1="188.55" x2="605.39" y2="188.55"/><line class="cls-1" x1="608.11" y1="185.99" x2="605.39" y2="185.99"/><line class="cls-1" x1="608.11" y1="183.73" x2="605.39" y2="183.73"/><line class="cls-1" x1="608.11" y1="181.71" x2="605.39" y2="181.71"/><line class="cls-1" x1="608.11" y1="168.42" x2="605.39" y2="168.42"/><line class="cls-1" x1="608.11" y1="160.64" x2="605.39" y2="160.64"/><line class="cls-1" x1="608.11" y1="155.12" x2="605.39" y2="155.12"/><line class="cls-1" x1="608.11" y1="150.84" x2="605.39" y2="150.84"/><line class="cls-1" x1="608.11" y1="147.35" x2="605.39" y2="147.35"/><line class="cls-1" x1="608.11" y1="144.39" x2="605.39" y2="144.39"/><line class="cls-1" x1="608.11" y1="141.83" x2="605.39" y2="141.83"/><line class="cls-1" x1="608.11" y1="139.57" x2="605.39" y2="139.57"/><line class="cls-1" x1="608.11" y1="137.55" x2="605.39" y2="137.55"/><line class="cls-1" x1="608.11" y1="124.25" x2="605.39" y2="124.25"/><line class="cls-1" x1="608.11" y1="116.48" x2="605.39" y2="116.48"/><line class="cls-1" x1="608.11" y1="110.96" x2="605.39" y2="110.96"/><line class="cls-1" x1="608.11" y1="106.68" x2="605.39" y2="106.68"/><line class="cls-1" x1="608.11" y1="103.18" x2="605.39" y2="103.18"/><line class="cls-1" x1="608.11" y1="100.23" x2="605.39" y2="100.23"/><line class="cls-1" x1="608.11" y1="97.67" x2="605.39" y2="97.67"/><line class="cls-1" x1="608.11" y1="95.41" x2="605.39" y2="95.41"/><line class="cls-1" x1="608.11" y1="93.39" x2="605.39" y2="93.39"/><line class="cls-1" x1="608.11" y1="80.09" x2="605.39" y2="80.09"/><line class="cls-1" x1="608.11" y1="72.31" x2="605.39" y2="72.31"/><line class="cls-1" x1="608.11" y1="66.8" x2="605.39" y2="66.8"/><line class="cls-1" x1="608.11" y1="62.52" x2="605.39" y2="62.52"/><line class="cls-1" x1="608.11" y1="59.02" x2="605.39" y2="59.02"/><line class="cls-1" x1="608.11" y1="56.06" x2="605.39" y2="56.06"/><line class="cls-1" x1="608.11" y1="53.5" x2="605.39" y2="53.5"/><line class="cls-1" x1="608.11" y1="51.24" x2="605.39" y2="51.24"/><line class="cls-1" x1="608.11" y1="49.22" x2="605.39" y2="49.22"/><line class="cls-1" x1="608.11" y1="35.93" x2="605.39" y2="35.93"/><line class="cls-1" x1="608.11" y1="28.15" x2="605.39" y2="28.15"/><path d="M73.17,488.44H71.69v-9.52a7.79,7.79,0,0,1-1.42,1,12.46,12.46,0,0,1-1.58.77v-1.45a8.52,8.52,0,0,0,2.2-1.43,5.62,5.62,0,0,0,1.33-1.62h1Zm3.64-6a11,11,0,0,1,.45-3.48,4.19,4.19,0,0,1,1.32-2,3.38,3.38,0,0,1,2.2-.71,3.61,3.61,0,0,1,1.72.39,3.32,3.32,0,0,1,1.22,1.14,6.12,6.12,0,0,1,.75,1.81,11.62,11.62,0,0,1,.28,2.88,11.22,11.22,0,0,1-.44,3.45,4.3,4.3,0,0,1-1.31,2,3.4,3.4,0,0,1-2.22.72A3.36,3.36,0,0,1,78,487.39Q76.81,485.86,76.81,482.44Zm1.53,0c0,2,.24,3.33.7,4a2.08,2.08,0,0,0,1.74,1,2.05,2.05,0,0,0,1.73-1c.47-.66.71-2,.71-4s-.24-3.33-.71-4a2.07,2.07,0,0,0-1.75-1,1.9,1.9,0,0,0-1.64.88A7.65,7.65,0,0,0,78.34,482.44Z" transform="translate(-35.73 -32.74)"/><path d="M86.39,475.84a8.34,8.34,0,0,1,.34-2.64,3.3,3.3,0,0,1,1-1.56,2.62,2.62,0,0,1,1.69-.55,2.73,2.73,0,0,1,1.31.31,2.42,2.42,0,0,1,.93.87,4.38,4.38,0,0,1,.58,1.38,9.19,9.19,0,0,1,.21,2.19,8.7,8.7,0,0,1-.33,2.65,3.37,3.37,0,0,1-1,1.56,2.61,2.61,0,0,1-1.69.54,2.57,2.57,0,0,1-2.12-1A6.14,6.14,0,0,1,86.39,475.84Zm1.17,0a6,6,0,0,0,.53,3.06,1.54,1.54,0,0,0,2.65,0,5.85,5.85,0,0,0,.54-3.06,5.74,5.74,0,0,0-.54-3,1.59,1.59,0,0,0-1.33-.75,1.52,1.52,0,0,0-1.27.65A6.1,6.1,0,0,0,87.56,475.84Z" transform="translate(-35.73 -32.74)"/><path d="M73.17,400.44H71.69v-9.52a7.79,7.79,0,0,1-1.42,1,12.46,12.46,0,0,1-1.58.77v-1.45a8.52,8.52,0,0,0,2.2-1.43,5.62,5.62,0,0,0,1.33-1.62h1Zm3.64-6a11,11,0,0,1,.45-3.48,4.19,4.19,0,0,1,1.32-2,3.38,3.38,0,0,1,2.2-.71,3.61,3.61,0,0,1,1.72.39,3.32,3.32,0,0,1,1.22,1.14,6.12,6.12,0,0,1,.75,1.81,11.62,11.62,0,0,1,.28,2.88,11.22,11.22,0,0,1-.44,3.45,4.3,4.3,0,0,1-1.31,2,3.4,3.4,0,0,1-2.22.72A3.36,3.36,0,0,1,78,399.39Q76.81,397.86,76.81,394.44Zm1.53,0c0,2,.24,3.33.7,4a2.08,2.08,0,0,0,1.74,1,2.05,2.05,0,0,0,1.73-1c.47-.66.71-2,.71-4s-.24-3.33-.71-4a2.07,2.07,0,0,0-1.75-1,1.9,1.9,0,0,0-1.64.88A7.65,7.65,0,0,0,78.34,394.44Z" transform="translate(-35.73 -32.74)"/><path d="M92.39,391.34v1.1H86.23a2,2,0,0,1,.14-.8,4.07,4.07,0,0,1,.76-1.23A11,11,0,0,1,88.62,389a11.86,11.86,0,0,0,2-2,2.3,2.3,0,0,0,.53-1.36,1.53,1.53,0,0,0-.48-1.15,1.76,1.76,0,0,0-1.27-.46,1.78,1.78,0,0,0-1.32.49,1.88,1.88,0,0,0-.5,1.37l-1.18-.13a3,3,0,0,1,.91-2,3.06,3.06,0,0,1,2.11-.69,2.94,2.94,0,0,1,2.12.75,2.41,2.41,0,0,1,.78,1.83,2.81,2.81,0,0,1-.22,1.1,4.34,4.34,0,0,1-.76,1.14,15.63,15.63,0,0,1-1.77,1.64q-1,.85-1.32,1.17a4.06,4.06,0,0,0-.47.62Z" transform="translate(-35.73 -32.74)"/><path d="M73.17,311.44H71.69v-9.52a7.79,7.79,0,0,1-1.42,1,12.46,12.46,0,0,1-1.58.77v-1.45a8.52,8.52,0,0,0,2.2-1.43,5.62,5.62,0,0,0,1.33-1.62h1Zm3.64-6a11,11,0,0,1,.45-3.48,4.19,4.19,0,0,1,1.32-2,3.38,3.38,0,0,1,2.2-.71,3.61,3.61,0,0,1,1.72.39,3.32,3.32,0,0,1,1.22,1.14,6.12,6.12,0,0,1,.75,1.81,11.62,11.62,0,0,1,.28,2.88,11.22,11.22,0,0,1-.44,3.45,4.3,4.3,0,0,1-1.31,2,3.4,3.4,0,0,1-2.22.72A3.36,3.36,0,0,1,78,310.39Q76.81,308.86,76.81,305.44Zm1.53,0c0,2,.24,3.33.7,4a2.08,2.08,0,0,0,1.74,1,2.05,2.05,0,0,0,1.73-1c.47-.66.71-2,.71-4s-.24-3.33-.71-4a2.07,2.07,0,0,0-1.75-1,1.9,1.9,0,0,0-1.64.88A7.65,7.65,0,0,0,78.34,305.44Z" transform="translate(-35.73 -32.74)"/><path d="M90.05,303.44V301.2H86v-1l4.23-6h.94v6h1.26v1H91.19v2.24Zm0-3.28V296l-2.92,4.19Z" transform="translate(-35.73 -32.74)"/><path d="M73.17,223.44H71.69v-9.52a7.79,7.79,0,0,1-1.42,1,12.46,12.46,0,0,1-1.58.77v-1.45a8.52,8.52,0,0,0,2.2-1.43,5.62,5.62,0,0,0,1.33-1.62h1Zm3.64-6a11,11,0,0,1,.45-3.48,4.19,4.19,0,0,1,1.32-2,3.38,3.38,0,0,1,2.2-.71,3.61,3.61,0,0,1,1.72.39,3.32,3.32,0,0,1,1.22,1.14,6.12,6.12,0,0,1,.75,1.81,11.62,11.62,0,0,1,.28,2.88,11.22,11.22,0,0,1-.44,3.45,4.3,4.3,0,0,1-1.31,2,3.4,3.4,0,0,1-2.22.72A3.36,3.36,0,0,1,78,222.39Q76.81,220.86,76.81,217.44Zm1.53,0c0,2,.24,3.33.7,4a2.08,2.08,0,0,0,1.74,1,2.05,2.05,0,0,0,1.73-1c.47-.66.71-2,.71-4s-.24-3.33-.71-4a2.07,2.07,0,0,0-1.75-1,1.9,1.9,0,0,0-1.64.88A7.65,7.65,0,0,0,78.34,217.44Z" transform="translate(-35.73 -32.74)"/><path d="M92.31,208.41l-1.14.09a2,2,0,0,0-.42-1,1.5,1.5,0,0,0-1.14-.49,1.63,1.63,0,0,0-1,.31,2.66,2.66,0,0,0-.84,1.14,6,6,0,0,0-.33,2.16,2.56,2.56,0,0,1,1-.93,2.77,2.77,0,0,1,1.25-.3,2.6,2.6,0,0,1,2,.83,3,3,0,0,1,.8,2.18,3.46,3.46,0,0,1-.38,1.63,2.77,2.77,0,0,1-1,1.15,2.84,2.84,0,0,1-1.5.39,3,3,0,0,1-2.33-1,5.33,5.33,0,0,1-.9-3.47,6.18,6.18,0,0,1,1-3.92,2.87,2.87,0,0,1,2.34-1.07,2.64,2.64,0,0,1,1.8.62A2.59,2.59,0,0,1,92.31,208.41Zm-4.67,4a2.56,2.56,0,0,0,.25,1.13,1.83,1.83,0,0,0,.7.82,1.79,1.79,0,0,0,1,.29,1.62,1.62,0,0,0,1.24-.59,2.29,2.29,0,0,0,.52-1.59A2.17,2.17,0,0,0,90.8,211a1.71,1.71,0,0,0-1.3-.55,1.77,1.77,0,0,0-1.32.55A2,2,0,0,0,87.64,212.42Z" transform="translate(-35.73 -32.74)"/><path d="M73.17,135.44H71.69v-9.52a7.79,7.79,0,0,1-1.42,1,12.46,12.46,0,0,1-1.58.77v-1.45a8.52,8.52,0,0,0,2.2-1.43,5.62,5.62,0,0,0,1.33-1.62h1Zm3.64-6a11,11,0,0,1,.45-3.48,4.19,4.19,0,0,1,1.32-2,3.38,3.38,0,0,1,2.2-.71,3.61,3.61,0,0,1,1.72.39,3.32,3.32,0,0,1,1.22,1.14,6.12,6.12,0,0,1,.75,1.81,11.62,11.62,0,0,1,.28,2.88,11.22,11.22,0,0,1-.44,3.45,4.3,4.3,0,0,1-1.31,2,3.4,3.4,0,0,1-2.22.72A3.36,3.36,0,0,1,78,134.39Q76.81,132.86,76.81,129.44Zm1.53,0c0,2,.24,3.33.7,4a2.08,2.08,0,0,0,1.74,1,2.05,2.05,0,0,0,1.73-1c.47-.66.71-2,.71-4s-.24-3.33-.71-4a2.07,2.07,0,0,0-1.75-1,1.9,1.9,0,0,0-1.64.88A7.65,7.65,0,0,0,78.34,129.44Z" transform="translate(-35.73 -32.74)"/><path d="M88.14,122.39a2.21,2.21,0,0,1-1-.74,1.91,1.91,0,0,1-.34-1.15,2.25,2.25,0,0,1,.73-1.71,2.7,2.7,0,0,1,1.94-.7,2.73,2.73,0,0,1,2,.71,2.29,2.29,0,0,1,.74,1.73,1.86,1.86,0,0,1-.34,1.12,2.2,2.2,0,0,1-1,.74,2.4,2.4,0,0,1,1.75,2.39,2.67,2.67,0,0,1-.84,2,3.1,3.1,0,0,1-2.22.81,3.06,3.06,0,0,1-2.22-.81,2.72,2.72,0,0,1-.85-2,2.46,2.46,0,0,1,.47-1.52A2.29,2.29,0,0,1,88.14,122.39Zm-.23-1.94a1.43,1.43,0,0,0,.43,1.08,1.49,1.49,0,0,0,1.1.42,1.46,1.46,0,0,0,1.09-.41,1.39,1.39,0,0,0,.42-1,1.43,1.43,0,0,0-.43-1.06,1.49,1.49,0,0,0-1.08-.43,1.54,1.54,0,0,0-1.1.42A1.35,1.35,0,0,0,87.91,120.45Zm-.36,4.3a2.18,2.18,0,0,0,.23,1,1.75,1.75,0,0,0,.69.71,2.07,2.07,0,0,0,1,.25,1.86,1.86,0,0,0,1.35-.53,2,2,0,0,0,0-2.7,1.86,1.86,0,0,0-1.37-.54,1.82,1.82,0,0,0-1.33.53A1.79,1.79,0,0,0,87.55,124.75Z" transform="translate(-35.73 -32.74)"/><path d="M44.7,351.62l-.14-1.6a3.56,3.56,0,0,0,1.59-.53,2.92,2.92,0,0,0,1-1.29,5,5,0,0,0,.38-2,4.82,4.82,0,0,0-.29-1.73,2.48,2.48,0,0,0-.79-1.11,1.89,1.89,0,0,0-1.11-.36,1.65,1.65,0,0,0-1.06.35,2.54,2.54,0,0,0-.75,1.16,23.16,23.16,0,0,0-.63,2.29,12.36,12.36,0,0,1-.81,2.49,3.42,3.42,0,0,1-1.2,1.38,2.94,2.94,0,0,1-1.59.45,3.25,3.25,0,0,1-1.83-.55A3.52,3.52,0,0,1,36.18,349a6,6,0,0,1-.45-2.38,6.38,6.38,0,0,1,.47-2.51,3.68,3.68,0,0,1,1.35-1.69,3.77,3.77,0,0,1,2-.62l.13,1.62a2.67,2.67,0,0,0-1.86.9,3.42,3.42,0,0,0-.63,2.24,3.61,3.61,0,0,0,.57,2.26,1.72,1.72,0,0,0,1.37.71,1.4,1.4,0,0,0,1.14-.52,6.53,6.53,0,0,0,.92-2.56,17.36,17.36,0,0,1,.83-2.86,3.85,3.85,0,0,1,1.31-1.65,3.22,3.22,0,0,1,1.83-.54,3.51,3.51,0,0,1,1.94.59,3.82,3.82,0,0,1,1.41,1.69,5.83,5.83,0,0,1,.51,2.49,7.4,7.4,0,0,1-.51,2.93A4,4,0,0,1,47,350.92,4.28,4.28,0,0,1,44.7,351.62Zm-.53-12a4.78,4.78,0,0,1-3.84-1.45,4.35,4.35,0,0,1-1-2.93,4.18,4.18,0,0,1,1.26-3.15,4.85,4.85,0,0,1,3.49-1.22,6.2,6.2,0,0,1,2.83.54,3.84,3.84,0,0,1,1.6,1.57,4.5,4.5,0,0,1,.58,2.26,4.2,4.2,0,0,1-1.26,3.17A5,5,0,0,1,44.17,339.63Zm0-1.63a4,4,0,0,0,2.69-.78,2.51,2.51,0,0,0,.89-2,2.48,2.48,0,0,0-.9-2,4,4,0,0,0-2.73-.79,3.87,3.87,0,0,0-2.62.79,2.61,2.61,0,0,0,0,3.93A3.94,3.94,0,0,0,44.17,338Zm4.67-9.12H36V327.3H48.84Zm0-10.21H47.47a3.4,3.4,0,0,1,1.59,3,3.63,3.63,0,0,1-.32,1.54,2.6,2.6,0,0,1-.79,1.07,3.15,3.15,0,0,1-1.18.48,8.72,8.72,0,0,1-1.47.09H39.52v-1.57h5.17a9.64,9.64,0,0,0,1.67-.1,1.67,1.67,0,0,0,1-.64,2,2,0,0,0,.35-1.19,2.64,2.64,0,0,0-.36-1.34,2,2,0,0,0-1-.88,5.09,5.09,0,0,0-1.82-.26h-5v-1.58h9.32Zm-1.42-7.52,1.41-.24a6.24,6.24,0,0,1,.14,1.2,2.74,2.74,0,0,1-.27,1.34,1.52,1.52,0,0,1-.72.66,5.69,5.69,0,0,1-1.87.19H40.73v1.17H39.52V314.3H37.2l-1-1.56h3.27v-1.59h1.21v1.59H46.2a2.58,2.58,0,0,0,.87-.09.67.67,0,0,0,.31-.27,1.17,1.17,0,0,0,.1-.55A5.35,5.35,0,0,0,47.42,311.15Zm-9.64-1.66H36v-1.57h1.83Zm11.06,0H39.52v-1.57h9.32ZM44.17,306a4.78,4.78,0,0,1-3.84-1.46,4.31,4.31,0,0,1-1-2.92,4.22,4.22,0,0,1,1.26-3.16,4.84,4.84,0,0,1,3.49-1.21,6.34,6.34,0,0,1,2.83.53,3.87,3.87,0,0,1,1.6,1.58,4.48,4.48,0,0,1,.58,2.26,4.17,4.17,0,0,1-1.26,3.16A5,5,0,0,1,44.17,306Zm0-1.63a4,4,0,0,0,2.69-.78,2.62,2.62,0,0,0,0-3.94,4.08,4.08,0,0,0-2.73-.78,3.82,3.82,0,0,0-2.62.79,2.61,2.61,0,0,0,0,3.93A3.94,3.94,0,0,0,44.17,304.41Zm4.67-9.15H39.52v-1.42h1.32a3.36,3.36,0,0,1-1.54-3,4,4,0,0,1,.3-1.56,2.4,2.4,0,0,1,.8-1.06,3,3,0,0,1,1.16-.49,10.48,10.48,0,0,1,1.55-.08h5.73v1.58H43.17a4.41,4.41,0,0,0-1.45.18,1.52,1.52,0,0,0-.77.65,2.22,2.22,0,0,0-.28,1.1,2.59,2.59,0,0,0,.64,1.75,3.17,3.17,0,0,0,2.44.74h5.09Zm0-15.46H36v-1.75l10.13-6.77H36v-1.62H48.84v1.73l-10.12,6.78H48.84Zm-4.67-12.45a4.78,4.78,0,0,1-3.84-1.45,4.33,4.33,0,0,1-1-2.92,4.22,4.22,0,0,1,1.26-3.16,4.85,4.85,0,0,1,3.49-1.22,6.2,6.2,0,0,1,2.83.54,3.9,3.9,0,0,1,1.6,1.57,4.54,4.54,0,0,1,.58,2.27,4.17,4.17,0,0,1-1.26,3.16A5,5,0,0,1,44.17,267.35Zm0-1.62a4,4,0,0,0,2.69-.78,2.62,2.62,0,0,0,0-3.94,4.08,4.08,0,0,0-2.73-.78,3.82,3.82,0,0,0-2.62.79,2.61,2.61,0,0,0,0,3.93A3.94,3.94,0,0,0,44.17,265.73Zm4.67-9.14H39.52v-1.42h1.4a4,4,0,0,1-1.3-1,1.68,1.68,0,0,1-.32-1,3,3,0,0,1,.51-1.62l1.47.53a2.33,2.33,0,0,0-.34,1.17,1.47,1.47,0,0,0,.31.93,1.67,1.67,0,0,0,.86.59A6.34,6.34,0,0,0,44,255h4.89Zm0-6.11H39.52v-1.42h1.29a3.4,3.4,0,0,1-1.09-1.17,3.25,3.25,0,0,1-.42-1.66,3.06,3.06,0,0,1,.43-1.7,2.27,2.27,0,0,1,1.21-.93,3.34,3.34,0,0,1-1.64-2.89,2.78,2.78,0,0,1,.77-2.13,3.3,3.3,0,0,1,2.37-.74h6.4v1.56H43a4.19,4.19,0,0,0-1.38.16,1.3,1.3,0,0,0-.67.56,1.84,1.84,0,0,0-.25.95,2.18,2.18,0,0,0,.66,1.63,2.85,2.85,0,0,0,2.09.65h5.42v1.58H42.78a2.61,2.61,0,0,0-1.58.39,1.48,1.48,0,0,0-.53,1.27,2.31,2.31,0,0,0,.35,1.23,2,2,0,0,0,1,.82,5.71,5.71,0,0,0,2,.26h4.84Zm3.78-20.81H35.73v-1.38H52.62Zm0-4.76H35.73v-1.38H52.62Zm-3.78-4.29H39.52V219.2h1.29A3.37,3.37,0,0,1,39.72,218a3.29,3.29,0,0,1-.42-1.67,3,3,0,0,1,.43-1.69,2.18,2.18,0,0,1,1.21-.93,3.35,3.35,0,0,1-1.64-2.89,2.82,2.82,0,0,1,.77-2.14,3.35,3.35,0,0,1,2.37-.74h6.4v1.56H43a4.48,4.48,0,0,0-1.38.16,1.3,1.3,0,0,0-.67.56,1.85,1.85,0,0,0-.25,1,2.19,2.19,0,0,0,.66,1.63,2.89,2.89,0,0,0,2.09.65h5.42v1.57H42.78a2.53,2.53,0,0,0-1.58.4,1.47,1.47,0,0,0-.53,1.26A2.35,2.35,0,0,0,41,218a2.12,2.12,0,0,0,1,.82,5.75,5.75,0,0,0,2,.25h4.84Zm3.78-15.72H35.73v-1.38H52.62Zm0-4.76H35.73v-1.37H52.62Z" transform="translate(-35.73 -32.74)"/><path d="M56.58,188.89h1.26V196a2.44,2.44,0,0,1-.92-.15A4.82,4.82,0,0,1,55.5,195a14.24,14.24,0,0,1-1.63-1.73,14.5,14.5,0,0,0-2.27-2.36,2.72,2.72,0,0,0-1.58-.62,1.74,1.74,0,0,0-1.32.56,2.29,2.29,0,0,0,0,3,2.14,2.14,0,0,0,1.58.57l-.14,1.36a3.34,3.34,0,0,1-2.31-1,3.59,3.59,0,0,1-.8-2.44,3.42,3.42,0,0,1,.86-2.45,2.85,2.85,0,0,1,2.13-.89,3.29,3.29,0,0,1,1.26.25,4.77,4.77,0,0,1,1.31.88,22.5,22.5,0,0,1,1.9,2,18.42,18.42,0,0,0,1.34,1.52,4.4,4.4,0,0,0,.72.56Z" transform="translate(-35.73 -32.74)"/><path d="M236.22,51.69V38.91h2.61V49.52h6.47v2.17Zm10.83-3.44V45.78h4.84v2.47Zm14.52-3.14-2.44.44a1.79,1.79,0,0,0-.56-1.1,1.69,1.69,0,0,0-1.13-.37,1.86,1.86,0,0,0-1.48.64,3.27,3.27,0,0,0-.55,2.14A3.79,3.79,0,0,0,256,49.2a1.85,1.85,0,0,0,1.5.69,1.61,1.61,0,0,0,1.15-.41,2.37,2.37,0,0,0,.63-1.37l2.43.41a4.39,4.39,0,0,1-1.45,2.53,4.46,4.46,0,0,1-2.87.86,4.28,4.28,0,0,1-3.26-1.3A5,5,0,0,1,252.88,47a5,5,0,0,1,1.22-3.6,4.32,4.32,0,0,1,3.31-1.29,4.51,4.51,0,0,1,2.7.73A4.2,4.2,0,0,1,261.57,45.11Zm8.18,6.58V50.3a3.71,3.71,0,0,1-1.34,1.17,3.75,3.75,0,0,1-1.75.44,3.39,3.39,0,0,1-1.69-.42,2.45,2.45,0,0,1-1.09-1.16,5.24,5.24,0,0,1-.33-2.06V42.36H266v4.28a11,11,0,0,0,.14,2.41,1.31,1.31,0,0,0,.5.71,1.52,1.52,0,0,0,.9.26,2,2,0,0,0,1.14-.35,1.69,1.69,0,0,0,.69-.86,9.5,9.5,0,0,0,.19-2.51V42.36h2.47v9.33Zm7.41,0h-2.47V42.36H277v1.33A3.8,3.8,0,0,1,278,42.44a2,2,0,0,1,1.07-.3,3.13,3.13,0,0,1,1.62.47L280,44.77a2.1,2.1,0,0,0-1.16-.41,1.38,1.38,0,0,0-.88.28,1.83,1.83,0,0,0-.57,1,14.67,14.67,0,0,0-.2,3.13Zm7.32,0-3.76-9.33h2.59l1.77,4.75.5,1.59.26-.79c.08-.26.16-.53.25-.8l1.79-4.75h2.54l-3.72,9.33Zm13-3,2.46.4a4.07,4.07,0,0,1-1.5,2.08,4.43,4.43,0,0,1-2.57.71,4.12,4.12,0,0,1-3.59-1.6,5.38,5.38,0,0,1-.92-3.22,5.16,5.16,0,0,1,1.21-3.64,4,4,0,0,1,3.07-1.31A4.13,4.13,0,0,1,299,43.52a6.11,6.11,0,0,1,1.16,4.21h-6.19a2.47,2.47,0,0,0,.59,1.71,1.88,1.88,0,0,0,1.42.61,1.52,1.52,0,0,0,1-.32A1.81,1.81,0,0,0,297.51,48.72Zm.14-2.5a2.34,2.34,0,0,0-.56-1.63,1.77,1.77,0,0,0-2.61,0,2.3,2.3,0,0,0-.53,1.6Zm17.87-1.11-2.44.44a1.79,1.79,0,0,0-.56-1.1,1.67,1.67,0,0,0-1.13-.37,1.84,1.84,0,0,0-1.47.64,3.27,3.27,0,0,0-.56,2.14,3.71,3.71,0,0,0,.57,2.34,1.82,1.82,0,0,0,1.5.69,1.58,1.58,0,0,0,1.14-.41,2.44,2.44,0,0,0,.64-1.37l2.42.41a4.33,4.33,0,0,1-1.45,2.53,4.45,4.45,0,0,1-2.86.86,4.28,4.28,0,0,1-3.27-1.3A5,5,0,0,1,306.83,47a5,5,0,0,1,1.22-3.6,4.34,4.34,0,0,1,3.31-1.29,4.56,4.56,0,0,1,2.71.73A4.19,4.19,0,0,1,315.52,45.11Zm4.4,6.58h-2.47V42.36h2.3v1.33a3.8,3.8,0,0,1,1.06-1.25,1.94,1.94,0,0,1,1.07-.3,3.13,3.13,0,0,1,1.62.47l-.76,2.16a2.12,2.12,0,0,0-1.16-.41,1.38,1.38,0,0,0-.88.28,1.83,1.83,0,0,0-.57,1,14.45,14.45,0,0,0-.21,3.13Zm4.77-10.6V38.8h2.47v2.29Zm0,10.6V42.36h2.47v9.33Zm9.37-9.33v2h-1.69v3.75a9.64,9.64,0,0,0,.05,1.33.51.51,0,0,0,.22.32.77.77,0,0,0,.42.11,3.05,3.05,0,0,0,1-.23l.22,1.92a4.88,4.88,0,0,1-1.95.38,3.11,3.11,0,0,1-1.21-.23,1.77,1.77,0,0,1-.79-.59,2.21,2.21,0,0,1-.34-1,10.66,10.66,0,0,1-.08-1.73V44.33h-1.14v-2h1.14V40.5l2.48-1.44v3.3Zm7.22,6.36,2.46.4a4.07,4.07,0,0,1-1.5,2.08,4.43,4.43,0,0,1-2.57.71,4.12,4.12,0,0,1-3.59-1.6,5.31,5.31,0,0,1-.92-3.22,5.16,5.16,0,0,1,1.21-3.64,4,4,0,0,1,3.07-1.31,4.13,4.13,0,0,1,3.28,1.38,6.11,6.11,0,0,1,1.16,4.21h-6.19a2.47,2.47,0,0,0,.58,1.71,1.9,1.9,0,0,0,1.43.61,1.52,1.52,0,0,0,1-.32A1.81,1.81,0,0,0,341.28,48.72Zm.14-2.5a2.38,2.38,0,0,0-.56-1.63,1.77,1.77,0,0,0-2.61,0,2.3,2.3,0,0,0-.53,1.6Zm7,5.47H346V42.36h2.3v1.33a3.8,3.8,0,0,1,1.05-1.25,2,2,0,0,1,1.07-.3,3.13,3.13,0,0,1,1.63.47l-.77,2.16a2.07,2.07,0,0,0-1.15-.41,1.41,1.41,0,0,0-.89.28,2,2,0,0,0-.57,1,15.4,15.4,0,0,0-.2,3.13Zm4.77-10.6V38.8h2.47v2.29Zm0,10.6V42.36h2.47v9.33Zm4.51-4.8a5,5,0,0,1,.61-2.38A4.17,4.17,0,0,1,360,42.75a5,5,0,0,1,2.48-.61A4.66,4.66,0,0,1,366,43.52,4.75,4.75,0,0,1,367.34,47,4.82,4.82,0,0,1,366,50.51a4.62,4.62,0,0,1-3.44,1.4,5.39,5.39,0,0,1-2.45-.59,4,4,0,0,1-1.77-1.7A5.62,5.62,0,0,1,357.7,46.89Zm2.53.13a3.12,3.12,0,0,0,.66,2.13,2.1,2.1,0,0,0,1.62.74,2.07,2.07,0,0,0,1.62-.74,3.14,3.14,0,0,0,.66-2.15,3,3,0,0,0-.66-2.11,2.06,2.06,0,0,0-1.62-.73,2.09,2.09,0,0,0-1.62.73A3.09,3.09,0,0,0,360.23,47ZM378,51.69h-2.47V46.92a7.49,7.49,0,0,0-.16-2,1.39,1.39,0,0,0-.52-.69A1.4,1.4,0,0,0,374,44a2,2,0,0,0-1.15.35,1.84,1.84,0,0,0-.7.93,8.3,8.3,0,0,0-.19,2.14v4.24h-2.46V42.36h2.28v1.36a3.77,3.77,0,0,1,3.07-1.58,3.59,3.59,0,0,1,1.5.3,2.4,2.4,0,0,1,1.51,1.79,7.74,7.74,0,0,1,.14,1.66Zm11.88,3.78h-1.7a16.89,16.89,0,0,1-2.05-4.21,13.88,13.88,0,0,1-.7-4.24,13.27,13.27,0,0,1,.87-4.8,16.62,16.62,0,0,1,1.92-3.64h1.69a25.2,25.2,0,0,0-1.66,4.54,16.8,16.8,0,0,0-.45,4A16.58,16.58,0,0,0,388,50a18.8,18.8,0,0,0,.73,2.89C389,53.5,389.31,54.35,389.83,55.47Zm.89-3.78V49.34L397.5,41h-6V38.8h9.44v2l-7.07,8.69h7.33v2.17Zm17.71-3,2.45.4a4.06,4.06,0,0,1-1.49,2.08,4.45,4.45,0,0,1-2.57.71,4.13,4.13,0,0,1-3.6-1.6,5.38,5.38,0,0,1-.92-3.22,5.16,5.16,0,0,1,1.21-3.64,4,4,0,0,1,3.07-1.31,4.12,4.12,0,0,1,3.28,1.38A6.11,6.11,0,0,1,411,47.73h-6.19a2.47,2.47,0,0,0,.59,1.71,1.89,1.89,0,0,0,1.43.61,1.51,1.51,0,0,0,1-.32A1.88,1.88,0,0,0,408.43,48.72Zm.14-2.5a2.34,2.34,0,0,0-.57-1.63,1.77,1.77,0,0,0-2.61,0,2.3,2.3,0,0,0-.53,1.6Zm7,5.47h-2.47V42.36h2.3v1.33a3.8,3.8,0,0,1,1.06-1.25,1.94,1.94,0,0,1,1.07-.3,3.13,3.13,0,0,1,1.62.47l-.76,2.16a2.12,2.12,0,0,0-1.16-.41,1.38,1.38,0,0,0-.88.28,1.83,1.83,0,0,0-.57,1,14.45,14.45,0,0,0-.21,3.13Zm4.19-4.8a5.08,5.08,0,0,1,.61-2.38,4.23,4.23,0,0,1,1.72-1.76,5,5,0,0,1,2.48-.61A4.65,4.65,0,0,1,428,43.52,4.71,4.71,0,0,1,429.39,47,4.81,4.81,0,0,1,428,50.51a4.64,4.64,0,0,1-3.45,1.4,5.43,5.43,0,0,1-2.45-.59,4.09,4.09,0,0,1-1.77-1.7A5.73,5.73,0,0,1,419.75,46.89Zm2.53.13a3.07,3.07,0,0,0,.67,2.13,2.14,2.14,0,0,0,3.24,0,3.14,3.14,0,0,0,.66-2.15,3,3,0,0,0-.66-2.11,2.16,2.16,0,0,0-3.24,0A3,3,0,0,0,422.28,47Zm13.52-4.66v2h-1.69v3.75a9.64,9.64,0,0,0,.05,1.33.51.51,0,0,0,.22.32.77.77,0,0,0,.42.11,3.11,3.11,0,0,0,1-.23l.22,1.92a4.88,4.88,0,0,1-1.95.38,3.11,3.11,0,0,1-1.21-.23,1.72,1.72,0,0,1-.79-.59,2.34,2.34,0,0,1-.35-1,12.58,12.58,0,0,1-.07-1.73V44.33h-1.15v-2h1.15V40.5l2.48-1.44v3.3Zm4.27-3.56v4.75a3.68,3.68,0,0,1,4.4-1.09,2.68,2.68,0,0,1,1,.81,2.87,2.87,0,0,1,.47,1.09,9.29,9.29,0,0,1,.13,1.86v5.47h-2.47V46.75a7.44,7.44,0,0,0-.14-1.86,1.17,1.17,0,0,0-.5-.62,1.58,1.58,0,0,0-.89-.24,2.06,2.06,0,0,0-1.1.3,1.8,1.8,0,0,0-.71.9,5.39,5.39,0,0,0-.22,1.79v4.67H437.6V38.8Zm8.45,9.45V45.78h4.84v2.47Zm5.86-2.92A8.09,8.09,0,0,1,455,42a6.06,6.06,0,0,1,1.19-1.77,5,5,0,0,1,1.67-1.16,7.07,7.07,0,0,1,2.78-.51,6.07,6.07,0,0,1,4.55,1.76,6.8,6.8,0,0,1,1.71,4.93,6.74,6.74,0,0,1-1.69,4.87,6,6,0,0,1-4.54,1.77,6.09,6.09,0,0,1-4.57-1.75A6.66,6.66,0,0,1,454.38,45.33Zm2.69-.1a4.85,4.85,0,0,0,1,3.32,3.45,3.45,0,0,0,5.12,0,5,5,0,0,0,1-3.36,4.85,4.85,0,0,0-1-3.3,3.28,3.28,0,0,0-2.58-1.09,3.35,3.35,0,0,0-2.6,1.1A4.91,4.91,0,0,0,457.07,45.23Zm14.43,6.46H469V42.36h2.3v1.33a3.92,3.92,0,0,1,1.05-1.25,2,2,0,0,1,1.08-.3,3.13,3.13,0,0,1,1.62.47l-.77,2.16a2.07,2.07,0,0,0-1.15-.41,1.36,1.36,0,0,0-.88.28,1.83,1.83,0,0,0-.57,1,14.45,14.45,0,0,0-.21,3.13Zm13.33,0h-2.3V50.31a3.84,3.84,0,0,1-1.35,1.2,3.45,3.45,0,0,1-1.57.4,3.59,3.59,0,0,1-2.76-1.3A5.32,5.32,0,0,1,475.71,47a5.25,5.25,0,0,1,1.11-3.61,3.66,3.66,0,0,1,2.82-1.23,3.51,3.51,0,0,1,2.72,1.3V38.8h2.47Zm-6.59-4.88a4.37,4.37,0,0,0,.4,2.17,1.87,1.87,0,0,0,1.68,1,1.82,1.82,0,0,0,1.45-.72,3.42,3.42,0,0,0,.59-2.17,3.68,3.68,0,0,0-.58-2.32A1.83,1.83,0,0,0,480.3,44a1.85,1.85,0,0,0-1.47.7A3.17,3.17,0,0,0,478.24,46.81Zm14.62,1.91,2.45.4a4.06,4.06,0,0,1-1.49,2.08,4.43,4.43,0,0,1-2.57.71,4.12,4.12,0,0,1-3.59-1.6,5.31,5.31,0,0,1-.92-3.22A5.16,5.16,0,0,1,488,43.45,4,4,0,0,1,491,42.14a4.13,4.13,0,0,1,3.28,1.38,6.11,6.11,0,0,1,1.16,4.21h-6.19a2.47,2.47,0,0,0,.58,1.71,1.9,1.9,0,0,0,1.43.61,1.54,1.54,0,0,0,1-.32A1.81,1.81,0,0,0,492.86,48.72Zm.14-2.5a2.38,2.38,0,0,0-.56-1.63,1.77,1.77,0,0,0-2.61,0,2.3,2.3,0,0,0-.53,1.6Zm7,5.47h-2.47V42.36h2.3v1.33a3.68,3.68,0,0,1,1.05-1.25,2,2,0,0,1,1.07-.3,3.16,3.16,0,0,1,1.63.47l-.77,2.16a2.09,2.09,0,0,0-1.15-.41,1.41,1.41,0,0,0-.89.28,2,2,0,0,0-.57,1,15.4,15.4,0,0,0-.2,3.13Zm4.08,3.78c.49-1,.83-1.84,1-2.4a18.2,18.2,0,0,0,.55-1.92c.16-.73.29-1.42.37-2.07a14.71,14.71,0,0,0,.13-2,16.8,16.8,0,0,0-.45-4,25.85,25.85,0,0,0-1.65-4.54h1.67a15.91,15.91,0,0,1,2.07,4,13,13,0,0,1,.73,4.3,14.8,14.8,0,0,1-.58,3.94,16.09,16.09,0,0,1-2.17,4.64Z" transform="translate(-35.73 -32.74)"/><path class="cls-2" d="M643.84,479.44l-2.11-.63-2.18-.61-2.24-.58-2.31-.57-2.38-.54-2.45-.52-2.5-.51L625.1,475l-2.63-.46-2.69-.45-2.75-.42-2.81-.41-2.86-.38-2.9-.37-3-.35-3-.34-3-.32-3.09-.3-3.13-.29-3.16-.28-3.19-.26-3.22-.24-3.24-.24-3.26-.22-3.28-.21-3.28-.19-3.3-.19L564,468.9l-3.29-.16-3.29-.16-3.26-.15-3.25-.14-3.22-.13-3.19-.13-3.15-.12-3.1-.11-3-.1-3-.1-2.93-.09-2.86-.09-2.78-.08-2.7-.08-2.61-.07-2.53-.07-2.43-.07L511,467l-2.24-.06-2.15-.05-2-.05-2-.05-1.87,0-1.79-.05-1.7,0-1.63-.05-1.55,0-1.5,0-1.43,0-1.39,0-1.34,0-1.3,0-1.27,0-1.26,0-1.23,0-1.23,0-1.22,0-1.22,0-1.24,0-1.24,0L476,466l-1.28-.05-1.32-.05-1.35,0-1.38-.05-1.43-.06-1.47-.05-1.51-.06-1.56-.07L463,465.5l-1.67-.07-1.73-.07-1.78-.08-1.84-.07-1.91-.08-2-.09-2-.08-2.1-.08-2.16-.09-2.22-.09-2.29-.09-2.36-.09-2.42-.09-2.49-.1-2.54-.09-2.62-.09-2.67-.09-2.73-.09-2.8-.1-2.85-.08L415,463.7l-3-.09-3-.08-3.06-.09-3.12-.08-3.16-.08-3.21-.07-3.25-.08-3.29-.07-3.33-.07-3.36-.07-3.4-.06-3.42-.06-3.45-.06-3.48-.06-3.5-.06-3.52-.05-3.53-.05-3.54,0-3.55-.05-3.55,0-3.55,0-3.55,0-3.54,0-3.52,0-3.51,0-3.48,0-3.45,0-3.41,0-3.37,0-3.32,0-3.27,0-3.2,0L304,462l-3.06,0-3,0-2.88,0-2.79,0h-2.69l-2.58,0h-4.83l-2.24,0H248.64l-.85,0h-3.71l-1,0-1.06,0h-1.1l-1.14,0-1.19,0-1.24,0-1.3,0-1.34,0-1.4,0-1.46,0-1.52,0-1.57,0-1.64,0-1.69,0-1.76,0-1.81,0-1.88,0-1.94,0-2,0L214,461l-2.12,0-2.17,0-2.23,0-2.28,0-2.34,0-2.38-.05-2.43,0-2.48-.05-2.51,0-2.55-.05-2.58,0-2.6,0-2.63-.05-2.65,0-2.65,0-2.66,0-2.66,0-2.65,0-2.63,0-2.61,0-2.58,0-2.54,0-2.5,0-2.44,0-2.39,0-2.31,0-2.24,0-2.16,0-2.07,0-2,0-1.89,0-1.79,0-1.68,0-1.58,0-1.48,0h-1.38l-1.28,0-1.18,0h-1.08l-1,0h-.9l-.83,0h-7v0h0V435.78l0-1v-3.12l0-1v-1l0-1v-1l0-1,0-1v-1l0-1,0-1,0-1v-.94l0-.93,0-.91,0-.9,0-.88,0-.87,0-.85,0-.82,0-.82,0-.79,0-.77,0-.75,0-.73,0-.72v-.69l0-.67,0-.65v-.63l0-.61,0-.58v-.57l0-.55v-2l0-.45V364.07l0-1.18v-2.38l0-1.2v-1.19l0-1.19,0-1.19,0-1.19,0-1.19,0-1.19,0-1.18,0-1.18,0-1.17,0-1.17,0-1.17,0-1.15,0-1.16,0-1.14,0-1.14,0-1.13,0-1.13,0-1.11,0-1.11,0-1.09,0-1.09,0-1.07,0-1.07,0-1.05,0-1,0-1-.06-1,0-1-.06-1,0-1-.06-1-.06-.93-.06-.92-.06-.91-.06-.88-.06-.87-.06-.85-.06-.83-.06-.81-.07-.79-.06-.77-.06-.75,0-.72-.06-.71-.06-.69,0-.66-.06-.65,0-.62,0-.6,0-.58,0-.56,0-.54,0-.52,0-.5,0-.47,0-.46,0-.44,0-.42,0-.4,0-.39,0-.36,0-.35,0-.34,0-.31,0-.31v-.28l0-.27v-.26l0-.25V276.56l0-1.13v-1.15l0-1.15,0-1.15v-1.17l0-1.17,0-1.17,0-1.18,0-1.17,0-1.18,0-1.18,0-1.18,0-1.18,0-1.18,0-1.17,0-1.17,0-1.17,0-1.16,0-1.16,0-1.15,0-1.15,0-1.14-.05-1.13,0-1.13,0-1.12-.06-1.1-.06-1.1,0-1.09-.07-1.08-.06-1.07-.07-1.06-.07-1-.07-1-.07-1-.08-1-.07-1-.08-1-.08-1-.09-.94-.08-.93-.08-.92-.09-.89-.09-.88-.08-.86-.09-.84-.09-.82-.09-.8-.08-.78-.09-.76-.08-.74-.08-.72-.09-.7-.08-.67-.07-.66-.08-.63-.07-.62-.07-.59-.07-.57-.06-.55-.06-.53-.06-.51-.06-.49,0-.47-.05-.45,0-.43,0-.41,0-.39,0-.38,0-.36,0-.34,0-.33,0-.31,0-.29,0-.28,0-.27,0-.25,0-.24,0-.23V211l0-.2V194.27l0-1v-3.06l0-1.07v-1.08l0-1.1,0-1.12,0-1.13v-1.15l0-1.15,0-1.16,0-1.17,0-1.18,0-1.18,0-1.19,0-1.19,0-1.19,0-1.2,0-1.19,0-1.2,0-1.19,0-1.2,0-1.19,0-1.19-.06-1.19,0-1.18-.06-1.18-.06-1.18-.06-1.17-.07-1.17-.07-1.16-.08-1.16-.08-1.15-.08-1.14-.09-1.14-.09-1.12-.1-1.12-.1-1.11-.1-1.1-.11-1.09-.11-1.08-.12-1.07-.12-1.05-.13-1-.13-1-.14-1-.14-1-.14-1-.15-1-.15-1-.15-.94-.16-.93-.16-.91-.16-.89-.16-.88-.16-.85-.17-.84-.16-.82-.17-.79-.16-.78-.16-.76-.16-.73-.16-.72-.16-.69-.15-.68-.15-.65-.14-.63-.14-.61-.14-.59-.13-.56-.12-.55-.12-.53-.11-.5-.11-.49-.1-.46-.1-.45-.09-.42-.08-.41-.08-.39-.08-.37-.07-.36-.06-.34-.06-.32-.05-.3,0-.29,0-.28,0-.26,0-.25,0-.23,0-.23,0-.21,0-.2,0-.18,0-.18,0-.17v-.16l0-.15V61.75l0-.79V59.44" transform="translate(-35.73 -32.74)"/><circle class="cls-3" cx="82.19" cy="426.71" r="6.67"/><circle class="cls-4" cx="82.19" cy="426.71" r="4.17"/><circle class="cls-5" cx="82.19" cy="426.71" r="4.17"/><path class="cls-6" d="M119.59,402.05v53l0,.19,0,.19,0,.19.06.18.07.18.08.18.09.17.1.16.11.16.12.14.13.14.14.14.15.12.16.11.16.1.17.09.17.08.18.07.19.05.19.05.18,0,.2,0H234.52l.19,0,.19,0,.19-.05.18-.05.18-.07.17-.08.17-.09.17-.1.15-.11.15-.12.14-.14.13-.14.12-.14.12-.16.1-.16.09-.17L237,456l.07-.18,0-.18,0-.19,0-.19V401.67l0-.19,0-.19,0-.18-.07-.18-.08-.18-.09-.17-.1-.16-.12-.16-.12-.14-.13-.14-.14-.14-.15-.12-.15-.11-.17-.1-.17-.09-.17-.08-.18-.07-.18,0-.19-.05-.19,0-.19,0H122.34l-.2,0-.18,0-.19.05-.19,0-.18.07-.17.08-.17.09-.16.1-.16.11-.15.12-.14.14-.13.14-.12.14-.11.16-.1.16-.09.17-.08.18-.07.18-.06.18,0,.19,0,.19,0,.19Z" transform="translate(-35.73 -32.74)"/><path class="cls-7" d="M119.59,454.85V455l0,.19,0,.19,0,.19.06.18.07.18.08.18.09.17.1.16.11.16.12.14.13.14.14.14.15.12.16.11.16.1.17.09.17.08.18.07.19.05.19.05.18,0,.2,0H234.52l.19,0,.19,0,.19-.05.18-.05.18-.07.17-.08.17-.09.17-.1.15-.11.15-.12.14-.14.13-.14.12-.14.12-.16.1-.16.09-.17L237,456l.07-.18,0-.18,0-.19,0-.19V401.67l0-.19,0-.19,0-.18-.07-.18-.08-.18-.09-.17-.1-.16-.12-.16-.12-.14-.13-.14-.14-.14-.15-.12-.15-.11-.17-.1-.17-.09-.17-.08-.18-.07-.18,0-.19-.05-.19,0-.19,0H122.34l-.2,0-.18,0-.19.05-.19,0-.18.07-.17.08-.17.09-.16.1-.16.11-.15.12-.14.14-.13.14-.12.14-.11.16-.1.16-.09.17-.08.18-.07.18-.06.18,0,.19,0,.19,0,.19v53Z" transform="translate(-35.73 -32.74)"/><path class="cls-8" d="M127.92,424.44l4.7-6.35-4.15-5.82h1.92l2.2,3.12a15.3,15.3,0,0,1,1,1.5,13.11,13.11,0,0,1,1-1.39l2.43-3.23h1.77L134.47,418l4.61,6.44h-2L134,420.09l-.54-.81c-.27.45-.46.76-.57.92l-3,4.24Z" transform="translate(-35.73 -32.74)"/><path class="cls-9" d="M144.61,421.62l2.26-.25a1.72,1.72,0,0,0,.43,1,1.32,1.32,0,0,0,.93.33,1.51,1.51,0,0,0,1.23-.66,5.57,5.57,0,0,0,.65-2.76,2.81,2.81,0,0,1-2.2,1,3.28,3.28,0,0,1-2.48-1.11,4.07,4.07,0,0,1-1-2.89,4.16,4.16,0,0,1,1.09-3,3.75,3.75,0,0,1,2.8-1.13,3.8,3.8,0,0,1,3.05,1.43c.79,1,1.19,2.52,1.19,4.71s-.42,3.84-1.25,4.82a4,4,0,0,1-3.22,1.48,3.46,3.46,0,0,1-2.31-.76A3.67,3.67,0,0,1,144.61,421.62Zm5.28-5.09a2.64,2.64,0,0,0-.52-1.76,1.51,1.51,0,0,0-1.2-.61,1.37,1.37,0,0,0-1.07.5,2.63,2.63,0,0,0-.43,1.67,2.68,2.68,0,0,0,.47,1.74,1.45,1.45,0,0,0,1.16.55,1.43,1.43,0,0,0,1.13-.53A2.29,2.29,0,0,0,149.89,416.53Zm4.44,7.91v-2.33h2.32v2.33Zm4.12-9.85v-2.15h8v1.68a12.6,12.6,0,0,0-2,2.79,16.69,16.69,0,0,0-1.56,3.87,14,14,0,0,0-.53,3.66h-2.25a15.77,15.77,0,0,1,1-5.15,17.37,17.37,0,0,1,2.63-4.7Zm15.24,9.85h-2.33v-8.8a8.06,8.06,0,0,1-3,1.78V415.3a6.56,6.56,0,0,0,2-1.14,4.25,4.25,0,0,0,1.47-1.94h1.89Zm7.87,0V422h-5v-2l5.29-7.73h1.95v7.72h1.51v2h-1.51v2.46Zm0-4.5v-4.16l-2.8,4.16Zm9.26,4.5V422h-5v-2l5.28-7.73h1.95v7.72h1.52v2h-1.52v2.46Zm0-4.5v-4.16L188,419.94Zm10.3,1.68,2.32.4a3.83,3.83,0,0,1-1.42,2,4.11,4.11,0,0,1-2.42.67,4,4,0,0,1-3.41-1.5,5.14,5.14,0,0,1-.85-3.05,4.9,4.9,0,0,1,1.14-3.43,3.77,3.77,0,0,1,2.89-1.24,3.92,3.92,0,0,1,3.11,1.3,5.74,5.74,0,0,1,1.09,4h-5.84a2.3,2.3,0,0,0,.55,1.61,1.76,1.76,0,0,0,1.35.58,1.41,1.41,0,0,0,.92-.3A1.82,1.82,0,0,0,201.12,421.62Zm.12-2.34a2.25,2.25,0,0,0-.51-1.55,1.64,1.64,0,0,0-1.22-.53,1.56,1.56,0,0,0-1.25.57,2.12,2.12,0,0,0-.5,1.51Zm3.77,1.91v-2.33h4.57v2.33Zm9.26-9a3.29,3.29,0,0,1,2.75,1.26q1.18,1.49,1.19,5t-1.19,5a3.33,3.33,0,0,1-2.75,1.23,3.5,3.5,0,0,1-2.87-1.37q-1.08-1.36-1.08-4.86c0-2.3.39-3.94,1.18-4.94A3.34,3.34,0,0,1,214.27,412.22Zm0,1.94a1.18,1.18,0,0,0-.77.26,1.87,1.87,0,0,0-.51,1,19.56,19.56,0,0,0,0,6,2.19,2.19,0,0,0,.54,1.07,1.23,1.23,0,0,0,1.51,0,1.87,1.87,0,0,0,.52-1,14,14,0,0,0,.23-3,13.7,13.7,0,0,0-.21-2.95,2.07,2.07,0,0,0-.54-1.07A1.14,1.14,0,0,0,214.27,414.16Zm5.34,7.15,2.33-.25a2,2,0,0,0,.59,1.26,1.61,1.61,0,0,0,2.37-.13,2.72,2.72,0,0,0,.51-1.8,2.4,2.4,0,0,0-.51-1.67,1.65,1.65,0,0,0-1.3-.56,2.35,2.35,0,0,0-1.8.89l-1.91-.28,1.21-6.33h6.17v2.18h-4.41l-.36,2.07a3.53,3.53,0,0,1,1.6-.39,3.49,3.49,0,0,1,2.62,1.12,4.07,4.07,0,0,1,1.08,2.94,4.3,4.3,0,0,1-.88,2.67,3.87,3.87,0,0,1-3.29,1.61,4,4,0,0,1-2.74-.91A3.76,3.76,0,0,1,219.61,421.31Z" transform="translate(-35.73 -32.74)"/><path class="cls-8" d="M132.58,445.44v-5.16l-4.69-7h2l2.39,3.67c.45.68.86,1.37,1.23,2.06.37-.64.81-1.35,1.33-2.16l2.36-3.57h1.88l-4.86,7v5.16Z" transform="translate(-35.73 -32.74)"/><path class="cls-9" d="M152.44,443.27v2.17h-8.17a5.63,5.63,0,0,1,.8-2.33,15.93,15.93,0,0,1,2.62-2.92,15.8,15.8,0,0,0,1.93-2,2.52,2.52,0,0,0,.49-1.43,1.61,1.61,0,0,0-.42-1.2,1.57,1.57,0,0,0-1.16-.41,1.54,1.54,0,0,0-1.16.43,2.29,2.29,0,0,0-.51,1.46l-2.31-.22a3.8,3.8,0,0,1,1.29-2.78,4.42,4.42,0,0,1,2.74-.83,3.92,3.92,0,0,1,2.83,1,3.16,3.16,0,0,1,1,2.42,4.27,4.27,0,0,1-.29,1.55,5.93,5.93,0,0,1-.93,1.56,14.73,14.73,0,0,1-1.53,1.56c-.74.68-1.21,1.13-1.4,1.34a5.14,5.14,0,0,0-.48.65Zm1.89,2.17v-2.33h2.32v2.33Zm6.12-6.57a2.61,2.61,0,0,1-1.72-2.51,3,3,0,0,1,1-2.25,4.54,4.54,0,0,1,5.4,0,3,3,0,0,1,.95,2.25,2.59,2.59,0,0,1-.44,1.5,2.74,2.74,0,0,1-1.23,1,3.29,3.29,0,0,1,1.54,1.19,3.14,3.14,0,0,1,.52,1.8,3.65,3.65,0,0,1-1.07,2.74,3.92,3.92,0,0,1-2.87,1.06,4.29,4.29,0,0,1-2.75-.88,3.42,3.42,0,0,1-1.31-2.83,3.56,3.56,0,0,1,.49-1.81A3.22,3.22,0,0,1,160.45,438.87Zm.49-2.35a1.45,1.45,0,0,0,.4,1.09,1.42,1.42,0,0,0,1,.39,1.46,1.46,0,0,0,1.06-.39,1.48,1.48,0,0,0,.39-1.09,1.46,1.46,0,0,0-.39-1.06,1.42,1.42,0,0,0-1-.4,1.46,1.46,0,0,0-1.07.4A1.42,1.42,0,0,0,160.94,436.52Zm-.22,5.21a2.15,2.15,0,0,0,.49,1.51,1.61,1.61,0,0,0,1.24.54,1.55,1.55,0,0,0,1.2-.52,2.14,2.14,0,0,0,.48-1.49,1.94,1.94,0,0,0-.49-1.38,1.62,1.62,0,0,0-1.22-.52,1.48,1.48,0,0,0-1.28.59A2.15,2.15,0,0,0,160.72,441.73Zm6.92.47,2.25-.26a2.13,2.13,0,0,0,.58,1.31,1.63,1.63,0,0,0,1.15.45,1.56,1.56,0,0,0,1.21-.54,2.13,2.13,0,0,0,.5-1.47,2,2,0,0,0-.47-1.39,1.49,1.49,0,0,0-1.16-.52,4.34,4.34,0,0,0-1.06.17l.25-1.9a2,2,0,0,0,1.44-.41,1.48,1.48,0,0,0,.5-1.16,1.24,1.24,0,0,0-1.33-1.34,1.42,1.42,0,0,0-1,.41,2,2,0,0,0-.51,1.22l-2.16-.38a4.94,4.94,0,0,1,.67-1.76,3.06,3.06,0,0,1,1.27-1,4.25,4.25,0,0,1,1.81-.37,3.65,3.65,0,0,1,2.77,1.09,2.89,2.89,0,0,1,.84,2,2.84,2.84,0,0,1-1.75,2.55,2.88,2.88,0,0,1,2.3,2.89,3.67,3.67,0,0,1-1.17,2.74,4.4,4.4,0,0,1-5.65.18A3.7,3.7,0,0,1,167.64,442.2Zm13.92,3.24V443h-5v-2l5.29-7.73h1.95v7.72h1.51v2h-1.51v2.46Zm0-4.5v-4.16l-2.8,4.16Zm4.68-5.35v-2.15h8v1.68a12.6,12.6,0,0,0-2,2.79,16.69,16.69,0,0,0-1.56,3.87,14,14,0,0,0-.53,3.66h-2.25a16,16,0,0,1,1.05-5.15,17.37,17.37,0,0,1,2.63-4.7Z" transform="translate(-35.73 -32.74)"/><circle class="cls-10" cx="82.19" cy="426.71" r="3.33"/><circle class="cls-11" cx="82.19" cy="426.71" r="4.17"/><line class="cls-1" x1="704.31" y1="451.48" x2="1247.31" y2="451.48"/><line class="cls-1" x1="704.31" y1="23.48" x2="1247.31" y2="23.48"/><line class="cls-1" x1="704.31" y1="451.48" x2="704.31" y2="446.05"/><line class="cls-1" x1="758.61" y1="451.48" x2="758.61" y2="446.05"/><line class="cls-1" x1="812.91" y1="451.48" x2="812.91" y2="446.05"/><line class="cls-1" x1="867.21" y1="451.48" x2="867.21" y2="446.05"/><line class="cls-1" x1="921.51" y1="451.48" x2="921.51" y2="446.05"/><line class="cls-1" x1="975.81" y1="451.48" x2="975.81" y2="446.05"/><line class="cls-1" x1="1030.11" y1="451.48" x2="1030.11" y2="446.05"/><line class="cls-1" x1="1084.41" y1="451.48" x2="1084.41" y2="446.05"/><line class="cls-1" x1="1138.71" y1="451.48" x2="1138.71" y2="446.05"/><line class="cls-1" x1="1193.01" y1="451.48" x2="1193.01" y2="446.05"/><line class="cls-1" x1="1247.31" y1="451.48" x2="1247.31" y2="446.05"/><line class="cls-1" x1="704.31" y1="23.48" x2="704.31" y2="28.91"/><line class="cls-1" x1="758.61" y1="23.48" x2="758.61" y2="28.91"/><line class="cls-1" x1="812.91" y1="23.48" x2="812.91" y2="28.91"/><line class="cls-1" x1="867.21" y1="23.48" x2="867.21" y2="28.91"/><line class="cls-1" x1="921.51" y1="23.48" x2="921.51" y2="28.91"/><line class="cls-1" x1="975.81" y1="23.48" x2="975.81" y2="28.91"/><line class="cls-1" x1="1030.11" y1="23.48" x2="1030.11" y2="28.91"/><line class="cls-1" x1="1084.41" y1="23.48" x2="1084.41" y2="28.91"/><line class="cls-1" x1="1138.71" y1="23.48" x2="1138.71" y2="28.91"/><line class="cls-1" x1="1193.01" y1="23.48" x2="1193.01" y2="28.91"/><line class="cls-1" x1="1247.31" y1="23.48" x2="1247.31" y2="28.91"/><text class="cls-12" transform="translate(699.31 475.15)">0</text><text class="cls-12" transform="translate(746.61 475.15)">0.1</text><text class="cls-12" transform="translate(800.91 475.15)">0.2</text><text class="cls-12" transform="translate(855.21 475.15)">0.3</text><text class="cls-12" transform="translate(909.51 475.15)">0.4</text><text class="cls-12" transform="translate(963.81 475.15)">0.5</text><text class="cls-12" transform="translate(1018.11 475.15)">0.6</text><text class="cls-12" transform="translate(1072.41 475.15)">0.7</text><text class="cls-12" transform="translate(1126.71 475.15)">0.8</text><text class="cls-12" transform="translate(1181.01 475.15)">0.9</text><text class="cls-12" transform="translate(1242.31 475.15)">1</text><text class="cls-13" transform="translate(970.81 499.81)">x</text><line class="cls-1" x1="704.31" y1="451.48" x2="704.31" y2="23.48"/><line class="cls-1" x1="1247.31" y1="451.48" x2="1247.31" y2="23.48"/><line class="cls-1" x1="704.31" y1="451.48" x2="709.74" y2="451.48"/><line class="cls-1" x1="704.31" y1="408.68" x2="709.74" y2="408.68"/><line class="cls-1" x1="704.31" y1="365.88" x2="709.74" y2="365.88"/><line class="cls-1" x1="704.31" y1="323.08" x2="709.74" y2="323.08"/><line class="cls-1" x1="704.31" y1="280.28" x2="709.74" y2="280.28"/><line class="cls-1" x1="704.31" y1="237.48" x2="709.74" y2="237.48"/><line class="cls-1" x1="704.31" y1="194.68" x2="709.74" y2="194.68"/><line class="cls-1" x1="704.31" y1="151.88" x2="709.74" y2="151.88"/><line class="cls-1" x1="704.31" y1="109.08" x2="709.74" y2="109.08"/><line class="cls-1" x1="704.31" y1="66.28" x2="709.74" y2="66.28"/><line class="cls-1" x1="704.31" y1="23.48" x2="709.74" y2="23.48"/><line class="cls-1" x1="1247.31" y1="451.48" x2="1241.88" y2="451.48"/><line class="cls-1" x1="1247.31" y1="408.68" x2="1241.88" y2="408.68"/><line class="cls-1" x1="1247.31" y1="365.88" x2="1241.88" y2="365.88"/><line class="cls-1" x1="1247.31" y1="323.08" x2="1241.88" y2="323.08"/><line class="cls-1" x1="1247.31" y1="280.28" x2="1241.88" y2="280.28"/><line class="cls-1" x1="1247.31" y1="237.48" x2="1241.88" y2="237.48"/><line class="cls-1" x1="1247.31" y1="194.68" x2="1241.88" y2="194.68"/><line class="cls-1" x1="1247.31" y1="151.88" x2="1241.88" y2="151.88"/><line class="cls-1" x1="1247.31" y1="109.08" x2="1241.88" y2="109.08"/><line class="cls-1" x1="1247.31" y1="66.28" x2="1241.88" y2="66.28"/><line class="cls-1" x1="1247.31" y1="23.48" x2="1241.88" y2="23.48"/><text class="cls-12" transform="translate(673.64 457.98)">0.1</text><text class="cls-12" transform="translate(673.64 415.18)">0.2</text><text class="cls-12" transform="translate(673.64 372.38)">0.3</text><text class="cls-12" transform="translate(673.64 329.58)">0.4</text><text class="cls-12" transform="translate(673.64 286.78)">0.5</text><text class="cls-12" transform="translate(673.64 243.98)">0.6</text><text class="cls-12" transform="translate(673.64 201.18)">0.7</text><text class="cls-12" transform="translate(673.64 158.38)">0.8</text><text class="cls-12" transform="translate(673.64 115.58)">0.9</text><text class="cls-12" transform="translate(687.64 72.78)">1</text><text class="cls-12" transform="translate(673.64 29.98)">1.1</text><text class="cls-13" transform="translate(663.64 255.98) rotate(-90)">m(x)</text><text class="cls-14" transform="translate(798.31 15.73)">Model by L-curve criterion (zeroth-order)</text><path class="cls-15" d="M740,432.22h27.15V284.35h27.15V185h27.15V126.14h27.15v-25.8h27.15v.44h27.15V121.2h27.15v34.73h27.15v43.85h27.15v48.33h27.15v48.63h27.15V342h27.15v38.53H1093v29h27.15v17h27.15v3h27.15V416.62h27.15V386.56h27.15V338.22h27.15V270.79H1283" transform="translate(-35.73 -32.74)"/></svg>