<svg id="图层_1" data-name="图层 1" xmlns="http://www.w3.org/2000/svg" viewBox="0 0 1229.55 512.09"><defs><style>.cls-1{fill:#fff;}.cls-12,.cls-2,.cls-3,.cls-4,.cls-6,.cls-8{fill:none;}.cls-2,.cls-3,.cls-4{stroke:#000;}.cls-2{stroke-linecap:square;}.cls-2,.cls-3,.cls-8{stroke-linejoin:round;stroke-width:0.83px;}.cls-12,.cls-4,.cls-6{stroke-miterlimit:10;}.cls-11,.cls-5{fill:#262626;}.cls-12,.cls-6{stroke:#ffffdc;stroke-width:1.67px;}.cls-7{fill:#fafaff;}.cls-8{stroke:#595959;}.cls-9{fill:#404040;}.cls-10{fill:#09f;}.cls-11{fill-opacity:0.39;}.cls-12{stroke-opacity:0.39;}.cls-13,.cls-14,.cls-15{isolation:isolate;}.cls-13{font-size:16.67px;}.cls-13,.cls-14{font-family:ArialMT, Arial;}.cls-14,.cls-15{font-size:18.33px;}.cls-15{font-family:Arial-BoldMT, Arial;font-weight:700;}</style></defs><title>3</title><path class="cls-1" d="M164.89,495.48h543v-428h-543Z" transform="translate(-95.78 -36.6)"/><line class="cls-2" x1="69.11" y1="458.89" x2="612.11" y2="458.89"/><line class="cls-2" x1="69.11" y1="30.89" x2="612.11" y2="30.89"/><line class="cls-2" x1="69.11" y1="458.89" x2="69.11" y2="453.46"/><line class="cls-2" x1="250.11" y1="458.89" x2="250.11" y2="453.46"/><line class="cls-2" x1="431.11" y1="458.89" x2="431.11" y2="453.46"/><line class="cls-2" x1="612.11" y1="458.89" x2="612.11" y2="453.46"/><line class="cls-2" x1="69.11" y1="30.89" x2="69.11" y2="36.32"/><line class="cls-2" x1="250.11" y1="30.89" x2="250.11" y2="36.32"/><line class="cls-2" x1="431.11" y1="30.89" x2="431.11" y2="36.32"/><line class="cls-2" x1="612.11" y1="30.89" x2="612.11" y2="36.32"/><line class="cls-2" x1="69.11" y1="458.89" x2="69.11" y2="456.17"/><line class="cls-2" x1="105.31" y1="458.89" x2="105.31" y2="456.17"/><line class="cls-2" x1="141.51" y1="458.89" x2="141.51" y2="456.17"/><line class="cls-2" x1="177.71" y1="458.89" x2="177.71" y2="456.17"/><line class="cls-2" x1="213.91" y1="458.89" x2="213.91" y2="456.17"/><line class="cls-2" x1="250.11" y1="458.89" x2="250.11" y2="456.17"/><line class="cls-2" x1="286.31" y1="458.89" x2="286.31" y2="456.17"/><line class="cls-2" x1="322.51" y1="458.89" x2="322.51" y2="456.17"/><line class="cls-2" x1="358.71" y1="458.89" x2="358.71" y2="456.17"/><line class="cls-2" x1="394.91" y1="458.89" x2="394.91" y2="456.17"/><line class="cls-2" x1="431.11" y1="458.89" x2="431.11" y2="456.17"/><line class="cls-2" x1="467.31" y1="458.89" x2="467.31" y2="456.17"/><line class="cls-2" x1="503.51" y1="458.89" x2="503.51" y2="456.17"/><line class="cls-2" x1="539.71" y1="458.89" x2="539.71" y2="456.17"/><line class="cls-2" x1="575.91" y1="458.89" x2="575.91" y2="456.17"/><line class="cls-2" x1="612.11" y1="458.89" x2="612.11" y2="456.17"/><line class="cls-2" x1="69.11" y1="30.89" x2="69.11" y2="33.6"/><line class="cls-2" x1="105.31" y1="30.89" x2="105.31" y2="33.6"/><line class="cls-2" x1="141.51" y1="30.89" x2="141.51" y2="33.6"/><line class="cls-2" x1="177.71" y1="30.89" x2="177.71" y2="33.6"/><line class="cls-2" x1="213.91" y1="30.89" x2="213.91" y2="33.6"/><line class="cls-2" x1="250.11" y1="30.89" x2="250.11" y2="33.6"/><line class="cls-2" x1="286.31" y1="30.89" x2="286.31" y2="33.6"/><line class="cls-2" x1="322.51" y1="30.89" x2="322.51" y2="33.6"/><line class="cls-2" x1="358.71" y1="30.89" x2="358.71" y2="33.6"/><line class="cls-2" x1="394.91" y1="30.89" x2="394.91" y2="33.6"/><line class="cls-2" x1="431.11" y1="30.89" x2="431.11" y2="33.6"/><line class="cls-2" x1="467.31" y1="30.89" x2="467.31" y2="33.6"/><line class="cls-2" x1="503.51" y1="30.89" x2="503.51" y2="33.6"/><line class="cls-2" x1="539.71" y1="30.89" x2="539.71" y2="33.6"/><line class="cls-2" x1="575.91" y1="30.89" x2="575.91" y2="33.6"/><line class="cls-2" x1="612.11" y1="30.89" x2="612.11" y2="33.6"/><path d="M151.22,524.48h-1.49V515a7.57,7.57,0,0,1-1.42,1,10.88,10.88,0,0,1-1.58.78v-1.46a8.55,8.55,0,0,0,2.21-1.42,5.79,5.79,0,0,0,1.33-1.62h.95Zm3.64-6a11.36,11.36,0,0,1,.44-3.47,4.34,4.34,0,0,1,1.32-2,3.37,3.37,0,0,1,2.21-.71,3.64,3.64,0,0,1,1.72.39,3.29,3.29,0,0,1,1.21,1.14,5.88,5.88,0,0,1,.76,1.81,12.09,12.09,0,0,1,.28,2.87,11.29,11.29,0,0,1-.44,3.46,4.35,4.35,0,0,1-1.31,2,3.4,3.4,0,0,1-2.22.72,3.36,3.36,0,0,1-2.77-1.25Q154.86,521.91,154.86,518.48Zm1.53,0c0,2,.23,3.34.7,4a2,2,0,0,0,3.47,0c.47-.67.7-2,.7-4s-.23-3.33-.7-4a2.08,2.08,0,0,0-1.75-1,1.91,1.91,0,0,0-1.64.87A7.65,7.65,0,0,0,156.39,518.48Z" transform="translate(-95.78 -36.6)"/><path d="M164.3,513.69v-1.14h3.51v1.14Zm8.87,2.79H172V509.2a6.42,6.42,0,0,1-1.09.79,6.85,6.85,0,0,1-1.19.59v-1.11a6.66,6.66,0,0,0,1.67-1.08,4,4,0,0,0,1-1.25h.74Zm3.1-2.43,1.19-.11a2.22,2.22,0,0,0,.63,1.33,1.68,1.68,0,0,0,1.17.43,1.84,1.84,0,0,0,1.4-.62,2.36,2.36,0,0,0,.57-1.64,2.11,2.11,0,0,0-.55-1.55,1.92,1.92,0,0,0-1.44-.56,2,2,0,0,0-1,.25,1.89,1.89,0,0,0-.7.64l-1.06-.14.89-4.77H182v1.08h-3.7l-.5,2.5a3.05,3.05,0,0,1,1.75-.58,2.78,2.78,0,0,1,2.06.85,3,3,0,0,1,.83,2.17,3.42,3.42,0,0,1-.73,2.19,3,3,0,0,1-2.44,1.12,3,3,0,0,1-2.07-.71A2.76,2.76,0,0,1,176.27,514.05Z" transform="translate(-95.78 -36.6)"/><path d="M332.22,524.48h-1.49V515a7.57,7.57,0,0,1-1.42,1,10.88,10.88,0,0,1-1.58.78v-1.46a8.55,8.55,0,0,0,2.21-1.42,5.79,5.79,0,0,0,1.33-1.62h1Zm3.64-6a11.36,11.36,0,0,1,.44-3.47,4.34,4.34,0,0,1,1.32-2,3.37,3.37,0,0,1,2.21-.71,3.64,3.64,0,0,1,1.72.39,3.29,3.29,0,0,1,1.21,1.14,5.88,5.88,0,0,1,.76,1.81,12.09,12.09,0,0,1,.28,2.87,11.29,11.29,0,0,1-.44,3.46,4.35,4.35,0,0,1-1.31,2,3.4,3.4,0,0,1-2.22.72,3.36,3.36,0,0,1-2.77-1.25Q335.86,521.91,335.86,518.48Zm1.53,0c0,2,.23,3.34.7,4a2,2,0,0,0,3.47,0c.47-.67.7-2,.7-4s-.23-3.33-.7-4a2.08,2.08,0,0,0-1.75-1,1.91,1.91,0,0,0-1.64.87A7.65,7.65,0,0,0,337.39,518.48Z" transform="translate(-95.78 -36.6)"/><path d="M345.3,513.69v-1.14h3.51v1.14Zm8.87,2.79H353V509.2a6.42,6.42,0,0,1-1.09.79,6.85,6.85,0,0,1-1.19.59v-1.11a6.66,6.66,0,0,0,1.67-1.08,4,4,0,0,0,1-1.25h.74Zm3.1-4.59a8.71,8.71,0,0,1,.34-2.65,3.21,3.21,0,0,1,1-1.55,2.56,2.56,0,0,1,1.69-.55,2.57,2.57,0,0,1,2.24,1.17,4.81,4.81,0,0,1,.58,1.39,9.08,9.08,0,0,1,.21,2.19,8.4,8.4,0,0,1-.34,2.65,3.21,3.21,0,0,1-1,1.55,2.54,2.54,0,0,1-1.68.55,2.58,2.58,0,0,1-2.13-1A6.21,6.21,0,0,1,357.27,511.89Zm1.18,0A5.87,5.87,0,0,0,359,515a1.57,1.57,0,0,0,1.33.75,1.59,1.59,0,0,0,1.32-.75,5.85,5.85,0,0,0,.54-3.06,5.78,5.78,0,0,0-.54-3.05,1.61,1.61,0,0,0-1.34-.75,1.52,1.52,0,0,0-1.27.66A6.1,6.1,0,0,0,358.45,511.89Z" transform="translate(-95.78 -36.6)"/><path d="M517.22,524.48h-1.49V515a7.57,7.57,0,0,1-1.42,1,10.88,10.88,0,0,1-1.58.78v-1.46a8.55,8.55,0,0,0,2.21-1.42,5.79,5.79,0,0,0,1.33-1.62h1Zm3.64-6a11.36,11.36,0,0,1,.44-3.47,4.34,4.34,0,0,1,1.32-2,3.37,3.37,0,0,1,2.21-.71,3.64,3.64,0,0,1,1.72.39,3.29,3.29,0,0,1,1.21,1.14,5.88,5.88,0,0,1,.76,1.81,12.09,12.09,0,0,1,.28,2.87,11.29,11.29,0,0,1-.44,3.46,4.35,4.35,0,0,1-1.31,2,3.4,3.4,0,0,1-2.22.72,3.36,3.36,0,0,1-2.77-1.25Q520.86,521.91,520.86,518.48Zm1.53,0c0,2,.23,3.34.7,4a2,2,0,0,0,3.47,0c.47-.67.7-2,.7-4s-.23-3.33-.7-4a2.08,2.08,0,0,0-1.75-1,1.91,1.91,0,0,0-1.64.87A7.65,7.65,0,0,0,522.39,518.48Z" transform="translate(-95.78 -36.6)"/><path d="M530.3,513.69v-1.14h3.51v1.14Zm4.57.36,1.19-.11a2.22,2.22,0,0,0,.62,1.33,1.72,1.72,0,0,0,1.18.43,1.82,1.82,0,0,0,1.39-.62,2.36,2.36,0,0,0,.57-1.64,2.15,2.15,0,0,0-.54-1.55,2,2,0,0,0-1.44-.56,2,2,0,0,0-1,.25,1.86,1.86,0,0,0-.69.64l-1.07-.14.89-4.77h4.63v1.08h-3.7l-.5,2.5a3,3,0,0,1,1.75-.58,2.75,2.75,0,0,1,2.05.85,2.93,2.93,0,0,1,.84,2.17,3.43,3.43,0,0,1-.74,2.19,2.92,2.92,0,0,1-2.43,1.12,3,3,0,0,1-2.07-.71A2.72,2.72,0,0,1,534.87,514.05Z" transform="translate(-95.78 -36.6)"/><path d="M700.22,524.48h-1.49V515a7.57,7.57,0,0,1-1.42,1,10.88,10.88,0,0,1-1.58.78v-1.46a8.55,8.55,0,0,0,2.21-1.42,5.79,5.79,0,0,0,1.33-1.62h1Zm3.64-6a11.36,11.36,0,0,1,.44-3.47,4.34,4.34,0,0,1,1.32-2,3.37,3.37,0,0,1,2.21-.71,3.64,3.64,0,0,1,1.72.39,3.29,3.29,0,0,1,1.21,1.14,5.88,5.88,0,0,1,.76,1.81,12.09,12.09,0,0,1,.28,2.87,11.29,11.29,0,0,1-.44,3.46,4.35,4.35,0,0,1-1.31,2,3.4,3.4,0,0,1-2.22.72,3.36,3.36,0,0,1-2.77-1.25Q703.86,521.91,703.86,518.48Zm1.53,0c0,2,.23,3.34.7,4a2,2,0,0,0,3.47,0c.47-.67.7-2,.7-4s-.23-3.33-.7-4a2.08,2.08,0,0,0-1.75-1,1.91,1.91,0,0,0-1.64.87A7.65,7.65,0,0,0,705.39,518.48Z" transform="translate(-95.78 -36.6)"/><path d="M713.44,511.89a8.74,8.74,0,0,1,.33-2.65,3.28,3.28,0,0,1,1-1.55,2.56,2.56,0,0,1,1.69-.55,2.62,2.62,0,0,1,1.31.31,2.47,2.47,0,0,1,.93.86,4.55,4.55,0,0,1,.58,1.39,9.08,9.08,0,0,1,.21,2.19,8.4,8.4,0,0,1-.34,2.65,3.27,3.27,0,0,1-1,1.55,2.56,2.56,0,0,1-1.69.55,2.59,2.59,0,0,1-2.13-1A6.21,6.21,0,0,1,713.44,511.89Zm1.17,0a6,6,0,0,0,.53,3.06,1.55,1.55,0,0,0,2.65,0,5.85,5.85,0,0,0,.54-3.06,5.78,5.78,0,0,0-.54-3.05,1.61,1.61,0,0,0-1.34-.75,1.49,1.49,0,0,0-1.26.66A6,6,0,0,0,714.61,511.89Z" transform="translate(-95.78 -36.6)"/><path d="M434.52,548.69a2.89,2.89,0,0,1-1.53-.41,2.74,2.74,0,0,1-1-1.09,3.31,3.31,0,0,1-.36-1.55,4.84,4.84,0,0,1,.68-2.41,5.64,5.64,0,0,1,1.81-2,4.25,4.25,0,0,1,2.37-.75,2.81,2.81,0,0,1,1.62.48,3,3,0,0,1,1.05,1.27,4.08,4.08,0,0,1,.36,1.7l0,1.21a12.88,12.88,0,0,0,1-1.78,9.15,9.15,0,0,0,.64-1.89.14.14,0,0,1,.14-.11h.22c.12,0,.17.05.17.17l0,0a9.87,9.87,0,0,1-.52,1.59,12,12,0,0,1-.74,1.48,8.49,8.49,0,0,1-.92,1.29c0,1.49.17,2.24.51,2.24a.81.81,0,0,0,.55-.2,2.19,2.19,0,0,0,.38-.5c.11-.19.18-.29.21-.29h.22c.09,0,.14.06.14.18a1.18,1.18,0,0,1-.51.86,1.65,1.65,0,0,1-1,.42,1.5,1.5,0,0,1-1.09-.42,2.25,2.25,0,0,1-.58-1.1,6.68,6.68,0,0,1-1.83,1.12A5.38,5.38,0,0,1,434.52,548.69Zm0-.47a5.41,5.41,0,0,0,3.68-1.6,1.29,1.29,0,0,0,0-.25c0-.1,0-.16,0-.17v-2c0-2.17-.59-3.25-1.75-3.25a2.38,2.38,0,0,0-1.85.9,5.77,5.77,0,0,0-1.19,2.15,7.47,7.47,0,0,0-.4,2.29,2.16,2.16,0,0,0,.4,1.33A1.32,1.32,0,0,0,434.55,548.22Z" transform="translate(-95.78 -36.6)"/><line class="cls-2" x1="69.11" y1="458.89" x2="69.11" y2="30.89"/><line class="cls-2" x1="612.11" y1="458.89" x2="612.11" y2="30.89"/><line class="cls-2" x1="69.11" y1="458.89" x2="74.54" y2="458.89"/><line class="cls-2" x1="69.11" y1="373.29" x2="74.54" y2="373.29"/><line class="cls-2" x1="69.11" y1="287.69" x2="74.54" y2="287.69"/><line class="cls-2" x1="69.11" y1="202.09" x2="74.54" y2="202.09"/><line class="cls-2" x1="69.11" y1="116.49" x2="74.54" y2="116.49"/><line class="cls-2" x1="69.11" y1="30.89" x2="74.54" y2="30.89"/><line class="cls-2" x1="612.11" y1="458.89" x2="606.68" y2="458.89"/><line class="cls-2" x1="612.11" y1="373.29" x2="606.68" y2="373.29"/><line class="cls-2" x1="612.11" y1="287.69" x2="606.68" y2="287.69"/><line class="cls-2" x1="612.11" y1="202.09" x2="606.68" y2="202.09"/><line class="cls-2" x1="612.11" y1="116.49" x2="606.68" y2="116.49"/><line class="cls-2" x1="612.11" y1="30.89" x2="606.68" y2="30.89"/><line class="cls-2" x1="69.11" y1="458.89" x2="71.82" y2="458.89"/><line class="cls-2" x1="69.11" y1="446" x2="71.82" y2="446"/><line class="cls-2" x1="69.11" y1="438.46" x2="71.82" y2="438.46"/><line class="cls-2" x1="69.11" y1="433.12" x2="71.82" y2="433.12"/><line class="cls-2" x1="69.11" y1="428.97" x2="71.82" y2="428.97"/><line class="cls-2" x1="69.11" y1="425.58" x2="71.82" y2="425.58"/><line class="cls-2" x1="69.11" y1="422.72" x2="71.82" y2="422.72"/><line class="cls-2" x1="69.11" y1="420.23" x2="71.82" y2="420.23"/><line class="cls-2" x1="69.11" y1="418.04" x2="71.82" y2="418.04"/><line class="cls-2" x1="69.11" y1="416.09" x2="71.82" y2="416.09"/><line class="cls-2" x1="69.11" y1="416.09" x2="71.82" y2="416.09"/><line class="cls-2" x1="69.11" y1="403.2" x2="71.82" y2="403.2"/><line class="cls-2" x1="69.11" y1="395.66" x2="71.82" y2="395.66"/><line class="cls-2" x1="69.11" y1="390.32" x2="71.82" y2="390.32"/><line class="cls-2" x1="69.11" y1="386.17" x2="71.82" y2="386.17"/><line class="cls-2" x1="69.11" y1="382.78" x2="71.82" y2="382.78"/><line class="cls-2" x1="69.11" y1="379.92" x2="71.82" y2="379.92"/><line class="cls-2" x1="69.11" y1="377.43" x2="71.82" y2="377.43"/><line class="cls-2" x1="69.11" y1="375.24" x2="71.82" y2="375.24"/><line class="cls-2" x1="69.11" y1="373.29" x2="71.82" y2="373.29"/><line class="cls-2" x1="69.11" y1="360.4" x2="71.82" y2="360.4"/><line class="cls-2" x1="69.11" y1="352.86" x2="71.82" y2="352.86"/><line class="cls-2" x1="69.11" y1="347.52" x2="71.82" y2="347.52"/><line class="cls-2" x1="69.11" y1="343.37" x2="71.82" y2="343.37"/><line class="cls-2" x1="69.11" y1="339.98" x2="71.82" y2="339.98"/><line class="cls-2" x1="69.11" y1="337.12" x2="71.82" y2="337.12"/><line class="cls-2" x1="69.11" y1="334.63" x2="71.82" y2="334.63"/><line class="cls-2" x1="69.11" y1="332.44" x2="71.82" y2="332.44"/><line class="cls-2" x1="69.11" y1="330.49" x2="71.82" y2="330.49"/><line class="cls-2" x1="69.11" y1="317.6" x2="71.82" y2="317.6"/><line class="cls-2" x1="69.11" y1="310.06" x2="71.82" y2="310.06"/><line class="cls-2" x1="69.11" y1="304.72" x2="71.82" y2="304.72"/><line class="cls-2" x1="69.11" y1="300.57" x2="71.82" y2="300.57"/><line class="cls-2" x1="69.11" y1="297.18" x2="71.82" y2="297.18"/><line class="cls-2" x1="69.11" y1="294.32" x2="71.82" y2="294.32"/><line class="cls-2" x1="69.11" y1="291.83" x2="71.82" y2="291.83"/><line class="cls-2" x1="69.11" y1="289.64" x2="71.82" y2="289.64"/><line class="cls-2" x1="69.11" y1="287.69" x2="71.82" y2="287.69"/><line class="cls-2" x1="69.11" y1="274.8" x2="71.82" y2="274.8"/><line class="cls-2" x1="69.11" y1="267.26" x2="71.82" y2="267.26"/><line class="cls-2" x1="69.11" y1="261.92" x2="71.82" y2="261.92"/><line class="cls-2" x1="69.11" y1="257.77" x2="71.82" y2="257.77"/><line class="cls-2" x1="69.11" y1="254.38" x2="71.82" y2="254.38"/><line class="cls-2" x1="69.11" y1="251.52" x2="71.82" y2="251.52"/><line class="cls-2" x1="69.11" y1="249.03" x2="71.82" y2="249.03"/><line class="cls-2" x1="69.11" y1="246.84" x2="71.82" y2="246.84"/><line class="cls-2" x1="69.11" y1="244.89" x2="71.82" y2="244.89"/><line class="cls-2" x1="69.11" y1="232" x2="71.82" y2="232"/><line class="cls-2" x1="69.11" y1="224.46" x2="71.82" y2="224.46"/><line class="cls-2" x1="69.11" y1="219.12" x2="71.82" y2="219.12"/><line class="cls-2" x1="69.11" y1="214.97" x2="71.82" y2="214.97"/><line class="cls-2" x1="69.11" y1="211.58" x2="71.82" y2="211.58"/><line class="cls-2" x1="69.11" y1="208.72" x2="71.82" y2="208.72"/><line class="cls-2" x1="69.11" y1="206.23" x2="71.82" y2="206.23"/><line class="cls-2" x1="69.11" y1="204.04" x2="71.82" y2="204.04"/><line class="cls-2" x1="69.11" y1="202.09" x2="71.82" y2="202.09"/><line class="cls-2" x1="69.11" y1="189.2" x2="71.82" y2="189.2"/><line class="cls-2" x1="69.11" y1="181.66" x2="71.82" y2="181.66"/><line class="cls-2" x1="69.11" y1="176.32" x2="71.82" y2="176.32"/><line class="cls-2" x1="69.11" y1="172.17" x2="71.82" y2="172.17"/><line class="cls-2" x1="69.11" y1="168.78" x2="71.82" y2="168.78"/><line class="cls-2" x1="69.11" y1="165.92" x2="71.82" y2="165.92"/><line class="cls-2" x1="69.11" y1="163.43" x2="71.82" y2="163.43"/><line class="cls-2" x1="69.11" y1="161.24" x2="71.82" y2="161.24"/><line class="cls-2" x1="69.11" y1="159.29" x2="71.82" y2="159.29"/><line class="cls-2" x1="69.11" y1="146.4" x2="71.82" y2="146.4"/><line class="cls-2" x1="69.11" y1="138.86" x2="71.82" y2="138.86"/><line class="cls-2" x1="69.11" y1="133.52" x2="71.82" y2="133.52"/><line class="cls-2" x1="69.11" y1="129.37" x2="71.82" y2="129.37"/><line class="cls-2" x1="69.11" y1="125.98" x2="71.82" y2="125.98"/><line class="cls-2" x1="69.11" y1="123.12" x2="71.82" y2="123.12"/><line class="cls-2" x1="69.11" y1="120.63" x2="71.82" y2="120.63"/><line class="cls-2" x1="69.11" y1="118.44" x2="71.82" y2="118.44"/><line class="cls-2" x1="69.11" y1="116.49" x2="71.82" y2="116.49"/><line class="cls-2" x1="69.11" y1="116.49" x2="71.82" y2="116.49"/><line class="cls-2" x1="69.11" y1="103.6" x2="71.82" y2="103.6"/><line class="cls-2" x1="69.11" y1="96.06" x2="71.82" y2="96.06"/><line class="cls-2" x1="69.11" y1="90.72" x2="71.82" y2="90.72"/><line class="cls-2" x1="69.11" y1="86.57" x2="71.82" y2="86.57"/><line class="cls-2" x1="69.11" y1="83.18" x2="71.82" y2="83.18"/><line class="cls-2" x1="69.11" y1="80.32" x2="71.82" y2="80.32"/><line class="cls-2" x1="69.11" y1="77.83" x2="71.82" y2="77.83"/><line class="cls-2" x1="69.11" y1="75.64" x2="71.82" y2="75.64"/><line class="cls-2" x1="69.11" y1="73.69" x2="71.82" y2="73.69"/><line class="cls-2" x1="69.11" y1="60.8" x2="71.82" y2="60.8"/><line class="cls-2" x1="69.11" y1="53.26" x2="71.82" y2="53.26"/><line class="cls-2" x1="69.11" y1="47.92" x2="71.82" y2="47.92"/><line class="cls-2" x1="69.11" y1="43.77" x2="71.82" y2="43.77"/><line class="cls-2" x1="69.11" y1="40.38" x2="71.82" y2="40.38"/><line class="cls-2" x1="69.11" y1="37.52" x2="71.82" y2="37.52"/><line class="cls-2" x1="69.11" y1="35.03" x2="71.82" y2="35.03"/><line class="cls-2" x1="69.11" y1="32.84" x2="71.82" y2="32.84"/><line class="cls-2" x1="69.11" y1="30.89" x2="71.82" y2="30.89"/><line class="cls-2" x1="612.11" y1="458.89" x2="609.39" y2="458.89"/><line class="cls-2" x1="612.11" y1="446" x2="609.39" y2="446"/><line class="cls-2" x1="612.11" y1="438.46" x2="609.39" y2="438.46"/><line class="cls-2" x1="612.11" y1="433.12" x2="609.39" y2="433.12"/><line class="cls-2" x1="612.11" y1="428.97" x2="609.39" y2="428.97"/><line class="cls-2" x1="612.11" y1="425.58" x2="609.39" y2="425.58"/><line class="cls-2" x1="612.11" y1="422.72" x2="609.39" y2="422.72"/><line class="cls-2" x1="612.11" y1="420.23" x2="609.39" y2="420.23"/><line class="cls-2" x1="612.11" y1="418.04" x2="609.39" y2="418.04"/><line class="cls-2" x1="612.11" y1="416.09" x2="609.39" y2="416.09"/><line class="cls-2" x1="612.11" y1="416.09" x2="609.39" y2="416.09"/><line class="cls-2" x1="612.11" y1="403.2" x2="609.39" y2="403.2"/><line class="cls-2" x1="612.11" y1="395.66" x2="609.39" y2="395.66"/><line class="cls-2" x1="612.11" y1="390.32" x2="609.39" y2="390.32"/><line class="cls-2" x1="612.11" y1="386.17" x2="609.39" y2="386.17"/><line class="cls-2" x1="612.11" y1="382.78" x2="609.39" y2="382.78"/><line class="cls-2" x1="612.11" y1="379.92" x2="609.39" y2="379.92"/><line class="cls-2" x1="612.11" y1="377.43" x2="609.39" y2="377.43"/><line class="cls-2" x1="612.11" y1="375.24" x2="609.39" y2="375.24"/><line class="cls-2" x1="612.11" y1="373.29" x2="609.39" y2="373.29"/><line class="cls-2" x1="612.11" y1="360.4" x2="609.39" y2="360.4"/><line class="cls-2" x1="612.11" y1="352.86" x2="609.39" y2="352.86"/><line class="cls-2" x1="612.11" y1="347.52" x2="609.39" y2="347.52"/><line class="cls-2" x1="612.11" y1="343.37" x2="609.39" y2="343.37"/><line class="cls-2" x1="612.11" y1="339.98" x2="609.39" y2="339.98"/><line class="cls-2" x1="612.11" y1="337.12" x2="609.39" y2="337.12"/><line class="cls-2" x1="612.11" y1="334.63" x2="609.39" y2="334.63"/><line class="cls-2" x1="612.11" y1="332.44" x2="609.39" y2="332.44"/><line class="cls-2" x1="612.11" y1="330.49" x2="609.39" y2="330.49"/><line class="cls-2" x1="612.11" y1="317.6" x2="609.39" y2="317.6"/><line class="cls-2" x1="612.11" y1="310.06" x2="609.39" y2="310.06"/><line class="cls-2" x1="612.11" y1="304.72" x2="609.39" y2="304.72"/><line class="cls-2" x1="612.11" y1="300.57" x2="609.39" y2="300.57"/><line class="cls-2" x1="612.11" y1="297.18" x2="609.39" y2="297.18"/><line class="cls-2" x1="612.11" y1="294.32" x2="609.39" y2="294.32"/><line class="cls-2" x1="612.11" y1="291.83" x2="609.39" y2="291.83"/><line class="cls-2" x1="612.11" y1="289.64" x2="609.39" y2="289.64"/><line class="cls-2" x1="612.11" y1="287.69" x2="609.39" y2="287.69"/><line class="cls-2" x1="612.11" y1="274.8" x2="609.39" y2="274.8"/><line class="cls-2" x1="612.11" y1="267.26" x2="609.39" y2="267.26"/><line class="cls-2" x1="612.11" y1="261.92" x2="609.39" y2="261.92"/><line class="cls-2" x1="612.11" y1="257.77" x2="609.39" y2="257.77"/><line class="cls-2" x1="612.11" y1="254.38" x2="609.39" y2="254.38"/><line class="cls-2" x1="612.11" y1="251.52" x2="609.39" y2="251.52"/><line class="cls-2" x1="612.11" y1="249.03" x2="609.39" y2="249.03"/><line class="cls-2" x1="612.11" y1="246.84" x2="609.39" y2="246.84"/><line class="cls-2" x1="612.11" y1="244.89" x2="609.39" y2="244.89"/><line class="cls-2" x1="612.11" y1="232" x2="609.39" y2="232"/><line class="cls-2" x1="612.11" y1="224.46" x2="609.39" y2="224.46"/><line class="cls-2" x1="612.11" y1="219.12" x2="609.39" y2="219.12"/><line class="cls-2" x1="612.11" y1="214.97" x2="609.39" y2="214.97"/><line class="cls-2" x1="612.11" y1="211.58" x2="609.39" y2="211.58"/><line class="cls-2" x1="612.11" y1="208.72" x2="609.39" y2="208.72"/><line class="cls-2" x1="612.11" y1="206.23" x2="609.39" y2="206.23"/><line class="cls-2" x1="612.11" y1="204.04" x2="609.39" y2="204.04"/><line class="cls-2" x1="612.11" y1="202.09" x2="609.39" y2="202.09"/><line class="cls-2" x1="612.11" y1="189.2" x2="609.39" y2="189.2"/><line class="cls-2" x1="612.11" y1="181.66" x2="609.39" y2="181.66"/><line class="cls-2" x1="612.11" y1="176.32" x2="609.39" y2="176.32"/><line class="cls-2" x1="612.11" y1="172.17" x2="609.39" y2="172.17"/><line class="cls-2" x1="612.11" y1="168.78" x2="609.39" y2="168.78"/><line class="cls-2" x1="612.11" y1="165.92" x2="609.39" y2="165.92"/><line class="cls-2" x1="612.11" y1="163.43" x2="609.39" y2="163.43"/><line class="cls-2" x1="612.11" y1="161.24" x2="609.39" y2="161.24"/><line class="cls-2" x1="612.11" y1="159.29" x2="609.39" y2="159.29"/><line class="cls-2" x1="612.11" y1="146.4" x2="609.39" y2="146.4"/><line class="cls-2" x1="612.11" y1="138.86" x2="609.39" y2="138.86"/><line class="cls-2" x1="612.11" y1="133.52" x2="609.39" y2="133.52"/><line class="cls-2" x1="612.11" y1="129.37" x2="609.39" y2="129.37"/><line class="cls-2" x1="612.11" y1="125.98" x2="609.39" y2="125.98"/><line class="cls-2" x1="612.11" y1="123.12" x2="609.39" y2="123.12"/><line class="cls-2" x1="612.11" y1="120.63" x2="609.39" y2="120.63"/><line class="cls-2" x1="612.11" y1="118.44" x2="609.39" y2="118.44"/><line class="cls-2" x1="612.11" y1="116.49" x2="609.39" y2="116.49"/><line class="cls-2" x1="612.11" y1="116.49" x2="609.39" y2="116.49"/><line class="cls-2" x1="612.11" y1="103.6" x2="609.39" y2="103.6"/><line class="cls-2" x1="612.11" y1="96.06" x2="609.39" y2="96.06"/><line class="cls-2" x1="612.11" y1="90.72" x2="609.39" y2="90.72"/><line class="cls-2" x1="612.11" y1="86.57" x2="609.39" y2="86.57"/><line class="cls-2" x1="612.11" y1="83.18" x2="609.39" y2="83.18"/><line class="cls-2" x1="612.11" y1="80.32" x2="609.39" y2="80.32"/><line class="cls-2" x1="612.11" y1="77.83" x2="609.39" y2="77.83"/><line class="cls-2" x1="612.11" y1="75.64" x2="609.39" y2="75.64"/><line class="cls-2" x1="612.11" y1="73.69" x2="609.39" y2="73.69"/><line class="cls-2" x1="612.11" y1="60.8" x2="609.39" y2="60.8"/><line class="cls-2" x1="612.11" y1="53.26" x2="609.39" y2="53.26"/><line class="cls-2" x1="612.11" y1="47.92" x2="609.39" y2="47.92"/><line class="cls-2" x1="612.11" y1="43.77" x2="609.39" y2="43.77"/><line class="cls-2" x1="612.11" y1="40.38" x2="609.39" y2="40.38"/><line class="cls-2" x1="612.11" y1="37.52" x2="609.39" y2="37.52"/><line class="cls-2" x1="612.11" y1="35.03" x2="609.39" y2="35.03"/><line class="cls-2" x1="612.11" y1="32.84" x2="609.39" y2="32.84"/><line class="cls-2" x1="612.11" y1="30.89" x2="609.39" y2="30.89"/><path d="M125.22,504.48h-1.49V495a7.57,7.57,0,0,1-1.42,1,10.88,10.88,0,0,1-1.58.78v-1.46a8.55,8.55,0,0,0,2.21-1.42,5.79,5.79,0,0,0,1.33-1.62h1Zm3.64-6a11.36,11.36,0,0,1,.44-3.47,4.34,4.34,0,0,1,1.32-2,3.37,3.37,0,0,1,2.21-.71,3.64,3.64,0,0,1,1.72.39,3.29,3.29,0,0,1,1.21,1.14,5.88,5.88,0,0,1,.76,1.81,12.09,12.09,0,0,1,.28,2.87,11.29,11.29,0,0,1-.44,3.46,4.35,4.35,0,0,1-1.31,2,3.4,3.4,0,0,1-2.22.72,3.36,3.36,0,0,1-2.77-1.25Q128.86,501.91,128.86,498.48Zm1.53,0c0,2,.23,3.34.7,4a2,2,0,0,0,3.47,0c.47-.67.7-2,.7-4s-.23-3.33-.7-4a2.08,2.08,0,0,0-1.75-1,1.91,1.91,0,0,0-1.64.87A7.65,7.65,0,0,0,130.39,498.48Z" transform="translate(-95.78 -36.6)"/><path d="M138.3,493.69v-1.14h3.51v1.14Zm8.87,2.79H146V489.2a6.42,6.42,0,0,1-1.09.79,6.85,6.85,0,0,1-1.19.59v-1.11a6.66,6.66,0,0,0,1.67-1.08,4,4,0,0,0,1-1.25h.74Zm9.1-1.09v1.09h-6.15a2,2,0,0,1,.14-.79,4.42,4.42,0,0,1,.75-1.24,11.25,11.25,0,0,1,1.5-1.4,13.59,13.59,0,0,0,2.05-2,2.37,2.37,0,0,0,.53-1.37,1.51,1.51,0,0,0-.49-1.15,2,2,0,0,0-2.58,0,1.86,1.86,0,0,0-.51,1.36l-1.17-.12a2.89,2.89,0,0,1,.9-2,3.08,3.08,0,0,1,2.11-.69,3,3,0,0,1,2.13.74,2.45,2.45,0,0,1,.78,1.84,2.86,2.86,0,0,1-.23,1.1,4.1,4.1,0,0,1-.76,1.14,16.39,16.39,0,0,1-1.76,1.63,17,17,0,0,0-1.32,1.18,3.83,3.83,0,0,0-.48.62Z" transform="translate(-95.78 -36.6)"/><path d="M125.22,418.48h-1.49V409a7.57,7.57,0,0,1-1.42,1,10.88,10.88,0,0,1-1.58.78v-1.46a8.55,8.55,0,0,0,2.21-1.42,5.79,5.79,0,0,0,1.33-1.62h1Zm3.64-6a11.36,11.36,0,0,1,.44-3.47,4.34,4.34,0,0,1,1.32-2,3.37,3.37,0,0,1,2.21-.71,3.64,3.64,0,0,1,1.72.39,3.29,3.29,0,0,1,1.21,1.14,5.88,5.88,0,0,1,.76,1.81,12.09,12.09,0,0,1,.28,2.87,11.29,11.29,0,0,1-.44,3.46,4.35,4.35,0,0,1-1.31,2,3.4,3.4,0,0,1-2.22.72,3.36,3.36,0,0,1-2.77-1.25Q128.86,415.91,128.86,412.48Zm1.53,0c0,2,.23,3.34.7,4a2,2,0,0,0,3.47,0c.47-.67.7-2,.7-4s-.23-3.33-.7-4a2.08,2.08,0,0,0-1.75-1,1.91,1.91,0,0,0-1.64.87A7.65,7.65,0,0,0,130.39,412.48Z" transform="translate(-95.78 -36.6)"/><path d="M138.3,407.69v-1.14h3.51v1.14Zm8.87,2.79H146V403.2a6.42,6.42,0,0,1-1.09.79,6.85,6.85,0,0,1-1.19.59v-1.11a6.66,6.66,0,0,0,1.67-1.08,4,4,0,0,0,1-1.25h.74Zm3.1-4.59a8.71,8.71,0,0,1,.34-2.65,3.21,3.21,0,0,1,1-1.55,2.56,2.56,0,0,1,1.69-.55,2.57,2.57,0,0,1,2.24,1.17,4.81,4.81,0,0,1,.58,1.39,9.08,9.08,0,0,1,.21,2.19,8.4,8.4,0,0,1-.34,2.65,3.21,3.21,0,0,1-1,1.55,2.54,2.54,0,0,1-1.68.55,2.58,2.58,0,0,1-2.13-1A6.21,6.21,0,0,1,150.27,405.89Zm1.18,0A5.87,5.87,0,0,0,152,409a1.57,1.57,0,0,0,1.33.75,1.59,1.59,0,0,0,1.32-.75,5.85,5.85,0,0,0,.54-3.06,5.78,5.78,0,0,0-.54-3.05,1.61,1.61,0,0,0-1.34-.75,1.52,1.52,0,0,0-1.27.66A6.1,6.1,0,0,0,151.45,405.89Z" transform="translate(-95.78 -36.6)"/><path d="M133.22,333.48h-1.49V324a7.57,7.57,0,0,1-1.42,1,10.88,10.88,0,0,1-1.58.78v-1.46a8.55,8.55,0,0,0,2.21-1.42,5.79,5.79,0,0,0,1.33-1.62h.95Zm3.64-6a11.36,11.36,0,0,1,.44-3.47,4.34,4.34,0,0,1,1.32-2,3.37,3.37,0,0,1,2.21-.71,3.64,3.64,0,0,1,1.72.39,3.29,3.29,0,0,1,1.21,1.14,5.88,5.88,0,0,1,.76,1.81,12.09,12.09,0,0,1,.28,2.87,11.29,11.29,0,0,1-.44,3.46,4.35,4.35,0,0,1-1.31,2,3.4,3.4,0,0,1-2.22.72,3.36,3.36,0,0,1-2.77-1.25Q136.86,330.91,136.86,327.48Zm1.53,0c0,2,.23,3.34.7,4a2,2,0,0,0,3.47,0c.47-.67.7-2,.7-4s-.23-3.33-.7-4a2.08,2.08,0,0,0-1.75-1,1.91,1.91,0,0,0-1.64.87A7.65,7.65,0,0,0,138.39,327.48Z" transform="translate(-95.78 -36.6)"/><path d="M146.3,322.69v-1.14h3.51v1.14Zm6.32-2.25a2.28,2.28,0,0,1-1.05-.74,2,2,0,0,1-.34-1.15,2.25,2.25,0,0,1,.73-1.71,2.66,2.66,0,0,1,1.94-.7,2.73,2.73,0,0,1,2,.71,2.3,2.3,0,0,1,.75,1.73,1.87,1.87,0,0,1-.35,1.12,2.27,2.27,0,0,1-1,.74,2.52,2.52,0,0,1,1.31.9,2.57,2.57,0,0,1,.44,1.49,2.67,2.67,0,0,1-.84,2,3.1,3.1,0,0,1-2.22.81,3.06,3.06,0,0,1-2.22-.81,2.71,2.71,0,0,1-.84-2,2.46,2.46,0,0,1,.46-1.53A2.22,2.22,0,0,1,152.62,320.44Zm-.23-1.94a1.43,1.43,0,0,0,.43,1.08,1.65,1.65,0,0,0,2.19,0,1.4,1.4,0,0,0,.42-1,1.41,1.41,0,0,0-.43-1.05,1.48,1.48,0,0,0-1.08-.43,1.54,1.54,0,0,0-1.1.42A1.33,1.33,0,0,0,152.39,318.5Zm-.36,4.3a2.14,2.14,0,0,0,.23.94,1.63,1.63,0,0,0,.69.71,2,2,0,0,0,1,.25,1.84,1.84,0,0,0,1.35-.52,2,2,0,0,0,0-2.7,1.86,1.86,0,0,0-1.37-.54A1.81,1.81,0,0,0,152,322.8Z" transform="translate(-95.78 -36.6)"/><path d="M133.22,247.48h-1.49V238a7.57,7.57,0,0,1-1.42,1,10.88,10.88,0,0,1-1.58.78v-1.46a8.55,8.55,0,0,0,2.21-1.42,5.79,5.79,0,0,0,1.33-1.62h.95Zm3.64-6a11.36,11.36,0,0,1,.44-3.47,4.34,4.34,0,0,1,1.32-2,3.37,3.37,0,0,1,2.21-.71,3.64,3.64,0,0,1,1.72.39,3.29,3.29,0,0,1,1.21,1.14,5.88,5.88,0,0,1,.76,1.81,12.09,12.09,0,0,1,.28,2.87,11.29,11.29,0,0,1-.44,3.46,4.35,4.35,0,0,1-1.31,2,3.4,3.4,0,0,1-2.22.72,3.36,3.36,0,0,1-2.77-1.25Q136.86,244.91,136.86,241.48Zm1.53,0c0,2,.23,3.34.7,4a2,2,0,0,0,3.47,0c.47-.67.7-2,.7-4s-.23-3.33-.7-4a2.08,2.08,0,0,0-1.75-1,1.91,1.91,0,0,0-1.64.87A7.65,7.65,0,0,0,138.39,241.48Z" transform="translate(-95.78 -36.6)"/><path d="M146.3,236.69v-1.14h3.51v1.14Zm10.49-4.24-1.14.1a2.08,2.08,0,0,0-.42-1,1.53,1.53,0,0,0-1.14-.48,1.58,1.58,0,0,0-1,.31,2.66,2.66,0,0,0-.84,1.14,6,6,0,0,0-.33,2.16,2.56,2.56,0,0,1,1-.93,2.66,2.66,0,0,1,1.25-.31,2.6,2.6,0,0,1,1.95.84,3,3,0,0,1,.8,2.18,3.45,3.45,0,0,1-.38,1.62,2.71,2.71,0,0,1-1,1.15,2.76,2.76,0,0,1-1.5.4,3,3,0,0,1-2.33-1,5.29,5.29,0,0,1-.9-3.47,6.2,6.2,0,0,1,1-3.92,2.86,2.86,0,0,1,2.34-1.06,2.64,2.64,0,0,1,1.8.62A2.57,2.57,0,0,1,156.79,232.45Zm-4.67,4a2.62,2.62,0,0,0,.25,1.13,1.89,1.89,0,0,0,.7.82,1.78,1.78,0,0,0,1,.28,1.61,1.61,0,0,0,1.24-.58,2.29,2.29,0,0,0,.52-1.59,2.17,2.17,0,0,0-.51-1.52,1.72,1.72,0,0,0-1.3-.56,1.78,1.78,0,0,0-1.32.56A2,2,0,0,0,152.12,236.47Z" transform="translate(-95.78 -36.6)"/><path d="M133.22,162.48h-1.49V153a7.57,7.57,0,0,1-1.42,1,10.88,10.88,0,0,1-1.58.78v-1.46a8.55,8.55,0,0,0,2.21-1.42,5.79,5.79,0,0,0,1.33-1.62h.95Zm3.64-6a11.36,11.36,0,0,1,.44-3.47,4.34,4.34,0,0,1,1.32-2,3.37,3.37,0,0,1,2.21-.71,3.64,3.64,0,0,1,1.72.39,3.29,3.29,0,0,1,1.21,1.14,5.88,5.88,0,0,1,.76,1.81,12.09,12.09,0,0,1,.28,2.87,11.29,11.29,0,0,1-.44,3.46,4.35,4.35,0,0,1-1.31,2,3.4,3.4,0,0,1-2.22.72,3.36,3.36,0,0,1-2.77-1.25Q136.86,159.91,136.86,156.48Zm1.53,0c0,2,.23,3.34.7,4a2,2,0,0,0,3.47,0c.47-.67.7-2,.7-4s-.23-3.33-.7-4a2.08,2.08,0,0,0-1.75-1,1.91,1.91,0,0,0-1.64.87A7.65,7.65,0,0,0,138.39,156.48Z" transform="translate(-95.78 -36.6)"/><path d="M146.3,151.69v-1.14h3.51v1.14Zm8.23,2.79v-2.23h-4V151.2l4.23-6h.94v6h1.26v1.05h-1.26v2.23Zm0-3.28V147l-2.92,4.18Z" transform="translate(-95.78 -36.6)"/><path d="M133.22,76.48h-1.49V67a7.57,7.57,0,0,1-1.42,1,10.88,10.88,0,0,1-1.58.78V67.31a8.55,8.55,0,0,0,2.21-1.42,5.79,5.79,0,0,0,1.33-1.62h.95Zm3.64-6A11.36,11.36,0,0,1,137.3,67a4.34,4.34,0,0,1,1.32-2,3.37,3.37,0,0,1,2.21-.71,3.64,3.64,0,0,1,1.72.39,3.29,3.29,0,0,1,1.21,1.14,5.88,5.88,0,0,1,.76,1.81,12.09,12.09,0,0,1,.28,2.87,11.29,11.29,0,0,1-.44,3.46,4.35,4.35,0,0,1-1.31,2,3.4,3.4,0,0,1-2.22.72,3.36,3.36,0,0,1-2.77-1.25Q136.86,73.91,136.86,70.48Zm1.53,0c0,2,.23,3.34.7,4a2,2,0,0,0,3.47,0c.47-.67.7-2,.7-4s-.23-3.33-.7-4a2.08,2.08,0,0,0-1.75-1,1.91,1.91,0,0,0-1.64.87A7.65,7.65,0,0,0,138.39,70.48Z" transform="translate(-95.78 -36.6)"/><path d="M146.3,65.69V64.55h3.51v1.14Zm10.57,1.7v1.09h-6.16a1.82,1.82,0,0,1,.15-.79,4,4,0,0,1,.75-1.24,11.25,11.25,0,0,1,1.5-1.4,12.93,12.93,0,0,0,2-2,2.31,2.31,0,0,0,.53-1.37,1.53,1.53,0,0,0-.48-1.15,2,2,0,0,0-2.59,0,1.9,1.9,0,0,0-.5,1.36l-1.18-.12a2.94,2.94,0,0,1,.91-2,3.06,3.06,0,0,1,2.11-.69,3,3,0,0,1,2.12.74,2.42,2.42,0,0,1,.79,1.84,2.86,2.86,0,0,1-.23,1.1,4.1,4.1,0,0,1-.76,1.14,16.39,16.39,0,0,1-1.76,1.63,17,17,0,0,0-1.32,1.18,3,3,0,0,0-.48.62Z" transform="translate(-95.78 -36.6)"/><path d="M109.67,298.59l.22-1.54a1.52,1.52,0,0,0,1-.53,2.69,2.69,0,0,0,.44-1.61,2.8,2.8,0,0,0-.45-1.7,2.14,2.14,0,0,0-1.23-.8,9.55,9.55,0,0,0-2-.13,3.29,3.29,0,0,1,1.22,2.59,3.5,3.5,0,0,1-1.39,3,5.39,5.39,0,0,1-3.33,1.06,6.26,6.26,0,0,1-2.47-.49,3.71,3.71,0,0,1-2.36-3.56,3.32,3.32,0,0,1,1.35-2.72H99.56v-1.47h8.07a7.55,7.55,0,0,1,3.09.45,3.22,3.22,0,0,1,1.43,1.4,4.89,4.89,0,0,1,.52,2.37,4.45,4.45,0,0,1-.75,2.7A2.53,2.53,0,0,1,109.67,298.59Zm-5.61-1.31a4,4,0,0,0,2.67-.73,2.4,2.4,0,0,0,0-3.66,5,5,0,0,0-5.22,0,2.38,2.38,0,0,0-.86,1.84,2.27,2.27,0,0,0,.86,1.79A3.81,3.81,0,0,0,104.06,297.28Zm8.61-12.18a15.76,15.76,0,0,1-3.86,2.2,12.12,12.12,0,0,1-4.59.91,11.88,11.88,0,0,1-4-.68,17.12,17.12,0,0,1-4.44-2.43V284c1.22.7,2.09,1.17,2.61,1.4a14.75,14.75,0,0,0,2.53.85,15,15,0,0,0,3.31.37,15.83,15.83,0,0,0,8.44-2.62Z" transform="translate(-95.78 -36.6)"/><path d="M109.09,278.86a2.85,2.85,0,0,1-.4,1.52,2.73,2.73,0,0,1-1.1,1,3.24,3.24,0,0,1-1.54.36,4.88,4.88,0,0,1-2.42-.68,5.73,5.73,0,0,1-1.94-1.82,4.2,4.2,0,0,1-.75-2.36,2.83,2.83,0,0,1,.47-1.62,3.09,3.09,0,0,1,1.28-1.06,4.08,4.08,0,0,1,1.7-.36h1.2a11.38,11.38,0,0,0-1.77-1,9.07,9.07,0,0,0-1.9-.65.16.16,0,0,1-.11-.14v-.22a.15.15,0,0,1,.17-.17s0,0,0,0a10.59,10.59,0,0,1,1.59.53,11.89,11.89,0,0,1,1.47.74,8.59,8.59,0,0,1,1.3.92c1.49,0,2.24-.17,2.24-.52a.73.73,0,0,0-.21-.54,1.92,1.92,0,0,0-.49-.39c-.19-.11-.29-.18-.29-.21V272c0-.09.06-.14.17-.14a1.18,1.18,0,0,1,.86.52,1.6,1.6,0,0,1,.42,1,1.5,1.5,0,0,1-.42,1.09,2.18,2.18,0,0,1-1.09.59,6.78,6.78,0,0,1,1.12,1.82A5.38,5.38,0,0,1,109.09,278.86Zm-.46,0a5.5,5.5,0,0,0-1.6-3.69l-.25,0-.17,0h-2c-2.17,0-3.25.58-3.25,1.75a2.4,2.4,0,0,0,.9,1.85,5.87,5.87,0,0,0,2.14,1.19,7.81,7.81,0,0,0,2.3.39,2.25,2.25,0,0,0,1.33-.39A1.36,1.36,0,0,0,108.63,278.83Z" transform="translate(-95.78 -36.6)"/><path d="M112.67,268.27v1.12a15.83,15.83,0,0,0-8.44-2.62,14.6,14.6,0,0,0-3.28.37,13.9,13.9,0,0,0-2.53.84q-.8.34-2.64,1.41v-1.12a16.68,16.68,0,0,1,4.44-2.46,12.14,12.14,0,0,1,8.59.24A15.18,15.18,0,0,1,112.67,268.27Z" transform="translate(-95.78 -36.6)"/><path d="M361.19,55V52.83h5.61V58a6.9,6.9,0,0,1-2.37,1.4,8.65,8.65,0,0,1-3.13.6,7,7,0,0,1-3.53-.85,5.4,5.4,0,0,1-2.26-2.42,7.73,7.73,0,0,1-.76-3.43,7.45,7.45,0,0,1,.84-3.58,5.78,5.78,0,0,1,2.47-2.4,6.74,6.74,0,0,1,3.1-.65,6.15,6.15,0,0,1,3.74,1,4.56,4.56,0,0,1,1.74,2.79l-2.59.49a2.68,2.68,0,0,0-1-1.5,3,3,0,0,0-1.87-.55,3.52,3.52,0,0,0-2.71,1.08,4.49,4.49,0,0,0-1,3.2,5.13,5.13,0,0,0,1,3.45,3.42,3.42,0,0,0,2.68,1.14,4.34,4.34,0,0,0,1.63-.32,5,5,0,0,0,1.41-.79V55Zm16.49,0,2.53.8a5.62,5.62,0,0,1-1.93,3.13,6.08,6.08,0,0,1-7.64-.73A6.68,6.68,0,0,1,369,53.41a7.07,7.07,0,0,1,1.66-5A5.68,5.68,0,0,1,375,46.62,5.3,5.3,0,0,1,378.85,48a4.93,4.93,0,0,1,1.33,2.38L377.6,51a2.66,2.66,0,0,0-1-1.58,2.7,2.7,0,0,0-1.75-.58,2.94,2.94,0,0,0-2.33,1,5,5,0,0,0-.89,3.34,5.41,5.41,0,0,0,.88,3.48,2.86,2.86,0,0,0,2.29,1,2.6,2.6,0,0,0,1.78-.66A3.76,3.76,0,0,0,377.68,55ZM386,59.73l-4.61-12.89h2.83l3.27,9.55,3.15-9.55h2.75l-4.6,12.89Zm18.1,3.79h-1.7a16.78,16.78,0,0,1-2.05-4.22,13.78,13.78,0,0,1-.7-4.24,13.22,13.22,0,0,1,.87-4.79,16.73,16.73,0,0,1,1.93-3.65h1.68a26.59,26.59,0,0,0-1.66,4.54,16.92,16.92,0,0,0-.45,4,16.69,16.69,0,0,0,.27,3A19.56,19.56,0,0,0,403,61,27,27,0,0,0,404.05,63.52Zm1-3.79V57.81l3.5-4c.57-.66,1-1.13,1.28-1.41-.29,0-.67,0-1.14,0h-3.3v-2h7.72v1.75l-3.56,4.11-1.27,1.35,1.28-.06h3.82v2.17Zm15.56-3,2.45.4a4,4,0,0,1-1.49,2.07A4.35,4.35,0,0,1,419,60a4.14,4.14,0,0,1-3.59-1.59,5.34,5.34,0,0,1-.93-3.22,5.15,5.15,0,0,1,1.22-3.64,4,4,0,0,1,3.07-1.31,4.16,4.16,0,0,1,3.28,1.37,6.15,6.15,0,0,1,1.15,4.22H417a2.43,2.43,0,0,0,.58,1.7,1.87,1.87,0,0,0,1.43.61,1.53,1.53,0,0,0,1-.31A2,2,0,0,0,420.62,56.77Zm.14-2.5a2.41,2.41,0,0,0-.56-1.64,1.78,1.78,0,0,0-2.61,0,2.26,2.26,0,0,0-.53,1.6Zm7,5.46h-2.47V50.41h2.3v1.32a3.79,3.79,0,0,1,1.05-1.25,2,2,0,0,1,1.07-.29,3.09,3.09,0,0,1,1.63.47l-.77,2.15a2.16,2.16,0,0,0-1.16-.4,1.4,1.4,0,0,0-.88.28,1.91,1.91,0,0,0-.57,1,15.35,15.35,0,0,0-.2,3.12ZM432,54.94a5,5,0,0,1,.61-2.39,4.18,4.18,0,0,1,1.71-1.75,5,5,0,0,1,2.49-.61,4.69,4.69,0,0,1,3.47,1.37,5.16,5.16,0,0,1,0,7,4.59,4.59,0,0,1-3.45,1.4,5.37,5.37,0,0,1-2.44-.58,4,4,0,0,1-1.77-1.71A5.55,5.55,0,0,1,432,54.94Zm2.53.12a3.13,3.13,0,0,0,.66,2.14,2.14,2.14,0,0,0,3.24,0,3.16,3.16,0,0,0,.66-2.15,3,3,0,0,0-.66-2.11,2.14,2.14,0,0,0-3.24,0A3.08,3.08,0,0,0,434.48,55.06ZM448,50.41v2H446.3v3.75a9.73,9.73,0,0,0,.05,1.34.5.5,0,0,0,.22.31.72.72,0,0,0,.42.12,3.47,3.47,0,0,0,1-.23l.22,1.92a5,5,0,0,1-2,.37,3.11,3.11,0,0,1-1.21-.22,1.77,1.77,0,0,1-.79-.59,2.35,2.35,0,0,1-.34-1,12.13,12.13,0,0,1-.08-1.73V52.37h-1.14v-2h1.14V48.55l2.48-1.44v3.3Zm4.27-3.57v4.75a3.67,3.67,0,0,1,2.86-1.4,3.48,3.48,0,0,1,1.54.32,2.52,2.52,0,0,1,1,.81,2.89,2.89,0,0,1,.48,1.09,10.25,10.25,0,0,1,.12,1.86v5.46h-2.47V54.8a7,7,0,0,0-.14-1.86,1.23,1.23,0,0,0-.5-.63,1.63,1.63,0,0,0-.89-.23,2.11,2.11,0,0,0-1.09.29,1.75,1.75,0,0,0-.71.9,5.38,5.38,0,0,0-.23,1.79v4.67h-2.47V46.84Zm8.45,9.46V53.83h4.85V56.3Zm5.8-1.36a5.11,5.11,0,0,1,.61-2.39,4.21,4.21,0,0,1,1.72-1.75,5,5,0,0,1,2.49-.61,4.71,4.71,0,0,1,3.47,1.37,5.16,5.16,0,0,1,0,7,4.59,4.59,0,0,1-3.45,1.4,5.34,5.34,0,0,1-2.44-.58,4,4,0,0,1-1.78-1.71A5.67,5.67,0,0,1,466.51,54.94Zm2.54.12a3.13,3.13,0,0,0,.66,2.14,2.14,2.14,0,0,0,3.24,0,3.16,3.16,0,0,0,.66-2.15,3,3,0,0,0-.66-2.11,2.14,2.14,0,0,0-3.24,0A3.08,3.08,0,0,0,469.05,55.06Zm11.59,4.67h-2.47V50.41h2.3v1.32a3.79,3.79,0,0,1,1-1.25,2.07,2.07,0,0,1,1.07-.29,3.07,3.07,0,0,1,1.63.47l-.77,2.15a2.16,2.16,0,0,0-1.16-.4,1.4,1.4,0,0,0-.88.28,1.91,1.91,0,0,0-.57,1,15.35,15.35,0,0,0-.2,3.12Zm13.33,0h-2.3V58.36a3.71,3.71,0,0,1-1.35,1.19,3.36,3.36,0,0,1-1.57.4A3.58,3.58,0,0,1,486,58.66,5.34,5.34,0,0,1,484.84,55,5.24,5.24,0,0,1,486,51.42a3.66,3.66,0,0,1,2.82-1.23,3.55,3.55,0,0,1,2.72,1.29V46.84H494Zm-6.6-4.87a4.37,4.37,0,0,0,.41,2.17,1.86,1.86,0,0,0,1.67,1,1.81,1.81,0,0,0,1.46-.73,3.37,3.37,0,0,0,.59-2.16,3.66,3.66,0,0,0-.58-2.32,1.83,1.83,0,0,0-1.48-.71,1.85,1.85,0,0,0-1.47.69A3.14,3.14,0,0,0,487.37,54.86ZM502,56.77l2.45.4A4,4,0,0,1,503,59.24a4.35,4.35,0,0,1-2.57.71,4.16,4.16,0,0,1-3.6-1.59,5.4,5.4,0,0,1-.92-3.22,5.19,5.19,0,0,1,1.21-3.64,4,4,0,0,1,3.07-1.31,4.18,4.18,0,0,1,3.29,1.37,6.15,6.15,0,0,1,1.15,4.22H498.4a2.43,2.43,0,0,0,.59,1.7,1.87,1.87,0,0,0,1.43.61,1.53,1.53,0,0,0,1-.31A2,2,0,0,0,502,56.77Zm.14-2.5a2.41,2.41,0,0,0-.56-1.64,1.73,1.73,0,0,0-1.29-.55,1.67,1.67,0,0,0-1.32.59,2.26,2.26,0,0,0-.53,1.6Zm7,5.46h-2.47V50.41H509v1.32A3.91,3.91,0,0,1,510,50.48a2,2,0,0,1,1.07-.29,3,3,0,0,1,1.62.47L512,52.81a2.16,2.16,0,0,0-1.16-.4,1.38,1.38,0,0,0-.88.28,1.79,1.79,0,0,0-.57,1,14.62,14.62,0,0,0-.2,3.12Zm4.08,3.79c.48-1.05.83-1.85,1-2.4a18.32,18.32,0,0,0,.54-1.92c.17-.73.29-1.42.38-2.08a16.4,16.4,0,0,0,.12-2,17.47,17.47,0,0,0-.44-4,27.32,27.32,0,0,0-1.65-4.54h1.67a16.22,16.22,0,0,1,2.06,4,13.06,13.06,0,0,1,.74,4.31,14.67,14.67,0,0,1-.58,3.93,16.41,16.41,0,0,1-2.17,4.65Z" transform="translate(-95.78 -36.6)"/><path class="cls-3" d="M694.19,124.56l-.52,1.22-.52,1.25-.53,1.3-.52,1.34-.52,1.37-.53,1.42-.52,1.45L690,135.4l-.53,1.53-.52,1.56-.53,1.6-.52,1.63-.52,1.66-.53,1.7-.52,1.72-.52,1.75-.53,1.78-.52,1.8-.52,1.83-.53,1.84-.52,1.87-.53,1.88-.52,1.9-.52,1.91-.53,1.92-.52,1.92-.52,1.94-.53,1.93L679,173l-.52,1.92-.53,1.92-.52,1.91-.52,1.89-.53,1.87-.52,1.85-.53,1.82-.52,1.79-.52,1.76-.53,1.71-.52,1.68-.52,1.63-.53,1.59-.52,1.53-.52,1.48-.53,1.43-.52,1.37-.53,1.31-.52,1.26-.52,1.2-.53,1.15-.52,1.09-.52,1-.53,1-.52.95-.52.91-.53.86-.52.83-.52.81-.53.77-.52.75-.53.74-.52.72-.52.71-.53.7-.52.7-.52.71-.53.7-.52.71-.52.73-.53.73L657,224l-.53.77-.52.79-.52.81-.53.84-.52.87-.52.89-.53.93-.52,1-.52,1-.53,1-.52,1.06-.52,1.1-.53,1.13-.52,1.17-.53,1.2-.52,1.25-.52,1.28-.53,1.32-.52,1.36-.52,1.4-.53,1.44L645.5,248l-.52,1.51-.53,1.55-.52,1.59-.52,1.62-.53,1.66-.52,1.69-.53,1.72-.52,1.76-.52,1.79-.53,1.82-.52,1.84-.52,1.88-.53,1.9-.52,1.92-.52,2-.53,2-.52,2-.53,2-.52,2-.52,2-.53,2.05-.52,2.07-.52,2.07-.53,2.08-.52,2.09-.52,2.09-.53,2.09-.52,2.08-.52,2.08-.53,2.08-.52,2.06-.53,2-.52,2-.52,2-.53,2-.52,1.95-.52,1.92-.53,1.89-.52,1.85-.52,1.8-.53,1.75-.52,1.7-.52,1.64-.53,1.58-.52,1.52-.53,1.45-.52,1.39-.52,1.32-.53,1.25-.52,1.18-.52,1.12-.53,1.05-.52,1-.52.92-.53.87-.52.8-.53.76-.52.71-.52.66-.53.63-.52.59L613,349l-.53.53-.52.51-.52.49-.53.47-.52.46-.52.46-.53.44-.52.45-.53.44-.52.45-.52.46-.53.46-.52.47-.52.49-.53.5-.52.51-.52.54-.53.55-.52.58-.53.59-.52.63-.52.65-.53.67-.52.71-.52.73-.53.77-.52.8-.52.83-.53.86-.52.9-.52.93-.53,1-.52,1-.53,1-.52,1.07-.52,1.11-.53,1.15-.52,1.18-.52,1.22-.53,1.25-.52,1.29-.52,1.31-.53,1.35-.52,1.38-.52,1.4-.53,1.43-.52,1.46-.53,1.48-.52,1.49-.52,1.51-.53,1.53-.52,1.54-.52,1.54-.53,1.55-.52,1.54-.52,1.55-.53,1.53-.52,1.52-.53,1.51-.52,1.48-.52,1.46-.53,1.42-.52,1.39-.52,1.35-.53,1.31-.52,1.26-.52,1.21-.53,1.16-.52,1.1-.52,1.05-.53,1-.52.92-.53.87-.52.8-.52.75-.53.68-.52.64-.52.58-.53.52-.52.48-.52.44-.53.39-.52.36-.52.32-.53.28-.52.25-.53.23-.52.2-.52.18-.53.16-.52.14-.52.13-.53.1-.52.1-.52.08-.53.08-.52.06-.53.06-.52,0-.52,0-.53,0-.52,0-.52,0-.53,0h-.52l-.52,0h-9.43l-.52,0h-.53l-.52,0H546l-.53,0-.52,0-.52,0-.53,0-.52,0-.52,0-.53,0-.52,0-.53,0-.52,0-.52,0-.53,0-.52,0-.52,0-.53,0-.52,0-.52,0-.53,0-.52,0-.52,0-.53,0-.52,0-.53,0-.52,0-.52,0-.53,0-.52,0-.52,0-.53,0-.52,0-.52,0-.53,0-.52,0-.53,0-.52,0-.52,0-.53,0-.52,0-.52,0-.53,0-.52,0-.52,0-.53,0-.52,0-.52,0-.53,0-.52,0-.53,0-.52,0-.52,0-.53,0-.52,0-.52,0-.53,0-.52,0h-.52l-.53,0-.52,0h-.53l-.52,0h-2.09l-.53,0H479l-.53,0h-1l-.53,0h-.52l-.52,0-.53,0h-.52l-.53,0-.52,0-.52,0-.53,0-.52,0-.52,0-.53,0-.52,0-.52,0-.53,0-.52,0-.52,0-.53,0-.52,0-.53,0-.52,0-.52,0-.53,0-.52,0-.52,0-.53,0-.52,0-.52,0-.53,0-.52,0-.53,0-.52,0-.52,0-.53,0-.52,0-.52,0-.53,0-.52,0-.52,0-.53,0-.52,0-.52,0-.53,0-.52,0-.53,0-.52,0-.52,0-.53,0-.52,0h-.52l-.53,0-.52,0h-.52l-.53,0h-.52l-.53,0h-1.57l-.52,0H396.27l-.52,0H394.7l-.53,0h-.52l-.52,0h-.53l-.52,0-.52,0-.53,0-.52,0-.52,0-.53,0-.52,0-.52,0-.53,0-.52,0-.53,0-.52,0-.52,0-.53,0-.52,0-.52,0-.53,0-.52,0-.52,0h-.53l-.52,0-.52,0h-.53l-.52,0h-.53l-.52,0h-1.05l-.52,0H340.77l-.53,0h-2.61l-.53,0h-1l-.53,0h-1l-.53,0h-.52l-.53,0h-.52l-.52,0h-.53l-.52,0h-1.05l-.52,0h-11l-.52,0h-.52l-.53,0h-.52l-.52,0h-.53l-.52,0-.52,0-.53,0-.52,0h-.53l-.52,0-.52,0-.53,0-.52,0h-.52l-.53,0-.52,0h-.52l-.53,0h-.52l-.53,0h-.52l-.52,0h-1.05l-.52,0H274.27l-.52,0h-1.57l-.53,0h-.52l-.52,0h-.53l-.52,0-.52,0-.53,0-.52,0-.52,0-.53,0-.52,0-.53,0-.52,0-.52,0-.53,0-.52,0-.52,0-.53,0-.52,0-.52,0-.53,0-.52,0-.53.05-.52,0-.52,0-.53,0-.52.05-.52.05-.53.05-.52.05-.52,0-.53.05-.52.06-.52.05-.53.06-.52.05-.53,0-.52.06-.52.05-.53.05-.52.05-.52.05-.53,0-.52.05-.52.05-.53,0-.52,0-.52,0-.53,0-.52,0-.53,0-.52,0-.52,0-.53,0-.52,0-.52,0h-10l-.53,0h-1.57l-.52,0H190l-.52,0h-2.09l-.53,0h-.52l-.53,0h-.52l-.52,0-.53,0-.52,0-.52,0-.53,0-.52,0-.52,0-.53,0-.52,0-.52,0-.53,0-.52,0-.53,0-.52,0-.52,0-.53,0-.52,0-.52,0-.53,0-.52,0-.52,0-.53,0-.52,0-.53,0-.52-.05-.52,0-.53-.05" transform="translate(-95.78 -36.6)"/><circle class="cls-4" cx="458.09" cy="393.91" r="6.67"/><line class="cls-3" x1="458.09" y1="458.94" x2="458.09" y2="393.91"/><circle class="cls-5" cx="458.09" cy="393.91" r="4.17"/><circle class="cls-6" cx="458.09" cy="393.91" r="4.17"/><path class="cls-7" d="M555.54,373.11v53l0,.19,0,.19,0,.19.05.18.07.18.08.18.09.17.1.16.11.16.13.14.13.14.14.14.15.12.15.11.16.1.17.09.18.08.18.07.18.05.19.05.19,0,.19,0H670.46l.19,0,.19,0,.19-.05.18-.05.18-.07.18-.08.17-.09.16-.1.16-.11.14-.12.14-.14.14-.14.12-.14.11-.16.1-.16.09-.17L673,427l.07-.18.05-.18,0-.19,0-.19,0-.19V372.92l0-.19,0-.19,0-.19-.05-.18L673,372l-.08-.18-.09-.17-.1-.16-.11-.16-.12-.14-.14-.14-.14-.14-.14-.12-.16-.11-.16-.1-.17-.09-.18-.08-.18-.07-.18-.05-.19,0-.19,0-.19,0H558.28l-.19,0-.19,0-.19,0-.18.05-.18.07-.18.08-.17.09-.16.1-.15.11-.15.12-.14.14-.13.14-.13.14-.11.16-.1.16-.09.17-.08.18-.07.18-.05.18,0,.19,0,.19,0,.19Z" transform="translate(-95.78 -36.6)"/><path class="cls-8" d="M555.54,425.91v.19l0,.19,0,.19,0,.19.05.18.07.18.08.18.09.17.1.16.11.16.13.14.13.14.14.14.15.12.15.11.16.1.17.09.18.08.18.07.18.05.19.05.19,0,.19,0H670.46l.19,0,.19,0,.19-.05.18-.05.18-.07.18-.08.17-.09.16-.1.16-.11.14-.12.14-.14.14-.14.12-.14.11-.16.1-.16.09-.17L673,427l.07-.18.05-.18,0-.19,0-.19,0-.19V372.92l0-.19,0-.19,0-.19-.05-.18L673,372l-.08-.18-.09-.17-.1-.16-.11-.16-.12-.14-.14-.14-.14-.14-.14-.12-.16-.11-.16-.1-.17-.09-.18-.08-.18-.07-.18-.05-.19,0-.19,0-.19,0H558.28l-.19,0-.19,0-.19,0-.18.05-.18.07-.18.08-.17.09-.16.1-.15.11-.15.12-.14.14-.13.14-.13.14-.11.16-.1.16-.09.17-.08.18-.07.18-.05.18,0,.19,0,.19,0,.19v53Z" transform="translate(-95.78 -36.6)"/><path class="cls-9" d="M564,395.48l4.7-6.34-4.15-5.83h1.92l2.2,3.13a13.21,13.21,0,0,1,1,1.5,14.57,14.57,0,0,1,1-1.39l2.44-3.24h1.77l-4.28,5.74,4.61,6.43h-2l-3.07-4.34-.53-.81c-.27.45-.46.75-.58.92l-3,4.23Z" transform="translate(-95.78 -36.6)"/><path class="cls-10" d="M580.64,392.36l2.33-.25a2,2,0,0,0,.59,1.26,1.61,1.61,0,0,0,1.13.46,1.57,1.57,0,0,0,1.24-.6,2.67,2.67,0,0,0,.51-1.79,2.4,2.4,0,0,0-.51-1.67,1.66,1.66,0,0,0-1.3-.57,2.38,2.38,0,0,0-1.8.89l-1.91-.28,1.21-6.33h6.17v2.19h-4.41l-.36,2.06a3.56,3.56,0,0,1,4.22.74,4.07,4.07,0,0,1,1.08,2.94,4.3,4.3,0,0,1-.88,2.67,3.87,3.87,0,0,1-3.29,1.61,4,4,0,0,1-2.74-.91A3.76,3.76,0,0,1,580.64,392.36Zm9.73,3.12v-2.32h2.33v2.32Zm4.16-3.12,2.33-.25a2,2,0,0,0,.59,1.26,1.61,1.61,0,0,0,1.13.46,1.57,1.57,0,0,0,1.24-.6,2.67,2.67,0,0,0,.51-1.79,2.4,2.4,0,0,0-.51-1.67,1.66,1.66,0,0,0-1.3-.57,2.38,2.38,0,0,0-1.8.89l-1.91-.28,1.21-6.33h6.17v2.19h-4.41l-.36,2.06a3.56,3.56,0,0,1,4.22.74,4.07,4.07,0,0,1,1.08,2.94,4.3,4.3,0,0,1-.88,2.67,3.87,3.87,0,0,1-3.29,1.61,4,4,0,0,1-2.74-.91A3.81,3.81,0,0,1,594.53,392.36Zm17.14-6.06-2.27.25a1.59,1.59,0,0,0-.42-1,1.25,1.25,0,0,0-.9-.33,1.53,1.53,0,0,0-1.25.66,5.38,5.38,0,0,0-.64,2.76,2.7,2.7,0,0,1,2.15-1,3.29,3.29,0,0,1,2.51,1.12,4,4,0,0,1,1,2.86,4.16,4.16,0,0,1-1.09,3,4,4,0,0,1-5.85-.3c-.79-1-1.19-2.52-1.19-4.7s.42-3.83,1.25-4.82a4,4,0,0,1,3.21-1.47,3.38,3.38,0,0,1,2.29.77A3.62,3.62,0,0,1,611.67,386.3Zm-5.28,5.09a2.6,2.6,0,0,0,.52,1.74,1.56,1.56,0,0,0,1.2.62,1.37,1.37,0,0,0,1.07-.5,2.58,2.58,0,0,0,.43-1.66,2.74,2.74,0,0,0-.46-1.74,1.46,1.46,0,0,0-1.17-.55,1.43,1.43,0,0,0-1.13.53A2.29,2.29,0,0,0,606.39,391.39Zm14.51,1.92v2.17h-8.17a5.52,5.52,0,0,1,.81-2.32,15.77,15.77,0,0,1,2.61-2.93,17.23,17.23,0,0,0,1.94-2,2.58,2.58,0,0,0,.48-1.44,1.58,1.58,0,0,0-.42-1.19,1.55,1.55,0,0,0-1.15-.42,1.58,1.58,0,0,0-1.17.44,2.38,2.38,0,0,0-.51,1.45l-2.31-.22a3.82,3.82,0,0,1,1.3-2.77,4.35,4.35,0,0,1,2.73-.83,4,4,0,0,1,2.84,1,3.22,3.22,0,0,1,1,2.43,4.07,4.07,0,0,1-.29,1.55,6.1,6.1,0,0,1-.93,1.56,14.73,14.73,0,0,1-1.53,1.56c-.74.68-1.2,1.12-1.4,1.34a4.16,4.16,0,0,0-.47.64Zm3.39-4.39a2.61,2.61,0,0,1-1.72-2.51,3,3,0,0,1,.95-2.25,4.54,4.54,0,0,1,5.4,0,3,3,0,0,1,1,2.25,2.67,2.67,0,0,1-.44,1.5,2.88,2.88,0,0,1-1.23,1,3.28,3.28,0,0,1,1.54,1.19,3.14,3.14,0,0,1,.52,1.8,3.69,3.69,0,0,1-1.07,2.74,3.91,3.91,0,0,1-2.87,1.05,4.29,4.29,0,0,1-2.75-.87,3.67,3.67,0,0,1-.82-4.64A3.12,3.12,0,0,1,624.29,388.92Zm.49-2.36a1.49,1.49,0,0,0,.39,1.1,1.46,1.46,0,0,0,1.06.39,1.42,1.42,0,0,0,1-.39,1.46,1.46,0,0,0,.4-1.1,1.42,1.42,0,0,0-.39-1.05,1.39,1.39,0,0,0-1-.4,1.45,1.45,0,0,0-1.07.4A1.42,1.42,0,0,0,624.78,386.56Zm-.22,5.22a2.15,2.15,0,0,0,.49,1.51,1.61,1.61,0,0,0,1.24.54,1.56,1.56,0,0,0,1.2-.53,2.15,2.15,0,0,0,.47-1.49,1.92,1.92,0,0,0-.48-1.37,1.58,1.58,0,0,0-1.22-.52,1.48,1.48,0,0,0-1.28.59A2.13,2.13,0,0,0,624.56,391.78Zm12.6.89,2.33.39a3.82,3.82,0,0,1-1.42,2,4.21,4.21,0,0,1-2.42.67,4,4,0,0,1-3.41-1.5,5.14,5.14,0,0,1-.86-3.05,4.88,4.88,0,0,1,1.14-3.43,3.75,3.75,0,0,1,2.89-1.24,3.9,3.9,0,0,1,3.11,1.3,5.74,5.74,0,0,1,1.1,4h-5.85a2.33,2.33,0,0,0,.56,1.61,1.79,1.79,0,0,0,1.35.58,1.43,1.43,0,0,0,.92-.3A1.79,1.79,0,0,0,637.16,392.67Zm.13-2.34a2.21,2.21,0,0,0-.52-1.55,1.62,1.62,0,0,0-1.22-.53,1.6,1.6,0,0,0-1.25.56,2.19,2.19,0,0,0-.5,1.52Zm3.76,1.9v-2.32h4.58v2.32Zm9.27-9a3.31,3.31,0,0,1,2.75,1.26q1.18,1.49,1.19,5c0,2.31-.4,4-1.19,5a3.32,3.32,0,0,1-2.75,1.24,3.48,3.48,0,0,1-2.87-1.37c-.72-.91-1.09-2.53-1.09-4.87s.4-3.93,1.19-4.93A3.31,3.31,0,0,1,650.32,383.27Zm0,1.93a1.19,1.19,0,0,0-.77.27,1.8,1.8,0,0,0-.51,1,19.56,19.56,0,0,0,0,6,2.14,2.14,0,0,0,.54,1.06,1.19,1.19,0,0,0,1.51,0,1.76,1.76,0,0,0,.51-1,13.28,13.28,0,0,0,.24-3,13.66,13.66,0,0,0-.21-2.94,2,2,0,0,0-.54-1.07A1.15,1.15,0,0,0,650.32,385.2Zm5.34,7.16,2.33-.25a2,2,0,0,0,.58,1.26,1.65,1.65,0,0,0,1.14.46,1.57,1.57,0,0,0,1.24-.6,2.67,2.67,0,0,0,.51-1.79,2.4,2.4,0,0,0-.51-1.67,1.68,1.68,0,0,0-1.31-.57,2.38,2.38,0,0,0-1.79.89l-1.91-.28,1.2-6.33h6.18v2.19h-4.41l-.36,2.06a3.56,3.56,0,0,1,4.22.74,4.07,4.07,0,0,1,1.08,2.94,4.3,4.3,0,0,1-.88,2.67,3.87,3.87,0,0,1-3.3,1.61,4,4,0,0,1-2.73-.91A3.76,3.76,0,0,1,655.66,392.36Z" transform="translate(-95.78 -36.6)"/><path class="cls-9" d="M568.63,416.48v-5.15l-4.69-7h2L568.3,408q.68,1,1.23,2.07c.37-.64.81-1.36,1.33-2.16l2.36-3.58h1.87l-4.86,7v5.15Z" transform="translate(-95.78 -36.6)"/><path class="cls-10" d="M580.53,413.25l2.25-.27a2.11,2.11,0,0,0,.59,1.32,1.62,1.62,0,0,0,1.15.45,1.55,1.55,0,0,0,1.21-.55,2.09,2.09,0,0,0,.49-1.47,2,2,0,0,0-.47-1.39,1.51,1.51,0,0,0-1.16-.51,4.34,4.34,0,0,0-1.06.17l.25-1.91a2,2,0,0,0,1.45-.4,1.47,1.47,0,0,0,.49-1.16,1.24,1.24,0,0,0-1.33-1.34,1.41,1.41,0,0,0-1,.41,1.91,1.91,0,0,0-.52,1.21l-2.16-.37a4.69,4.69,0,0,1,.68-1.76,3,3,0,0,1,1.26-1,4.28,4.28,0,0,1,1.81-.37,3.65,3.65,0,0,1,2.77,1.09,2.79,2.79,0,0,1-.91,4.58,2.81,2.81,0,0,1,1.67,1,2.9,2.9,0,0,1,.63,1.88,3.67,3.67,0,0,1-1.16,2.73,4.38,4.38,0,0,1-5.66.18A3.76,3.76,0,0,1,580.53,413.25Zm9.84,3.23v-2.32h2.33v2.32Zm12-2.17v2.17H594.2a5.81,5.81,0,0,1,.81-2.32,15.54,15.54,0,0,1,2.62-2.93,16.82,16.82,0,0,0,1.93-2,2.52,2.52,0,0,0,.49-1.44,1.46,1.46,0,0,0-1.58-1.61,1.54,1.54,0,0,0-1.16.44,2.26,2.26,0,0,0-.51,1.45l-2.31-.22a3.78,3.78,0,0,1,1.29-2.77,4.36,4.36,0,0,1,2.74-.83,4,4,0,0,1,2.83,1,3.23,3.23,0,0,1,1,2.43,4.27,4.27,0,0,1-.29,1.55,6.73,6.73,0,0,1-.93,1.56,14.73,14.73,0,0,1-1.53,1.56c-.74.68-1.21,1.12-1.4,1.34a4.27,4.27,0,0,0-.48.64Zm1.43-.64,2.27-.25a1.61,1.61,0,0,0,.43,1,1.29,1.29,0,0,0,.93.33,1.5,1.5,0,0,0,1.22-.66,5.6,5.6,0,0,0,.65-2.76,2.8,2.8,0,0,1-2.2,1,3.27,3.27,0,0,1-2.48-1.1,4.56,4.56,0,0,1,.06-5.87,3.69,3.69,0,0,1,2.79-1.13,3.77,3.77,0,0,1,3,1.43c.79.95,1.19,2.52,1.19,4.71s-.42,3.83-1.24,4.82a4,4,0,0,1-3.23,1.47,3.45,3.45,0,0,1-2.31-.75A3.75,3.75,0,0,1,603.81,413.67Zm5.28-5.09a2.7,2.7,0,0,0-.51-1.76,1.56,1.56,0,0,0-1.21-.62,1.36,1.36,0,0,0-1.07.51,2.6,2.6,0,0,0-.43,1.66,2.69,2.69,0,0,0,.47,1.75,1.48,1.48,0,0,0,2.29,0A2.29,2.29,0,0,0,609.09,408.58Zm11.84-1.28-2.26.25a1.59,1.59,0,0,0-.42-1,1.26,1.26,0,0,0-.91-.33,1.53,1.53,0,0,0-1.25.66,5.48,5.48,0,0,0-.64,2.76,2.71,2.71,0,0,1,2.16-1,3.27,3.27,0,0,1,2.5,1.12,4,4,0,0,1,1,2.86,4.11,4.11,0,0,1-1.09,3,4,4,0,0,1-5.84-.3c-.8-1-1.19-2.52-1.19-4.7s.41-3.83,1.24-4.82a4,4,0,0,1,3.21-1.47,3.4,3.4,0,0,1,2.3.77A3.61,3.61,0,0,1,620.93,407.3Zm-5.28,5.09a2.6,2.6,0,0,0,.53,1.74,1.54,1.54,0,0,0,1.19.62,1.35,1.35,0,0,0,1.07-.5,2.52,2.52,0,0,0,.43-1.66,2.68,2.68,0,0,0-.46-1.74,1.49,1.49,0,0,0-2.3,0A2.34,2.34,0,0,0,615.65,412.39Zm8.64-2.47a2.61,2.61,0,0,1-1.72-2.51,3,3,0,0,1,.95-2.25,4.54,4.54,0,0,1,5.4,0,3,3,0,0,1,1,2.25,2.67,2.67,0,0,1-.44,1.5,2.88,2.88,0,0,1-1.23,1,3.28,3.28,0,0,1,1.54,1.19,3.14,3.14,0,0,1,.52,1.8,3.69,3.69,0,0,1-1.07,2.74,3.91,3.91,0,0,1-2.87,1.05,4.29,4.29,0,0,1-2.75-.87,3.67,3.67,0,0,1-.82-4.64A3.12,3.12,0,0,1,624.29,409.92Zm.49-2.36a1.49,1.49,0,0,0,.39,1.1,1.46,1.46,0,0,0,1.06.39,1.42,1.42,0,0,0,1-.39,1.46,1.46,0,0,0,.4-1.1,1.42,1.42,0,0,0-.39-1.05,1.39,1.39,0,0,0-1-.4,1.45,1.45,0,0,0-1.07.4A1.42,1.42,0,0,0,624.78,407.56Zm-.22,5.22a2.15,2.15,0,0,0,.49,1.51,1.61,1.61,0,0,0,1.24.54,1.56,1.56,0,0,0,1.2-.53,2.15,2.15,0,0,0,.47-1.49,1.92,1.92,0,0,0-.48-1.37,1.58,1.58,0,0,0-1.22-.52,1.48,1.48,0,0,0-1.28.59A2.13,2.13,0,0,0,624.56,412.78Zm12.6.89,2.33.39a3.82,3.82,0,0,1-1.42,2,4.21,4.21,0,0,1-2.42.67,4,4,0,0,1-3.41-1.5,5.14,5.14,0,0,1-.86-3.05,4.88,4.88,0,0,1,1.14-3.43,3.75,3.75,0,0,1,2.89-1.24,3.9,3.9,0,0,1,3.11,1.3,5.74,5.74,0,0,1,1.1,4h-5.85a2.33,2.33,0,0,0,.56,1.61,1.79,1.79,0,0,0,1.35.58,1.43,1.43,0,0,0,.92-.3A1.79,1.79,0,0,0,637.16,413.67Zm.13-2.34a2.21,2.21,0,0,0-.52-1.55,1.62,1.62,0,0,0-1.22-.53,1.6,1.6,0,0,0-1.25.56,2.19,2.19,0,0,0-.5,1.52Zm3.76,1.9v-2.32h4.58v2.32Zm11.28,3.25H650v-8.79a8.2,8.2,0,0,1-3,1.78v-2.13a6.41,6.41,0,0,0,2-1.13,4.21,4.21,0,0,0,1.46-1.94h1.89Zm9.27,0h-2.33v-8.79a8.2,8.2,0,0,1-3,1.78v-2.13a6.45,6.45,0,0,0,2-1.13,4.28,4.28,0,0,0,1.46-1.94h1.89Z" transform="translate(-95.78 -36.6)"/><circle class="cls-11" cx="458.09" cy="393.91" r="3.33"/><circle class="cls-12" cx="458.09" cy="393.91" r="4.17"/><path class="cls-1" d="M778.07,488.08h543v-428h-543Z" transform="translate(-95.78 -36.6)"/><line class="cls-2" x1="682.29" y1="451.48" x2="1225.29" y2="451.48"/><line class="cls-2" x1="682.29" y1="23.48" x2="1225.29" y2="23.48"/><line class="cls-2" x1="682.29" y1="451.48" x2="682.29" y2="446.05"/><line class="cls-2" x1="736.59" y1="451.48" x2="736.59" y2="446.05"/><line class="cls-2" x1="790.89" y1="451.48" x2="790.89" y2="446.05"/><line class="cls-2" x1="845.19" y1="451.48" x2="845.19" y2="446.05"/><line class="cls-2" x1="899.49" y1="451.48" x2="899.49" y2="446.05"/><line class="cls-2" x1="953.79" y1="451.48" x2="953.79" y2="446.05"/><line class="cls-2" x1="1008.09" y1="451.48" x2="1008.09" y2="446.05"/><line class="cls-2" x1="1062.39" y1="451.48" x2="1062.39" y2="446.05"/><line class="cls-2" x1="1116.69" y1="451.48" x2="1116.69" y2="446.05"/><line class="cls-2" x1="1170.99" y1="451.48" x2="1170.99" y2="446.05"/><line class="cls-2" x1="1225.29" y1="451.48" x2="1225.29" y2="446.05"/><line class="cls-2" x1="682.29" y1="23.48" x2="682.29" y2="28.91"/><line class="cls-2" x1="736.59" y1="23.48" x2="736.59" y2="28.91"/><line class="cls-2" x1="790.89" y1="23.48" x2="790.89" y2="28.91"/><line class="cls-2" x1="845.19" y1="23.48" x2="845.19" y2="28.91"/><line class="cls-2" x1="899.49" y1="23.48" x2="899.49" y2="28.91"/><line class="cls-2" x1="953.79" y1="23.48" x2="953.79" y2="28.91"/><line class="cls-2" x1="1008.09" y1="23.48" x2="1008.09" y2="28.91"/><line class="cls-2" x1="1062.39" y1="23.48" x2="1062.39" y2="28.91"/><line class="cls-2" x1="1116.69" y1="23.48" x2="1116.69" y2="28.91"/><line class="cls-2" x1="1170.99" y1="23.48" x2="1170.99" y2="28.91"/><line class="cls-2" x1="1225.29" y1="23.48" x2="1225.29" y2="28.91"/><text class="cls-13" transform="translate(677.29 475.15)">0</text><text class="cls-13" transform="translate(724.59 475.15)">0.1</text><text class="cls-13" transform="translate(778.89 475.15)">0.2</text><text class="cls-13" transform="translate(833.19 475.15)">0.3</text><text class="cls-13" transform="translate(887.49 475.15)">0.4</text><text class="cls-13" transform="translate(941.79 475.15)">0.5</text><text class="cls-13" transform="translate(996.09 475.15)">0.6</text><text class="cls-13" transform="translate(1050.39 475.15)">0.7</text><text class="cls-13" transform="translate(1104.69 475.15)">0.8</text><text class="cls-13" transform="translate(1158.99 475.15)">0.9</text><text class="cls-13" transform="translate(1220.29 475.15)">1</text><text class="cls-14" transform="translate(948.79 499.81)">x</text><line class="cls-2" x1="682.29" y1="451.48" x2="682.29" y2="23.48"/><line class="cls-2" x1="1225.29" y1="451.48" x2="1225.29" y2="23.48"/><line class="cls-2" x1="682.29" y1="451.48" x2="687.72" y2="451.48"/><line class="cls-2" x1="682.29" y1="397.98" x2="687.72" y2="397.98"/><line class="cls-2" x1="682.29" y1="344.48" x2="687.72" y2="344.48"/><line class="cls-2" x1="682.29" y1="290.98" x2="687.72" y2="290.98"/><line class="cls-2" x1="682.29" y1="237.48" x2="687.72" y2="237.48"/><line class="cls-2" x1="682.29" y1="183.98" x2="687.72" y2="183.98"/><line class="cls-2" x1="682.29" y1="130.48" x2="687.72" y2="130.48"/><line class="cls-2" x1="682.29" y1="76.98" x2="687.72" y2="76.98"/><line class="cls-2" x1="682.29" y1="23.48" x2="687.72" y2="23.48"/><line class="cls-2" x1="1225.29" y1="451.48" x2="1219.86" y2="451.48"/><line class="cls-2" x1="1225.29" y1="397.98" x2="1219.86" y2="397.98"/><line class="cls-2" x1="1225.29" y1="344.48" x2="1219.86" y2="344.48"/><line class="cls-2" x1="1225.29" y1="290.98" x2="1219.86" y2="290.98"/><line class="cls-2" x1="1225.29" y1="237.48" x2="1219.86" y2="237.48"/><line class="cls-2" x1="1225.29" y1="183.98" x2="1219.86" y2="183.98"/><line class="cls-2" x1="1225.29" y1="130.48" x2="1219.86" y2="130.48"/><line class="cls-2" x1="1225.29" y1="76.98" x2="1219.86" y2="76.98"/><line class="cls-2" x1="1225.29" y1="23.48" x2="1219.86" y2="23.48"/><text class="cls-13" transform="translate(651.62 457.98)">0.2</text><text class="cls-13" transform="translate(651.62 404.48)">0.3</text><text class="cls-13" transform="translate(651.62 350.98)">0.4</text><text class="cls-13" transform="translate(651.62 297.48)">0.5</text><text class="cls-13" transform="translate(651.62 243.98)">0.6</text><text class="cls-13" transform="translate(651.62 190.48)">0.7</text><text class="cls-13" transform="translate(651.62 136.98)">0.8</text><text class="cls-13" transform="translate(651.62 83.48)">0.9</text><text class="cls-13" transform="translate(665.62 29.98)">1</text><text class="cls-14" transform="translate(641.62 255.98) rotate(-90)">m(x)</text><text class="cls-15" transform="translate(828.79 15.73)">Model by GCV (zeroth-order)</text><path class="cls-3" d="M778.07,478.42h27.15V295.85h27.15V172.33h27.15V98.23h27.15V64.68h27.15V63.53H941V87.31h27.15v41.87h27.15V182.9h27.15v59.89h27.15v60.92h27.15V361h27.15v49.46H1131v37.89h27.15V471.3h27.15v5.05h27.15V460.89h27.15V422.62h27.15V359.56h27.15V270h27.15" transform="translate(-95.78 -36.6)"/></svg>