<svg id="图层_1" data-name="图层 1" xmlns="http://www.w3.org/2000/svg" viewBox="0 0 1225.93 510.8"><defs><style>.cls-1{fill:#fff;}.cls-12,.cls-16,.cls-2,.cls-3,.cls-4,.cls-6,.cls-8{fill:none;}.cls-16,.cls-2,.cls-4{stroke:#000;}.cls-2{stroke-linecap:square;}.cls-16,.cls-2,.cls-3,.cls-8{stroke-linejoin:round;stroke-width:0.83px;}.cls-3{stroke:#0072bd;}.cls-12,.cls-4,.cls-6{stroke-miterlimit:10;}.cls-11,.cls-5{fill:#262626;}.cls-12,.cls-6{stroke:#ffffdc;stroke-width:1.67px;}.cls-7{fill:#fafaff;}.cls-8{stroke:#595959;}.cls-9{fill:#404040;}.cls-10{fill:#09f;}.cls-11{fill-opacity:0.39;}.cls-12{stroke-opacity:0.39;}.cls-13,.cls-14,.cls-15{isolation:isolate;}.cls-13{font-size:16.67px;}.cls-13,.cls-14{font-family:ArialMT, Arial;}.cls-14,.cls-15{font-size:18.33px;}.cls-15{font-family:Arial-BoldMT, Arial;font-weight:700;}</style></defs><title>4</title><path class="cls-1" d="M177,463.92H720v-420H177Z" transform="translate(-107.84 -23.06)"/><line class="cls-2" x1="69.11" y1="440.86" x2="612.11" y2="440.86"/><line class="cls-2" x1="69.11" y1="20.86" x2="612.11" y2="20.86"/><line class="cls-2" x1="81.05" y1="440.86" x2="81.05" y2="435.43"/><line class="cls-2" x1="374.96" y1="440.86" x2="374.96" y2="435.43"/><line class="cls-2" x1="81.05" y1="20.86" x2="81.05" y2="26.29"/><line class="cls-2" x1="374.96" y1="20.86" x2="374.96" y2="26.29"/><line class="cls-2" x1="81.05" y1="440.86" x2="81.05" y2="438.14"/><line class="cls-2" x1="81.05" y1="440.86" x2="81.05" y2="438.14"/><line class="cls-2" x1="169.53" y1="440.86" x2="169.53" y2="438.14"/><line class="cls-2" x1="221.28" y1="440.86" x2="221.28" y2="438.14"/><line class="cls-2" x1="258" y1="440.86" x2="258" y2="438.14"/><line class="cls-2" x1="286.48" y1="440.86" x2="286.48" y2="438.14"/><line class="cls-2" x1="309.76" y1="440.86" x2="309.76" y2="438.14"/><line class="cls-2" x1="329.43" y1="440.86" x2="329.43" y2="438.14"/><line class="cls-2" x1="346.48" y1="440.86" x2="346.48" y2="438.14"/><line class="cls-2" x1="361.51" y1="440.86" x2="361.51" y2="438.14"/><line class="cls-2" x1="374.96" y1="440.86" x2="374.96" y2="438.14"/><line class="cls-2" x1="463.43" y1="440.86" x2="463.43" y2="438.14"/><line class="cls-2" x1="515.19" y1="440.86" x2="515.19" y2="438.14"/><line class="cls-2" x1="551.91" y1="440.86" x2="551.91" y2="438.14"/><line class="cls-2" x1="580.39" y1="440.86" x2="580.39" y2="438.14"/><line class="cls-2" x1="603.66" y1="440.86" x2="603.66" y2="438.14"/><line class="cls-2" x1="81.05" y1="20.86" x2="81.05" y2="23.57"/><line class="cls-2" x1="81.05" y1="20.86" x2="81.05" y2="23.57"/><line class="cls-2" x1="169.53" y1="20.86" x2="169.53" y2="23.57"/><line class="cls-2" x1="221.28" y1="20.86" x2="221.28" y2="23.57"/><line class="cls-2" x1="258" y1="20.86" x2="258" y2="23.57"/><line class="cls-2" x1="286.48" y1="20.86" x2="286.48" y2="23.57"/><line class="cls-2" x1="309.76" y1="20.86" x2="309.76" y2="23.57"/><line class="cls-2" x1="329.43" y1="20.86" x2="329.43" y2="23.57"/><line class="cls-2" x1="346.48" y1="20.86" x2="346.48" y2="23.57"/><line class="cls-2" x1="361.51" y1="20.86" x2="361.51" y2="23.57"/><line class="cls-2" x1="374.96" y1="20.86" x2="374.96" y2="23.57"/><line class="cls-2" x1="463.43" y1="20.86" x2="463.43" y2="23.57"/><line class="cls-2" x1="515.19" y1="20.86" x2="515.19" y2="23.57"/><line class="cls-2" x1="551.91" y1="20.86" x2="551.91" y2="23.57"/><line class="cls-2" x1="580.39" y1="20.86" x2="580.39" y2="23.57"/><line class="cls-2" x1="603.66" y1="20.86" x2="603.66" y2="23.57"/><path d="M179.28,492.92H177.8v-9.51a8,8,0,0,1-1.43,1,11.18,11.18,0,0,1-1.57.77v-1.45a9,9,0,0,0,2.2-1.42,6,6,0,0,0,1.33-1.63h.95Zm3.64-6a11.39,11.39,0,0,1,.44-3.48,4.39,4.39,0,0,1,1.32-2,3.43,3.43,0,0,1,2.21-.71,3.64,3.64,0,0,1,1.72.39,3.29,3.29,0,0,1,1.21,1.14,5.94,5.94,0,0,1,.76,1.82,12,12,0,0,1,.28,2.87,11.17,11.17,0,0,1-.44,3.45,4.33,4.33,0,0,1-1.31,2,3.45,3.45,0,0,1-2.22.71,3.34,3.34,0,0,1-2.77-1.25Q182.92,490.34,182.92,486.92Zm1.53,0c0,2,.23,3.33.7,4a2,2,0,0,0,3.47,0c.47-.67.7-2,.7-4s-.23-3.33-.7-4a2.08,2.08,0,0,0-1.75-1,1.91,1.91,0,0,0-1.64.87A7.65,7.65,0,0,0,184.45,486.92Z" transform="translate(-107.84 -23.06)"/><path d="M192.36,482.12V481h3.51v1.14Zm8.23,2.8v-2.23h-4v-1.05l4.23-6h.94v6H203v1.05h-1.26v2.23Zm0-3.28v-4.19l-2.92,4.19Z" transform="translate(-107.84 -23.06)"/><path d="M473.28,492.92H471.8v-9.51a8,8,0,0,1-1.43,1,11.18,11.18,0,0,1-1.57.77v-1.45a9,9,0,0,0,2.2-1.42,6,6,0,0,0,1.33-1.63h.95Zm3.64-6a11.39,11.39,0,0,1,.44-3.48,4.39,4.39,0,0,1,1.32-2,3.43,3.43,0,0,1,2.21-.71,3.64,3.64,0,0,1,1.72.39,3.29,3.29,0,0,1,1.21,1.14,5.94,5.94,0,0,1,.76,1.82,12,12,0,0,1,.28,2.87,11.17,11.17,0,0,1-.44,3.45,4.33,4.33,0,0,1-1.31,2,3.45,3.45,0,0,1-2.22.71,3.34,3.34,0,0,1-2.77-1.25Q476.92,490.34,476.92,486.92Zm1.53,0c0,2,.23,3.33.7,4a2,2,0,0,0,3.47,0c.47-.67.7-2,.7-4s-.23-3.33-.7-4a2.08,2.08,0,0,0-1.75-1,1.91,1.91,0,0,0-1.64.87A7.65,7.65,0,0,0,478.45,486.92Z" transform="translate(-107.84 -23.06)"/><path d="M486.36,482.12V481h3.51v1.14Zm4.57.35,1.14-.16a2.62,2.62,0,0,0,.67,1.4,1.65,1.65,0,0,0,1.16.43,1.84,1.84,0,0,0,1.35-.56,1.86,1.86,0,0,0,.56-1.38,1.75,1.75,0,0,0-1.82-1.81,3.52,3.52,0,0,0-.81.12l.13-1a.69.69,0,0,0,.18,0,2.4,2.4,0,0,0,1.32-.38,1.32,1.32,0,0,0,.59-1.18,1.36,1.36,0,0,0-.43-1,1.51,1.51,0,0,0-1.1-.42,1.54,1.54,0,0,0-1.11.43,2.22,2.22,0,0,0-.58,1.25L491,478a3,3,0,0,1,1-1.77,2.76,2.76,0,0,1,1.84-.63,3,3,0,0,1,1.4.33,2.32,2.32,0,0,1,1,.89,2.23,2.23,0,0,1,.34,1.2,1.94,1.94,0,0,1-.33,1.09,2,2,0,0,1-.95.78,2.22,2.22,0,0,1,1.27.8,2.38,2.38,0,0,1,.47,1.5,2.75,2.75,0,0,1-.9,2.07,3.1,3.1,0,0,1-2.25.85,2.91,2.91,0,0,1-2-.73A2.8,2.8,0,0,1,490.93,482.47Z" transform="translate(-107.84 -23.06)"/><path d="M344.37,516.92V504h5.71a7.61,7.61,0,0,1,2.61.35,2.91,2.91,0,0,1,1.44,1.23,3.61,3.61,0,0,1,.54,1.94,3.26,3.26,0,0,1-.89,2.31,4.6,4.6,0,0,1-2.73,1.2,4.54,4.54,0,0,1,1,.64,9,9,0,0,1,1.42,1.72l2.24,3.5h-2.14l-1.71-2.69q-.75-1.15-1.23-1.77a3.64,3.64,0,0,0-.87-.86,2.75,2.75,0,0,0-.77-.34,5.38,5.38,0,0,0-.95-.06h-2v5.72Zm1.71-7.2h3.65a5.54,5.54,0,0,0,1.83-.24,2,2,0,0,0,1-.78,2.06,2.06,0,0,0,.34-1.15,1.91,1.91,0,0,0-.66-1.5,3.05,3.05,0,0,0-2.09-.6h-4.07Zm17.67,4.2,1.64.2a4,4,0,0,1-1.43,2.22,4.3,4.3,0,0,1-2.67.8,4.24,4.24,0,0,1-3.25-1.27,4.89,4.89,0,0,1-1.21-3.54,5.18,5.18,0,0,1,1.21-3.65,4.11,4.11,0,0,1,3.15-1.31,4,4,0,0,1,3.06,1.28,5,5,0,0,1,1.19,3.58c0,.1,0,.24,0,.43h-7a3.52,3.52,0,0,0,.87,2.35,2.58,2.58,0,0,0,2,.82,2.4,2.4,0,0,0,1.49-.46A3,3,0,0,0,363.75,513.92Zm-5.2-2.56h5.22a3.27,3.27,0,0,0-.59-1.77,2.59,2.59,0,0,0-3.79-.18A2.91,2.91,0,0,0,358.55,511.36Zm8.36,2.78,1.58-.25a2.17,2.17,0,0,0,.72,1.44,2.57,2.57,0,0,0,1.68.5,2.5,2.5,0,0,0,1.63-.45,1.34,1.34,0,0,0,.53-1,1,1,0,0,0-.47-.84A7.25,7.25,0,0,0,371,513a15,15,0,0,1-2.4-.76,2.38,2.38,0,0,1-1.09-3.3,2.45,2.45,0,0,1,.78-.88,3.17,3.17,0,0,1,1-.47,5,5,0,0,1,1.36-.19,5.44,5.44,0,0,1,1.94.32,2.68,2.68,0,0,1,1.22.86,3.15,3.15,0,0,1,.54,1.45l-1.54.2a1.75,1.75,0,0,0-.61-1.12,2.22,2.22,0,0,0-1.42-.41,2.65,2.65,0,0,0-1.57.36,1.05,1.05,0,0,0-.47.84.87.87,0,0,0,.21.57,1.47,1.47,0,0,0,.59.42l1.41.4a20,20,0,0,1,2.33.73,2.32,2.32,0,0,1,1.05.84,2.23,2.23,0,0,1,.38,1.34,2.67,2.67,0,0,1-.46,1.5,3,3,0,0,1-1.33,1.09,5,5,0,0,1-2,.38,4.35,4.35,0,0,1-2.78-.76A3.46,3.46,0,0,1,366.91,514.14Zm9.81-8.28V504h1.58v1.83Zm0,11.06v-9.33h1.58v9.33Zm10.12,0v-1.17a2.92,2.92,0,0,1-2.63,1.39,3.68,3.68,0,0,1-2-.62,4,4,0,0,1-1.45-1.72,6,6,0,0,1-.52-2.54,6.59,6.59,0,0,1,.47-2.53,3.67,3.67,0,0,1,3.49-2.36,3.08,3.08,0,0,1,1.5.36,3.36,3.36,0,0,1,1.08.93V504h1.56v12.89Zm-5-4.66a4,4,0,0,0,.76,2.68,2.29,2.29,0,0,0,1.79.89,2.21,2.21,0,0,0,1.75-.85,3.85,3.85,0,0,0,.73-2.59,4.42,4.42,0,0,0-.73-2.81,2.29,2.29,0,0,0-1.82-.89,2.19,2.19,0,0,0-1.77.86A4.25,4.25,0,0,0,381.82,512.26Zm15.25,4.66v-1.37a3.4,3.4,0,0,1-3,1.59,3.79,3.79,0,0,1-1.54-.32,2.53,2.53,0,0,1-1.07-.8,3.08,3.08,0,0,1-.48-1.18,8.56,8.56,0,0,1-.09-1.47v-5.78h1.57v5.17a9.78,9.78,0,0,0,.1,1.68,1.64,1.64,0,0,0,.64,1,1.93,1.93,0,0,0,1.19.35,2.73,2.73,0,0,0,1.34-.35,2,2,0,0,0,.88-1,5.05,5.05,0,0,0,.26-1.82v-5h1.58v9.33Zm10.17-1.16a6,6,0,0,1-1.7,1.07,4.83,4.83,0,0,1-1.74.31,3.36,3.36,0,0,1-2.37-.76,2.66,2.66,0,0,1-.51-3.17,2.58,2.58,0,0,1,.82-.91,3.5,3.5,0,0,1,1.14-.52,10.88,10.88,0,0,1,1.4-.23,15,15,0,0,0,2.81-.55c0-.22,0-.36,0-.42a1.75,1.75,0,0,0-.45-1.36,2.65,2.65,0,0,0-1.8-.53,2.84,2.84,0,0,0-1.66.39,2.4,2.4,0,0,0-.78,1.39l-1.54-.22a3.85,3.85,0,0,1,.69-1.61,3,3,0,0,1,1.39-.94,6.27,6.27,0,0,1,2.13-.33,5.51,5.51,0,0,1,1.94.29,2.42,2.42,0,0,1,1.1.71,2.47,2.47,0,0,1,.5,1.07,9.7,9.7,0,0,1,.07,1.47V513a21.19,21.19,0,0,0,.11,2.79,3.47,3.47,0,0,0,.39,1.12h-1.65A3.14,3.14,0,0,1,407.24,515.76Zm-.15-3.53a11,11,0,0,1-2.57.6,5.62,5.62,0,0,0-1.38.32,1.37,1.37,0,0,0-.62.51,1.41,1.41,0,0,0,.25,1.81,2.07,2.07,0,0,0,1.4.42,3.27,3.27,0,0,0,1.64-.4,2.38,2.38,0,0,0,1-1.08,4,4,0,0,0,.25-1.6Zm4.21,4.69V504h1.57v12.89Zm9.37,0V504h1.75l6.77,10.13V504h1.62v12.89h-1.73L422.3,506.8v10.12Zm12.44-4.67a4.78,4.78,0,0,1,1.46-3.84,4.31,4.31,0,0,1,2.92-1,4.19,4.19,0,0,1,3.15,1.27,4.76,4.76,0,0,1,1.22,3.48,6.17,6.17,0,0,1-.54,2.83,3.75,3.75,0,0,1-1.57,1.61,4.48,4.48,0,0,1-2.26.58,4.21,4.21,0,0,1-3.17-1.26A5.07,5.07,0,0,1,433.11,512.25Zm1.63,0a4,4,0,0,0,.78,2.69,2.62,2.62,0,0,0,3.94,0,4.08,4.08,0,0,0,.78-2.73,3.82,3.82,0,0,0-.79-2.62,2.61,2.61,0,0,0-3.93,0A3.94,3.94,0,0,0,434.74,512.25Zm9.14,4.67v-9.33h1.42V509a3.91,3.91,0,0,1,1-1.31,1.72,1.72,0,0,1,1-.32,3,3,0,0,1,1.63.52l-.53,1.47a2.35,2.35,0,0,0-1.17-.35,1.48,1.48,0,0,0-.93.32,1.61,1.61,0,0,0-.59.86,6,6,0,0,0-.27,1.84v4.89Zm6.11,0v-9.33h1.42v1.3a3.32,3.32,0,0,1,1.17-1.09,3.5,3.5,0,0,1,3.36,0,2.31,2.31,0,0,1,.93,1.21,3.35,3.35,0,0,1,2.89-1.64,2.82,2.82,0,0,1,2.13.78,3.3,3.3,0,0,1,.74,2.36v6.41h-1.56v-5.87a4.15,4.15,0,0,0-.16-1.38,1.3,1.3,0,0,0-.56-.67,1.75,1.75,0,0,0-1-.25,2.22,2.22,0,0,0-1.64.66,2.87,2.87,0,0,0-.64,2.09v5.42h-1.58v-6.06a2.66,2.66,0,0,0-.39-1.59,1.48,1.48,0,0,0-1.27-.52,2.29,2.29,0,0,0-1.23.35,2,2,0,0,0-.82,1,5.54,5.54,0,0,0-.26,2v4.84Zm20.81,3.78V503.81h1.38V520.7Zm4.76,0V503.81h1.37V520.7Zm10.52-8.83v-1.51l5.45,0v4.78a9.5,9.5,0,0,1-2.58,1.51,7.64,7.64,0,0,1-2.74.51,7.33,7.33,0,0,1-3.46-.81,5.42,5.42,0,0,1-2.34-2.35,7.38,7.38,0,0,1-.8-3.43,7.9,7.9,0,0,1,.79-3.52,5.29,5.29,0,0,1,2.27-2.42,7,7,0,0,1,3.4-.8,6.79,6.79,0,0,1,2.53.45,4.26,4.26,0,0,1,1.76,1.27,5.75,5.75,0,0,1,1,2.11l-1.55.42a5,5,0,0,0-.71-1.55,2.94,2.94,0,0,0-1.24-.89,4.4,4.4,0,0,0-1.77-.34,5.33,5.33,0,0,0-2,.35,3.9,3.9,0,0,0-1.38.93,4.58,4.58,0,0,0-.82,1.28,6.87,6.87,0,0,0-.48,2.6,6.4,6.4,0,0,0,.59,2.88,3.81,3.81,0,0,0,1.73,1.73,5.36,5.36,0,0,0,2.4.56,5.59,5.59,0,0,0,2.16-.43,5.53,5.53,0,0,0,1.6-.92v-2.39Zm8,5v-9.33h1.42v1.3a3.32,3.32,0,0,1,1.17-1.09,3.5,3.5,0,0,1,3.36,0A2.31,2.31,0,0,1,501,509a3.35,3.35,0,0,1,2.89-1.64,2.82,2.82,0,0,1,2.13.78,3.3,3.3,0,0,1,.74,2.36v6.41h-1.56v-5.87a4.15,4.15,0,0,0-.16-1.38,1.3,1.3,0,0,0-.56-.67,1.75,1.75,0,0,0-.95-.25,2.22,2.22,0,0,0-1.64.66,2.87,2.87,0,0,0-.64,2.09v5.42h-1.58v-6.06a2.66,2.66,0,0,0-.39-1.59,1.48,1.48,0,0,0-1.27-.52,2.29,2.29,0,0,0-1.23.35,2,2,0,0,0-.82,1,5.54,5.54,0,0,0-.26,2v4.84Zm19.73-3.87v-1.58h4.86v1.58Zm17.86,3.87v-1.17a2.91,2.91,0,0,1-2.62,1.39,3.66,3.66,0,0,1-2-.62,4,4,0,0,1-1.45-1.72,5.82,5.82,0,0,1-.52-2.54,6.59,6.59,0,0,1,.47-2.53,3.72,3.72,0,0,1,1.4-1.75,3.76,3.76,0,0,1,2.08-.61,3,3,0,0,1,1.5.36,3.26,3.26,0,0,1,1.08.93V504h1.56v12.89Zm-5-4.66a4,4,0,0,0,.75,2.68,2.3,2.3,0,0,0,1.79.89A2.22,2.22,0,0,0,531,515a3.91,3.91,0,0,0,.73-2.59,4.41,4.41,0,0,0-.74-2.81,2.27,2.27,0,0,0-1.81-.89,2.18,2.18,0,0,0-1.77.86A4.19,4.19,0,0,0,526.67,512.26Zm9.6,8.44V503.81h1.38V520.7Zm4.76,0V503.81h1.37V520.7Z" transform="translate(-107.84 -23.06)"/><path d="M552.5,524.66v1.26h-7.1a2.45,2.45,0,0,1,.16-.92,4.82,4.82,0,0,1,.87-1.42,14,14,0,0,1,1.72-1.63,14.67,14.67,0,0,0,2.37-2.27,2.74,2.74,0,0,0,.62-1.59,1.78,1.78,0,0,0-.56-1.32,2.3,2.3,0,0,0-3,0,2.15,2.15,0,0,0-.57,1.59l-1.36-.14a3.39,3.39,0,0,1,1.05-2.31,3.59,3.59,0,0,1,2.44-.8,3.38,3.38,0,0,1,2.44.86,2.81,2.81,0,0,1,.9,2.12,3.17,3.17,0,0,1-.26,1.27,4.64,4.64,0,0,1-.87,1.31,21.32,21.32,0,0,1-2,1.89,19.93,19.93,0,0,0-1.52,1.35,4.4,4.4,0,0,0-.56.72Z" transform="translate(-107.84 -23.06)"/><line class="cls-2" x1="69.11" y1="440.86" x2="69.11" y2="20.86"/><line class="cls-2" x1="612.11" y1="440.86" x2="612.11" y2="20.86"/><line class="cls-2" x1="69.11" y1="437.27" x2="74.54" y2="437.27"/><line class="cls-2" x1="69.11" y1="352.83" x2="74.54" y2="352.83"/><line class="cls-2" x1="69.11" y1="268.38" x2="74.54" y2="268.38"/><line class="cls-2" x1="69.11" y1="183.94" x2="74.54" y2="183.94"/><line class="cls-2" x1="69.11" y1="99.49" x2="74.54" y2="99.49"/><line class="cls-2" x1="612.11" y1="437.27" x2="606.68" y2="437.27"/><line class="cls-2" x1="612.11" y1="352.83" x2="606.68" y2="352.83"/><line class="cls-2" x1="612.11" y1="268.38" x2="606.68" y2="268.38"/><line class="cls-2" x1="612.11" y1="183.94" x2="606.68" y2="183.94"/><line class="cls-2" x1="612.11" y1="99.49" x2="606.68" y2="99.49"/><line class="cls-2" x1="69.11" y1="437.27" x2="71.82" y2="437.27"/><line class="cls-2" x1="69.11" y1="411.85" x2="71.82" y2="411.85"/><line class="cls-2" x1="69.11" y1="396.98" x2="71.82" y2="396.98"/><line class="cls-2" x1="69.11" y1="386.43" x2="71.82" y2="386.43"/><line class="cls-2" x1="69.11" y1="378.25" x2="71.82" y2="378.25"/><line class="cls-2" x1="69.11" y1="371.56" x2="71.82" y2="371.56"/><line class="cls-2" x1="69.11" y1="365.91" x2="71.82" y2="365.91"/><line class="cls-2" x1="69.11" y1="361.01" x2="71.82" y2="361.01"/><line class="cls-2" x1="69.11" y1="356.69" x2="71.82" y2="356.69"/><line class="cls-2" x1="69.11" y1="352.83" x2="71.82" y2="352.83"/><line class="cls-2" x1="69.11" y1="327.41" x2="71.82" y2="327.41"/><line class="cls-2" x1="69.11" y1="312.54" x2="71.82" y2="312.54"/><line class="cls-2" x1="69.11" y1="301.99" x2="71.82" y2="301.99"/><line class="cls-2" x1="69.11" y1="293.8" x2="71.82" y2="293.8"/><line class="cls-2" x1="69.11" y1="287.12" x2="71.82" y2="287.12"/><line class="cls-2" x1="69.11" y1="281.46" x2="71.82" y2="281.46"/><line class="cls-2" x1="69.11" y1="276.57" x2="71.82" y2="276.57"/><line class="cls-2" x1="69.11" y1="272.25" x2="71.82" y2="272.25"/><line class="cls-2" x1="69.11" y1="268.38" x2="71.82" y2="268.38"/><line class="cls-2" x1="69.11" y1="242.96" x2="71.82" y2="242.96"/><line class="cls-2" x1="69.11" y1="228.09" x2="71.82" y2="228.09"/><line class="cls-2" x1="69.11" y1="217.54" x2="71.82" y2="217.54"/><line class="cls-2" x1="69.11" y1="209.36" x2="71.82" y2="209.36"/><line class="cls-2" x1="69.11" y1="202.67" x2="71.82" y2="202.67"/><line class="cls-2" x1="69.11" y1="197.02" x2="71.82" y2="197.02"/><line class="cls-2" x1="69.11" y1="192.12" x2="71.82" y2="192.12"/><line class="cls-2" x1="69.11" y1="187.8" x2="71.82" y2="187.8"/><line class="cls-2" x1="69.11" y1="183.94" x2="71.82" y2="183.94"/><line class="cls-2" x1="69.11" y1="158.52" x2="71.82" y2="158.52"/><line class="cls-2" x1="69.11" y1="143.65" x2="71.82" y2="143.65"/><line class="cls-2" x1="69.11" y1="133.1" x2="71.82" y2="133.1"/><line class="cls-2" x1="69.11" y1="124.91" x2="71.82" y2="124.91"/><line class="cls-2" x1="69.11" y1="118.23" x2="71.82" y2="118.23"/><line class="cls-2" x1="69.11" y1="112.57" x2="71.82" y2="112.57"/><line class="cls-2" x1="69.11" y1="107.68" x2="71.82" y2="107.68"/><line class="cls-2" x1="69.11" y1="103.36" x2="71.82" y2="103.36"/><line class="cls-2" x1="69.11" y1="99.49" x2="71.82" y2="99.49"/><line class="cls-2" x1="69.11" y1="74.07" x2="71.82" y2="74.07"/><line class="cls-2" x1="69.11" y1="59.2" x2="71.82" y2="59.2"/><line class="cls-2" x1="69.11" y1="48.65" x2="71.82" y2="48.65"/><line class="cls-2" x1="69.11" y1="40.47" x2="71.82" y2="40.47"/><line class="cls-2" x1="69.11" y1="33.78" x2="71.82" y2="33.78"/><line class="cls-2" x1="69.11" y1="28.13" x2="71.82" y2="28.13"/><line class="cls-2" x1="69.11" y1="23.23" x2="71.82" y2="23.23"/><line class="cls-2" x1="612.11" y1="437.27" x2="609.39" y2="437.27"/><line class="cls-2" x1="612.11" y1="411.85" x2="609.39" y2="411.85"/><line class="cls-2" x1="612.11" y1="396.98" x2="609.39" y2="396.98"/><line class="cls-2" x1="612.11" y1="386.43" x2="609.39" y2="386.43"/><line class="cls-2" x1="612.11" y1="378.25" x2="609.39" y2="378.25"/><line class="cls-2" x1="612.11" y1="371.56" x2="609.39" y2="371.56"/><line class="cls-2" x1="612.11" y1="365.91" x2="609.39" y2="365.91"/><line class="cls-2" x1="612.11" y1="361.01" x2="609.39" y2="361.01"/><line class="cls-2" x1="612.11" y1="356.69" x2="609.39" y2="356.69"/><line class="cls-2" x1="612.11" y1="352.83" x2="609.39" y2="352.83"/><line class="cls-2" x1="612.11" y1="327.41" x2="609.39" y2="327.41"/><line class="cls-2" x1="612.11" y1="312.54" x2="609.39" y2="312.54"/><line class="cls-2" x1="612.11" y1="301.99" x2="609.39" y2="301.99"/><line class="cls-2" x1="612.11" y1="293.8" x2="609.39" y2="293.8"/><line class="cls-2" x1="612.11" y1="287.12" x2="609.39" y2="287.12"/><line class="cls-2" x1="612.11" y1="281.46" x2="609.39" y2="281.46"/><line class="cls-2" x1="612.11" y1="276.57" x2="609.39" y2="276.57"/><line class="cls-2" x1="612.11" y1="272.25" x2="609.39" y2="272.25"/><line class="cls-2" x1="612.11" y1="268.38" x2="609.39" y2="268.38"/><line class="cls-2" x1="612.11" y1="242.96" x2="609.39" y2="242.96"/><line class="cls-2" x1="612.11" y1="228.09" x2="609.39" y2="228.09"/><line class="cls-2" x1="612.11" y1="217.54" x2="609.39" y2="217.54"/><line class="cls-2" x1="612.11" y1="209.36" x2="609.39" y2="209.36"/><line class="cls-2" x1="612.11" y1="202.67" x2="609.39" y2="202.67"/><line class="cls-2" x1="612.11" y1="197.02" x2="609.39" y2="197.02"/><line class="cls-2" x1="612.11" y1="192.12" x2="609.39" y2="192.12"/><line class="cls-2" x1="612.11" y1="187.8" x2="609.39" y2="187.8"/><line class="cls-2" x1="612.11" y1="183.94" x2="609.39" y2="183.94"/><line class="cls-2" x1="612.11" y1="158.52" x2="609.39" y2="158.52"/><line class="cls-2" x1="612.11" y1="143.65" x2="609.39" y2="143.65"/><line class="cls-2" x1="612.11" y1="133.1" x2="609.39" y2="133.1"/><line class="cls-2" x1="612.11" y1="124.91" x2="609.39" y2="124.91"/><line class="cls-2" x1="612.11" y1="118.23" x2="609.39" y2="118.23"/><line class="cls-2" x1="612.11" y1="112.57" x2="609.39" y2="112.57"/><line class="cls-2" x1="612.11" y1="107.68" x2="609.39" y2="107.68"/><line class="cls-2" x1="612.11" y1="103.36" x2="609.39" y2="103.36"/><line class="cls-2" x1="612.11" y1="99.49" x2="609.39" y2="99.49"/><line class="cls-2" x1="612.11" y1="74.07" x2="609.39" y2="74.07"/><line class="cls-2" x1="612.11" y1="59.2" x2="609.39" y2="59.2"/><line class="cls-2" x1="612.11" y1="48.65" x2="609.39" y2="48.65"/><line class="cls-2" x1="612.11" y1="40.47" x2="609.39" y2="40.47"/><line class="cls-2" x1="612.11" y1="33.78" x2="609.39" y2="33.78"/><line class="cls-2" x1="612.11" y1="28.13" x2="609.39" y2="28.13"/><line class="cls-2" x1="612.11" y1="23.23" x2="609.39" y2="23.23"/><path d="M145.28,468.92H143.8v-9.51a8,8,0,0,1-1.43,1,11.18,11.18,0,0,1-1.57.77v-1.45a9,9,0,0,0,2.2-1.42,6,6,0,0,0,1.33-1.63h.95Zm3.64-6a11.39,11.39,0,0,1,.44-3.48,4.39,4.39,0,0,1,1.32-2,3.43,3.43,0,0,1,2.21-.71,3.64,3.64,0,0,1,1.72.39,3.29,3.29,0,0,1,1.21,1.14,5.94,5.94,0,0,1,.76,1.82,12,12,0,0,1,.28,2.87,11.17,11.17,0,0,1-.44,3.45,4.33,4.33,0,0,1-1.31,2,3.45,3.45,0,0,1-2.22.71,3.34,3.34,0,0,1-2.77-1.25Q148.92,466.34,148.92,462.92Zm1.53,0c0,2,.23,3.33.7,4a2,2,0,0,0,3.47,0c.47-.67.7-2,.7-4s-.23-3.33-.7-4a2.08,2.08,0,0,0-1.75-1,1.91,1.91,0,0,0-1.64.87A7.65,7.65,0,0,0,150.45,462.92Z" transform="translate(-107.84 -23.06)"/><path d="M158.36,458.12V457h3.51v1.14Zm8.87,2.8h-1.14v-7.28a7,7,0,0,1-1.09.79,6.73,6.73,0,0,1-1.19.58v-1.1a7.27,7.27,0,0,0,1.67-1.08,4.17,4.17,0,0,0,1-1.25h.74Z" transform="translate(-107.84 -23.06)"/><path d="M149.28,384.92H147.8v-9.51a8,8,0,0,1-1.43,1,11.18,11.18,0,0,1-1.57.77v-1.45a9,9,0,0,0,2.2-1.42,6,6,0,0,0,1.33-1.63h.95Zm3.64-6a11.39,11.39,0,0,1,.44-3.48,4.39,4.39,0,0,1,1.32-2,3.43,3.43,0,0,1,2.21-.71,3.64,3.64,0,0,1,1.72.39,3.29,3.29,0,0,1,1.21,1.14,5.94,5.94,0,0,1,.76,1.82,12,12,0,0,1,.28,2.87,11.17,11.17,0,0,1-.44,3.45,4.33,4.33,0,0,1-1.31,2,3.45,3.45,0,0,1-2.22.71,3.34,3.34,0,0,1-2.77-1.25Q152.92,382.34,152.92,378.92Zm1.53,0c0,2,.23,3.33.7,4a2,2,0,0,0,3.47,0c.47-.67.7-2,.7-4s-.23-3.33-.7-4a2.08,2.08,0,0,0-1.75-1,1.91,1.91,0,0,0-1.64.87A7.65,7.65,0,0,0,154.45,378.92Z" transform="translate(-107.84 -23.06)"/><path d="M162.5,372.33a8.7,8.7,0,0,1,.33-2.65,3.37,3.37,0,0,1,1-1.56,2.61,2.61,0,0,1,1.69-.54,2.72,2.72,0,0,1,1.31.3,2.42,2.42,0,0,1,.93.87,4.38,4.38,0,0,1,.58,1.38,9.23,9.23,0,0,1,.21,2.2,8.45,8.45,0,0,1-.34,2.65,3.27,3.27,0,0,1-1,1.55,2.84,2.84,0,0,1-3.82-.42A6.21,6.21,0,0,1,162.5,372.33Zm1.17,0a5.91,5.91,0,0,0,.53,3.05,1.54,1.54,0,0,0,2.65,0,8.88,8.88,0,0,0,0-6.1,1.6,1.6,0,0,0-1.34-.75,1.49,1.49,0,0,0-1.26.66A6,6,0,0,0,163.67,372.33Z" transform="translate(-107.84 -23.06)"/><path d="M149.28,300.92H147.8v-9.51a8,8,0,0,1-1.43,1,11.18,11.18,0,0,1-1.57.77v-1.45a9,9,0,0,0,2.2-1.42,6,6,0,0,0,1.33-1.63h.95Zm3.64-6a11.39,11.39,0,0,1,.44-3.48,4.39,4.39,0,0,1,1.32-2,3.43,3.43,0,0,1,2.21-.71,3.64,3.64,0,0,1,1.72.39,3.29,3.29,0,0,1,1.21,1.14,5.94,5.94,0,0,1,.76,1.82,12,12,0,0,1,.28,2.87,11.17,11.17,0,0,1-.44,3.45,4.33,4.33,0,0,1-1.31,2,3.45,3.45,0,0,1-2.22.71,3.34,3.34,0,0,1-2.77-1.25Q152.92,298.34,152.92,294.92Zm1.53,0c0,2,.23,3.33.7,4a2,2,0,0,0,3.47,0c.47-.67.7-2,.7-4s-.23-3.33-.7-4a2.08,2.08,0,0,0-1.75-1,1.91,1.91,0,0,0-1.64.87A7.65,7.65,0,0,0,154.45,294.92Z" transform="translate(-107.84 -23.06)"/><path d="M166.8,292.92h-1.15v-7.28a6.89,6.89,0,0,1-1.08.79,6.47,6.47,0,0,1-1.2.58v-1.1a7.12,7.12,0,0,0,1.68-1.08,4.5,4.5,0,0,0,1-1.25h.74Z" transform="translate(-107.84 -23.06)"/><path d="M149.28,215.92H147.8v-9.51a8,8,0,0,1-1.43,1,11.18,11.18,0,0,1-1.57.77v-1.45a9,9,0,0,0,2.2-1.42,6,6,0,0,0,1.33-1.63h.95Zm3.64-6a11.39,11.39,0,0,1,.44-3.48,4.39,4.39,0,0,1,1.32-2,3.43,3.43,0,0,1,2.21-.71,3.64,3.64,0,0,1,1.72.39,3.29,3.29,0,0,1,1.21,1.14,5.94,5.94,0,0,1,.76,1.82,12,12,0,0,1,.28,2.87,11.17,11.17,0,0,1-.44,3.45,4.33,4.33,0,0,1-1.31,2,3.45,3.45,0,0,1-2.22.71,3.34,3.34,0,0,1-2.77-1.25Q152.92,213.34,152.92,209.92Zm1.53,0c0,2,.23,3.33.7,4a2,2,0,0,0,3.47,0c.47-.67.7-2,.7-4s-.23-3.33-.7-4a2.08,2.08,0,0,0-1.75-1,1.91,1.91,0,0,0-1.64.87A7.65,7.65,0,0,0,154.45,209.92Z" transform="translate(-107.84 -23.06)"/><path d="M168.5,206.83v1.09h-6.16a2,2,0,0,1,.14-.8,4.52,4.52,0,0,1,.75-1.23,11.85,11.85,0,0,1,1.5-1.41,12.72,12.72,0,0,0,2.05-2,2.4,2.4,0,0,0,.53-1.37,1.53,1.53,0,0,0-.48-1.15,2,2,0,0,0-2.59,0,1.91,1.91,0,0,0-.51,1.37l-1.17-.13a2.92,2.92,0,0,1,.91-2,3.11,3.11,0,0,1,2.11-.68,2.93,2.93,0,0,1,2.12.74,2.43,2.43,0,0,1,.78,1.84,2.84,2.84,0,0,1-.22,1.1,4.6,4.6,0,0,1-.76,1.14,17.87,17.87,0,0,1-1.77,1.63,17.42,17.42,0,0,0-1.32,1.17,3.68,3.68,0,0,0-.47.63Z" transform="translate(-107.84 -23.06)"/><path d="M149.28,131.92H147.8v-9.51a8,8,0,0,1-1.43,1,11.18,11.18,0,0,1-1.57.77v-1.45a9,9,0,0,0,2.2-1.42,6,6,0,0,0,1.33-1.63h.95Zm3.64-6a11.39,11.39,0,0,1,.44-3.48,4.39,4.39,0,0,1,1.32-2,3.43,3.43,0,0,1,2.21-.71,3.64,3.64,0,0,1,1.72.39,3.29,3.29,0,0,1,1.21,1.14,5.94,5.94,0,0,1,.76,1.82,12,12,0,0,1,.28,2.87,11.17,11.17,0,0,1-.44,3.45,4.33,4.33,0,0,1-1.31,2,3.45,3.45,0,0,1-2.22.71,3.34,3.34,0,0,1-2.77-1.25Q152.92,129.34,152.92,125.92Zm1.53,0c0,2,.23,3.33.7,4a2,2,0,0,0,3.47,0c.47-.67.7-2,.7-4s-.23-3.33-.7-4a2.08,2.08,0,0,0-1.75-1,1.91,1.91,0,0,0-1.64.87A7.65,7.65,0,0,0,154.45,125.92Z" transform="translate(-107.84 -23.06)"/><path d="M162.5,121.47l1.14-.16a2.55,2.55,0,0,0,.67,1.4,1.63,1.63,0,0,0,1.16.43,1.9,1.9,0,0,0,1.9-1.94,1.73,1.73,0,0,0-1.81-1.81,3.44,3.44,0,0,0-.81.12l.12-1a.8.8,0,0,0,.19,0,2.4,2.4,0,0,0,1.32-.38A1.32,1.32,0,0,0,167,117a1.39,1.39,0,0,0-.43-1,1.65,1.65,0,0,0-2.21,0,2.09,2.09,0,0,0-.58,1.25l-1.14-.21a2.91,2.91,0,0,1,1-1.77,2.73,2.73,0,0,1,1.83-.63,3.05,3.05,0,0,1,1.41.33,2.32,2.32,0,0,1,1.33,2.09,1.94,1.94,0,0,1-.33,1.09,2.11,2.11,0,0,1-.95.78,2.25,2.25,0,0,1,1.27.8,2.37,2.37,0,0,1,.46,1.5,2.74,2.74,0,0,1-.89,2.07,3.1,3.1,0,0,1-2.25.85,2.91,2.91,0,0,1-2-.73A2.8,2.8,0,0,1,162.5,121.47Z" transform="translate(-107.84 -23.06)"/><path d="M116.81,345.11l-.14-1.61a3.6,3.6,0,0,0,1.59-.52,3,3,0,0,0,1-1.3,5,5,0,0,0,.38-2,4.77,4.77,0,0,0-.29-1.72,2.32,2.32,0,0,0-.8-1.11,1.8,1.8,0,0,0-1.1-.37,1.71,1.71,0,0,0-1.06.35,2.54,2.54,0,0,0-.75,1.16,20.55,20.55,0,0,0-.63,2.29,12.28,12.28,0,0,1-.81,2.5,3.46,3.46,0,0,1-1.2,1.37,3,3,0,0,1-1.6.45,3.24,3.24,0,0,1-1.82-.55,3.4,3.4,0,0,1-1.29-1.62,6,6,0,0,1-.45-2.37,6.58,6.58,0,0,1,.46-2.52,3.7,3.7,0,0,1,1.36-1.69,3.86,3.86,0,0,1,2-.62l.13,1.62a2.71,2.71,0,0,0-1.86.9,3.46,3.46,0,0,0-.63,2.24,3.59,3.59,0,0,0,.57,2.26,1.69,1.69,0,0,0,1.37.71,1.43,1.43,0,0,0,1.14-.51,6.68,6.68,0,0,0,.92-2.56,16.12,16.12,0,0,1,.83-2.86,3.81,3.81,0,0,1,1.31-1.66,3.25,3.25,0,0,1,1.83-.53,3.52,3.52,0,0,1,1.94.58,3.94,3.94,0,0,1,1.41,1.69,5.9,5.9,0,0,1,.51,2.49,7.36,7.36,0,0,1-.51,2.93,4.13,4.13,0,0,1-1.53,1.86A4.37,4.37,0,0,1,116.81,345.11Zm-.53-12a4.78,4.78,0,0,1-3.84-1.45,4.33,4.33,0,0,1-1-2.92,4.21,4.21,0,0,1,1.27-3.16,4.82,4.82,0,0,1,3.48-1.22,6.14,6.14,0,0,1,2.83.54,3.81,3.81,0,0,1,1.61,1.57,4.51,4.51,0,0,1,.58,2.27,4.19,4.19,0,0,1-1.26,3.16A5,5,0,0,1,116.28,333.11Zm0-1.62a4,4,0,0,0,2.69-.78,2.62,2.62,0,0,0,0-3.94,4.08,4.08,0,0,0-2.73-.78,3.82,3.82,0,0,0-2.62.79,2.61,2.61,0,0,0,0,3.93A3.94,3.94,0,0,0,116.28,331.49Zm4.67-9.12H108.06v-1.58H121Zm0-10.21h-1.37a3.38,3.38,0,0,1,1.59,2.95,3.84,3.84,0,0,1-.32,1.55,2.5,2.5,0,0,1-.8,1.06,2.87,2.87,0,0,1-1.18.48,7.45,7.45,0,0,1-1.47.1h-5.78v-1.58h5.18a10,10,0,0,0,1.67-.09,1.66,1.66,0,0,0,1-.65,1.9,1.9,0,0,0,.36-1.18,2.68,2.68,0,0,0-.36-1.35,2,2,0,0,0-1-.88,5.05,5.05,0,0,0-1.82-.26h-5v-1.58H121Zm-1.42-7.53,1.41-.24a6.25,6.25,0,0,1,.14,1.21,2.58,2.58,0,0,1-.28,1.33,1.5,1.5,0,0,1-.72.67,6,6,0,0,1-1.86.18h-5.38V309h-1.22v-1.18h-2.31l-1-1.56h3.26v-1.59h1.22v1.59h5.47a3,3,0,0,0,.87-.08.63.63,0,0,0,.3-.28,1,1,0,0,0,.11-.54A5.34,5.34,0,0,0,119.53,304.63ZM109.89,303h-1.83V301.4h1.83ZM121,303h-9.33V301.4H121Zm-4.67-3.46a4.81,4.81,0,0,1-3.84-1.45,4.36,4.36,0,0,1-1-2.93,4.19,4.19,0,0,1,1.27-3.15,4.82,4.82,0,0,1,3.48-1.22,6.14,6.14,0,0,1,2.83.54,3.81,3.81,0,0,1,1.61,1.57,4.5,4.5,0,0,1,.58,2.26,4.2,4.2,0,0,1-1.26,3.17A5,5,0,0,1,116.28,299.52Zm0-1.63a4,4,0,0,0,2.69-.78,2.51,2.51,0,0,0,.89-2,2.48,2.48,0,0,0-.9-2,4,4,0,0,0-2.73-.79,3.87,3.87,0,0,0-2.62.79,2.61,2.61,0,0,0,0,3.93A3.94,3.94,0,0,0,116.28,297.89Zm4.67-9.15h-9.33v-1.42H113a3.36,3.36,0,0,1-1.55-3,3.93,3.93,0,0,1,.31-1.55,2.44,2.44,0,0,1,.8-1.07,3,3,0,0,1,1.16-.49,10.48,10.48,0,0,1,1.55-.08H121v1.58h-5.67a4.37,4.37,0,0,0-1.45.18,1.46,1.46,0,0,0-.77.66,2.07,2.07,0,0,0-.28,1.1,2.55,2.55,0,0,0,.64,1.75,3.17,3.17,0,0,0,2.44.73H121Zm0-15.46H108.06v-1.75l10.13-6.76H108.06v-1.63H121v1.73l-10.12,6.79H121Zm-4.67-12.44a4.78,4.78,0,0,1-3.84-1.46,4.31,4.31,0,0,1-1-2.92,4.19,4.19,0,0,1,1.27-3.15,4.78,4.78,0,0,1,3.48-1.22,6.14,6.14,0,0,1,2.83.54,3.81,3.81,0,0,1,1.61,1.57,4.48,4.48,0,0,1,.58,2.26,4.21,4.21,0,0,1-1.26,3.17A5.07,5.07,0,0,1,116.28,260.84Zm0-1.63a4,4,0,0,0,2.69-.78,2.62,2.62,0,0,0,0-3.94,4.08,4.08,0,0,0-2.73-.78,3.87,3.87,0,0,0-2.62.79,2.61,2.61,0,0,0,0,3.93A3.94,3.94,0,0,0,116.28,259.21Zm4.67-9.14h-9.33v-1.42H113a4,4,0,0,1-1.31-1,1.78,1.78,0,0,1-.32-1,3.07,3.07,0,0,1,.52-1.63l1.47.53a2.34,2.34,0,0,0-.34,1.18,1.51,1.51,0,0,0,.31.93,1.65,1.65,0,0,0,.86.58,6,6,0,0,0,1.84.27H121Zm0-6.11h-9.33v-1.42h1.3a3.37,3.37,0,0,1-1.09-1.16,3.29,3.29,0,0,1-.43-1.67,3.09,3.09,0,0,1,.43-1.69,2.2,2.2,0,0,1,1.22-.93,3.36,3.36,0,0,1-1.65-2.89,2.83,2.83,0,0,1,.78-2.14,3.32,3.32,0,0,1,2.37-.74H121v1.56h-5.87a4.15,4.15,0,0,0-1.38.16,1.3,1.3,0,0,0-.67.56,1.75,1.75,0,0,0-.25,1,2.2,2.2,0,0,0,.66,1.64,2.87,2.87,0,0,0,2.09.65H121v1.57h-6.06a2.66,2.66,0,0,0-1.59.39,1.5,1.5,0,0,0-.52,1.27,2.29,2.29,0,0,0,.35,1.23,2.1,2.1,0,0,0,1,.83,5.82,5.82,0,0,0,2,.25H121Zm3.78-20.81H107.84v-1.38h16.89Zm0-4.76H107.84V217h16.89ZM121,214H108.06v-1.72h11.38v-6.34H121Z" transform="translate(-107.84 -23.06)"/><path d="M130,199.33v1.33h-8.4a6.76,6.76,0,0,1,.91,1.24,7.91,7.91,0,0,1,.68,1.38h-1.28a8.15,8.15,0,0,0-1.25-1.92,4.87,4.87,0,0,0-1.44-1.17v-.86Z" transform="translate(-107.84 -23.06)"/><path d="M121,194.73h-9.33v-1.42h1.3a3.37,3.37,0,0,1-1.09-1.16,3.29,3.29,0,0,1-.43-1.67,3.11,3.11,0,0,1,.43-1.69,2.29,2.29,0,0,1,1.22-.93A3.35,3.35,0,0,1,111.4,185a2.83,2.83,0,0,1,.78-2.14,3.32,3.32,0,0,1,2.37-.74H121v1.57h-5.87a4.51,4.51,0,0,0-1.38.15,1.35,1.35,0,0,0-.67.56,1.76,1.76,0,0,0-.25,1,2.19,2.19,0,0,0,.66,1.63,2.87,2.87,0,0,0,2.09.65H121v1.58h-6.06a2.66,2.66,0,0,0-1.59.39,1.46,1.46,0,0,0-.52,1.26,2.35,2.35,0,0,0,.35,1.24,2.08,2.08,0,0,0,1,.82,5.78,5.78,0,0,0,2,.26H121ZM124.73,179H107.84v-1.37h16.89Zm0-4.76H107.84v-1.37h16.89Z" transform="translate(-107.84 -23.06)"/><path d="M128.69,163.37H130v7.1a2.26,2.26,0,0,1-.92-.16,4.62,4.62,0,0,1-1.42-.87,14,14,0,0,1-1.63-1.72,14.67,14.67,0,0,0-2.27-2.37,2.74,2.74,0,0,0-1.59-.62,1.75,1.75,0,0,0-1.32.57,2,2,0,0,0-.54,1.46,2.07,2.07,0,0,0,.57,1.53,2.15,2.15,0,0,0,1.59.57l-.14,1.36a3.39,3.39,0,0,1-2.31-1.05,3.57,3.57,0,0,1-.8-2.44,3.39,3.39,0,0,1,.86-2.44,2.81,2.81,0,0,1,2.12-.9,3.35,3.35,0,0,1,1.27.26,4.64,4.64,0,0,1,1.31.87,21.32,21.32,0,0,1,1.89,2,19.93,19.93,0,0,0,1.35,1.52,4.4,4.4,0,0,0,.72.56Z" transform="translate(-107.84 -23.06)"/><path d="M306.15,36.17V25.47h-3.81V23.28h10.24v2.19h-3.82v10.7Zm10.74-12.89V28a3.68,3.68,0,0,1,4.4-1.09,2.7,2.7,0,0,1,1,.82,2.83,2.83,0,0,1,.47,1.08,9.35,9.35,0,0,1,.13,1.86v5.47h-2.47V31.23a7.44,7.44,0,0,0-.14-1.86,1.21,1.21,0,0,0-.5-.62,1.58,1.58,0,0,0-.89-.24,2,2,0,0,0-1.09.3,1.76,1.76,0,0,0-.72.9,5.43,5.43,0,0,0-.22,1.79v4.67h-2.47V23.28ZM331,33.2l2.45.41A4.07,4.07,0,0,1,332,35.68a4.43,4.43,0,0,1-2.57.71,4.15,4.15,0,0,1-3.6-1.59,5.42,5.42,0,0,1-.92-3.22,5.18,5.18,0,0,1,1.21-3.64,4,4,0,0,1,3.07-1.32A4.12,4.12,0,0,1,332.46,28a6.08,6.08,0,0,1,1.16,4.22h-6.19a2.45,2.45,0,0,0,.59,1.7,1.87,1.87,0,0,0,1.43.61,1.55,1.55,0,0,0,1-.31A2,2,0,0,0,331,33.2Zm.14-2.5a2.38,2.38,0,0,0-.56-1.63,1.74,1.74,0,0,0-1.29-.56,1.65,1.65,0,0,0-1.32.6,2.22,2.22,0,0,0-.54,1.59Zm9.8,5.47V23.39h2.61V34h6.47v2.17Zm10.83-3.44V30.26h4.84v2.47Zm14.52-3.14-2.44.44a1.76,1.76,0,0,0-.56-1.09,1.68,1.68,0,0,0-1.13-.38,1.84,1.84,0,0,0-1.47.64,3.27,3.27,0,0,0-.56,2.14,3.8,3.8,0,0,0,.56,2.35,1.87,1.87,0,0,0,1.5.68,1.63,1.63,0,0,0,1.15-.4,2.47,2.47,0,0,0,.64-1.38l2.42.41A4.3,4.3,0,0,1,365,35.53a4.46,4.46,0,0,1-2.87.86,4.24,4.24,0,0,1-3.26-1.3,5,5,0,0,1-1.22-3.58,5,5,0,0,1,1.22-3.6,4.34,4.34,0,0,1,3.31-1.29,4.44,4.44,0,0,1,2.7.74A4.12,4.12,0,0,1,366.32,29.59Zm8.18,6.58V34.78a3.84,3.84,0,0,1-3.09,1.61,3.49,3.49,0,0,1-1.69-.41,2.45,2.45,0,0,1-1.08-1.17,5,5,0,0,1-.34-2.06V26.84h2.47v4.28a11.16,11.16,0,0,0,.14,2.42,1.32,1.32,0,0,0,.5.7,1.52,1.52,0,0,0,.9.26,2.07,2.07,0,0,0,1.15-.34,1.76,1.76,0,0,0,.68-.86,9.65,9.65,0,0,0,.19-2.52V26.84h2.47v9.33Zm7.41,0h-2.47V26.84h2.3v1.33a3.79,3.79,0,0,1,1.05-1.25,2,2,0,0,1,1.07-.3,3.19,3.19,0,0,1,1.63.47l-.77,2.16a2.18,2.18,0,0,0-1.16-.41,1.47,1.47,0,0,0-.88.28,2,2,0,0,0-.57,1,14.62,14.62,0,0,0-.2,3.12Zm7.33,0-3.77-9.33h2.59l1.77,4.75.5,1.6.27-.8c.07-.26.15-.53.25-.8l1.78-4.75h2.54l-3.71,9.33Zm13-3,2.45.41a4.07,4.07,0,0,1-1.49,2.07,4.45,4.45,0,0,1-2.57.71,4.15,4.15,0,0,1-3.6-1.59,5.42,5.42,0,0,1-.92-3.22,5.13,5.13,0,0,1,1.21-3.64,4,4,0,0,1,3.07-1.32A4.12,4.12,0,0,1,403.7,28a6.13,6.13,0,0,1,1.16,4.22h-6.19a2.45,2.45,0,0,0,.59,1.7,1.85,1.85,0,0,0,1.43.61,1.5,1.5,0,0,0,1-.31A2,2,0,0,0,402.27,33.2Zm.14-2.5a2.39,2.39,0,0,0-.57-1.63,1.71,1.71,0,0,0-1.28-.56,1.69,1.69,0,0,0-1.33.6,2.26,2.26,0,0,0-.53,1.59Zm17.86-1.11-2.44.44a1.76,1.76,0,0,0-.56-1.09,1.65,1.65,0,0,0-1.12-.38,1.85,1.85,0,0,0-1.48.64,3.27,3.27,0,0,0-.55,2.14,3.74,3.74,0,0,0,.56,2.35,1.84,1.84,0,0,0,1.5.68,1.65,1.65,0,0,0,1.15-.4,2.54,2.54,0,0,0,.63-1.38l2.42.41a4.35,4.35,0,0,1-1.44,2.53,4.48,4.48,0,0,1-2.87.86,4.26,4.26,0,0,1-3.27-1.3,5,5,0,0,1-1.22-3.58,5,5,0,0,1,1.22-3.6,4.36,4.36,0,0,1,3.32-1.29,4.48,4.48,0,0,1,2.7.74A4.1,4.1,0,0,1,420.27,29.59Zm4.41,6.58h-2.47V26.84h2.29v1.33a3.91,3.91,0,0,1,1.06-1.25,2,2,0,0,1,1.07-.3,3.13,3.13,0,0,1,1.62.47l-.76,2.16a2.18,2.18,0,0,0-1.16-.41,1.44,1.44,0,0,0-.88.28,1.86,1.86,0,0,0-.57,1,14.62,14.62,0,0,0-.2,3.12Zm4.76-10.59v-2.3h2.47v2.3Zm0,10.59V26.84h2.47v9.33Zm9.37-9.33v2h-1.69v3.75a9.84,9.84,0,0,0,.05,1.34.49.49,0,0,0,.22.31.7.7,0,0,0,.42.12,3.24,3.24,0,0,0,1-.24L439,36a4.88,4.88,0,0,1-1.95.38,3.11,3.11,0,0,1-1.21-.23,1.76,1.76,0,0,1-.79-.58,2.26,2.26,0,0,1-.34-1,12.2,12.2,0,0,1-.08-1.74V28.81H433.5v-2h1.14V25l2.48-1.43v3.29ZM446,33.2l2.46.41A4.07,4.07,0,0,1,447,35.68a4.45,4.45,0,0,1-2.57.71,4.15,4.15,0,0,1-3.6-1.59,5.42,5.42,0,0,1-.92-3.22,5.13,5.13,0,0,1,1.21-3.64,4,4,0,0,1,3.07-1.32A4.12,4.12,0,0,1,447.47,28a6.13,6.13,0,0,1,1.16,4.22h-6.19a2.45,2.45,0,0,0,.59,1.7,1.85,1.85,0,0,0,1.43.61,1.5,1.5,0,0,0,1-.31A1.88,1.88,0,0,0,446,33.2Zm.15-2.5a2.39,2.39,0,0,0-.57-1.63,1.71,1.71,0,0,0-1.28-.56,1.69,1.69,0,0,0-1.33.6,2.26,2.26,0,0,0-.53,1.59Zm7,5.47H450.7V26.84H453v1.33a4,4,0,0,1,1.05-1.25,2,2,0,0,1,1.08-.3,3.13,3.13,0,0,1,1.62.47L456,29.25a2.15,2.15,0,0,0-1.15-.41,1.42,1.42,0,0,0-.88.28,1.86,1.86,0,0,0-.57,1,14.4,14.4,0,0,0-.21,3.12Zm4.77-10.59v-2.3h2.47v2.3Zm0,10.59V26.84h2.47v9.33Zm4.51-4.8a5,5,0,0,1,.61-2.38,4.23,4.23,0,0,1,1.72-1.76,5.12,5.12,0,0,1,2.48-.61A4.66,4.66,0,0,1,470.73,28a4.74,4.74,0,0,1,1.36,3.48A4.82,4.82,0,0,1,470.72,35a4.62,4.62,0,0,1-3.44,1.4,5.39,5.39,0,0,1-2.45-.59,4,4,0,0,1-1.77-1.7A5.57,5.57,0,0,1,462.45,31.37Zm2.53.13a3.09,3.09,0,0,0,.66,2.13,2.1,2.1,0,0,0,1.62.74,2.07,2.07,0,0,0,1.63-.74,3.17,3.17,0,0,0,.65-2.15,3.11,3.11,0,0,0-.65-2.11,2.09,2.09,0,0,0-1.63-.73,2.12,2.12,0,0,0-1.62.73A3.09,3.09,0,0,0,465,31.5Zm17.72,4.67h-2.47V31.41a7.09,7.09,0,0,0-.16-2,1.37,1.37,0,0,0-.51-.69,1.53,1.53,0,0,0-.86-.25,1.94,1.94,0,0,0-1.15.36,1.76,1.76,0,0,0-.7.93,8.32,8.32,0,0,0-.18,2.14v4.23H474.2V26.84h2.28V28.2a3.77,3.77,0,0,1,3.08-1.58,3.65,3.65,0,0,1,1.5.3,2.63,2.63,0,0,1,1,.75,2.55,2.55,0,0,1,.48,1,7.8,7.8,0,0,1,.14,1.66ZM494.58,40h-1.7a16.72,16.72,0,0,1-2.05-4.21,13.83,13.83,0,0,1-.7-4.24,13.27,13.27,0,0,1,.87-4.8,16.85,16.85,0,0,1,1.92-3.64h1.69A25.48,25.48,0,0,0,493,27.6a17,17,0,0,0-.18,6.91,20.22,20.22,0,0,0,.73,2.88A27,27,0,0,0,494.58,40Zm2-3.78V23.28h8.82v2.19h-6.23v3h5.39V30.7h-5.39v5.47Zm11.15-10.59v-2.3h2.47v2.3Zm0,10.59V26.84h2.47v9.33Zm7.45,0h-2.47V26.84h2.3v1.33a3.79,3.79,0,0,1,1.05-1.25,2,2,0,0,1,1.07-.3,3.16,3.16,0,0,1,1.63.47L518,29.25a2.18,2.18,0,0,0-1.16-.41,1.47,1.47,0,0,0-.88.28,2,2,0,0,0-.57,1,15.35,15.35,0,0,0-.2,3.12Zm3.89-2.66,2.48-.39a1.83,1.83,0,0,0,.65,1.1,2.13,2.13,0,0,0,1.34.37,2.5,2.5,0,0,0,1.45-.34.81.81,0,0,0,.31-.66.67.67,0,0,0-.17-.47,2.08,2.08,0,0,0-.83-.32,13.09,13.09,0,0,1-3.78-1.21,2.4,2.4,0,0,1-1.11-2.11,2.58,2.58,0,0,1,1-2,4.5,4.5,0,0,1,3-.83,5.14,5.14,0,0,1,2.85.63,3.24,3.24,0,0,1,1.29,1.84l-2.33.44a1.59,1.59,0,0,0-.57-.84,2.13,2.13,0,0,0-1.2-.28,2.71,2.71,0,0,0-1.39.26.6.6,0,0,0-.28.5.53.53,0,0,0,.25.45,8.89,8.89,0,0,0,2.3.7,6.91,6.91,0,0,1,2.76,1.1,2.29,2.29,0,0,1,.77,1.83,2.85,2.85,0,0,1-1.07,2.21,4.72,4.72,0,0,1-3.18.93,5.18,5.18,0,0,1-3-.78A3.59,3.59,0,0,1,519.11,33.51Zm15.34-6.67v2h-1.69v3.75a9.84,9.84,0,0,0,0,1.34.49.49,0,0,0,.22.31.7.7,0,0,0,.42.12,3.24,3.24,0,0,0,1-.24l.21,1.92a4.88,4.88,0,0,1-1.95.38,3.11,3.11,0,0,1-1.21-.23,1.76,1.76,0,0,1-.79-.58,2.26,2.26,0,0,1-.34-1,12.2,12.2,0,0,1-.08-1.74V28.81h-1.14v-2h1.14V25l2.48-1.43v3.29ZM536,32.73V30.26h4.84v2.47Zm5.8-1.36A5,5,0,0,1,542.4,29a4.23,4.23,0,0,1,1.72-1.76,5.12,5.12,0,0,1,2.48-.61A4.66,4.66,0,0,1,550.07,28a4.74,4.74,0,0,1,1.36,3.48A4.82,4.82,0,0,1,550.06,35a4.62,4.62,0,0,1-3.44,1.4,5.39,5.39,0,0,1-2.45-.59,3.94,3.94,0,0,1-1.77-1.7A5.57,5.57,0,0,1,541.79,31.37Zm2.53.13a3.09,3.09,0,0,0,.66,2.13,2.1,2.1,0,0,0,1.62.74,2.07,2.07,0,0,0,1.63-.74,3.17,3.17,0,0,0,.65-2.15,3.11,3.11,0,0,0-.65-2.11,2.09,2.09,0,0,0-1.63-.73,2.12,2.12,0,0,0-1.62.73A3.09,3.09,0,0,0,544.32,31.5Zm11.59,4.67h-2.47V26.84h2.3v1.33a4,4,0,0,1,1-1.25,2,2,0,0,1,1.07-.3,3.13,3.13,0,0,1,1.63.47l-.77,2.16a2.15,2.15,0,0,0-1.15-.41,1.42,1.42,0,0,0-.88.28,1.93,1.93,0,0,0-.58,1,15.35,15.35,0,0,0-.2,3.12Zm13.33,0h-2.3V34.8A3.71,3.71,0,0,1,565.59,36a3.33,3.33,0,0,1-1.57.4,3.56,3.56,0,0,1-2.76-1.3,5.29,5.29,0,0,1-1.14-3.62,5.22,5.22,0,0,1,1.11-3.61,3.67,3.67,0,0,1,2.82-1.24,3.54,3.54,0,0,1,2.72,1.3V23.28h2.47Zm-6.59-4.87a4.39,4.39,0,0,0,.4,2.17,1.89,1.89,0,0,0,1.68,1,1.83,1.83,0,0,0,1.45-.73,3.39,3.39,0,0,0,.59-2.16,3.64,3.64,0,0,0-.58-2.32,1.81,1.81,0,0,0-1.48-.72,1.89,1.89,0,0,0-1.47.7A3.18,3.18,0,0,0,562.65,31.3Zm14.62,1.9,2.45.41a4.07,4.07,0,0,1-1.49,2.07,4.43,4.43,0,0,1-2.57.71,4.14,4.14,0,0,1-3.59-1.59,5.35,5.35,0,0,1-.92-3.22,5.13,5.13,0,0,1,1.21-3.64,4,4,0,0,1,3.07-1.32A4.13,4.13,0,0,1,578.71,28a6.08,6.08,0,0,1,1.15,4.22h-6.18a2.44,2.44,0,0,0,.58,1.7,1.87,1.87,0,0,0,1.43.61,1.53,1.53,0,0,0,1-.31A1.88,1.88,0,0,0,577.27,33.2Zm.14-2.5a2.38,2.38,0,0,0-.56-1.63,1.72,1.72,0,0,0-1.28-.56,1.67,1.67,0,0,0-1.33.6,2.26,2.26,0,0,0-.53,1.59Zm7,5.47h-2.47V26.84h2.3v1.33a3.79,3.79,0,0,1,1-1.25,2,2,0,0,1,1.07-.3,3.16,3.16,0,0,1,1.63.47l-.77,2.16a2.18,2.18,0,0,0-1.16-.41,1.47,1.47,0,0,0-.88.28,2,2,0,0,0-.57,1,15.35,15.35,0,0,0-.2,3.12ZM588.49,40c.49-1,.83-1.84,1-2.4a16.91,16.91,0,0,0,.55-1.92c.16-.72.29-1.41.37-2.07a16.39,16.39,0,0,0,.13-2,16.92,16.92,0,0,0-.45-4,27,27,0,0,0-1.65-4.54h1.67a16.08,16.08,0,0,1,2.07,4,13,13,0,0,1,.73,4.3,14.74,14.74,0,0,1-.58,3.94A16.09,16.09,0,0,1,590.19,40Z" transform="translate(-107.84 -23.06)"/><path class="cls-3" d="M177,43.92v3.46l0,.24v.51l0,.26v.27l0,.28,0,.28v.3l0,.3,0,.31,0,.32,0,.33,0,.34,0,.34,0,.36,0,.37,0,.37,0,.39,0,.39,0,.41,0,.42,0,.43,0,.44,0,.44,0,.47,0,.47,0,.48,0,.5,0,.5,0,.52,0,.53,0,.54,0,.56.05.56.05.58,0,.59.05.6,0,.62.06.62.05.64.06.66.06.66.06.68.06.69.06.7.06.71.06.73.06.74.07.75.06.76.07.78.06.79.07.8.07.81.07.82.06.84.07.85.07.85.07.88.07.88.06.89.07.9.07.92.07.93.07.93.06,1,.07,1,.07,1,.06,1,.07,1,.06,1,.07,1,.06,1,.07,1,.06,1,.06,1,.06,1.06.06,1.06.06,1.06.06,1.08.06,1.09.05,1.09.06,1.1,0,1.11.06,1.11.05,1.12.05,1.13,0,1.14.05,1.14,0,1.15.05,1.15,0,1.16.05,1.17,0,1.17.05,1.17,0,1.19,0,1.19,0,1.19,0,1.2,0,1.2,0,1.2,0,1.22,0,1.21,0,1.22,0,1.22,0,1.23,0,1.23,0,1.24,0,1.23,0,1.24,0,1.25,0,1.24,0,1.25,0,1.26,0,1.25,0,1.26,0,1.26,0,1.26,0,1.26,0,1.27,0,1.26,0,1.27,0,1.27,0,1.27,0,1.27,0,1.27,0,1.28v1.27l0,1.27,0,1.28v1.27l0,1.27V165l0,1.27v3.8l0,1.27v74.25l0,.46v1.45l0,.51v.52l0,.53v.54l0,.56v.56l0,.58v.59l0,.61,0,.61,0,.63v.64l0,.65,0,.67,0,.67,0,.69,0,.71,0,.71,0,.73,0,.74,0,.75,0,.76,0,.78,0,.78,0,.8,0,.82,0,.82,0,.84,0,.84,0,.86,0,.87,0,.89,0,.89,0,.9,0,.92,0,.92,0,.94,0,.95,0,1,0,1,0,1,0,1,0,1,0,1,0,1,0,1,0,1,0,1,0,1,0,1.06,0,1.07,0,1.08,0,1.08v1.09l0,1.1,0,1.11,0,1.11,0,1.13v1.12l0,1.14,0,1.14,0,1.15v1.15l0,1.16v1.17l0,1.17v1.18l0,1.18v2.38l0,1.19v2.41l0,1.21V433.34h0v0h0v0h.19v0h.07l0,0h0l0,0h0l0,0,0,0h0l0,0,0,0,0,0h0l0,0,0,0,.05,0,0,0,.05,0,.06,0,.06,0,.06,0,.07,0,.08,0,.07,0,.09,0,.09,0,.1,0,.1,0,.11,0,.12,0,.13,0,.14,0,.14,0,.16,0,.16,0,.18,0,.19,0,.2.05.21,0,.23.05.24.05.26.05.28,0,.29.06.31.05.33.06.35.06.37.06.39.06.42.07.44.06.46.07.5.07.52.08.55.07.58.08.61.08.64.08.67.08.71.09.74.09.78.09.82.09.85.1.89.1.93.1,1,.11,1,.1,1.05.11,1.1.11,1.13.12,1.17.12,1.22.12,1.25.12,1.3.12,1.33.13,1.38.13,1.41.14,1.46.13,1.49.14,1.52.14,1.56.15,1.6.14,1.62.15,1.66.15,1.69.15,1.72.16,1.74.16,1.76.16,1.79.16,1.81.16,1.83.17,1.84.17,1.86.16,1.87.17,1.88.18,1.89.17,1.9.17,1.9.18,1.9.17,1.91.18,1.9.17,1.9.18,1.9.18,1.89.17,1.89.18,1.87.17,1.86.18,1.85.17,1.84.17,1.82.17,1.81.17,1.78.17,1.77.17,1.75.16,1.73.17,1.7.16,1.69.16,1.66.15,1.64.15,1.61.15,1.58.15,1.57.15,1.53.14,1.51.13L301,446l1.46.13,1.42.13,1.4.12,1.37.12,1.35.12,1.32.12,1.29.11,1.26.1,1.23.11,1.21.1,1.18.09,1.15.09,1.12.09,1.1.09,1.08.08,1,.08,1,.08,1,.07,1,.07.95.07.92.06.9.06.88.06.85.06.83.05.81.05.79.05.77.05.75,0,.73,0,.71,0,.69,0,.68,0,.65,0,.64,0,.63,0,.61,0,.59,0,.58,0,.57,0,.55,0,.54,0,.53,0,.52,0,.51,0h.5l.49,0,.48,0,.48,0h.47l.47,0h.45l.46,0h.9l.45,0h1.81l.46,0h6.33l.64,0h3.63l.83,0h2.72l1,0h1l1.1,0h1.15l1.2,0h1.26l1.32,0h1.38l1.45,0,1.52,0,1.58,0h1.65l1.73,0,1.8,0,1.87,0,1.95,0,2,0,2.1,0,2.18,0,2.27,0,2.34,0,2.42,0,2.5,0,2.57,0,2.66,0,2.73,0,2.8,0,2.88,0,2.95,0,3,0,3.09,0,3.16,0,3.22,0,3.28,0,3.35,0,3.4,0,3.46.05,3.51,0,3.56.05,3.61.05,3.65.05,3.7.06,3.74.05,3.77.06,3.82.06,3.84.06,3.88.07,3.9.06,3.93.07,4,.07,4,.08,4,.07,4,.08,4,.08,4.05.09,4.06.09,4.07.09,4.08.09,4.09.1,4.1.1,4.1.1,4.1.11,4.11.11,4.1.12,4.11.11,4.1.13,4.1.13,4.1.13,4.09.13,4.08.14,4.08.15,4.06.15,4.06.15,4,.17,4,.16,4,.17,4,.18,4,.18,4,.19,4,.19,3.94.2,3.93.21,3.91.21,3.89.23,3.86.22,3.85.24,3.83.24,3.8.25,3.77.25,3.76.27,3.72.27,3.71.28,3.67.29,3.65.29,3.62.31,3.58.31,3.56.33,3.53.33,3.5.34,3.47.35,3.43.36,3.4.38,3.37.38,3.33.39,3.3.4,3.26.41,3.22.42,3.19.44,3.15.44" transform="translate(-107.84 -23.06)"/><circle class="cls-4" cx="77.79" cy="410.7" r="6.67"/><circle class="cls-5" cx="77.79" cy="410.7" r="4.17"/><circle class="cls-6" cx="77.79" cy="410.7" r="4.17"/><path class="cls-7" d="M187.29,376.36v53l0,.19,0,.19,0,.19.06.18.07.18.08.18.09.17.1.16.11.15.12.15.13.14.14.13.15.13.16.11.16.1.17.09.17.08.18.07.19.05.18.05.19,0,.2,0H302.22l.19,0,.19,0,.19-.05.18-.05.18-.07.17-.08.17-.09.17-.1.15-.11.15-.13.14-.13.13-.14.12-.15.12-.15.1-.16.09-.17.08-.18.06-.18.06-.18,0-.19,0-.19V376l0-.19,0-.19-.06-.18-.06-.18-.08-.18-.09-.17-.1-.16-.12-.16-.12-.15-.13-.14-.14-.13-.15-.12-.15-.11-.17-.1-.17-.09-.17-.08-.18-.07-.18-.05-.19,0-.19,0-.19,0H190l-.2,0-.19,0-.18,0-.19.05-.18.07-.17.08-.17.09-.16.1-.16.11-.15.12-.14.13-.13.14-.12.15-.11.16-.1.16-.09.17-.08.18-.07.18-.06.18,0,.19,0,.19,0,.19Z" transform="translate(-107.84 -23.06)"/><path class="cls-8" d="M187.29,429.16v.19l0,.19,0,.19,0,.19.06.18.07.18.08.18.09.17.1.16.11.15.12.15.13.14.14.13.15.13.16.11.16.1.17.09.17.08.18.07.19.05.18.05.19,0,.2,0H302.22l.19,0,.19,0,.19-.05.18-.05.18-.07.17-.08.17-.09.17-.1.15-.11.15-.13.14-.13.13-.14.12-.15.12-.15.1-.16.09-.17.08-.18.06-.18.06-.18,0-.19,0-.19V376l0-.19,0-.19-.06-.18-.06-.18-.08-.18-.09-.17-.1-.16-.12-.16-.12-.15-.13-.14-.14-.13-.15-.12-.15-.11-.17-.1-.17-.09-.17-.08-.18-.07-.18-.05-.19,0-.19,0-.19,0H190l-.2,0-.19,0-.18,0-.19.05-.18.07-.17.08-.17.09-.16.1-.16.11-.15.12-.14.13-.13.14-.12.15-.11.16-.1.16-.09.17-.08.18-.07.18-.06.18,0,.19,0,.19,0,.19v53Z" transform="translate(-107.84 -23.06)"/><path class="cls-9" d="M196,398.92l4.7-6.34-4.15-5.83h1.92l2.2,3.12a15.3,15.3,0,0,1,1,1.5,16,16,0,0,1,1-1.39l2.44-3.23h1.77l-4.28,5.73,4.61,6.44h-2l-3.07-4.34-.53-.82c-.27.45-.46.76-.58.93l-3,4.23Z" transform="translate(-107.84 -23.06)"/><path class="cls-10" d="M212.72,396.11l2.26-.25a1.61,1.61,0,0,0,.43,1,1.29,1.29,0,0,0,.93.34,1.5,1.5,0,0,0,1.23-.67,5.67,5.67,0,0,0,.65-2.75,2.85,2.85,0,0,1-2.21,1,3.27,3.27,0,0,1-2.47-1.11,4,4,0,0,1-1-2.89,4.11,4.11,0,0,1,1.09-3,3.74,3.74,0,0,1,2.8-1.13,3.81,3.81,0,0,1,3.05,1.43c.79.95,1.18,2.53,1.18,4.71s-.41,3.84-1.24,4.82a4,4,0,0,1-3.23,1.48,3.4,3.4,0,0,1-2.3-.76A3.6,3.6,0,0,1,212.72,396.11ZM218,391a2.61,2.61,0,0,0-.52-1.75,1.53,1.53,0,0,0-1.2-.62,1.34,1.34,0,0,0-1.07.51,2.54,2.54,0,0,0-.43,1.66,2.68,2.68,0,0,0,.47,1.74,1.48,1.48,0,0,0,2.29,0A2.39,2.39,0,0,0,218,391Zm4.43,7.91v-2.33h2.33v2.33Zm4.13-9.84v-2.16h8v1.69a12.14,12.14,0,0,0-2,2.79,16,16,0,0,0-1.56,3.86,14.1,14.1,0,0,0-.53,3.66H228.2a15.56,15.56,0,0,1,1.05-5.15,17.29,17.29,0,0,1,2.62-4.69Zm13.84,9.84v-2.45h-5v-2l5.28-7.74h2v7.72h1.52v2.05h-1.52v2.45Zm0-4.5v-4.16l-2.79,4.16Zm4.69-5.34v-2.16h8v1.69a12.77,12.77,0,0,0-2,2.79,16.44,16.44,0,0,0-1.56,3.86,14,14,0,0,0-.52,3.66h-2.25a15.56,15.56,0,0,1,1.05-5.15,17.29,17.29,0,0,1,2.62-4.69Zm17.14,7.67v2.17h-8.18a5.85,5.85,0,0,1,.81-2.33,15.56,15.56,0,0,1,2.62-2.92,17.67,17.67,0,0,0,1.93-2,2.52,2.52,0,0,0,.49-1.44,1.45,1.45,0,0,0-1.58-1.61,1.54,1.54,0,0,0-1.16.44,2.24,2.24,0,0,0-.51,1.45l-2.31-.22a3.78,3.78,0,0,1,1.29-2.77,4.36,4.36,0,0,1,2.74-.84,3.92,3.92,0,0,1,2.83,1,3.18,3.18,0,0,1,1,2.42,4.36,4.36,0,0,1-.29,1.56,6.69,6.69,0,0,1-.93,1.55,13,13,0,0,1-1.53,1.56c-.74.68-1.21,1.13-1.4,1.35a5.08,5.08,0,0,0-.48.64Zm7-.64,2.33.39a3.83,3.83,0,0,1-1.42,1.95,4.13,4.13,0,0,1-2.42.67,4,4,0,0,1-3.41-1.5,5.11,5.11,0,0,1-.86-3,4.88,4.88,0,0,1,1.14-3.43,3.75,3.75,0,0,1,2.89-1.24,3.93,3.93,0,0,1,3.11,1.29,5.77,5.77,0,0,1,1.1,4h-5.85a2.34,2.34,0,0,0,.56,1.61,1.78,1.78,0,0,0,1.35.57,1.49,1.49,0,0,0,.92-.29A1.79,1.79,0,0,0,269.22,396.11Zm.13-2.35a2.18,2.18,0,0,0-.52-1.54,1.59,1.59,0,0,0-1.22-.53,1.57,1.57,0,0,0-1.25.56,2.17,2.17,0,0,0-.5,1.51Zm3.76,1.91v-2.33h4.58v2.33Zm9.27-9a3.27,3.27,0,0,1,2.75,1.27q1.19,1.48,1.19,4.95t-1.19,5a3.33,3.33,0,0,1-2.75,1.23,3.48,3.48,0,0,1-2.87-1.36c-.72-.91-1.09-2.54-1.09-4.87s.4-3.94,1.19-4.94A3.34,3.34,0,0,1,282.38,386.7Zm0,1.94a1.19,1.19,0,0,0-.77.27,1.76,1.76,0,0,0-.51,1,19.62,19.62,0,0,0,0,6,2.19,2.19,0,0,0,.54,1.06,1.19,1.19,0,0,0,1.51,0,1.8,1.8,0,0,0,.51-1,13.12,13.12,0,0,0,.24-3,13.53,13.53,0,0,0-.21-2.94,2,2,0,0,0-.54-1.07A1.15,1.15,0,0,0,282.38,388.64Zm5.34,7.16,2.33-.25a2,2,0,0,0,.58,1.25,1.61,1.61,0,0,0,1.14.46,1.56,1.56,0,0,0,1.24-.59,2.7,2.7,0,0,0,.51-1.8,2.42,2.42,0,0,0-.51-1.67,1.69,1.69,0,0,0-1.31-.56,2.38,2.38,0,0,0-1.79.89l-1.91-.28,1.2-6.33h6.18v2.19H291l-.36,2.06a3.56,3.56,0,0,1,4.22.74,4,4,0,0,1,1.08,2.93,4.3,4.3,0,0,1-.88,2.67,3.84,3.84,0,0,1-3.29,1.61,4.09,4.09,0,0,1-2.74-.9A3.79,3.79,0,0,1,287.72,395.8Z" transform="translate(-107.84 -23.06)"/><path class="cls-9" d="M200.69,419.92v-5.16l-4.69-7h2l2.39,3.67c.45.69.86,1.38,1.23,2.06.37-.63.81-1.35,1.33-2.15l2.36-3.58h1.87l-4.85,7v5.16Z" transform="translate(-107.84 -23.06)"/><path class="cls-10" d="M216.62,407.7a3.26,3.26,0,0,1,2.75,1.27q1.19,1.48,1.19,4.95t-1.19,5a3.31,3.31,0,0,1-2.75,1.23,3.47,3.47,0,0,1-2.86-1.36c-.73-.91-1.09-2.54-1.09-4.87s.4-3.94,1.19-4.94A3.32,3.32,0,0,1,216.62,407.7Zm0,1.94a1.16,1.16,0,0,0-.76.27,1.83,1.83,0,0,0-.52,1,14.23,14.23,0,0,0-.23,3.05,12.73,12.73,0,0,0,.22,2.94,2,2,0,0,0,.54,1.06,1.11,1.11,0,0,0,.75.27,1.15,1.15,0,0,0,.75-.27,1.87,1.87,0,0,0,.52-1,13.27,13.27,0,0,0,.23-3,13.53,13.53,0,0,0-.21-2.94,2,2,0,0,0-.54-1.07A1.15,1.15,0,0,0,216.62,409.64Zm5.81,10.28v-2.33h2.33v2.33Zm12-2.17v2.17h-8.18a5.85,5.85,0,0,1,.81-2.33,15.56,15.56,0,0,1,2.62-2.92,17.67,17.67,0,0,0,1.93-2,2.52,2.52,0,0,0,.49-1.44,1.45,1.45,0,0,0-1.58-1.61,1.54,1.54,0,0,0-1.16.44,2.24,2.24,0,0,0-.51,1.45l-2.31-.22a3.78,3.78,0,0,1,1.29-2.77,4.36,4.36,0,0,1,2.74-.84,3.92,3.92,0,0,1,2.83,1,3.18,3.18,0,0,1,1,2.42,4.36,4.36,0,0,1-.29,1.56,6.69,6.69,0,0,1-.93,1.55,13,13,0,0,1-1.53,1.56c-.74.68-1.21,1.13-1.4,1.35a5.08,5.08,0,0,0-.48.64Zm5.34-10.05a3.29,3.29,0,0,1,2.75,1.27q1.18,1.48,1.19,4.95t-1.19,5a3.34,3.34,0,0,1-2.75,1.23,3.48,3.48,0,0,1-2.87-1.36c-.72-.91-1.09-2.54-1.09-4.87s.4-3.94,1.19-4.94A3.34,3.34,0,0,1,239.78,407.7Zm0,1.94a1.19,1.19,0,0,0-.77.27,1.76,1.76,0,0,0-.51,1,13.44,13.44,0,0,0-.24,3.05,12.73,12.73,0,0,0,.22,2.94,2.19,2.19,0,0,0,.54,1.06,1.19,1.19,0,0,0,1.51,0,1.8,1.8,0,0,0,.51-1,13.12,13.12,0,0,0,.24-3,13.53,13.53,0,0,0-.21-2.94,2,2,0,0,0-.54-1.07A1.15,1.15,0,0,0,239.78,409.64ZM253,410.73l-2.26.25a1.61,1.61,0,0,0-.42-1,1.26,1.26,0,0,0-.91-.33,1.55,1.55,0,0,0-1.25.67,5.48,5.48,0,0,0-.64,2.76,2.72,2.72,0,0,1,2.16-1,3.3,3.3,0,0,1,2.5,1.12,4,4,0,0,1,1,2.87,4.11,4.11,0,0,1-1.09,3,4,4,0,0,1-5.84-.31c-.8-.95-1.19-2.51-1.19-4.69s.41-3.84,1.24-4.82a4,4,0,0,1,3.21-1.48,3.41,3.41,0,0,1,2.3.78A3.59,3.59,0,0,1,253,410.73Zm-5.28,5.1a2.6,2.6,0,0,0,.53,1.74,1.54,1.54,0,0,0,1.19.62,1.35,1.35,0,0,0,1.07-.5,2.54,2.54,0,0,0,.43-1.66,2.68,2.68,0,0,0-.46-1.74,1.45,1.45,0,0,0-1.16-.56,1.47,1.47,0,0,0-1.14.53A2.39,2.39,0,0,0,247.71,415.83Zm6.56.86,2.25-.27a2.14,2.14,0,0,0,.59,1.31,1.63,1.63,0,0,0,2.36-.09,2.09,2.09,0,0,0,.49-1.47,2,2,0,0,0-.47-1.39,1.51,1.51,0,0,0-1.15-.52,4,4,0,0,0-1.07.18l.25-1.91a2,2,0,0,0,1.45-.41,1.45,1.45,0,0,0,.49-1.15,1.34,1.34,0,0,0-.36-1,1.31,1.31,0,0,0-1-.36,1.38,1.38,0,0,0-1,.42,1.94,1.94,0,0,0-.52,1.21l-2.15-.38a4.48,4.48,0,0,1,.67-1.75,3,3,0,0,1,1.26-1,4.29,4.29,0,0,1,1.82-.38,3.65,3.65,0,0,1,2.76,1.1,2.87,2.87,0,0,1,.84,2,2.84,2.84,0,0,1-1.75,2.54,2.85,2.85,0,0,1,2.3,2.89,3.68,3.68,0,0,1-1.16,2.74,4.41,4.41,0,0,1-5.66.18A3.76,3.76,0,0,1,254.27,416.69Zm9.39.42,2.27-.25a1.56,1.56,0,0,0,.43,1,1.25,1.25,0,0,0,.93.34,1.48,1.48,0,0,0,1.22-.67,5.55,5.55,0,0,0,.65-2.75,2.83,2.83,0,0,1-2.2,1,3.28,3.28,0,0,1-2.48-1.11,4.07,4.07,0,0,1-1-2.89,4.12,4.12,0,0,1,1.1-3,3.73,3.73,0,0,1,2.79-1.13,3.8,3.8,0,0,1,3.05,1.43c.79.95,1.19,2.53,1.19,4.71s-.42,3.84-1.24,4.82a4,4,0,0,1-3.23,1.48,3.4,3.4,0,0,1-2.31-.76A3.7,3.7,0,0,1,263.66,417.11Zm5.28-5.1a2.67,2.67,0,0,0-.51-1.75,1.56,1.56,0,0,0-1.21-.62,1.36,1.36,0,0,0-1.07.51,2.6,2.6,0,0,0-.43,1.66,2.68,2.68,0,0,0,.47,1.74,1.48,1.48,0,0,0,1.16.56,1.45,1.45,0,0,0,1.13-.53A2.34,2.34,0,0,0,268.94,412Z" transform="translate(-107.84 -23.06)"/><circle class="cls-11" cx="77.79" cy="410.7" r="3.33"/><circle class="cls-12" cx="77.79" cy="410.7" r="4.17"/><path class="cls-1" d="M786.5,479.58h543v-428h-543Z" transform="translate(-107.84 -23.06)"/><line class="cls-2" x1="678.66" y1="456.52" x2="1221.66" y2="456.52"/><line class="cls-2" x1="678.66" y1="28.52" x2="1221.66" y2="28.52"/><line class="cls-2" x1="678.66" y1="456.52" x2="678.66" y2="451.09"/><line class="cls-2" x1="732.96" y1="456.52" x2="732.96" y2="451.09"/><line class="cls-2" x1="787.26" y1="456.52" x2="787.26" y2="451.09"/><line class="cls-2" x1="841.56" y1="456.52" x2="841.56" y2="451.09"/><line class="cls-2" x1="895.86" y1="456.52" x2="895.86" y2="451.09"/><line class="cls-2" x1="950.16" y1="456.52" x2="950.16" y2="451.09"/><line class="cls-2" x1="1004.46" y1="456.52" x2="1004.46" y2="451.09"/><line class="cls-2" x1="1058.76" y1="456.52" x2="1058.76" y2="451.09"/><line class="cls-2" x1="1113.06" y1="456.52" x2="1113.06" y2="451.09"/><line class="cls-2" x1="1167.36" y1="456.52" x2="1167.36" y2="451.09"/><line class="cls-2" x1="1221.66" y1="456.52" x2="1221.66" y2="451.09"/><line class="cls-2" x1="678.66" y1="28.52" x2="678.66" y2="33.95"/><line class="cls-2" x1="732.96" y1="28.52" x2="732.96" y2="33.95"/><line class="cls-2" x1="787.26" y1="28.52" x2="787.26" y2="33.95"/><line class="cls-2" x1="841.56" y1="28.52" x2="841.56" y2="33.95"/><line class="cls-2" x1="895.86" y1="28.52" x2="895.86" y2="33.95"/><line class="cls-2" x1="950.16" y1="28.52" x2="950.16" y2="33.95"/><line class="cls-2" x1="1004.46" y1="28.52" x2="1004.46" y2="33.95"/><line class="cls-2" x1="1058.76" y1="28.52" x2="1058.76" y2="33.95"/><line class="cls-2" x1="1113.06" y1="28.52" x2="1113.06" y2="33.95"/><line class="cls-2" x1="1167.36" y1="28.52" x2="1167.36" y2="33.95"/><line class="cls-2" x1="1221.66" y1="28.52" x2="1221.66" y2="33.95"/><text class="cls-13" transform="translate(673.66 480.18)">0</text><text class="cls-13" transform="translate(720.96 480.18)">0.1</text><text class="cls-13" transform="translate(775.26 480.18)">0.2</text><text class="cls-13" transform="translate(829.56 480.18)">0.3</text><text class="cls-13" transform="translate(883.86 480.18)">0.4</text><text class="cls-13" transform="translate(938.16 480.18)">0.5</text><text class="cls-13" transform="translate(992.46 480.18)">0.6</text><text class="cls-13" transform="translate(1046.76 480.18)">0.7</text><text class="cls-13" transform="translate(1101.06 480.18)">0.8</text><text class="cls-13" transform="translate(1155.36 480.18)">0.9</text><text class="cls-13" transform="translate(1216.66 480.18)">1</text><text class="cls-14" transform="translate(945.16 504.85)">x</text><line class="cls-2" x1="678.66" y1="456.52" x2="678.66" y2="28.52"/><line class="cls-2" x1="1221.66" y1="456.52" x2="1221.66" y2="28.52"/><line class="cls-2" x1="678.66" y1="456.52" x2="684.09" y2="456.52"/><line class="cls-2" x1="678.66" y1="413.72" x2="684.09" y2="413.72"/><line class="cls-2" x1="678.66" y1="370.92" x2="684.09" y2="370.92"/><line class="cls-2" x1="678.66" y1="328.12" x2="684.09" y2="328.12"/><line class="cls-2" x1="678.66" y1="285.32" x2="684.09" y2="285.32"/><line class="cls-2" x1="678.66" y1="242.52" x2="684.09" y2="242.52"/><line class="cls-2" x1="678.66" y1="199.72" x2="684.09" y2="199.72"/><line class="cls-2" x1="678.66" y1="156.92" x2="684.09" y2="156.92"/><line class="cls-2" x1="678.66" y1="114.12" x2="684.09" y2="114.12"/><line class="cls-2" x1="678.66" y1="71.32" x2="684.09" y2="71.32"/><line class="cls-2" x1="678.66" y1="28.52" x2="684.09" y2="28.52"/><line class="cls-2" x1="1221.66" y1="456.52" x2="1216.23" y2="456.52"/><line class="cls-2" x1="1221.66" y1="413.72" x2="1216.23" y2="413.72"/><line class="cls-2" x1="1221.66" y1="370.92" x2="1216.23" y2="370.92"/><line class="cls-2" x1="1221.66" y1="328.12" x2="1216.23" y2="328.12"/><line class="cls-2" x1="1221.66" y1="285.32" x2="1216.23" y2="285.32"/><line class="cls-2" x1="1221.66" y1="242.52" x2="1216.23" y2="242.52"/><line class="cls-2" x1="1221.66" y1="199.72" x2="1216.23" y2="199.72"/><line class="cls-2" x1="1221.66" y1="156.92" x2="1216.23" y2="156.92"/><line class="cls-2" x1="1221.66" y1="114.12" x2="1216.23" y2="114.12"/><line class="cls-2" x1="1221.66" y1="71.32" x2="1216.23" y2="71.32"/><line class="cls-2" x1="1221.66" y1="28.52" x2="1216.23" y2="28.52"/><text class="cls-13" transform="translate(647.99 463.02)">0.1</text><text class="cls-13" transform="translate(647.99 420.22)">0.2</text><text class="cls-13" transform="translate(647.99 377.42)">0.3</text><text class="cls-13" transform="translate(647.99 334.62)">0.4</text><text class="cls-13" transform="translate(647.99 291.82)">0.5</text><text class="cls-13" transform="translate(647.99 249.02)">0.6</text><text class="cls-13" transform="translate(647.99 206.22)">0.7</text><text class="cls-13" transform="translate(647.99 163.42)">0.8</text><text class="cls-13" transform="translate(647.99 120.62)">0.9</text><text class="cls-13" transform="translate(661.99 77.82)">1</text><text class="cls-13" transform="translate(647.99 35.02)">1.1</text><text class="cls-14" transform="translate(637.99 261.01) rotate(-90)">m(x)</text><text class="cls-15" transform="translate(764.16 20.77)">Model by the L-curve criterion (First-order)</text><path class="cls-16" d="M786.5,86.77h27.15v1.86H840.8V95H868v12.27H895.1v18.55h27.15v24.36H949.4v29.08h27.15v32.25h27.15v33.58h27.15v33H1058v30.44h27.15v26.17h27.15v20.5h27.15V369h27.15v6.79h54.3V370h27.15v-9.65h27.15V349.69h27.15v-7.83h27.15" transform="translate(-107.84 -23.06)"/></svg>