<svg id="图层_1" data-name="图层 1" xmlns="http://www.w3.org/2000/svg" viewBox="0 0 1245.69 505.77"><defs><style>.cls-1{fill:#fff;}.cls-12,.cls-2,.cls-3,.cls-4,.cls-6,.cls-8{fill:none;}.cls-2,.cls-3,.cls-4{stroke:#000;}.cls-2{stroke-linecap:square;}.cls-2,.cls-3,.cls-8{stroke-linejoin:round;stroke-width:0.83px;}.cls-12,.cls-4,.cls-6{stroke-miterlimit:10;}.cls-11,.cls-5{fill:#262626;}.cls-12,.cls-6{stroke:#ffffdc;stroke-width:1.67px;}.cls-7{fill:#fafaff;}.cls-8{stroke:#595959;}.cls-9{fill:#404040;}.cls-10{fill:#09f;}.cls-11{fill-opacity:0.39;}.cls-12{stroke-opacity:0.39;}.cls-13,.cls-14,.cls-15{isolation:isolate;}.cls-13{font-size:16.67px;}.cls-13,.cls-14{font-family:ArialMT, Arial;}.cls-14,.cls-15{font-size:18.33px;}.cls-15{font-family:Arial-BoldMT, Arial;font-weight:700;}</style></defs><title>6</title><path class="cls-1" d="M179,493.14H722v-428H179Z" transform="translate(-109.91 -43.48)"/><line class="cls-2" x1="69.11" y1="449.66" x2="612.11" y2="449.66"/><line class="cls-2" x1="69.11" y1="21.66" x2="612.11" y2="21.66"/><line class="cls-2" x1="79.69" y1="449.66" x2="79.69" y2="444.23"/><line class="cls-2" x1="257.16" y1="449.66" x2="257.16" y2="444.23"/><line class="cls-2" x1="434.64" y1="449.66" x2="434.64" y2="444.23"/><line class="cls-2" x1="612.11" y1="449.66" x2="612.11" y2="444.23"/><line class="cls-2" x1="79.69" y1="21.66" x2="79.69" y2="27.09"/><line class="cls-2" x1="257.16" y1="21.66" x2="257.16" y2="27.09"/><line class="cls-2" x1="434.64" y1="21.66" x2="434.64" y2="27.09"/><line class="cls-2" x1="612.11" y1="21.66" x2="612.11" y2="27.09"/><line class="cls-2" x1="79.69" y1="449.66" x2="79.69" y2="446.95"/><line class="cls-2" x1="115.19" y1="449.66" x2="115.19" y2="446.95"/><line class="cls-2" x1="150.68" y1="449.66" x2="150.68" y2="446.95"/><line class="cls-2" x1="186.18" y1="449.66" x2="186.18" y2="446.95"/><line class="cls-2" x1="221.67" y1="449.66" x2="221.67" y2="446.95"/><line class="cls-2" x1="257.16" y1="449.66" x2="257.16" y2="446.95"/><line class="cls-2" x1="292.66" y1="449.66" x2="292.66" y2="446.95"/><line class="cls-2" x1="328.15" y1="449.66" x2="328.15" y2="446.95"/><line class="cls-2" x1="363.65" y1="449.66" x2="363.65" y2="446.95"/><line class="cls-2" x1="399.14" y1="449.66" x2="399.14" y2="446.95"/><line class="cls-2" x1="434.64" y1="449.66" x2="434.64" y2="446.95"/><line class="cls-2" x1="470.13" y1="449.66" x2="470.13" y2="446.95"/><line class="cls-2" x1="505.63" y1="449.66" x2="505.63" y2="446.95"/><line class="cls-2" x1="541.12" y1="449.66" x2="541.12" y2="446.95"/><line class="cls-2" x1="576.61" y1="449.66" x2="576.61" y2="446.95"/><line class="cls-2" x1="612.11" y1="449.66" x2="612.11" y2="446.95"/><line class="cls-2" x1="79.69" y1="21.66" x2="79.69" y2="24.38"/><line class="cls-2" x1="115.19" y1="21.66" x2="115.19" y2="24.38"/><line class="cls-2" x1="150.68" y1="21.66" x2="150.68" y2="24.38"/><line class="cls-2" x1="186.18" y1="21.66" x2="186.18" y2="24.38"/><line class="cls-2" x1="221.67" y1="21.66" x2="221.67" y2="24.38"/><line class="cls-2" x1="257.16" y1="21.66" x2="257.16" y2="24.38"/><line class="cls-2" x1="292.66" y1="21.66" x2="292.66" y2="24.38"/><line class="cls-2" x1="328.15" y1="21.66" x2="328.15" y2="24.38"/><line class="cls-2" x1="363.65" y1="21.66" x2="363.65" y2="24.38"/><line class="cls-2" x1="399.14" y1="21.66" x2="399.14" y2="24.38"/><line class="cls-2" x1="434.64" y1="21.66" x2="434.64" y2="24.38"/><line class="cls-2" x1="470.13" y1="21.66" x2="470.13" y2="24.38"/><line class="cls-2" x1="505.63" y1="21.66" x2="505.63" y2="24.38"/><line class="cls-2" x1="541.12" y1="21.66" x2="541.12" y2="24.38"/><line class="cls-2" x1="576.61" y1="21.66" x2="576.61" y2="24.38"/><line class="cls-2" x1="612.11" y1="21.66" x2="612.11" y2="24.38"/><path d="M176.34,522.14h-1.48v-9.51a8.3,8.3,0,0,1-1.42,1,10.23,10.23,0,0,1-1.58.77V513a8.49,8.49,0,0,0,2.2-1.42,5.64,5.64,0,0,0,1.33-1.63h1Zm3.64-6a11,11,0,0,1,.45-3.47,4.27,4.27,0,0,1,1.32-2,3.4,3.4,0,0,1,2.2-.71,3.61,3.61,0,0,1,1.72.39,3.35,3.35,0,0,1,1.22,1.15,6.4,6.4,0,0,1,.76,1.81,12.11,12.11,0,0,1,.27,2.87,11.29,11.29,0,0,1-.44,3.46,4.35,4.35,0,0,1-1.31,2,3.37,3.37,0,0,1-2.22.72,3.33,3.33,0,0,1-2.76-1.25C180.38,520.08,180,518.42,180,516.14Zm1.53,0c0,2,.24,3.33.71,4a2.05,2.05,0,0,0,1.73,1,2.09,2.09,0,0,0,1.74-1,7.76,7.76,0,0,0,.7-4c0-2-.24-3.33-.7-4a2.1,2.1,0,0,0-1.75-1,1.92,1.92,0,0,0-1.65.87A7.65,7.65,0,0,0,181.51,516.14Z" transform="translate(-109.91 -43.48)"/><path d="M189.42,511.35v-1.14h3.52v1.14Zm8.87,2.79h-1.14v-7.28a6.89,6.89,0,0,1-1.08.79,7.27,7.27,0,0,1-1.2.59v-1.11a6.48,6.48,0,0,0,1.67-1.08,4.25,4.25,0,0,0,1-1.25h.73Zm3.11-2.43,1.19-.11a2.16,2.16,0,0,0,.62,1.32,1.66,1.66,0,0,0,1.17.44,1.83,1.83,0,0,0,1.4-.62,2.36,2.36,0,0,0,.57-1.64,2.13,2.13,0,0,0-.54-1.55,1.91,1.91,0,0,0-1.44-.56,2,2,0,0,0-1,.25,1.78,1.78,0,0,0-.69.64l-1.07-.14.89-4.77h4.63v1.08h-3.7l-.5,2.5a3,3,0,0,1,1.75-.58,2.78,2.78,0,0,1,2.05.84,3,3,0,0,1,.84,2.18,3.38,3.38,0,0,1-.74,2.18,2.93,2.93,0,0,1-2.44,1.13,3,3,0,0,1-2.07-.71A2.77,2.77,0,0,1,201.4,511.71Z" transform="translate(-109.91 -43.48)"/><path d="M353.34,522.14h-1.48v-9.51a8.3,8.3,0,0,1-1.42,1,10.23,10.23,0,0,1-1.58.77V513a8.49,8.49,0,0,0,2.2-1.42,5.64,5.64,0,0,0,1.33-1.63h.95Zm3.64-6a11,11,0,0,1,.45-3.47,4.27,4.27,0,0,1,1.32-2,3.4,3.4,0,0,1,2.2-.71,3.61,3.61,0,0,1,1.72.39,3.35,3.35,0,0,1,1.22,1.15,6.4,6.4,0,0,1,.76,1.81,12.11,12.11,0,0,1,.27,2.87,11.29,11.29,0,0,1-.44,3.46,4.35,4.35,0,0,1-1.31,2,3.37,3.37,0,0,1-2.22.72,3.33,3.33,0,0,1-2.76-1.25C357.38,520.08,357,518.42,357,516.14Zm1.53,0c0,2,.24,3.33.71,4a2.05,2.05,0,0,0,1.73,1,2.09,2.09,0,0,0,1.74-1,7.76,7.76,0,0,0,.7-4c0-2-.24-3.33-.7-4a2.1,2.1,0,0,0-1.75-1,1.92,1.92,0,0,0-1.65.87A7.65,7.65,0,0,0,358.51,516.14Z" transform="translate(-109.91 -43.48)"/><path d="M366.42,511.35v-1.14h3.52v1.14Zm8.87,2.79h-1.14v-7.28a6.89,6.89,0,0,1-1.08.79,7.27,7.27,0,0,1-1.2.59v-1.11a6.48,6.48,0,0,0,1.67-1.08,4.25,4.25,0,0,0,1-1.25h.73Zm3.11-4.59a8.4,8.4,0,0,1,.34-2.65,3.27,3.27,0,0,1,1-1.55,2.56,2.56,0,0,1,1.69-.55,2.72,2.72,0,0,1,1.31.3,2.58,2.58,0,0,1,.93.87,4.59,4.59,0,0,1,.58,1.38,9.23,9.23,0,0,1,.21,2.2,8.74,8.74,0,0,1-.33,2.65,3.28,3.28,0,0,1-1,1.55,2.83,2.83,0,0,1-3.81-.42A6.14,6.14,0,0,1,378.4,509.55Zm1.17,0a5.91,5.91,0,0,0,.53,3.05,1.54,1.54,0,0,0,2.65,0,8.88,8.88,0,0,0,0-6.1,1.59,1.59,0,0,0-1.33-.75,1.49,1.49,0,0,0-1.27.66A6,6,0,0,0,379.57,509.55Z" transform="translate(-109.91 -43.48)"/><path d="M535.34,522.14h-1.48v-9.51a8.3,8.3,0,0,1-1.42,1,10.23,10.23,0,0,1-1.58.77V513a8.49,8.49,0,0,0,2.2-1.42,5.64,5.64,0,0,0,1.33-1.63h1Zm3.64-6a11,11,0,0,1,.45-3.47,4.27,4.27,0,0,1,1.32-2,3.4,3.4,0,0,1,2.2-.71,3.61,3.61,0,0,1,1.72.39,3.35,3.35,0,0,1,1.22,1.15,6.4,6.4,0,0,1,.76,1.81,12.11,12.11,0,0,1,.27,2.87,11.29,11.29,0,0,1-.44,3.46,4.35,4.35,0,0,1-1.31,2,3.37,3.37,0,0,1-2.22.72,3.33,3.33,0,0,1-2.76-1.25C539.38,520.08,539,518.42,539,516.14Zm1.53,0c0,2,.24,3.33.71,4a2.05,2.05,0,0,0,1.73,1,2.09,2.09,0,0,0,1.74-1,7.76,7.76,0,0,0,.7-4c0-2-.24-3.33-.7-4a2.1,2.1,0,0,0-1.75-1,1.92,1.92,0,0,0-1.65.87A7.65,7.65,0,0,0,540.51,516.14Z" transform="translate(-109.91 -43.48)"/><path d="M548.42,511.35v-1.14h3.52v1.14Zm4.58.36,1.18-.11a2.22,2.22,0,0,0,.63,1.32,1.64,1.64,0,0,0,1.17.44,1.84,1.84,0,0,0,1.4-.62,2.36,2.36,0,0,0,.57-1.64,2.1,2.1,0,0,0-.55-1.55A1.88,1.88,0,0,0,556,509a2,2,0,0,0-1,.25,1.89,1.89,0,0,0-.7.64l-1.06-.14.89-4.77h4.62v1.08H555l-.5,2.5a3,3,0,0,1,1.75-.58,2.81,2.81,0,0,1,2.06.84,3,3,0,0,1,.83,2.18,3.38,3.38,0,0,1-.73,2.18A3,3,0,0,1,556,514.3a3,3,0,0,1-2.07-.71A2.73,2.73,0,0,1,553,511.71Z" transform="translate(-109.91 -43.48)"/><path d="M714.34,522.14h-1.48v-9.51a8.3,8.3,0,0,1-1.42,1,10.23,10.23,0,0,1-1.58.77V513a8.49,8.49,0,0,0,2.2-1.42,5.64,5.64,0,0,0,1.33-1.63h1Zm3.64-6a11,11,0,0,1,.45-3.47,4.27,4.27,0,0,1,1.32-2,3.4,3.4,0,0,1,2.2-.71,3.61,3.61,0,0,1,1.72.39,3.35,3.35,0,0,1,1.22,1.15,6.4,6.4,0,0,1,.76,1.81,12.11,12.11,0,0,1,.27,2.87,11.29,11.29,0,0,1-.44,3.46,4.35,4.35,0,0,1-1.31,2,3.37,3.37,0,0,1-2.22.72,3.33,3.33,0,0,1-2.76-1.25C718.38,520.08,718,518.42,718,516.14Zm1.53,0c0,2,.24,3.33.71,4a2.05,2.05,0,0,0,1.73,1,2.09,2.09,0,0,0,1.74-1,7.76,7.76,0,0,0,.7-4c0-2-.24-3.33-.7-4a2.1,2.1,0,0,0-1.75-1,1.92,1.92,0,0,0-1.65.87A7.65,7.65,0,0,0,719.51,516.14Z" transform="translate(-109.91 -43.48)"/><path d="M727.56,509.55a8.4,8.4,0,0,1,.34-2.65,3.21,3.21,0,0,1,1-1.55,2.54,2.54,0,0,1,1.68-.55,2.79,2.79,0,0,1,1.32.3,2.76,2.76,0,0,1,.93.87,4.86,4.86,0,0,1,.57,1.38,9.15,9.15,0,0,1,.22,2.2,8.71,8.71,0,0,1-.34,2.65,3.21,3.21,0,0,1-1,1.55,2.83,2.83,0,0,1-3.81-.42A6.14,6.14,0,0,1,727.56,509.55Zm1.17,0a5.78,5.78,0,0,0,.54,3.05,1.55,1.55,0,0,0,1.32.76,1.58,1.58,0,0,0,1.32-.76,8.88,8.88,0,0,0,0-6.1,1.59,1.59,0,0,0-1.33-.75,1.52,1.52,0,0,0-1.27.66A6.08,6.08,0,0,0,728.73,509.55Z" transform="translate(-109.91 -43.48)"/><path d="M448.64,546.35a2.86,2.86,0,0,1-1.52-.41,2.77,2.77,0,0,1-1-1.09,3.31,3.31,0,0,1-.36-1.55,4.91,4.91,0,0,1,.68-2.42,5.73,5.73,0,0,1,1.82-1.94,4.2,4.2,0,0,1,2.36-.75,2.77,2.77,0,0,1,1.62.48,3,3,0,0,1,1.06,1.27,4.08,4.08,0,0,1,.36,1.7v1.21a12,12,0,0,0,1-1.78,9.07,9.07,0,0,0,.65-1.9.16.16,0,0,1,.14-.11h.22c.11,0,.17.06.17.18l0,0a10.23,10.23,0,0,1-.53,1.59,12.77,12.77,0,0,1-.74,1.48,8.49,8.49,0,0,1-.92,1.29c0,1.49.17,2.24.52,2.24a.73.73,0,0,0,.54-.21,1.92,1.92,0,0,0,.39-.49c.11-.19.18-.29.21-.29h.22c.09,0,.14.06.14.17a1.16,1.16,0,0,1-.52.86,1.57,1.57,0,0,1-1,.43,1.47,1.47,0,0,1-1.09-.43,2.18,2.18,0,0,1-.59-1.09,6.78,6.78,0,0,1-1.82,1.12A5.39,5.39,0,0,1,448.64,546.35Zm0-.47a5.45,5.45,0,0,0,3.69-1.6c0-.06,0-.14,0-.25s0-.16,0-.17v-2c0-2.17-.58-3.25-1.75-3.25a2.4,2.4,0,0,0-1.85.9,5.92,5.92,0,0,0-1.19,2.15,7.69,7.69,0,0,0-.39,2.29,2.23,2.23,0,0,0,.39,1.33A1.36,1.36,0,0,0,448.67,545.88Z" transform="translate(-109.91 -43.48)"/><line class="cls-2" x1="69.11" y1="449.66" x2="69.11" y2="21.66"/><line class="cls-2" x1="612.11" y1="449.66" x2="612.11" y2="21.66"/><line class="cls-2" x1="69.11" y1="449.66" x2="74.54" y2="449.66"/><line class="cls-2" x1="69.11" y1="364.06" x2="74.54" y2="364.06"/><line class="cls-2" x1="69.11" y1="278.46" x2="74.54" y2="278.46"/><line class="cls-2" x1="69.11" y1="192.86" x2="74.54" y2="192.86"/><line class="cls-2" x1="69.11" y1="107.26" x2="74.54" y2="107.26"/><line class="cls-2" x1="69.11" y1="21.66" x2="74.54" y2="21.66"/><line class="cls-2" x1="612.11" y1="449.66" x2="606.68" y2="449.66"/><line class="cls-2" x1="612.11" y1="364.06" x2="606.68" y2="364.06"/><line class="cls-2" x1="612.11" y1="278.46" x2="606.68" y2="278.46"/><line class="cls-2" x1="612.11" y1="192.86" x2="606.68" y2="192.86"/><line class="cls-2" x1="612.11" y1="107.26" x2="606.68" y2="107.26"/><line class="cls-2" x1="612.11" y1="21.66" x2="606.68" y2="21.66"/><line class="cls-2" x1="69.11" y1="449.66" x2="71.82" y2="449.66"/><line class="cls-2" x1="69.11" y1="423.89" x2="71.82" y2="423.89"/><line class="cls-2" x1="69.11" y1="408.82" x2="71.82" y2="408.82"/><line class="cls-2" x1="69.11" y1="398.13" x2="71.82" y2="398.13"/><line class="cls-2" x1="69.11" y1="389.83" x2="71.82" y2="389.83"/><line class="cls-2" x1="69.11" y1="383.05" x2="71.82" y2="383.05"/><line class="cls-2" x1="69.11" y1="377.32" x2="71.82" y2="377.32"/><line class="cls-2" x1="69.11" y1="372.36" x2="71.82" y2="372.36"/><line class="cls-2" x1="69.11" y1="367.98" x2="71.82" y2="367.98"/><line class="cls-2" x1="69.11" y1="364.06" x2="71.82" y2="364.06"/><line class="cls-2" x1="69.11" y1="338.29" x2="71.82" y2="338.29"/><line class="cls-2" x1="69.11" y1="323.22" x2="71.82" y2="323.22"/><line class="cls-2" x1="69.11" y1="312.53" x2="71.82" y2="312.53"/><line class="cls-2" x1="69.11" y1="304.23" x2="71.82" y2="304.23"/><line class="cls-2" x1="69.11" y1="297.45" x2="71.82" y2="297.45"/><line class="cls-2" x1="69.11" y1="291.72" x2="71.82" y2="291.72"/><line class="cls-2" x1="69.11" y1="286.76" x2="71.82" y2="286.76"/><line class="cls-2" x1="69.11" y1="282.38" x2="71.82" y2="282.38"/><line class="cls-2" x1="69.11" y1="278.46" x2="71.82" y2="278.46"/><line class="cls-2" x1="69.11" y1="252.69" x2="71.82" y2="252.69"/><line class="cls-2" x1="69.11" y1="237.62" x2="71.82" y2="237.62"/><line class="cls-2" x1="69.11" y1="226.93" x2="71.82" y2="226.93"/><line class="cls-2" x1="69.11" y1="218.63" x2="71.82" y2="218.63"/><line class="cls-2" x1="69.11" y1="211.85" x2="71.82" y2="211.85"/><line class="cls-2" x1="69.11" y1="206.12" x2="71.82" y2="206.12"/><line class="cls-2" x1="69.11" y1="201.16" x2="71.82" y2="201.16"/><line class="cls-2" x1="69.11" y1="196.78" x2="71.82" y2="196.78"/><line class="cls-2" x1="69.11" y1="192.86" x2="71.82" y2="192.86"/><line class="cls-2" x1="69.11" y1="167.09" x2="71.82" y2="167.09"/><line class="cls-2" x1="69.11" y1="152.02" x2="71.82" y2="152.02"/><line class="cls-2" x1="69.11" y1="141.33" x2="71.82" y2="141.33"/><line class="cls-2" x1="69.11" y1="133.03" x2="71.82" y2="133.03"/><line class="cls-2" x1="69.11" y1="126.25" x2="71.82" y2="126.25"/><line class="cls-2" x1="69.11" y1="120.52" x2="71.82" y2="120.52"/><line class="cls-2" x1="69.11" y1="115.56" x2="71.82" y2="115.56"/><line class="cls-2" x1="69.11" y1="111.18" x2="71.82" y2="111.18"/><line class="cls-2" x1="69.11" y1="107.26" x2="71.82" y2="107.26"/><line class="cls-2" x1="69.11" y1="81.49" x2="71.82" y2="81.49"/><line class="cls-2" x1="69.11" y1="66.42" x2="71.82" y2="66.42"/><line class="cls-2" x1="69.11" y1="55.73" x2="71.82" y2="55.73"/><line class="cls-2" x1="69.11" y1="47.43" x2="71.82" y2="47.43"/><line class="cls-2" x1="69.11" y1="40.65" x2="71.82" y2="40.65"/><line class="cls-2" x1="69.11" y1="34.92" x2="71.82" y2="34.92"/><line class="cls-2" x1="69.11" y1="29.96" x2="71.82" y2="29.96"/><line class="cls-2" x1="69.11" y1="25.58" x2="71.82" y2="25.58"/><line class="cls-2" x1="69.11" y1="21.66" x2="71.82" y2="21.66"/><line class="cls-2" x1="612.11" y1="449.66" x2="609.39" y2="449.66"/><line class="cls-2" x1="612.11" y1="423.89" x2="609.39" y2="423.89"/><line class="cls-2" x1="612.11" y1="408.82" x2="609.39" y2="408.82"/><line class="cls-2" x1="612.11" y1="398.13" x2="609.39" y2="398.13"/><line class="cls-2" x1="612.11" y1="389.83" x2="609.39" y2="389.83"/><line class="cls-2" x1="612.11" y1="383.05" x2="609.39" y2="383.05"/><line class="cls-2" x1="612.11" y1="377.32" x2="609.39" y2="377.32"/><line class="cls-2" x1="612.11" y1="372.36" x2="609.39" y2="372.36"/><line class="cls-2" x1="612.11" y1="367.98" x2="609.39" y2="367.98"/><line class="cls-2" x1="612.11" y1="364.06" x2="609.39" y2="364.06"/><line class="cls-2" x1="612.11" y1="338.29" x2="609.39" y2="338.29"/><line class="cls-2" x1="612.11" y1="323.22" x2="609.39" y2="323.22"/><line class="cls-2" x1="612.11" y1="312.53" x2="609.39" y2="312.53"/><line class="cls-2" x1="612.11" y1="304.23" x2="609.39" y2="304.23"/><line class="cls-2" x1="612.11" y1="297.45" x2="609.39" y2="297.45"/><line class="cls-2" x1="612.11" y1="291.72" x2="609.39" y2="291.72"/><line class="cls-2" x1="612.11" y1="286.76" x2="609.39" y2="286.76"/><line class="cls-2" x1="612.11" y1="282.38" x2="609.39" y2="282.38"/><line class="cls-2" x1="612.11" y1="278.46" x2="609.39" y2="278.46"/><line class="cls-2" x1="612.11" y1="252.69" x2="609.39" y2="252.69"/><line class="cls-2" x1="612.11" y1="237.62" x2="609.39" y2="237.62"/><line class="cls-2" x1="612.11" y1="226.93" x2="609.39" y2="226.93"/><line class="cls-2" x1="612.11" y1="218.63" x2="609.39" y2="218.63"/><line class="cls-2" x1="612.11" y1="211.85" x2="609.39" y2="211.85"/><line class="cls-2" x1="612.11" y1="206.12" x2="609.39" y2="206.12"/><line class="cls-2" x1="612.11" y1="201.16" x2="609.39" y2="201.16"/><line class="cls-2" x1="612.11" y1="196.78" x2="609.39" y2="196.78"/><line class="cls-2" x1="612.11" y1="192.86" x2="609.39" y2="192.86"/><line class="cls-2" x1="612.11" y1="167.09" x2="609.39" y2="167.09"/><line class="cls-2" x1="612.11" y1="152.02" x2="609.39" y2="152.02"/><line class="cls-2" x1="612.11" y1="141.33" x2="609.39" y2="141.33"/><line class="cls-2" x1="612.11" y1="133.03" x2="609.39" y2="133.03"/><line class="cls-2" x1="612.11" y1="126.25" x2="609.39" y2="126.25"/><line class="cls-2" x1="612.11" y1="120.52" x2="609.39" y2="120.52"/><line class="cls-2" x1="612.11" y1="115.56" x2="609.39" y2="115.56"/><line class="cls-2" x1="612.11" y1="111.18" x2="609.39" y2="111.18"/><line class="cls-2" x1="612.11" y1="107.26" x2="609.39" y2="107.26"/><line class="cls-2" x1="612.11" y1="81.49" x2="609.39" y2="81.49"/><line class="cls-2" x1="612.11" y1="66.42" x2="609.39" y2="66.42"/><line class="cls-2" x1="612.11" y1="55.73" x2="609.39" y2="55.73"/><line class="cls-2" x1="612.11" y1="47.43" x2="609.39" y2="47.43"/><line class="cls-2" x1="612.11" y1="40.65" x2="609.39" y2="40.65"/><line class="cls-2" x1="612.11" y1="34.92" x2="609.39" y2="34.92"/><line class="cls-2" x1="612.11" y1="29.96" x2="609.39" y2="29.96"/><line class="cls-2" x1="612.11" y1="25.58" x2="609.39" y2="25.58"/><line class="cls-2" x1="612.11" y1="21.66" x2="609.39" y2="21.66"/><path d="M139.34,502.14h-1.48v-9.51a8.3,8.3,0,0,1-1.42,1,10.23,10.23,0,0,1-1.58.77V493a8.49,8.49,0,0,0,2.2-1.42,5.64,5.64,0,0,0,1.33-1.63h1Zm3.64-6a11,11,0,0,1,.45-3.47,4.27,4.27,0,0,1,1.32-2,3.4,3.4,0,0,1,2.2-.71,3.61,3.61,0,0,1,1.72.39,3.35,3.35,0,0,1,1.22,1.15,6.4,6.4,0,0,1,.76,1.81,12.11,12.11,0,0,1,.27,2.87,11.29,11.29,0,0,1-.44,3.46,4.35,4.35,0,0,1-1.31,2,3.37,3.37,0,0,1-2.22.72,3.33,3.33,0,0,1-2.76-1.25C143.38,500.08,143,498.42,143,496.14Zm1.53,0c0,2,.24,3.33.71,4a2.05,2.05,0,0,0,1.73,1,2.09,2.09,0,0,0,1.74-1,7.76,7.76,0,0,0,.7-4c0-2-.24-3.33-.7-4a2.1,2.1,0,0,0-1.75-1,1.92,1.92,0,0,0-1.65.87A7.65,7.65,0,0,0,144.51,496.14Z" transform="translate(-109.91 -43.48)"/><path d="M152.42,491.35v-1.14h3.52v1.14Zm8.87,2.79h-1.14v-7.28a6.89,6.89,0,0,1-1.08.79,7.27,7.27,0,0,1-1.2.59v-1.11a6.48,6.48,0,0,0,1.67-1.08,4.25,4.25,0,0,0,1-1.25h.73Zm7.41,0h-1.14v-7.28a7.53,7.53,0,0,1-1.09.79,6.58,6.58,0,0,1-1.2.59v-1.11a6.54,6.54,0,0,0,1.68-1.08,4.2,4.2,0,0,0,1-1.25h.74Z" transform="translate(-109.91 -43.48)"/><path d="M139.34,416.14h-1.48v-9.51a8.3,8.3,0,0,1-1.42,1,10.23,10.23,0,0,1-1.58.77V407a8.49,8.49,0,0,0,2.2-1.42,5.64,5.64,0,0,0,1.33-1.63h1Zm3.64-6a11,11,0,0,1,.45-3.47,4.27,4.27,0,0,1,1.32-2,3.4,3.4,0,0,1,2.2-.71,3.61,3.61,0,0,1,1.72.39,3.35,3.35,0,0,1,1.22,1.15,6.4,6.4,0,0,1,.76,1.81,12.11,12.11,0,0,1,.27,2.87,11.29,11.29,0,0,1-.44,3.46,4.35,4.35,0,0,1-1.31,2,3.37,3.37,0,0,1-2.22.72,3.33,3.33,0,0,1-2.76-1.25C143.38,414.08,143,412.42,143,410.14Zm1.53,0c0,2,.24,3.33.71,4a2.05,2.05,0,0,0,1.73,1,2.09,2.09,0,0,0,1.74-1,7.76,7.76,0,0,0,.7-4c0-2-.24-3.33-.7-4a2.1,2.1,0,0,0-1.75-1,1.92,1.92,0,0,0-1.65.87A7.65,7.65,0,0,0,144.51,410.14Z" transform="translate(-109.91 -43.48)"/><path d="M152.42,405.35v-1.14h3.52v1.14Zm8.87,2.79h-1.14v-7.28a6.89,6.89,0,0,1-1.08.79,7.27,7.27,0,0,1-1.2.59v-1.11a6.48,6.48,0,0,0,1.67-1.08,4.25,4.25,0,0,0,1-1.25h.73Zm3.11-4.59a8.4,8.4,0,0,1,.34-2.65,3.27,3.27,0,0,1,1-1.55,2.56,2.56,0,0,1,1.69-.55,2.72,2.72,0,0,1,1.31.3,2.58,2.58,0,0,1,.93.87,4.59,4.59,0,0,1,.58,1.38,9.23,9.23,0,0,1,.21,2.2,8.74,8.74,0,0,1-.33,2.65,3.28,3.28,0,0,1-1,1.55,2.83,2.83,0,0,1-3.81-.42A6.14,6.14,0,0,1,164.4,403.55Zm1.17,0a5.91,5.91,0,0,0,.53,3.05,1.54,1.54,0,0,0,2.65,0,8.88,8.88,0,0,0,0-6.1,1.59,1.59,0,0,0-1.33-.75,1.49,1.49,0,0,0-1.27.66A6,6,0,0,0,165.57,403.55Z" transform="translate(-109.91 -43.48)"/><path d="M147.34,331.14h-1.48v-9.51a8.3,8.3,0,0,1-1.42,1,10.23,10.23,0,0,1-1.58.77V322a8.49,8.49,0,0,0,2.2-1.42,5.64,5.64,0,0,0,1.33-1.63h1Zm3.64-6a11,11,0,0,1,.45-3.47,4.27,4.27,0,0,1,1.32-2,3.4,3.4,0,0,1,2.2-.71,3.61,3.61,0,0,1,1.72.39,3.35,3.35,0,0,1,1.22,1.15,6.4,6.4,0,0,1,.76,1.81,12.11,12.11,0,0,1,.27,2.87,11.29,11.29,0,0,1-.44,3.46,4.35,4.35,0,0,1-1.31,2,3.37,3.37,0,0,1-2.22.72,3.33,3.33,0,0,1-2.76-1.25C151.38,329.08,151,327.42,151,325.14Zm1.53,0c0,2,.24,3.33.71,4a2.05,2.05,0,0,0,1.73,1,2.09,2.09,0,0,0,1.74-1,7.76,7.76,0,0,0,.7-4c0-2-.24-3.33-.7-4a2.1,2.1,0,0,0-1.75-1,1.92,1.92,0,0,0-1.65.87A7.65,7.65,0,0,0,152.51,325.14Z" transform="translate(-109.91 -43.48)"/><path d="M160.42,320.35v-1.14h3.52v1.14Zm4.75.64,1.09-.1a2,2,0,0,0,.53,1.12,1.49,1.49,0,0,0,1,.35,1.72,1.72,0,0,0,.91-.24,2,2,0,0,0,.66-.64,3.65,3.65,0,0,0,.42-1.09A6,6,0,0,0,170,319v-.22a2.54,2.54,0,0,1-.93.88,2.64,2.64,0,0,1-1.28.34,2.59,2.59,0,0,1-2-.84,3.07,3.07,0,0,1-.79-2.21,3.14,3.14,0,0,1,.82-2.28,2.81,2.81,0,0,1,2.1-.86,2.93,2.93,0,0,1,1.65.49,3.08,3.08,0,0,1,1.14,1.39,6.81,6.81,0,0,1,.4,2.62,8.33,8.33,0,0,1-.39,2.83,3.26,3.26,0,0,1-1.15,1.61,3,3,0,0,1-1.79.56,2.64,2.64,0,0,1-1.79-.6A2.49,2.49,0,0,1,165.17,321Zm4.67-4.11a2.21,2.21,0,0,0-.52-1.56,1.65,1.65,0,0,0-1.26-.57,1.76,1.76,0,0,0-1.33.62,2.33,2.33,0,0,0-.56,1.62,2,2,0,0,0,.53,1.43A1.76,1.76,0,0,0,168,319a1.68,1.68,0,0,0,1.3-.55A2.2,2.2,0,0,0,169.84,316.88Z" transform="translate(-109.91 -43.48)"/><path d="M147.34,245.14h-1.48v-9.51a8.3,8.3,0,0,1-1.42,1,10.23,10.23,0,0,1-1.58.77V236a8.49,8.49,0,0,0,2.2-1.42,5.64,5.64,0,0,0,1.33-1.63h1Zm3.64-6a11,11,0,0,1,.45-3.47,4.27,4.27,0,0,1,1.32-2,3.4,3.4,0,0,1,2.2-.71,3.61,3.61,0,0,1,1.72.39,3.35,3.35,0,0,1,1.22,1.15,6.4,6.4,0,0,1,.76,1.81,12.11,12.11,0,0,1,.27,2.87,11.29,11.29,0,0,1-.44,3.46,4.35,4.35,0,0,1-1.31,2,3.37,3.37,0,0,1-2.22.72,3.33,3.33,0,0,1-2.76-1.25C151.38,243.08,151,241.42,151,239.14Zm1.53,0c0,2,.24,3.33.71,4a2.05,2.05,0,0,0,1.73,1,2.09,2.09,0,0,0,1.74-1,7.76,7.76,0,0,0,.7-4c0-2-.24-3.33-.7-4a2.1,2.1,0,0,0-1.75-1,1.92,1.92,0,0,0-1.65.87A7.65,7.65,0,0,0,152.51,239.14Z" transform="translate(-109.91 -43.48)"/><path d="M160.42,234.35v-1.14h3.52v1.14Zm6.33-2.25a2.23,2.23,0,0,1-1.05-.75,1.88,1.88,0,0,1-.34-1.14,2.31,2.31,0,0,1,.72-1.72,3.08,3.08,0,0,1,3.91,0,2.31,2.31,0,0,1,.74,1.73,1.83,1.83,0,0,1-.34,1.11,2.27,2.27,0,0,1-1,.75,2.38,2.38,0,0,1,1.75,2.39,2.7,2.7,0,0,1-.85,2,3.06,3.06,0,0,1-2.22.81,3.1,3.1,0,0,1-2.22-.81,2.72,2.72,0,0,1-.84-2,2.46,2.46,0,0,1,.46-1.53A2.25,2.25,0,0,1,166.75,232.1Zm-.24-1.94a1.43,1.43,0,0,0,.43,1.08,1.51,1.51,0,0,0,1.1.42,1.49,1.49,0,0,0,1.1-.42,1.36,1.36,0,0,0,.42-1,1.4,1.4,0,0,0-.44-1.05,1.46,1.46,0,0,0-1.08-.43,1.52,1.52,0,0,0-1.09.42A1.34,1.34,0,0,0,166.51,230.16Zm-.36,4.3a2,2,0,0,0,.24.94,1.61,1.61,0,0,0,.68.71,2,2,0,0,0,1,.25,1.82,1.82,0,0,0,1.34-.52,1.79,1.79,0,0,0,.53-1.34,1.86,1.86,0,0,0-.54-1.37,1.93,1.93,0,0,0-1.38-.53,1.81,1.81,0,0,0-1.86,1.86Z" transform="translate(-109.91 -43.48)"/><path d="M147.34,160.14h-1.48v-9.51a8.3,8.3,0,0,1-1.42,1,10.23,10.23,0,0,1-1.58.77V151a8.49,8.49,0,0,0,2.2-1.42,5.64,5.64,0,0,0,1.33-1.63h1Zm3.64-6a11,11,0,0,1,.45-3.47,4.27,4.27,0,0,1,1.32-2,3.4,3.4,0,0,1,2.2-.71,3.61,3.61,0,0,1,1.72.39,3.35,3.35,0,0,1,1.22,1.15,6.4,6.4,0,0,1,.76,1.81,12.11,12.11,0,0,1,.27,2.87,11.29,11.29,0,0,1-.44,3.46,4.35,4.35,0,0,1-1.31,2,3.37,3.37,0,0,1-2.22.72,3.33,3.33,0,0,1-2.76-1.25C151.38,158.08,151,156.42,151,154.14Zm1.53,0c0,2,.24,3.33.71,4a2.05,2.05,0,0,0,1.73,1,2.09,2.09,0,0,0,1.74-1,7.76,7.76,0,0,0,.7-4c0-2-.24-3.33-.7-4a2.1,2.1,0,0,0-1.75-1,1.92,1.92,0,0,0-1.65.87A7.65,7.65,0,0,0,152.51,154.14Z" transform="translate(-109.91 -43.48)"/><path d="M160.42,149.35v-1.14h3.52v1.14Zm4.64-5.3V143h6v.89a13.26,13.26,0,0,0-1.77,2.51,14.94,14.94,0,0,0-1.34,3.22,12.42,12.42,0,0,0-.44,2.56h-1.17a11,11,0,0,1,.43-2.65,14.72,14.72,0,0,1,1.18-3,13.11,13.11,0,0,1,1.64-2.44Z" transform="translate(-109.91 -43.48)"/><path d="M147.34,74.14h-1.48V64.63a8.3,8.3,0,0,1-1.42,1,10.23,10.23,0,0,1-1.58.77V65a8.49,8.49,0,0,0,2.2-1.42,5.64,5.64,0,0,0,1.33-1.63h1Zm3.64-6a11,11,0,0,1,.45-3.47,4.27,4.27,0,0,1,1.32-2,3.4,3.4,0,0,1,2.2-.71,3.61,3.61,0,0,1,1.72.39,3.35,3.35,0,0,1,1.22,1.15,6.4,6.4,0,0,1,.76,1.81,12.11,12.11,0,0,1,.27,2.87,11.29,11.29,0,0,1-.44,3.46,4.35,4.35,0,0,1-1.31,2,3.37,3.37,0,0,1-2.22.72,3.33,3.33,0,0,1-2.76-1.25C151.38,72.08,151,70.42,151,68.14Zm1.53,0c0,2,.24,3.33.71,4a2.05,2.05,0,0,0,1.73,1,2.09,2.09,0,0,0,1.74-1,7.76,7.76,0,0,0,.7-4c0-2-.24-3.33-.7-4a2.1,2.1,0,0,0-1.75-1,1.92,1.92,0,0,0-1.65.87A7.65,7.65,0,0,0,152.51,68.14Z" transform="translate(-109.91 -43.48)"/><path d="M160.42,63.35V62.21h3.52v1.14Zm10.5-4.24-1.14.1a2.3,2.3,0,0,0-.42-1,1.63,1.63,0,0,0-2.11-.17,2.6,2.6,0,0,0-.85,1.14,6,6,0,0,0-.33,2.16,2.56,2.56,0,0,1,1-.93,2.67,2.67,0,0,1,1.26-.31,2.57,2.57,0,0,1,1.94.84,3,3,0,0,1,.81,2.18,3.58,3.58,0,0,1-.38,1.62,2.84,2.84,0,0,1-1,1.15,2.81,2.81,0,0,1-1.5.4,2.93,2.93,0,0,1-2.33-1,5.31,5.31,0,0,1-.91-3.47,6.25,6.25,0,0,1,1-3.92,2.89,2.89,0,0,1,2.35-1.06,2.55,2.55,0,0,1,1.79.62A2.62,2.62,0,0,1,170.92,59.11Zm-4.67,4a2.62,2.62,0,0,0,.25,1.13,1.83,1.83,0,0,0,.7.82,1.75,1.75,0,0,0,1,.28,1.59,1.59,0,0,0,1.24-.58,2.31,2.31,0,0,0,.53-1.59,2.11,2.11,0,0,0-.52-1.52,1.68,1.68,0,0,0-1.29-.56,1.78,1.78,0,0,0-1.33.56A2,2,0,0,0,166.25,63.13Z" transform="translate(-109.91 -43.48)"/><path d="M123.8,296.25l.22-1.54a1.49,1.49,0,0,0,1-.54,2.65,2.65,0,0,0,.44-1.61,2.78,2.78,0,0,0-.45-1.69,2.14,2.14,0,0,0-1.22-.81,10.58,10.58,0,0,0-2-.12,3.29,3.29,0,0,1,1.22,2.59,3.54,3.54,0,0,1-1.39,3,5.38,5.38,0,0,1-3.33,1.05,6.22,6.22,0,0,1-2.47-.48,3.82,3.82,0,0,1-1.74-1.41,3.7,3.7,0,0,1-.62-2.15,3.33,3.33,0,0,1,1.34-2.72h-1.12v-1.47h8.06a7.52,7.52,0,0,1,3.09.45,3.17,3.17,0,0,1,1.43,1.4,4.89,4.89,0,0,1,.53,2.37,4.49,4.49,0,0,1-.75,2.7A2.53,2.53,0,0,1,123.8,296.25Zm-5.61-1.31a4.06,4.06,0,0,0,2.67-.73,2.42,2.42,0,0,0,0-3.66,3.94,3.94,0,0,0-2.64-.74,3.86,3.86,0,0,0-2.58.76,2.36,2.36,0,0,0-.87,1.84,2.3,2.3,0,0,0,.86,1.79A3.82,3.82,0,0,0,118.19,294.94Zm8.61-12.18a16.29,16.29,0,0,1-3.86,2.2,12.12,12.12,0,0,1-4.6.9,11.91,11.91,0,0,1-4-.67,17.07,17.07,0,0,1-4.43-2.43v-1.15c1.22.71,2.08,1.18,2.61,1.41a14.44,14.44,0,0,0,2.53.84,14.94,14.94,0,0,0,3.31.38,15.9,15.9,0,0,0,8.44-2.63Z" transform="translate(-109.91 -43.48)"/><path d="M123.22,276.52a2.86,2.86,0,0,1-.41,1.52,2.68,2.68,0,0,1-1.09,1,3.31,3.31,0,0,1-1.55.36,4.74,4.74,0,0,1-2.41-.68,5.55,5.55,0,0,1-2-1.81,4.2,4.2,0,0,1-.75-2.37,2.76,2.76,0,0,1,.48-1.61,3,3,0,0,1,1.27-1.06,4.1,4.1,0,0,1,1.71-.36h1.2a11.86,11.86,0,0,0-1.77-1,9.27,9.27,0,0,0-1.9-.65.14.14,0,0,1-.11-.14v-.22a.15.15,0,0,1,.17-.17l0,0a11.24,11.24,0,0,1,1.58.52,12.09,12.09,0,0,1,1.48.75,8.39,8.39,0,0,1,1.3.92c1.49,0,2.23-.17,2.23-.52a.77.77,0,0,0-.2-.54,2,2,0,0,0-.5-.39c-.19-.11-.28-.18-.28-.21v-.22c0-.09,0-.14.17-.14a1.15,1.15,0,0,1,.86.52,1.6,1.6,0,0,1,.42,1,1.5,1.5,0,0,1-.42,1.09,2.21,2.21,0,0,1-1.1.59,6.78,6.78,0,0,1,1.12,1.82A5.2,5.2,0,0,1,123.22,276.52Zm-.47,0a5.48,5.48,0,0,0-1.59-3.69l-.25,0-.18,0h-2c-2.17,0-3.25.58-3.25,1.75a2.41,2.41,0,0,0,.9,1.85,5.9,5.9,0,0,0,2.15,1.18,7.48,7.48,0,0,0,2.3.4,2.13,2.13,0,0,0,1.32-.4A1.3,1.3,0,0,0,122.75,276.49Z" transform="translate(-109.91 -43.48)"/><path d="M126.8,265.92v1.13a15.9,15.9,0,0,0-8.44-2.63,14.55,14.55,0,0,0-3.28.38,13.65,13.65,0,0,0-2.53.84q-.8.35-2.64,1.41v-1.13a16.87,16.87,0,0,1,4.43-2.45,12.17,12.17,0,0,1,8.6.24A15.65,15.65,0,0,1,126.8,265.92Z" transform="translate(-109.91 -43.48)"/><path d="M382.81,52.66V50.49h5.61v5.12a6.94,6.94,0,0,1-2.36,1.4,8.7,8.7,0,0,1-3.14.6,7,7,0,0,1-3.53-.85,5.51,5.51,0,0,1-2.26-2.42,7.86,7.86,0,0,1-.75-3.43,7.42,7.42,0,0,1,.84-3.58,5.75,5.75,0,0,1,2.47-2.41,6.8,6.8,0,0,1,3.09-.64,6.13,6.13,0,0,1,3.74,1,4.57,4.57,0,0,1,1.75,2.79l-2.6.48a2.68,2.68,0,0,0-1-1.5,3.14,3.14,0,0,0-1.88-.54,3.53,3.53,0,0,0-2.71,1.08,4.52,4.52,0,0,0-1,3.2,5,5,0,0,0,1,3.44,3.39,3.39,0,0,0,2.67,1.15,4.3,4.3,0,0,0,1.63-.32,5.23,5.23,0,0,0,1.42-.79V52.66Zm16.5,0,2.53.8a5.68,5.68,0,0,1-1.93,3.13,6.08,6.08,0,0,1-7.64-.73,6.71,6.71,0,0,1-1.65-4.8,7.05,7.05,0,0,1,1.66-5,5.68,5.68,0,0,1,4.36-1.78,5.32,5.32,0,0,1,3.84,1.41,5,5,0,0,1,1.33,2.37l-2.58.61a2.77,2.77,0,0,0-1-1.57,2.72,2.72,0,0,0-1.76-.58,3,3,0,0,0-2.33,1,5.08,5.08,0,0,0-.89,3.34,5.42,5.42,0,0,0,.88,3.47,2.86,2.86,0,0,0,2.29,1,2.6,2.6,0,0,0,1.78-.66A3.77,3.77,0,0,0,399.31,52.66Zm8.27,4.73L403,44.5h2.83l3.26,9.55,3.16-9.55H415l-4.61,12.89Zm18.1,3.78H424a16.86,16.86,0,0,1-2-4.21,13.8,13.8,0,0,1-.71-4.24,13.28,13.28,0,0,1,.88-4.8A16.85,16.85,0,0,1,424,44.28h1.69A26.45,26.45,0,0,0,424,48.82a17.47,17.47,0,0,0-.44,4,16.77,16.77,0,0,0,.27,2.95,19,19,0,0,0,.73,2.88A26,26,0,0,0,425.68,61.17Zm2-3.78V44.5h8.83v2.19h-6.23v3.05h5.39v2.18h-5.39v5.47ZM438.87,46.8V44.5h2.47v2.3Zm0,10.59V48.06h2.47v9.33Zm7.45,0h-2.47V48.06h2.29v1.33a3.91,3.91,0,0,1,1.06-1.25,2,2,0,0,1,1.07-.29,3.11,3.11,0,0,1,1.62.46l-.76,2.16a2.18,2.18,0,0,0-1.16-.41,1.39,1.39,0,0,0-.88.29,1.79,1.79,0,0,0-.57,1,14.62,14.62,0,0,0-.2,3.12Zm3.89-2.65,2.48-.39a1.84,1.84,0,0,0,.64,1.09,2.17,2.17,0,0,0,1.35.37,2.5,2.5,0,0,0,1.45-.34.79.79,0,0,0,.31-.66.67.67,0,0,0-.17-.46,2,2,0,0,0-.83-.33,13,13,0,0,1-3.78-1.21,2.39,2.39,0,0,1-1.11-2.1,2.6,2.6,0,0,1,1-2,4.47,4.47,0,0,1,3-.82,5.15,5.15,0,0,1,2.85.62,3.24,3.24,0,0,1,1.29,1.84l-2.32.44a1.52,1.52,0,0,0-.57-.83,2,2,0,0,0-1.2-.29,2.79,2.79,0,0,0-1.39.26.6.6,0,0,0-.28.5.56.56,0,0,0,.25.46,9.39,9.39,0,0,0,2.29.69,7,7,0,0,1,2.77,1.1,2.29,2.29,0,0,1,.77,1.83,2.84,2.84,0,0,1-1.07,2.21,4.75,4.75,0,0,1-3.18.93,5.18,5.18,0,0,1-3-.78A3.6,3.6,0,0,1,450.21,54.74Zm15.34-6.68v2h-1.69v3.75a9.84,9.84,0,0,0,.05,1.34.49.49,0,0,0,.22.31.7.7,0,0,0,.42.12,3.2,3.2,0,0,0,1-.24l.22,1.93a4.88,4.88,0,0,1-1.95.37,2.94,2.94,0,0,1-1.21-.23,1.7,1.7,0,0,1-.79-.58,2.34,2.34,0,0,1-.35-1,12.68,12.68,0,0,1-.07-1.73V50h-1.14v-2h1.14V46.21l2.48-1.44v3.29Zm1.53,5.9V51.49h4.85V54Zm5.81-1.36a5.1,5.1,0,0,1,.6-2.39,4.21,4.21,0,0,1,1.72-1.75,5,5,0,0,1,2.49-.61,4.67,4.67,0,0,1,3.47,1.37,5.16,5.16,0,0,1,0,7,4.59,4.59,0,0,1-3.45,1.4,5.34,5.34,0,0,1-2.44-.58,4.09,4.09,0,0,1-1.78-1.71A5.67,5.67,0,0,1,472.89,52.6Zm2.53.12a3.09,3.09,0,0,0,.66,2.13,2.12,2.12,0,0,0,3.24,0,3.12,3.12,0,0,0,.66-2.14,3,3,0,0,0-.66-2.11,2.14,2.14,0,0,0-3.24,0A3.06,3.06,0,0,0,475.42,52.72ZM487,57.39h-2.47V48.06h2.3v1.33a3.79,3.79,0,0,1,1.05-1.25,2,2,0,0,1,1.07-.29,3.15,3.15,0,0,1,1.63.46l-.77,2.16a2.18,2.18,0,0,0-1.16-.41,1.41,1.41,0,0,0-.88.29,1.91,1.91,0,0,0-.57,1,15.35,15.35,0,0,0-.2,3.12Zm13.33,0H498V56a3.71,3.71,0,0,1-1.35,1.19,3.36,3.36,0,0,1-1.57.4,3.56,3.56,0,0,1-2.76-1.3,5.29,5.29,0,0,1-1.15-3.62,5.24,5.24,0,0,1,1.12-3.61,3.66,3.66,0,0,1,2.82-1.23,3.55,3.55,0,0,1,2.72,1.29V44.5h2.47Zm-6.6-4.87a4.37,4.37,0,0,0,.41,2.17,1.86,1.86,0,0,0,1.67,1,1.81,1.81,0,0,0,1.46-.73,3.37,3.37,0,0,0,.59-2.16,3.64,3.64,0,0,0-.58-2.32,1.8,1.8,0,0,0-1.48-.71,1.85,1.85,0,0,0-1.47.69A3.14,3.14,0,0,0,493.74,52.52Zm14.63,1.9,2.45.41a4,4,0,0,1-1.49,2.07,4.43,4.43,0,0,1-2.57.71,4.16,4.16,0,0,1-3.6-1.59,5.42,5.42,0,0,1-.92-3.22,5.19,5.19,0,0,1,1.21-3.64,4,4,0,0,1,3.07-1.31,4.14,4.14,0,0,1,3.29,1.37A6.14,6.14,0,0,1,511,53.44h-6.19a2.43,2.43,0,0,0,.59,1.7,1.87,1.87,0,0,0,1.43.61,1.53,1.53,0,0,0,1-.31A2,2,0,0,0,508.37,54.42Zm.14-2.5a2.4,2.4,0,0,0-.56-1.63,1.73,1.73,0,0,0-1.29-.55,1.64,1.64,0,0,0-1.32.59,2.25,2.25,0,0,0-.53,1.59Zm7,5.47H513V48.06h2.29v1.33a3.91,3.91,0,0,1,1.06-1.25,2,2,0,0,1,1.07-.29,3.11,3.11,0,0,1,1.62.46l-.76,2.16a2.18,2.18,0,0,0-1.16-.41,1.39,1.39,0,0,0-.88.29,1.79,1.79,0,0,0-.57,1,14.62,14.62,0,0,0-.2,3.12Zm4.08,3.78c.48-1,.83-1.84,1-2.39a17.88,17.88,0,0,0,.54-1.93,19,19,0,0,0,.38-2.07,16.4,16.4,0,0,0,.12-2,17.47,17.47,0,0,0-.44-4,27,27,0,0,0-1.65-4.54h1.67a16,16,0,0,1,2.06,4A13.06,13.06,0,0,1,524,52.6a14.73,14.73,0,0,1-.58,3.93,16.23,16.23,0,0,1-2.17,4.64Z" transform="translate(-109.91 -43.48)"/><path class="cls-3" d="M691.89,113.68l-.51,2.45-.52,2.53-.51,2.61-.51,2.69-.52,2.77-.51,2.85-.51,2.94-.52,3-.51,3.09-.51,3.16-.52,3.24-.51,3.31-.51,3.38-.52,3.45-.51,3.51-.51,3.58-.52,3.65-.51,3.7-.51,3.76-.52,3.81-.51,3.87L680.6,185l-.52,4-.51,4-.51,4-.52,4.09-.51,4.12-.51,4.16-.52,4.19-.51,4.21L676,222l-.52,4.26-.51,4.27-.51,4.28-.52,4.3-.51,4.29-.51,4.3-.52,4.29-.51,4.28-.51,4.27-.52,4.24-.51,4.22-.51,4.19-.52,4.14-.51,4.09-.51,4-.52,4-.51,3.9-.51,3.82-.52,3.74-.51,3.63-.51,3.53-.52,3.42-.51,3.3-.51,3.16-.52,3-.51,2.89-.51,2.75-.52,2.6-.51,2.45-.52,2.29-.51,2.15-.51,2L659,340l-.51,1.72-.51,1.59-.52,1.47-.51,1.35-.51,1.23-.52,1.14-.51,1-.51,1-.52.88-.51.8-.51.75-.52.69-.51.65-.51.6-.52.56-.51.54-.51.51-.52.49-.51.48-.51.46-.52.46-.51.45-.51.46-.52.46-.51.46-.51.47-.52.49-.51.5-.51.51-.52.54-.51.56-.51.58-.52.6-.51.64-.51.66-.52.7-.51.73-.51.77-.52.8-.51.84-.51.89-.52.93-.51,1-.51,1-.52,1.07-.51,1.11-.51,1.16-.52,1.21-.51,1.26-.51,1.32-.52,1.36-.51,1.42-.51,1.46-.52,1.52-.51,1.56-.52,1.61-.51,1.66-.51,1.71-.52,1.74-.51,1.78-.51,1.82L627.2,400l-.51,1.88-.51,1.9-.52,1.92-.51,1.93-.51,1.93-.52,1.94-.51,1.93-.51,1.91-.52,1.9-.51,1.87-.51,1.84-.52,1.8-.51,1.75-.51,1.7-.52,1.64L619,429.4l-.51,1.51-.52,1.45-.51,1.37-.51,1.3-.52,1.23-.51,1.15-.51,1.07-.52,1-.51.92-.51.85-.52.79-.51.71-.51.66-.52.6-.51.54-.51.49-.52.44-.51.4-.51.35-.52.32-.51.29-.51.25-.52.23-.51.2-.51.17-.52.16-.51.14-.51.12-.52.11-.51.09-.51.08-.52.08-.51.06-.51.05-.52.05-.51,0-.52,0-.51,0-.51,0-.52,0h-.51l-.51,0H584.08l-.51,0h-.52l-.51,0H582l-.52,0-.51,0h-.51l-.52,0-.51,0-.51,0-.52,0-.51,0-.51,0-.52,0-.51,0-.51,0-.52,0-.51,0-.51,0-.52,0-.51,0-.51,0-.52,0-.51-.05-.51,0-.52-.05-.51,0-.52-.05-.51-.05-.51-.06-.52-.05-.51-.06-.51-.06-.52-.06-.51-.06-.51-.07-.52-.06-.51-.07-.51-.07-.52-.07-.51-.07-.51-.07L562,447l-.51-.07-.51-.07-.52-.07-.51-.07-.51-.08-.52-.07-.51-.07-.51-.07-.52-.07-.51-.06-.51-.07-.52-.07-.51-.06-.51-.06-.52-.06-.51-.06-.51-.06-.52-.06-.51,0-.51-.06-.52-.05-.51-.05-.51,0-.52,0-.51,0-.51-.05-.52,0-.51,0-.51,0-.52,0-.51,0-.51,0-.52,0-.51,0-.51,0-.52,0-.51,0-.51,0-.52,0-.51,0-.51,0h-.52l-.51,0-.52,0h-.51l-.51,0h-.52l-.51,0H511.18l-.51,0h-1l-.51,0h-.52l-.51,0-.52,0-.51,0-.51,0-.52,0-.51,0-.51,0-.52,0-.51,0-.51,0-.52,0-.51,0-.51,0-.52,0-.51,0-.51,0-.52,0-.51,0-.51,0-.52,0-.51,0-.51-.05-.52-.05-.51,0-.51-.05-.52-.06-.51-.05-.51-.05-.52-.06-.51-.06-.51-.06-.52,0-.51-.06-.51-.06-.52-.07-.51-.06-.51-.06-.52-.06-.51-.06-.51-.06-.52-.06-.51-.07-.51-.06-.52-.05-.51-.06-.51-.06-.52-.06-.51-.05-.51-.06-.52-.05-.51,0-.51-.05-.52-.05-.51,0-.51,0-.52,0-.51,0-.51,0-.52,0-.51,0-.52,0-.51,0-.51,0-.52,0-.51,0-.51,0-.52,0-.51,0-.51,0-.52,0-.51,0-.51,0-.52,0-.51,0h-.51l-.52,0h-.51l-.51,0h-1l-.51,0H422.88l-.52,0h-.51l-.51,0-.52,0-.51,0-.51,0-.52,0-.51,0-.51,0-.52,0-.51,0-.52,0-.51,0-.51,0-.52,0-.51,0-.51,0-.52,0-.51,0-.51,0-.52,0-.51,0-.51-.05-.52,0-.51,0-.51,0-.52,0-.51,0-.51,0-.52,0-.51,0-.51,0-.52,0-.51,0-.51,0-.52,0-.51,0-.51,0-.52,0-.51,0-.51,0-.52,0-.51,0-.51,0-.52,0-.51,0-.51,0-.52,0h-.51l-.51,0h-.52l-.51,0H368.46l-.52,0h-.51l-.51,0h-.52l-.51,0h-.51l-.52,0-.51,0-.51,0-.52,0-.51,0-.51,0-.52,0-.51,0-.51,0-.52,0-.51,0-.51,0-.52,0-.51,0-.51,0-.52,0-.51,0-.52,0-.51,0-.51,0-.52,0-.51,0-.51,0-.52,0-.51,0-.51,0-.52,0-.51,0-.51,0-.52,0-.51,0-.51,0h-4.62l-.52,0h-.51l-.51,0h-.52l-.51,0-.51,0-.52,0-.51,0-.51,0-.52,0-.51,0-.51,0-.52,0-.51,0-.51,0-.52,0-.51,0-.51,0-.52,0-.51,0-.51,0-.52,0-.51,0-.51,0-.52,0-.51,0-.51,0-.52,0-.51,0-.51,0-.52,0-.51,0-.51,0-.52,0-.51,0-.52,0-.51,0h-.51l-.52,0-.51,0-.51,0h-.52l-.51,0h-1l-.51,0h-21l-.51,0h-.51l-.52,0h-.51l-.51,0-.52,0-.51,0-.51,0-.52,0-.51,0-.52,0-.51,0-.51,0-.52,0-.51,0-.51,0-.52,0-.51,0-.51,0-.52,0-.51.05-.51.05-.52.05-.51.05-.51.06-.52.06-.51.06-.51.07-.52.07-.51.07-.51.07-.52.08-.51.08-.51.08-.52.09-.51.09-.51.09-.52.1-.51.09-.51.1-.52.11-.51.1-.51.1-.52.11-.51.11-.51.11-.52.1-.51.11-.51.11-.52.1-.51.11-.51.1-.52.1-.51.1-.51.09-.52.09-.51.09-.51.08-.52.08-.51.07-.51.07-.52.06-.51.05-.51.05-.52.05-.51,0-.51,0-.52,0-.51,0-.52,0h-3.59l-.51,0h-.52l-.51,0-.51,0-.52,0-.51,0-.51,0-.52,0-.51,0-.51,0-.52,0-.51,0-.51,0-.52,0-.51,0-.51,0-.52,0-.51,0-.51,0-.52,0-.51,0-.51,0-.52,0-.51,0h-.51l-.52,0-.51,0h-.51l-.52,0h-.51l-.51,0H215.47l-.52,0h-1l-.52,0h-.51l-.51,0-.52,0h-.51l-.51,0-.52,0-.51,0-.51,0-.52,0-.51,0-.51,0-.52,0-.51,0-.51,0-.52,0-.51,0-.51,0-.52,0-.51-.05-.52,0-.51,0-.51-.05-.52-.06-.51-.05-.51-.06-.52-.06-.51-.07-.51-.07-.52-.07-.51-.08-.51-.07-.52-.09-.51-.08-.51-.09-.52-.09-.51-.1-.51-.1-.52-.1-.51-.11-.51-.11-.52-.11-.51-.11-.51-.12-.52-.13-.51-.12-.51-.13-.52-.13-.51-.13-.51-.14-.52-.14-.51-.14-.51-.14-.52-.14-.51-.15-.51-.14-.52-.15-.51-.15-.51-.15-.52-.15-.51-.15-.51-.15-.52-.15-.51-.15-.51-.15-.52-.15-.51-.15-.51-.15" transform="translate(-109.91 -43.48)"/><circle class="cls-4" cx="482.9" cy="405.39" r="6.67"/><line class="cls-3" x1="482.9" y1="449.71" x2="482.9" y2="405.39"/><circle class="cls-5" cx="482.9" cy="405.39" r="4.17"/><circle class="cls-6" cx="482.9" cy="405.39" r="4.17"/><path class="cls-7" d="M594.47,391.47v53l0,.19,0,.19,0,.19.06.18.07.18.08.18.09.17.1.16.11.16.12.15.13.14.14.13.15.12.16.11.16.1.17.09.17.08.18.07.19.05.19,0,.18,0,.2,0H712.4l.19,0,.19,0,.19,0,.18-.05.18-.07.17-.08.17-.09.17-.1.15-.11.15-.12.14-.13.13-.14.12-.15.12-.16.1-.16.09-.17.08-.18.07-.18,0-.18,0-.19,0-.19V391.09l0-.19,0-.19,0-.18-.07-.18-.08-.18-.09-.16-.1-.17-.12-.15-.12-.15-.13-.14-.14-.13-.15-.13-.15-.11-.17-.1-.17-.09-.17-.08-.18-.07-.18-.05-.19-.05-.19,0-.19,0H597.22l-.2,0-.18,0-.19.05-.19.05-.18.07-.17.08-.17.09-.16.1-.16.11-.15.13-.14.13-.13.14-.12.15-.11.15-.1.17-.09.16-.08.18-.07.18-.06.18,0,.19,0,.19,0,.19Z" transform="translate(-109.91 -43.48)"/><path class="cls-8" d="M594.47,444.27v.19l0,.19,0,.19,0,.19.06.18.07.18.08.18.09.17.1.16.11.16.12.15.13.14.14.13.15.12.16.11.16.1.17.09.17.08.18.07.19.05.19,0,.18,0,.2,0H712.4l.19,0,.19,0,.19,0,.18-.05.18-.07.17-.08.17-.09.17-.1.15-.11.15-.12.14-.13.13-.14.12-.15.12-.16.1-.16.09-.17.08-.18.07-.18,0-.18,0-.19,0-.19V391.09l0-.19,0-.19,0-.18-.07-.18-.08-.18-.09-.16-.1-.17-.12-.15-.12-.15-.13-.14-.14-.13-.15-.13-.15-.11-.17-.1-.17-.09-.17-.08-.18-.07-.18-.05-.19-.05-.19,0-.19,0H597.22l-.2,0-.18,0-.19.05-.19.05-.18.07-.17.08-.17.09-.16.1-.16.11-.15.13-.14.13-.13.14-.12.15-.11.15-.1.17-.09.16-.08.18-.07.18-.06.18,0,.19,0,.19,0,.19v53Z" transform="translate(-109.91 -43.48)"/><path class="cls-9" d="M603.09,414.14l4.71-6.34L603.64,402h1.92l2.21,3.13a14.32,14.32,0,0,1,1,1.5,12.16,12.16,0,0,1,1-1.39l2.44-3.24h1.76l-4.28,5.74,4.61,6.43h-2l-3.06-4.34c-.17-.25-.35-.52-.53-.81-.27.44-.47.75-.58.92L605,414.14Z" transform="translate(-109.91 -43.48)"/><path class="cls-10" d="M623.69,401.92a3.31,3.31,0,0,1,2.75,1.27q1.18,1.49,1.19,4.95t-1.19,5a3.35,3.35,0,0,1-2.75,1.24,3.48,3.48,0,0,1-2.87-1.37c-.72-.91-1.09-2.54-1.09-4.87s.4-3.94,1.19-4.94A3.34,3.34,0,0,1,623.69,401.92Zm0,1.94a1.19,1.19,0,0,0-.77.27,1.76,1.76,0,0,0-.51,1,13.34,13.34,0,0,0-.24,3,12.73,12.73,0,0,0,.22,2.94,2.14,2.14,0,0,0,.54,1.06,1.19,1.19,0,0,0,1.51,0,1.76,1.76,0,0,0,.51-1,13.12,13.12,0,0,0,.24-3,13.59,13.59,0,0,0-.21-2.94,2,2,0,0,0-.54-1.07A1.15,1.15,0,0,0,623.69,403.86Zm5.81,10.28v-2.33h2.33v2.33Zm8.08-12.22a3.3,3.3,0,0,1,2.75,1.27q1.18,1.49,1.19,4.95t-1.19,5a3.33,3.33,0,0,1-2.75,1.24,3.5,3.5,0,0,1-2.87-1.37c-.72-.91-1.08-2.54-1.08-4.87s.39-3.94,1.18-4.94A3.34,3.34,0,0,1,637.58,401.92Zm0,1.94a1.19,1.19,0,0,0-.77.27,1.76,1.76,0,0,0-.51,1,19.56,19.56,0,0,0,0,6,2.14,2.14,0,0,0,.54,1.06,1.19,1.19,0,0,0,1.51,0,1.76,1.76,0,0,0,.51-1,13.12,13.12,0,0,0,.24-3,13.59,13.59,0,0,0-.21-2.94,2,2,0,0,0-.54-1.07A1.15,1.15,0,0,0,637.58,403.86Zm9.26-1.94a3.29,3.29,0,0,1,2.75,1.27q1.18,1.49,1.19,4.95t-1.19,5a3.32,3.32,0,0,1-2.75,1.24A3.5,3.5,0,0,1,644,413c-.72-.91-1.08-2.54-1.08-4.87s.39-3.94,1.19-4.94A3.31,3.31,0,0,1,646.84,401.92Zm0,1.94a1.16,1.16,0,0,0-.76.27,1.83,1.83,0,0,0-.52,1,13.49,13.49,0,0,0-.23,3,12.73,12.73,0,0,0,.22,2.94,2.07,2.07,0,0,0,.53,1.06,1.19,1.19,0,0,0,1.51,0,1.83,1.83,0,0,0,.52-1,13.88,13.88,0,0,0,.23-3,13.59,13.59,0,0,0-.21-2.94,2,2,0,0,0-.54-1.07A1.15,1.15,0,0,0,646.84,403.86Zm9.27-1.94a3.31,3.31,0,0,1,2.75,1.27q1.18,1.49,1.18,4.95t-1.18,5a3.35,3.35,0,0,1-2.75,1.24,3.48,3.48,0,0,1-2.87-1.37c-.73-.91-1.09-2.54-1.09-4.87s.4-3.94,1.19-4.94A3.34,3.34,0,0,1,656.11,401.92Zm0,1.94a1.17,1.17,0,0,0-.77.27,1.83,1.83,0,0,0-.52,1,14.12,14.12,0,0,0-.23,3,12.73,12.73,0,0,0,.22,2.94,2,2,0,0,0,.54,1.06,1.12,1.12,0,0,0,.76.27,1.15,1.15,0,0,0,.75-.27,1.83,1.83,0,0,0,.51-1,13.12,13.12,0,0,0,.24-3,12.79,12.79,0,0,0-.22-2.94,2.07,2.07,0,0,0-.53-1.07A1.15,1.15,0,0,0,656.11,403.86ZM669.29,412v2.17h-8.17a5.68,5.68,0,0,1,.8-2.33,16.68,16.68,0,0,1,2.62-2.92,18.13,18.13,0,0,0,1.94-2,2.58,2.58,0,0,0,.48-1.44,1.46,1.46,0,0,0-1.58-1.61,1.56,1.56,0,0,0-1.16.44,2.26,2.26,0,0,0-.51,1.45l-2.31-.22a3.82,3.82,0,0,1,1.3-2.77,4.35,4.35,0,0,1,2.73-.84,4,4,0,0,1,2.84,1,3.22,3.22,0,0,1,1,2.42,4.32,4.32,0,0,1-.29,1.56,6.05,6.05,0,0,1-.93,1.55,13.7,13.7,0,0,1-1.53,1.57c-.74.67-1.2,1.12-1.4,1.34a4.16,4.16,0,0,0-.47.64Zm9.26,0v2.17h-8.17a5.7,5.7,0,0,1,.81-2.33,16.12,16.12,0,0,1,2.61-2.92,17.17,17.17,0,0,0,1.94-2,2.6,2.6,0,0,0,.49-1.44,1.47,1.47,0,0,0-1.58-1.61,1.58,1.58,0,0,0-1.17.44,2.32,2.32,0,0,0-.5,1.45l-2.32-.22a3.82,3.82,0,0,1,1.3-2.77,4.35,4.35,0,0,1,2.73-.84,4,4,0,0,1,2.84,1,3.22,3.22,0,0,1,1,2.42,4.31,4.31,0,0,1-.28,1.56,6.69,6.69,0,0,1-.93,1.55A15,15,0,0,1,675.8,410c-.74.67-1.2,1.12-1.39,1.34a3.68,3.68,0,0,0-.48.64Zm3.39-4.39a2.61,2.61,0,0,1-1.72-2.52,3,3,0,0,1,.95-2.25,4.54,4.54,0,0,1,5.4,0,3,3,0,0,1,.95,2.25,2.62,2.62,0,0,1-.44,1.5,2.83,2.83,0,0,1-1.23,1,3.23,3.23,0,0,1,1.54,1.19,3.13,3.13,0,0,1,.52,1.79,3.71,3.71,0,0,1-1.07,2.75,3.91,3.91,0,0,1-2.87,1.05,4.29,4.29,0,0,1-2.75-.87,3.42,3.42,0,0,1-1.31-2.83,3.53,3.53,0,0,1,.49-1.81A3.07,3.07,0,0,1,681.94,407.58Zm.49-2.36a1.43,1.43,0,0,0,.4,1.09,1.58,1.58,0,0,0,2.1,0,1.43,1.43,0,0,0,.4-1.09,1.42,1.42,0,0,0-.39-1.05,1.38,1.38,0,0,0-1-.4,1.42,1.42,0,0,0-1.07.4A1.39,1.39,0,0,0,682.43,405.22Zm-.22,5.22a2.15,2.15,0,0,0,.49,1.51,1.61,1.61,0,0,0,1.24.54,1.56,1.56,0,0,0,1.2-.53,2.12,2.12,0,0,0,.47-1.49,1.92,1.92,0,0,0-.48-1.37,1.58,1.58,0,0,0-1.22-.52,1.48,1.48,0,0,0-1.28.59A2.13,2.13,0,0,0,682.21,410.44Zm7,.89,2.27-.25a1.56,1.56,0,0,0,.43,1,1.25,1.25,0,0,0,.93.34,1.48,1.48,0,0,0,1.22-.66,5.64,5.64,0,0,0,.65-2.76,2.83,2.83,0,0,1-2.2,1,3.29,3.29,0,0,1-2.48-1.11,4.55,4.55,0,0,1,.06-5.86,3.7,3.7,0,0,1,2.79-1.14,3.8,3.8,0,0,1,3.05,1.43c.79,1,1.19,2.53,1.19,4.71s-.41,3.84-1.24,4.82a4,4,0,0,1-3.23,1.48,3.36,3.36,0,0,1-2.3-.76A3.65,3.65,0,0,1,689.25,411.33Zm5.28-5.09a2.7,2.7,0,0,0-.51-1.76,1.56,1.56,0,0,0-1.2-.62,1.36,1.36,0,0,0-1.08.51,2.61,2.61,0,0,0-.42,1.66,2.7,2.7,0,0,0,.46,1.75,1.47,1.47,0,0,0,1.16.55,1.44,1.44,0,0,0,1.13-.53A2.32,2.32,0,0,0,694.53,406.24Zm3.94-1.94v-2.16h8v1.69a12.93,12.93,0,0,0-2,2.79,16,16,0,0,0-1.57,3.87,13.92,13.92,0,0,0-.52,3.65h-2.25a15.61,15.61,0,0,1,1-5.15,17.29,17.29,0,0,1,2.62-4.69Z" transform="translate(-109.91 -43.48)"/><path class="cls-9" d="M607.75,435.14V430l-4.69-7h2l2.39,3.67c.45.69.86,1.38,1.24,2.07q.54-1,1.32-2.16l2.36-3.58h1.88l-4.86,7v5.15Z" transform="translate(-109.91 -43.48)"/><path class="cls-10" d="M619.66,431.91l2.25-.27a2.11,2.11,0,0,0,.58,1.32,1.62,1.62,0,0,0,1.15.45,1.55,1.55,0,0,0,1.21-.55,2.09,2.09,0,0,0,.49-1.47,2,2,0,0,0-.46-1.39,1.52,1.52,0,0,0-1.16-.51,3.84,3.84,0,0,0-1.06.17l.25-1.91a2,2,0,0,0,1.44-.4,1.48,1.48,0,0,0,.49-1.16,1.24,1.24,0,0,0-1.32-1.34,1.38,1.38,0,0,0-1,.41,2,2,0,0,0-.52,1.21l-2.15-.37a4.69,4.69,0,0,1,.67-1.76,3,3,0,0,1,1.27-1,4.25,4.25,0,0,1,1.81-.38,3.64,3.64,0,0,1,2.76,1.1,2.84,2.84,0,0,1,.85,2,2.88,2.88,0,0,1-1.75,2.55,2.84,2.84,0,0,1,1.67,1,2.9,2.9,0,0,1,.62,1.88,3.64,3.64,0,0,1-1.16,2.73,4.38,4.38,0,0,1-5.66.18A3.71,3.71,0,0,1,619.66,431.91Zm9.84,3.23v-2.33h2.33v2.33Zm12-2.17v2.17h-8.17a5.68,5.68,0,0,1,.8-2.33,16.68,16.68,0,0,1,2.62-2.92,18.13,18.13,0,0,0,1.94-2,2.58,2.58,0,0,0,.48-1.44,1.46,1.46,0,0,0-1.58-1.61,1.56,1.56,0,0,0-1.16.44,2.26,2.26,0,0,0-.51,1.45l-2.31-.22a3.82,3.82,0,0,1,1.3-2.77,4.35,4.35,0,0,1,2.73-.84,4,4,0,0,1,2.84,1,3.22,3.22,0,0,1,1,2.42,4.32,4.32,0,0,1-.29,1.56,6.05,6.05,0,0,1-.93,1.55,13.7,13.7,0,0,1-1.53,1.57c-.74.67-1.21,1.12-1.4,1.34a4.16,4.16,0,0,0-.47.64Zm3.39-4.39a2.72,2.72,0,0,1-1.31-1.05,2.78,2.78,0,0,1-.41-1.47,3,3,0,0,1,1-2.25,4.53,4.53,0,0,1,5.39,0,3,3,0,0,1,1,2.25,2.62,2.62,0,0,1-.44,1.5,2.83,2.83,0,0,1-1.23,1,3.2,3.2,0,0,1,1.53,1.19,3.14,3.14,0,0,1,.53,1.79,3.71,3.71,0,0,1-1.07,2.75,3.93,3.93,0,0,1-2.87,1.05,4.29,4.29,0,0,1-2.75-.87,3.67,3.67,0,0,1-.82-4.64A3.07,3.07,0,0,1,644.89,428.58Zm.48-2.36a1.47,1.47,0,0,0,.4,1.09,1.42,1.42,0,0,0,1.06.4,1.4,1.4,0,0,0,1-.4,1.43,1.43,0,0,0,.4-1.09,1.42,1.42,0,0,0-.39-1.05,1.39,1.39,0,0,0-1-.4,1.38,1.38,0,0,0-1.47,1.45Zm-.22,5.22a2.15,2.15,0,0,0,.5,1.51,1.59,1.59,0,0,0,1.24.54,1.53,1.53,0,0,0,1.19-.53,2.12,2.12,0,0,0,.48-1.49,1.92,1.92,0,0,0-.48-1.37,1.6,1.6,0,0,0-1.22-.52,1.47,1.47,0,0,0-1.28.59A2.14,2.14,0,0,0,645.15,431.44Zm7.05.89,2.26-.25a1.66,1.66,0,0,0,.43,1,1.29,1.29,0,0,0,.93.34,1.51,1.51,0,0,0,1.23-.66,5.64,5.64,0,0,0,.65-2.76,2.83,2.83,0,0,1-2.2,1,3.28,3.28,0,0,1-2.48-1.11,4.07,4.07,0,0,1-1-2.89,4.12,4.12,0,0,1,1.09-3,3.72,3.72,0,0,1,2.8-1.14,3.8,3.8,0,0,1,3,1.43c.79,1,1.19,2.53,1.19,4.71s-.42,3.84-1.25,4.82a4,4,0,0,1-3.22,1.48,3.4,3.4,0,0,1-2.31-.76A3.64,3.64,0,0,1,652.2,432.33Zm5.28-5.09a2.64,2.64,0,0,0-.52-1.76,1.53,1.53,0,0,0-1.2-.62,1.34,1.34,0,0,0-1.07.51,2.54,2.54,0,0,0-.43,1.66,2.69,2.69,0,0,0,.47,1.75,1.48,1.48,0,0,0,2.29,0A2.32,2.32,0,0,0,657.48,427.24Zm4,5.09,2.27-.25a1.56,1.56,0,0,0,.43,1,1.25,1.25,0,0,0,.93.34,1.48,1.48,0,0,0,1.22-.66A5.64,5.64,0,0,0,667,430a2.83,2.83,0,0,1-2.2,1,3.29,3.29,0,0,1-2.48-1.11,4.55,4.55,0,0,1,.06-5.86,3.7,3.7,0,0,1,2.79-1.14,3.8,3.8,0,0,1,3,1.43c.79,1,1.19,2.53,1.19,4.71s-.42,3.84-1.24,4.82a4,4,0,0,1-3.23,1.48,3.36,3.36,0,0,1-2.3-.76A3.65,3.65,0,0,1,661.46,432.33Zm5.28-5.09a2.7,2.7,0,0,0-.51-1.76,1.56,1.56,0,0,0-1.2-.62,1.36,1.36,0,0,0-1.08.51,2.61,2.61,0,0,0-.42,1.66,2.7,2.7,0,0,0,.46,1.75,1.47,1.47,0,0,0,1.16.55,1.44,1.44,0,0,0,1.13-.53A2.32,2.32,0,0,0,666.74,427.24Zm9.55,5.09,2.33.39a3.82,3.82,0,0,1-1.43,1.95,4.12,4.12,0,0,1-2.42.68,4,4,0,0,1-3.4-1.5,5.09,5.09,0,0,1-.86-3.05,4.88,4.88,0,0,1,1.14-3.43,3.74,3.74,0,0,1,2.89-1.24,3.94,3.94,0,0,1,3.11,1.29,5.78,5.78,0,0,1,1.09,4H672.9a2.32,2.32,0,0,0,.55,1.61,1.79,1.79,0,0,0,1.35.58,1.44,1.44,0,0,0,.93-.3A1.85,1.85,0,0,0,676.29,432.33Zm.12-2.34a2.24,2.24,0,0,0-.51-1.55,1.64,1.64,0,0,0-1.22-.53,1.58,1.58,0,0,0-1.25.56,2.19,2.19,0,0,0-.5,1.52Zm3.77,1.9v-2.33h4.58v2.33Zm11.28,3.25h-2.33v-8.79a8.12,8.12,0,0,1-3,1.78V426a6.66,6.66,0,0,0,2-1.13,4.31,4.31,0,0,0,1.46-1.95h1.89Zm9.26,0h-2.33v-8.79a8.16,8.16,0,0,1-3,1.78V426a6.62,6.62,0,0,0,2-1.13,4.31,4.31,0,0,0,1.46-1.95h1.89Z" transform="translate(-109.91 -43.48)"/><circle class="cls-11" cx="482.9" cy="405.39" r="3.33"/><circle class="cls-12" cx="482.9" cy="405.39" r="4.17"/><path class="cls-1" d="M808.32,495h543V67h-543Z" transform="translate(-109.91 -43.48)"/><line class="cls-2" x1="698.42" y1="451.48" x2="1241.42" y2="451.48"/><line class="cls-2" x1="698.42" y1="23.48" x2="1241.42" y2="23.48"/><line class="cls-2" x1="698.42" y1="451.48" x2="698.42" y2="446.05"/><line class="cls-2" x1="752.72" y1="451.48" x2="752.72" y2="446.05"/><line class="cls-2" x1="807.02" y1="451.48" x2="807.02" y2="446.05"/><line class="cls-2" x1="861.32" y1="451.48" x2="861.32" y2="446.05"/><line class="cls-2" x1="915.62" y1="451.48" x2="915.62" y2="446.05"/><line class="cls-2" x1="969.92" y1="451.48" x2="969.92" y2="446.05"/><line class="cls-2" x1="1024.22" y1="451.48" x2="1024.22" y2="446.05"/><line class="cls-2" x1="1078.52" y1="451.48" x2="1078.52" y2="446.05"/><line class="cls-2" x1="1132.82" y1="451.48" x2="1132.82" y2="446.05"/><line class="cls-2" x1="1187.12" y1="451.48" x2="1187.12" y2="446.05"/><line class="cls-2" x1="1241.42" y1="451.48" x2="1241.42" y2="446.05"/><line class="cls-2" x1="698.42" y1="23.48" x2="698.42" y2="28.91"/><line class="cls-2" x1="752.72" y1="23.48" x2="752.72" y2="28.91"/><line class="cls-2" x1="807.02" y1="23.48" x2="807.02" y2="28.91"/><line class="cls-2" x1="861.32" y1="23.48" x2="861.32" y2="28.91"/><line class="cls-2" x1="915.62" y1="23.48" x2="915.62" y2="28.91"/><line class="cls-2" x1="969.92" y1="23.48" x2="969.92" y2="28.91"/><line class="cls-2" x1="1024.22" y1="23.48" x2="1024.22" y2="28.91"/><line class="cls-2" x1="1078.52" y1="23.48" x2="1078.52" y2="28.91"/><line class="cls-2" x1="1132.82" y1="23.48" x2="1132.82" y2="28.91"/><line class="cls-2" x1="1187.12" y1="23.48" x2="1187.12" y2="28.91"/><line class="cls-2" x1="1241.42" y1="23.48" x2="1241.42" y2="28.91"/><text class="cls-13" transform="translate(693.42 475.15)">0</text><text class="cls-13" transform="translate(740.72 475.15)">0.1</text><text class="cls-13" transform="translate(795.02 475.15)">0.2</text><text class="cls-13" transform="translate(849.32 475.15)">0.3</text><text class="cls-13" transform="translate(903.62 475.15)">0.4</text><text class="cls-13" transform="translate(957.92 475.15)">0.5</text><text class="cls-13" transform="translate(1012.22 475.15)">0.6</text><text class="cls-13" transform="translate(1066.52 475.15)">0.7</text><text class="cls-13" transform="translate(1120.82 475.15)">0.8</text><text class="cls-13" transform="translate(1175.12 475.15)">0.9</text><text class="cls-13" transform="translate(1236.42 475.15)">1</text><text class="cls-14" transform="translate(964.92 499.81)">x</text><line class="cls-2" x1="698.42" y1="451.48" x2="698.42" y2="23.48"/><line class="cls-2" x1="1241.42" y1="451.48" x2="1241.42" y2="23.48"/><line class="cls-2" x1="698.42" y1="451.48" x2="703.85" y2="451.48"/><line class="cls-2" x1="698.42" y1="397.98" x2="703.85" y2="397.98"/><line class="cls-2" x1="698.42" y1="344.48" x2="703.85" y2="344.48"/><line class="cls-2" x1="698.42" y1="290.98" x2="703.85" y2="290.98"/><line class="cls-2" x1="698.42" y1="237.48" x2="703.85" y2="237.48"/><line class="cls-2" x1="698.42" y1="183.98" x2="703.85" y2="183.98"/><line class="cls-2" x1="698.42" y1="130.48" x2="703.85" y2="130.48"/><line class="cls-2" x1="698.42" y1="76.98" x2="703.85" y2="76.98"/><line class="cls-2" x1="698.42" y1="23.48" x2="703.85" y2="23.48"/><line class="cls-2" x1="1241.42" y1="451.48" x2="1235.99" y2="451.48"/><line class="cls-2" x1="1241.42" y1="397.98" x2="1235.99" y2="397.98"/><line class="cls-2" x1="1241.42" y1="344.48" x2="1235.99" y2="344.48"/><line class="cls-2" x1="1241.42" y1="290.98" x2="1235.99" y2="290.98"/><line class="cls-2" x1="1241.42" y1="237.48" x2="1235.99" y2="237.48"/><line class="cls-2" x1="1241.42" y1="183.98" x2="1235.99" y2="183.98"/><line class="cls-2" x1="1241.42" y1="130.48" x2="1235.99" y2="130.48"/><line class="cls-2" x1="1241.42" y1="76.98" x2="1235.99" y2="76.98"/><line class="cls-2" x1="1241.42" y1="23.48" x2="1235.99" y2="23.48"/><text class="cls-13" transform="translate(667.75 457.98)">0.3</text><text class="cls-13" transform="translate(667.75 404.48)">0.4</text><text class="cls-13" transform="translate(667.75 350.98)">0.5</text><text class="cls-13" transform="translate(667.75 297.48)">0.6</text><text class="cls-13" transform="translate(667.75 243.98)">0.7</text><text class="cls-13" transform="translate(667.75 190.48)">0.8</text><text class="cls-13" transform="translate(667.75 136.98)">0.9</text><text class="cls-13" transform="translate(681.75 83.48)">1</text><text class="cls-13" transform="translate(667.75 29.98)">1.1</text><text class="cls-14" transform="translate(657.75 255.98) rotate(-90)">m(x)</text><text class="cls-15" transform="translate(852.42 15.73)">Model by GCV (First-order)</text><path class="cls-3" d="M808.32,110.94h27.15v2.33h27.15v8h27.15v15.34h27.15v23.2h27.15v30.46h27.15v36.35h27.15v40.31h27.15v42h27.15v41.2h27.15v38H1107v32.71h27.15v25.61h27.15v17.31h27.15v8.49h54.3V465h27.15V452.94H1297V439.61h27.15v-9.77h27.15" transform="translate(-109.91 -43.48)"/></svg>