<?xml version = "1.0" encoding = "utf-8" standalone = "no"?><!DOCTYPE svg PUBLIC "-//W3C//DTD SVG 1.1//EN" "http://www.w3.org/Graphics/SVG/1.1/DTD/svg11.dtd">
<svg preserveAspectRatio = "xMinYMin meet" width = "100%" height = "100%" fill = "none" viewBox = "0 0 560.000 420.000"  version = "1.1" xmlns = "http://www.w3.org/2000/svg" xmlns:xlink = "http://www.w3.org/1999/xlink">
  <desc>Matlab Figure Converted by FIG2SVG</desc>
  <g id = "topgroup">
  <rect x = "0" y = "0" width = "560.000" height = "420.000" fill = "#ffffff" stroke = "none" />
  <g id  = "ID000000">
      <polygon fill = "#ffffff" fill-opacity = "1.000" stroke = "none" points = "74.491,371.133 505.109,371.133 505.109,31.500 74.491,31.500 "/>
      <polygon fill = "#ffffff" fill-opacity = "1.000" stroke = "none" points = "74.491,371.133 505.109,371.133 505.109,371.133 74.491,371.133 "/>
      <polygon fill = "#ffffff" fill-opacity = "1.000" stroke = "none" points = "74.491,371.133 74.491,371.133 74.491,31.500 74.491,31.500 "/>
    <g>
<g id = "ID000002" >
  <g transform = "translate(31.462,201.317)">
    <g transform = "rotate(-90.000)">
      <text x = "0.000" y = "-0.6em" font-family = "Helvetica" text-anchor = "end" dominant-baseline = "auto" font-size = "11.000pt" fill = "#262626"><tspan>s<tspan style = "baseline-shift:sub;font-size:65%%">2</tspan> / km</tspan></text>
    </g>
  </g>
</g>
<g id = "ID000003" >
  <g transform = "translate(289.800,394.575)">
    <g transform = "rotate(-0.000)">
      <text x = "0.000" y = "0.9em" font-family = "Helvetica" text-anchor = "middle" dominant-baseline = "auto" font-size = "11.000pt" fill = "#262626"><tspan>t<tspan style = "baseline-shift:sub;font-size:65%%">0</tspan> / s</tspan></text>
    </g>
  </g>
</g>
<g id = "ID000004" >
</g>
<g id = "ID000005" clip-path = "url(#ID000001)" >
      <polyline fill = "none" stroke-linecap = "square" stroke-linejoin = "round" stroke = "#0071bc" stroke-width = "0.500pt" stroke-dasharray = "none" stroke-opacity = "1.000" points = "376.981,199.629 322.335,196.434 304.708,195.462 296.090,194.997 290.964,194.723 287.545,194.542 285.087,194.412 283.221,194.314 281.747,194.236 280.544,194.173 279.536,194.121 278.673,194.076 277.920,194.036 277.252,194.002 276.651,193.970 276.104,193.942 275.599,193.916 275.128,193.891 274.685,193.868 274.263,193.846 273.859,193.826 273.467,193.805 273.085,193.786 272.708,193.766 272.334,193.747 271.960,193.727 271.583,193.708 271.200,193.688 270.807,193.668 270.400,193.647 269.976,193.625 269.530,193.602 269.055,193.578 268.545,193.552 267.992,193.523 267.384,193.492 266.706,193.458 265.941,193.419 265.062,193.374 264.033,193.321 262.800,193.259 261.285,193.182 259.358,193.084 256.805,192.955 253.225,192.776 247.793,192.506 238.490,192.048 218.781,191.105 152.289,188.193 74.491,193.358 203.695,201.799 232.413,203.414 244.339,204.064 250.868,204.414 255.008,204.634 257.884,204.787 260.013,204.899 261.664,204.986 262.991,205.055 264.089,205.113 265.020,205.161 265.824,205.203 266.532,205.240 267.164,205.273 267.736,205.303 268.261,205.330 268.748,205.355 269.205,205.379 269.636,205.401 270.049,205.423 270.447,205.443 270.833,205.463 271.213,205.483 271.587,205.502 271.961,205.521 272.336,205.541 272.716,205.560 273.103,205.580 273.503,205.601 273.918,205.622 274.352,205.644 274.812,205.668 275.303,205.693 275.834,205.721 276.413,205.750 277.054,205.783 277.772,205.820 278.590,205.862 279.539,205.910 280.662,205.967 282.024,206.036 283.724,206.122 285.929,206.234 288.928,206.385 293.286,206.602 300.260,206.948 313.321,207.583 346.480,209.127 505.109,214.440 376.981,199.629 "/>
</g>
  <clipPath id = "ID000001">
    <rect x = "74.491" y = "31.500" width = "430.619" height = "339.633"/>
  </clipPath>
    </g>
    <g>
      <polyline fill = "none" stroke-linecap = "square" stroke-linejoin = "miter" stroke = "#262626" stroke-width = "0.500pt" stroke-dasharray = "none" stroke-opacity = "1.000" points = "80.575,371.133 80.575,366.793 "/>
      <polyline fill = "none" stroke-linecap = "square" stroke-linejoin = "miter" stroke = "#262626" stroke-width = "0.500pt" stroke-dasharray = "none" stroke-opacity = "1.000" points = "133.082,371.133 133.082,366.793 "/>
      <polyline fill = "none" stroke-linecap = "square" stroke-linejoin = "miter" stroke = "#262626" stroke-width = "0.500pt" stroke-dasharray = "none" stroke-opacity = "1.000" points = "185.589,371.133 185.589,366.793 "/>
      <polyline fill = "none" stroke-linecap = "square" stroke-linejoin = "miter" stroke = "#262626" stroke-width = "0.500pt" stroke-dasharray = "none" stroke-opacity = "1.000" points = "238.096,371.133 238.096,366.793 "/>
      <polyline fill = "none" stroke-linecap = "square" stroke-linejoin = "miter" stroke = "#262626" stroke-width = "0.500pt" stroke-dasharray = "none" stroke-opacity = "1.000" points = "290.603,371.133 290.603,366.793 "/>
      <polyline fill = "none" stroke-linecap = "square" stroke-linejoin = "miter" stroke = "#262626" stroke-width = "0.500pt" stroke-dasharray = "none" stroke-opacity = "1.000" points = "343.110,371.133 343.110,366.793 "/>
      <polyline fill = "none" stroke-linecap = "square" stroke-linejoin = "miter" stroke = "#262626" stroke-width = "0.500pt" stroke-dasharray = "none" stroke-opacity = "1.000" points = "395.617,371.133 395.617,366.793 "/>
      <polyline fill = "none" stroke-linecap = "square" stroke-linejoin = "miter" stroke = "#262626" stroke-width = "0.500pt" stroke-dasharray = "none" stroke-opacity = "1.000" points = "448.124,371.133 448.124,366.793 "/>
      <polyline fill = "none" stroke-linecap = "square" stroke-linejoin = "miter" stroke = "#262626" stroke-width = "0.500pt" stroke-dasharray = "none" stroke-opacity = "1.000" points = "500.631,371.133 500.631,366.793 "/>
      <polyline fill = "none" stroke-linecap = "square" stroke-linejoin = "miter" stroke = "#262626" stroke-width = "0.500pt" stroke-dasharray = "none" stroke-opacity = "1.000" points = "74.491,371.133 505.109,371.133 "/>
      <polyline fill = "none" stroke-linecap = "square" stroke-linejoin = "miter" stroke = "#262626" stroke-width = "0.500pt" stroke-dasharray = "none" stroke-opacity = "1.000" points = "80.575,31.500 80.575,35.840 "/>
      <polyline fill = "none" stroke-linecap = "square" stroke-linejoin = "miter" stroke = "#262626" stroke-width = "0.500pt" stroke-dasharray = "none" stroke-opacity = "1.000" points = "133.082,31.500 133.082,35.840 "/>
      <polyline fill = "none" stroke-linecap = "square" stroke-linejoin = "miter" stroke = "#262626" stroke-width = "0.500pt" stroke-dasharray = "none" stroke-opacity = "1.000" points = "185.589,31.500 185.589,35.840 "/>
      <polyline fill = "none" stroke-linecap = "square" stroke-linejoin = "miter" stroke = "#262626" stroke-width = "0.500pt" stroke-dasharray = "none" stroke-opacity = "1.000" points = "238.096,31.500 238.096,35.840 "/>
      <polyline fill = "none" stroke-linecap = "square" stroke-linejoin = "miter" stroke = "#262626" stroke-width = "0.500pt" stroke-dasharray = "none" stroke-opacity = "1.000" points = "290.603,31.500 290.603,35.840 "/>
      <polyline fill = "none" stroke-linecap = "square" stroke-linejoin = "miter" stroke = "#262626" stroke-width = "0.500pt" stroke-dasharray = "none" stroke-opacity = "1.000" points = "343.110,31.500 343.110,35.840 "/>
      <polyline fill = "none" stroke-linecap = "square" stroke-linejoin = "miter" stroke = "#262626" stroke-width = "0.500pt" stroke-dasharray = "none" stroke-opacity = "1.000" points = "395.617,31.500 395.617,35.840 "/>
      <polyline fill = "none" stroke-linecap = "square" stroke-linejoin = "miter" stroke = "#262626" stroke-width = "0.500pt" stroke-dasharray = "none" stroke-opacity = "1.000" points = "448.124,31.500 448.124,35.840 "/>
      <polyline fill = "none" stroke-linecap = "square" stroke-linejoin = "miter" stroke = "#262626" stroke-width = "0.500pt" stroke-dasharray = "none" stroke-opacity = "1.000" points = "500.631,31.500 500.631,35.840 "/>
      <polyline fill = "none" stroke-linecap = "square" stroke-linejoin = "miter" stroke = "#262626" stroke-width = "0.500pt" stroke-dasharray = "none" stroke-opacity = "1.000" points = "74.491,31.500 505.109,31.500 "/>
  <g transform = "translate(80.575,377.926)">
    <g transform = "rotate(-0.000)">
      <text x = "0.000" y = "0.9em" font-family = "Helvetica" text-anchor = "middle" dominant-baseline = "auto" font-size = "10.000pt" fill = "#262626"><tspan>1.85</tspan></text>
    </g>
  </g>
  <g transform = "translate(133.082,377.926)">
    <g transform = "rotate(-0.000)">
      <text x = "0.000" y = "0.9em" font-family = "Helvetica" text-anchor = "middle" dominant-baseline = "auto" font-size = "10.000pt" fill = "#262626"><tspan>1.9</tspan></text>
    </g>
  </g>
  <g transform = "translate(185.589,377.926)">
    <g transform = "rotate(-0.000)">
      <text x = "0.000" y = "0.9em" font-family = "Helvetica" text-anchor = "middle" dominant-baseline = "auto" font-size = "10.000pt" fill = "#262626"><tspan>1.95</tspan></text>
    </g>
  </g>
  <g transform = "translate(238.096,377.926)">
    <g transform = "rotate(-0.000)">
      <text x = "0.000" y = "0.9em" font-family = "Helvetica" text-anchor = "middle" dominant-baseline = "auto" font-size = "10.000pt" fill = "#262626"><tspan>2</tspan></text>
    </g>
  </g>
  <g transform = "translate(290.603,377.926)">
    <g transform = "rotate(-0.000)">
      <text x = "0.000" y = "0.9em" font-family = "Helvetica" text-anchor = "middle" dominant-baseline = "auto" font-size = "10.000pt" fill = "#262626"><tspan>2.05</tspan></text>
    </g>
  </g>
  <g transform = "translate(343.110,377.926)">
    <g transform = "rotate(-0.000)">
      <text x = "0.000" y = "0.9em" font-family = "Helvetica" text-anchor = "middle" dominant-baseline = "auto" font-size = "10.000pt" fill = "#262626"><tspan>2.1</tspan></text>
    </g>
  </g>
  <g transform = "translate(395.617,377.926)">
    <g transform = "rotate(-0.000)">
      <text x = "0.000" y = "0.9em" font-family = "Helvetica" text-anchor = "middle" dominant-baseline = "auto" font-size = "10.000pt" fill = "#262626"><tspan>2.15</tspan></text>
    </g>
  </g>
  <g transform = "translate(448.124,377.926)">
    <g transform = "rotate(-0.000)">
      <text x = "0.000" y = "0.9em" font-family = "Helvetica" text-anchor = "middle" dominant-baseline = "auto" font-size = "10.000pt" fill = "#262626"><tspan>2.2</tspan></text>
    </g>
  </g>
  <g transform = "translate(500.631,377.926)">
    <g transform = "rotate(-0.000)">
      <text x = "0.000" y = "0.9em" font-family = "Helvetica" text-anchor = "middle" dominant-baseline = "auto" font-size = "10.000pt" fill = "#262626"><tspan>2.25</tspan></text>
    </g>
  </g>
      <polyline fill = "none" stroke-linecap = "square" stroke-linejoin = "miter" stroke = "#262626" stroke-width = "0.500pt" stroke-dasharray = "none" stroke-opacity = "1.000" points = "74.491,325.942 78.797,325.942 "/>
      <polyline fill = "none" stroke-linecap = "square" stroke-linejoin = "miter" stroke = "#262626" stroke-width = "0.500pt" stroke-dasharray = "none" stroke-opacity = "1.000" points = "74.491,273.435 78.797,273.435 "/>
      <polyline fill = "none" stroke-linecap = "square" stroke-linejoin = "miter" stroke = "#262626" stroke-width = "0.500pt" stroke-dasharray = "none" stroke-opacity = "1.000" points = "74.491,220.928 78.797,220.928 "/>
      <polyline fill = "none" stroke-linecap = "square" stroke-linejoin = "miter" stroke = "#262626" stroke-width = "0.500pt" stroke-dasharray = "none" stroke-opacity = "1.000" points = "74.491,168.421 78.797,168.421 "/>
      <polyline fill = "none" stroke-linecap = "square" stroke-linejoin = "miter" stroke = "#262626" stroke-width = "0.500pt" stroke-dasharray = "none" stroke-opacity = "1.000" points = "74.491,115.913 78.797,115.913 "/>
      <polyline fill = "none" stroke-linecap = "square" stroke-linejoin = "miter" stroke = "#262626" stroke-width = "0.500pt" stroke-dasharray = "none" stroke-opacity = "1.000" points = "74.491,63.406 78.797,63.406 "/>
      <polyline fill = "none" stroke-linecap = "square" stroke-linejoin = "miter" stroke = "#262626" stroke-width = "0.500pt" stroke-dasharray = "none" stroke-opacity = "1.000" points = "74.491,371.133 74.491,31.500 "/>
      <polyline fill = "none" stroke-linecap = "square" stroke-linejoin = "miter" stroke = "#262626" stroke-width = "0.500pt" stroke-dasharray = "none" stroke-opacity = "1.000" points = "505.109,325.942 500.803,325.942 "/>
      <polyline fill = "none" stroke-linecap = "square" stroke-linejoin = "miter" stroke = "#262626" stroke-width = "0.500pt" stroke-dasharray = "none" stroke-opacity = "1.000" points = "505.109,273.435 500.803,273.435 "/>
      <polyline fill = "none" stroke-linecap = "square" stroke-linejoin = "miter" stroke = "#262626" stroke-width = "0.500pt" stroke-dasharray = "none" stroke-opacity = "1.000" points = "505.109,220.928 500.803,220.928 "/>
      <polyline fill = "none" stroke-linecap = "square" stroke-linejoin = "miter" stroke = "#262626" stroke-width = "0.500pt" stroke-dasharray = "none" stroke-opacity = "1.000" points = "505.109,168.421 500.803,168.421 "/>
      <polyline fill = "none" stroke-linecap = "square" stroke-linejoin = "miter" stroke = "#262626" stroke-width = "0.500pt" stroke-dasharray = "none" stroke-opacity = "1.000" points = "505.109,115.913 500.803,115.913 "/>
      <polyline fill = "none" stroke-linecap = "square" stroke-linejoin = "miter" stroke = "#262626" stroke-width = "0.500pt" stroke-dasharray = "none" stroke-opacity = "1.000" points = "505.109,63.406 500.803,63.406 "/>
      <polyline fill = "none" stroke-linecap = "square" stroke-linejoin = "miter" stroke = "#262626" stroke-width = "0.500pt" stroke-dasharray = "none" stroke-opacity = "1.000" points = "505.109,371.133 505.109,31.500 "/>
  <g transform = "translate(65.878,325.942)">
    <g transform = "rotate(-0.000)">
      <text x = "0.000" y = "0.3em" font-family = "Helvetica" text-anchor = "end" dominant-baseline = "auto" font-size = "10.000pt" fill = "#262626"><tspan>0.1</tspan></text>
    </g>
  </g>
  <g transform = "translate(65.878,273.435)">
    <g transform = "rotate(-0.000)">
      <text x = "0.000" y = "0.3em" font-family = "Helvetica" text-anchor = "end" dominant-baseline = "auto" font-size = "10.000pt" fill = "#262626"><tspan>0.15</tspan></text>
    </g>
  </g>
  <g transform = "translate(65.878,220.928)">
    <g transform = "rotate(-0.000)">
      <text x = "0.000" y = "0.3em" font-family = "Helvetica" text-anchor = "end" dominant-baseline = "auto" font-size = "10.000pt" fill = "#262626"><tspan>0.2</tspan></text>
    </g>
  </g>
  <g transform = "translate(65.878,168.421)">
    <g transform = "rotate(-0.000)">
      <text x = "0.000" y = "0.3em" font-family = "Helvetica" text-anchor = "end" dominant-baseline = "auto" font-size = "10.000pt" fill = "#262626"><tspan>0.25</tspan></text>
    </g>
  </g>
  <g transform = "translate(65.878,115.913)">
    <g transform = "rotate(-0.000)">
      <text x = "0.000" y = "0.3em" font-family = "Helvetica" text-anchor = "end" dominant-baseline = "auto" font-size = "10.000pt" fill = "#262626"><tspan>0.3</tspan></text>
    </g>
  </g>
  <g transform = "translate(65.878,63.406)">
    <g transform = "rotate(-0.000)">
      <text x = "0.000" y = "0.3em" font-family = "Helvetica" text-anchor = "end" dominant-baseline = "auto" font-size = "10.000pt" fill = "#262626"><tspan>0.35</tspan></text>
    </g>
  </g>
      <polyline fill = "none" stroke-linecap = "square" stroke-linejoin = "miter" stroke = "#262626" stroke-width = "0.500pt" stroke-dasharray = "none" stroke-opacity = "1.000" points = "74.491,371.133 74.491,371.133 "/>
    </g>
  </g>
  </g>
</svg>
